<svg width="40" height="41" viewBox="0 0 40 41" fill="none" xmlns="http://www.w3.org/2000/svg">
<path fill-rule="evenodd" clip-rule="evenodd" d="M5.14062 16.1769C9.16207 24.9336 16.3182 31.8955 25.2141 35.6678L25.2422 35.6797L26.9608 36.4458C29.1492 37.4208 31.7215 36.7283 33.1246 34.7864L35.9919 30.8179C36.1671 30.5755 36.1219 30.2385 35.8892 30.0507L30.8835 26.0124C30.6347 25.8117 30.2688 25.8584 30.0784 26.1153L28.1302 28.7442C27.6571 29.3826 26.8026 29.6045 26.0787 29.2768C19.4268 26.2665 14.0814 20.9211 11.0711 14.2692C10.7434 13.5453 10.9653 12.6908 11.6037 12.2177L14.2326 10.2695C14.4894 10.0791 14.5362 9.71321 14.3354 9.46438L10.2966 4.45803C10.1089 4.22534 9.77195 4.18015 9.52956 4.35514L5.53965 7.23549C3.58488 8.64667 2.89647 11.2406 3.89426 13.4353L5.13928 16.1739C5.13972 16.1749 5.14017 16.1759 5.14062 16.1769ZM23.8823 38.769C14.2163 34.6659 6.44172 27.0991 2.07212 17.5822L2.06949 17.5765L0.821859 14.8321C-0.841116 11.1742 0.306222 6.851 3.56418 4.49905L7.55409 1.61869C9.25086 0.393775 11.6094 0.710135 12.9234 2.3389L16.9622 7.34525C18.3675 9.08713 18.0402 11.6485 16.242 12.9811L14.7357 14.0974C17.2802 19.0348 21.3131 23.0676 26.2505 25.6122L27.3668 24.1058C28.6994 22.3077 31.2608 21.9804 33.0026 23.3856L38.0083 27.4239C39.6376 28.7383 39.9535 31.0978 38.7276 32.7945L35.8602 36.763C33.5217 39.9995 29.2346 41.1537 25.5873 39.5286L23.8823 38.769Z" fill="white"/>
</svg>
