<svg width="288" height="139" viewBox="0 0 288 139" fill="none" xmlns="http://www.w3.org/2000/svg">
<path d="M4 109C4 92.4315 17.4315 79 34 79H288V139H34C17.4315 139 4 125.569 4 109V109Z" fill="#FFEE32"></path>
<line x1="6" y1="111" x2="6" y2="11" stroke="#FFEE32" stroke-width="4"></line>
<circle cx="6" cy="12" r="6" fill="#FFEE32"></circle>
<rect x="8" y="83" width="280" height="52" rx="26" fill="black"></rect>
<circle cx="23" cy="109" r="11" fill="white"></circle>
<path d="M75.6847 98.6364V119H72.6023V101.719H72.483L67.6108 104.901V101.957L72.6918 98.6364H75.6847ZM88.2827 119.338C86.7116 119.331 85.3693 118.917 84.2557 118.095C83.142 117.273 82.2902 116.077 81.7003 114.506C81.1103 112.935 80.8153 111.042 80.8153 108.828C80.8153 106.621 81.1103 104.735 81.7003 103.17C82.2969 101.606 83.152 100.413 84.2656 99.5909C85.3859 98.7689 86.7249 98.358 88.2827 98.358C89.8404 98.358 91.1761 98.7723 92.2898 99.6009C93.4034 100.423 94.2552 101.616 94.8452 103.18C95.4418 104.738 95.7401 106.621 95.7401 108.828C95.7401 111.049 95.4451 112.945 94.8551 114.516C94.2652 116.08 93.4134 117.277 92.2997 118.105C91.1861 118.927 89.8471 119.338 88.2827 119.338ZM88.2827 116.683C89.6615 116.683 90.7386 116.01 91.5142 114.665C92.2964 113.319 92.6875 111.374 92.6875 108.828C92.6875 107.138 92.5085 105.709 92.1506 104.543C91.7992 103.369 91.2921 102.481 90.6293 101.878C89.973 101.268 89.1908 100.963 88.2827 100.963C86.9105 100.963 85.8333 101.639 85.0511 102.991C84.2689 104.344 83.8745 106.289 83.8679 108.828C83.8679 110.525 84.0436 111.96 84.3949 113.134C84.7528 114.3 85.2599 115.185 85.9162 115.788C86.5724 116.385 87.3613 116.683 88.2827 116.683ZM101.266 116.474C100.722 116.474 100.255 116.282 99.864 115.898C99.4729 115.507 99.2773 115.036 99.2773 114.486C99.2773 113.942 99.4729 113.478 99.864 113.094C100.255 112.703 100.722 112.507 101.266 112.507C101.81 112.507 102.277 112.703 102.668 113.094C103.059 113.478 103.255 113.942 103.255 114.486C103.255 114.85 103.162 115.185 102.976 115.49C102.797 115.788 102.559 116.027 102.26 116.206C101.962 116.385 101.631 116.474 101.266 116.474ZM101.266 106.273C100.722 106.273 100.255 106.08 99.864 105.696C99.4729 105.305 99.2773 104.834 99.2773 104.284C99.2773 103.741 99.4729 103.277 99.864 102.892C100.255 102.501 100.722 102.305 101.266 102.305C101.81 102.305 102.277 102.501 102.668 102.892C103.059 103.277 103.255 103.741 103.255 104.284C103.255 104.649 103.162 104.983 102.976 105.288C102.797 105.587 102.559 105.825 102.26 106.004C101.962 106.183 101.631 106.273 101.266 106.273ZM114.287 119.338C112.716 119.331 111.373 118.917 110.26 118.095C109.146 117.273 108.294 116.077 107.704 114.506C107.114 112.935 106.819 111.042 106.819 108.828C106.819 106.621 107.114 104.735 107.704 103.17C108.301 101.606 109.156 100.413 110.27 99.5909C111.39 98.7689 112.729 98.358 114.287 98.358C115.844 98.358 117.18 98.7723 118.294 99.6009C119.407 100.423 120.259 101.616 120.849 103.18C121.446 104.738 121.744 106.621 121.744 108.828C121.744 111.049 121.449 112.945 120.859 114.516C120.269 116.08 119.417 117.277 118.304 118.105C117.19 118.927 115.851 119.338 114.287 119.338ZM114.287 116.683C115.665 116.683 116.743 116.01 117.518 114.665C118.3 113.319 118.691 111.374 118.691 108.828C118.691 107.138 118.512 105.709 118.154 104.543C117.803 103.369 117.296 102.481 116.633 101.878C115.977 101.268 115.195 100.963 114.287 100.963C112.914 100.963 111.837 101.639 111.055 102.991C110.273 104.344 109.878 106.289 109.872 108.828C109.872 110.525 110.047 111.96 110.399 113.134C110.757 114.3 111.264 115.185 111.92 115.788C112.576 116.385 113.365 116.683 114.287 116.683ZM132.361 119.338C130.79 119.331 129.447 118.917 128.334 118.095C127.22 117.273 126.368 116.077 125.778 114.506C125.188 112.935 124.893 111.042 124.893 108.828C124.893 106.621 125.188 104.735 125.778 103.17C126.375 101.606 127.23 100.413 128.344 99.5909C129.464 98.7689 130.803 98.358 132.361 98.358C133.919 98.358 135.254 98.7723 136.368 99.6009C137.482 100.423 138.333 101.616 138.923 103.18C139.52 104.738 139.818 106.621 139.818 108.828C139.818 111.049 139.523 112.945 138.933 114.516C138.343 116.08 137.491 117.277 136.378 118.105C135.264 118.927 133.925 119.338 132.361 119.338ZM132.361 116.683C133.74 116.683 134.817 116.01 135.592 114.665C136.375 113.319 136.766 111.374 136.766 108.828C136.766 107.138 136.587 105.709 136.229 104.543C135.877 103.369 135.37 102.481 134.707 101.878C134.051 101.268 133.269 100.963 132.361 100.963C130.989 100.963 129.911 101.639 129.129 102.991C128.347 104.344 127.953 106.289 127.946 108.828C127.946 110.525 128.122 111.96 128.473 113.134C128.831 114.3 129.338 115.185 129.994 115.788C130.651 116.385 131.439 116.683 132.361 116.683Z" fill="#FFEE32"></path>
<path d="M17.8693 6.31534V4.90909H27.6875V6.31534H23.571V18H21.9858V6.31534H17.8693ZM32.6222 18.2045C31.6761 18.2045 30.8601 17.9957 30.174 17.5781C29.4922 17.1562 28.9659 16.5682 28.5952 15.8139C28.2287 15.0554 28.0455 14.1733 28.0455 13.1676C28.0455 12.1619 28.2287 11.2756 28.5952 10.5085C28.9659 9.73722 29.4815 9.13636 30.142 8.70597C30.8068 8.27131 31.5824 8.05398 32.4688 8.05398C32.9801 8.05398 33.4851 8.1392 33.9837 8.30966C34.4822 8.48011 34.9361 8.7571 35.3452 9.14062C35.7543 9.51989 36.0803 10.0227 36.3232 10.6491C36.5661 11.2756 36.6875 12.0469 36.6875 12.9631V13.6023H29.1193V12.2983H35.1534C35.1534 11.7443 35.0426 11.25 34.821 10.8153C34.6037 10.3807 34.2926 10.0376 33.8878 9.78622C33.4872 9.5348 33.0142 9.40909 32.4688 9.40909C31.8679 9.40909 31.348 9.55824 30.9091 9.85653C30.4744 10.1506 30.1399 10.5341 29.9055 11.0071C29.6712 11.4801 29.554 11.9872 29.554 12.5284V13.3977C29.554 14.1392 29.6818 14.7678 29.9375 15.2834C30.1974 15.7947 30.5575 16.1847 31.0178 16.4531C31.478 16.7173 32.0128 16.8494 32.6222 16.8494C33.0185 16.8494 33.3764 16.794 33.696 16.6832C34.0199 16.5682 34.299 16.3977 34.5334 16.1719C34.7678 15.9418 34.9489 15.6562 35.0767 15.3153L36.5341 15.7244C36.3807 16.2188 36.1229 16.6534 35.7607 17.0284C35.3984 17.3991 34.951 17.6889 34.4183 17.8977C33.8857 18.1023 33.2869 18.2045 32.6222 18.2045ZM42.9709 18.2045C42.0845 18.2045 41.3068 17.9936 40.6378 17.5717C39.973 17.1499 39.4531 16.5597 39.0781 15.8011C38.7074 15.0426 38.522 14.1562 38.522 13.142C38.522 12.1193 38.7074 11.2266 39.0781 10.4638C39.4531 9.70099 39.973 9.10866 40.6378 8.68679C41.3068 8.26491 42.0845 8.05398 42.9709 8.05398C43.8572 8.05398 44.6328 8.26491 45.2976 8.68679C45.9666 9.10866 46.4865 9.70099 46.8572 10.4638C47.2322 11.2266 47.4197 12.1193 47.4197 13.142C47.4197 14.1562 47.2322 15.0426 46.8572 15.8011C46.4865 16.5597 45.9666 17.1499 45.2976 17.5717C44.6328 17.9936 43.8572 18.2045 42.9709 18.2045ZM42.9709 16.8494C43.6442 16.8494 44.1982 16.6768 44.6328 16.3317C45.0675 15.9865 45.3892 15.5327 45.598 14.9702C45.8068 14.4077 45.9112 13.7983 45.9112 13.142C45.9112 12.4858 45.8068 11.8743 45.598 11.3075C45.3892 10.7408 45.0675 10.2827 44.6328 9.93324C44.1982 9.58381 43.6442 9.40909 42.9709 9.40909C42.2976 9.40909 41.7436 9.58381 41.3089 9.93324C40.8743 10.2827 40.5526 10.7408 40.3438 11.3075C40.1349 11.8743 40.0305 12.4858 40.0305 13.142C40.0305 13.7983 40.1349 14.4077 40.3438 14.9702C40.5526 15.5327 40.8743 15.9865 41.3089 16.3317C41.7436 16.6768 42.2976 16.8494 42.9709 16.8494ZM49.7225 21.6818V8.18182H51.1799V9.74148H51.3588C51.4696 9.57102 51.623 9.35369 51.8191 9.08949C52.0194 8.82102 52.3049 8.58239 52.6756 8.37358C53.0506 8.16051 53.5577 8.05398 54.1969 8.05398C55.0236 8.05398 55.7523 8.26065 56.383 8.67401C57.0137 9.08736 57.5059 9.6733 57.8596 10.4318C58.2132 11.1903 58.3901 12.0852 58.3901 13.1165C58.3901 14.1562 58.2132 15.0575 57.8596 15.8203C57.5059 16.5788 57.0158 17.1669 56.3894 17.5845C55.763 17.9979 55.0407 18.2045 54.2225 18.2045C53.5918 18.2045 53.0868 18.1001 52.7076 17.8913C52.3283 17.6783 52.0364 17.4375 51.8319 17.169C51.6273 16.8963 51.4696 16.6705 51.3588 16.4915H51.231V21.6818H49.7225ZM51.2054 13.0909C51.2054 13.8324 51.3141 14.4865 51.5314 15.0533C51.7488 15.6158 52.0662 16.0568 52.4838 16.3764C52.9015 16.6918 53.4128 16.8494 54.0179 16.8494C54.6486 16.8494 55.1749 16.6832 55.5968 16.3509C56.0229 16.0142 56.3425 15.5625 56.5556 14.9957C56.7729 14.4247 56.8816 13.7898 56.8816 13.0909C56.8816 12.4006 56.775 11.7784 56.562 11.2244C56.3532 10.6662 56.0357 10.2251 55.6096 9.90128C55.1877 9.57315 54.6571 9.40909 54.0179 9.40909C53.4043 9.40909 52.8887 9.56463 52.4711 9.87571C52.0534 10.1825 51.7381 10.6129 51.525 11.1669C51.312 11.7166 51.2054 12.358 51.2054 13.0909ZM64.8077 18.2045C63.8617 18.2045 63.0456 17.9957 62.3596 17.5781C61.6777 17.1562 61.1515 16.5682 60.7807 15.8139C60.4142 15.0554 60.231 14.1733 60.231 13.1676C60.231 12.1619 60.4142 11.2756 60.7807 10.5085C61.1515 9.73722 61.6671 9.13636 62.3276 8.70597C62.9924 8.27131 63.7679 8.05398 64.6543 8.05398C65.1657 8.05398 65.6706 8.1392 66.1692 8.30966C66.6678 8.48011 67.1216 8.7571 67.5307 9.14062C67.9398 9.51989 68.2658 10.0227 68.5087 10.6491C68.7516 11.2756 68.873 12.0469 68.873 12.9631V13.6023H61.3049V12.2983H67.339C67.339 11.7443 67.2282 11.25 67.0066 10.8153C66.7892 10.3807 66.4782 10.0376 66.0733 9.78622C65.6728 9.5348 65.1998 9.40909 64.6543 9.40909C64.0534 9.40909 63.5336 9.55824 63.0946 9.85653C62.66 10.1506 62.3255 10.5341 62.0911 11.0071C61.8567 11.4801 61.7395 11.9872 61.7395 12.5284V13.3977C61.7395 14.1392 61.8674 14.7678 62.123 15.2834C62.383 15.7947 62.7431 16.1847 63.2033 16.4531C63.6635 16.7173 64.1983 16.8494 64.8077 16.8494C65.204 16.8494 65.562 16.794 65.8816 16.6832C66.2054 16.5682 66.4846 16.3977 66.7189 16.1719C66.9533 15.9418 67.1344 15.6562 67.2623 15.3153L68.7196 15.7244C68.5662 16.2188 68.3084 16.6534 67.9462 17.0284C67.584 17.3991 67.1365 17.6889 66.6039 17.8977C66.0712 18.1023 65.4725 18.2045 64.8077 18.2045ZM70.2537 9.58807V8.18182H78.231V9.58807H75.0094V18H73.5009V9.58807H70.2537ZM81.94 15.7756L86.6701 8.18182H88.4087V18H86.9002V10.4062L82.1957 18H80.4315V8.18182H81.94V15.7756ZM98.7399 8.18182V18H97.2314V8.18182H98.7399ZM98.1518 12.8608V14.267C97.8109 14.3949 97.4721 14.5078 97.1355 14.6058C96.7988 14.6996 96.4451 14.7741 96.0744 14.8295C95.7037 14.8807 95.2967 14.9062 94.8535 14.9062C93.7413 14.9062 92.8485 14.6058 92.1752 14.005C91.5062 13.4041 91.1717 12.5028 91.1717 11.3011V8.15625H92.6802V11.3011C92.6802 11.804 92.7761 12.2173 92.9679 12.5412C93.1596 12.8651 93.4196 13.1058 93.7477 13.2635C94.0758 13.4212 94.4444 13.5 94.8535 13.5C95.4927 13.5 96.0701 13.4425 96.5858 13.3274C97.1056 13.2081 97.6277 13.0526 98.1518 12.8608ZM105.624 18.2045C104.678 18.2045 103.862 17.9957 103.176 17.5781C102.494 17.1562 101.968 16.5682 101.597 15.8139C101.231 15.0554 101.047 14.1733 101.047 13.1676C101.047 12.1619 101.231 11.2756 101.597 10.5085C101.968 9.73722 102.483 9.13636 103.144 8.70597C103.809 8.27131 104.584 8.05398 105.471 8.05398C105.982 8.05398 106.487 8.1392 106.986 8.30966C107.484 8.48011 107.938 8.7571 108.347 9.14062C108.756 9.51989 109.082 10.0227 109.325 10.6491C109.568 11.2756 109.689 12.0469 109.689 12.9631V13.6023H102.121V12.2983H108.155C108.155 11.7443 108.045 11.25 107.823 10.8153C107.606 10.3807 107.295 10.0376 106.89 9.78622C106.489 9.5348 106.016 9.40909 105.471 9.40909C104.87 9.40909 104.35 9.55824 103.911 9.85653C103.476 10.1506 103.142 10.5341 102.907 11.0071C102.673 11.4801 102.556 11.9872 102.556 12.5284V13.3977C102.556 14.1392 102.684 14.7678 102.939 15.2834C103.199 15.7947 103.559 16.1847 104.02 16.4531C104.48 16.7173 105.015 16.8494 105.624 16.8494C106.02 16.8494 106.378 16.794 106.698 16.6832C107.022 16.5682 107.301 16.3977 107.535 16.1719C107.77 15.9418 107.951 15.6562 108.079 15.3153L109.536 15.7244C109.383 16.2188 109.125 16.6534 108.763 17.0284C108.4 17.3991 107.953 17.6889 107.42 17.8977C106.888 18.1023 106.289 18.2045 105.624 18.2045ZM115.973 18.2045C115.052 18.2045 114.26 17.9872 113.595 17.5526C112.93 17.1179 112.419 16.5192 112.061 15.7564C111.703 14.9936 111.524 14.1222 111.524 13.142C111.524 12.1449 111.707 11.2649 112.074 10.5021C112.444 9.73509 112.96 9.13636 113.621 8.70597C114.285 8.27131 115.061 8.05398 115.947 8.05398C116.638 8.05398 117.26 8.18182 117.814 8.4375C118.368 8.69318 118.822 9.05114 119.175 9.51136C119.529 9.97159 119.748 10.5085 119.834 11.1222H118.325C118.21 10.6747 117.954 10.2784 117.558 9.93324C117.166 9.58381 116.638 9.40909 115.973 9.40909C115.385 9.40909 114.869 9.5625 114.426 9.86932C113.987 10.1719 113.644 10.6001 113.397 11.1541C113.154 11.7038 113.032 12.3494 113.032 13.0909C113.032 13.8494 113.152 14.5099 113.39 15.0724C113.633 15.6349 113.974 16.0717 114.413 16.3828C114.856 16.6939 115.376 16.8494 115.973 16.8494C116.365 16.8494 116.721 16.7812 117.04 16.6449C117.36 16.5085 117.631 16.3125 117.852 16.0568C118.074 15.8011 118.231 15.4943 118.325 15.1364H119.834C119.748 15.7159 119.537 16.2379 119.201 16.7024C118.868 17.1626 118.427 17.5291 117.878 17.8018C117.332 18.0703 116.697 18.2045 115.973 18.2045ZM122.039 18V8.18182H123.547V12.4517H124.545L128.073 8.18182H130.016L126.053 12.9119L130.067 18H128.124L124.903 13.858H123.547V18H122.039ZM133.215 15.7756L137.945 8.18182H139.684V18H138.176V10.4062L133.471 18H131.707V8.18182H133.215V15.7756ZM143.956 15.7756L148.686 8.18182H150.424V18H148.916V10.4062L144.211 18H142.447V8.18182H143.956V15.7756ZM147.689 4.90909H149.095C149.095 5.59943 148.856 6.16406 148.379 6.60298C147.902 7.0419 147.254 7.26136 146.436 7.26136C145.63 7.26136 144.989 7.0419 144.512 6.60298C144.039 6.16406 143.802 5.59943 143.802 4.90909H145.208C145.208 5.24148 145.3 5.53338 145.483 5.7848C145.671 6.03622 145.988 6.16193 146.436 6.16193C146.883 6.16193 147.203 6.03622 147.395 5.7848C147.591 5.53338 147.689 5.24148 147.689 4.90909ZM158.454 18V4.90909H166.355V6.31534H160.04V10.4062H163.363C164.301 10.4062 165.091 10.5597 165.735 10.8665C166.383 11.1733 166.873 11.6058 167.205 12.1641C167.542 12.7223 167.71 13.3807 167.71 14.1392C167.71 14.8977 167.542 15.5668 167.205 16.1463C166.873 16.7259 166.383 17.1797 165.735 17.5078C165.091 17.8359 164.301 18 163.363 18H158.454ZM160.04 16.6193H163.363C163.96 16.6193 164.465 16.5 164.878 16.2614C165.296 16.0185 165.611 15.7074 165.824 15.3281C166.042 14.9446 166.15 14.5398 166.15 14.1136C166.15 13.4872 165.91 12.9482 165.428 12.4964C164.947 12.0405 164.258 11.8125 163.363 11.8125H160.04V16.6193ZM169.246 18V16.5938H169.604C169.898 16.5938 170.143 16.5362 170.339 16.4212C170.535 16.3018 170.692 16.0952 170.812 15.8011C170.935 15.5028 171.029 15.0895 171.093 14.5611C171.161 14.0284 171.21 13.3509 171.24 12.5284L171.419 8.18182H177.964V18H176.456V9.58807H172.851L172.697 13.0909C172.663 13.8963 172.591 14.6058 172.48 15.2195C172.374 15.8288 172.21 16.3402 171.988 16.7536C171.771 17.1669 171.481 17.478 171.119 17.6868C170.756 17.8956 170.303 18 169.757 18H169.246ZM184.721 18.2045C183.835 18.2045 183.057 17.9936 182.388 17.5717C181.723 17.1499 181.203 16.5597 180.828 15.8011C180.457 15.0426 180.272 14.1562 180.272 13.142C180.272 12.1193 180.457 11.2266 180.828 10.4638C181.203 9.70099 181.723 9.10866 182.388 8.68679C183.057 8.26491 183.835 8.05398 184.721 8.05398C185.607 8.05398 186.383 8.26491 187.048 8.68679C187.717 9.10866 188.237 9.70099 188.607 10.4638C188.982 11.2266 189.17 12.1193 189.17 13.142C189.17 14.1562 188.982 15.0426 188.607 15.8011C188.237 16.5597 187.717 17.1499 187.048 17.5717C186.383 17.9936 185.607 18.2045 184.721 18.2045ZM184.721 16.8494C185.394 16.8494 185.948 16.6768 186.383 16.3317C186.817 15.9865 187.139 15.5327 187.348 14.9702C187.557 14.4077 187.661 13.7983 187.661 13.142C187.661 12.4858 187.557 11.8743 187.348 11.3075C187.139 10.7408 186.817 10.2827 186.383 9.93324C185.948 9.58381 185.394 9.40909 184.721 9.40909C184.048 9.40909 183.494 9.58381 183.059 9.93324C182.624 10.2827 182.303 10.7408 182.094 11.3075C181.885 11.8743 181.781 12.4858 181.781 13.142C181.781 13.7983 181.885 14.4077 182.094 14.9702C182.303 15.5327 182.624 15.9865 183.059 16.3317C183.494 16.6768 184.048 16.8494 184.721 16.8494ZM191.472 18V8.18182H192.981V12.4517H193.978L197.507 8.18182H199.45L195.487 12.9119L199.501 18H197.558L194.336 13.858H192.981V18H191.472Z" fill="#FFEE32"></path>
<path d="M18.3551 45V43.8494L22.6761 39.1193C23.1832 38.5653 23.6009 38.0838 23.929 37.6747C24.2571 37.2614 24.5 36.8736 24.6577 36.5114C24.8196 36.1449 24.9006 35.7614 24.9006 35.3608C24.9006 34.9006 24.7898 34.5021 24.5682 34.1655C24.3509 33.8288 24.0526 33.5689 23.6733 33.3857C23.294 33.2024 22.8679 33.1108 22.3949 33.1108C21.892 33.1108 21.4531 33.2152 21.0781 33.424C20.7074 33.6286 20.4197 33.9162 20.2152 34.2869C20.0149 34.6577 19.9148 35.0923 19.9148 35.5909H18.4062C18.4062 34.8239 18.5831 34.1506 18.9368 33.571C19.2905 32.9915 19.772 32.5398 20.3814 32.2159C20.995 31.892 21.6832 31.7301 22.446 31.7301C23.2131 31.7301 23.8928 31.892 24.4851 32.2159C25.0774 32.5398 25.5419 32.9766 25.8786 33.5263C26.2152 34.076 26.3835 34.6875 26.3835 35.3608C26.3835 35.8423 26.2962 36.3132 26.1214 36.7734C25.951 37.2294 25.6527 37.7386 25.2266 38.3011C24.8047 38.8594 24.2188 39.5412 23.4688 40.3466L20.5284 43.4915V43.5938H26.6136V45H18.3551ZM41.9098 35.1818V45H40.4013V35.1818H41.9098ZM41.3217 39.8608V41.267C40.9808 41.3949 40.642 41.5078 40.3054 41.6058C39.9688 41.6996 39.6151 41.7741 39.2443 41.8295C38.8736 41.8807 38.4666 41.9062 38.0234 41.9062C36.9112 41.9062 36.0185 41.6058 35.3452 41.005C34.6761 40.4041 34.3416 39.5028 34.3416 38.3011V35.1562H35.8501V38.3011C35.8501 38.804 35.946 39.2173 36.1378 39.5412C36.3295 39.8651 36.5895 40.1058 36.9176 40.2635C37.2457 40.4212 37.6143 40.5 38.0234 40.5C38.6626 40.5 39.2401 40.4425 39.7557 40.3274C40.2756 40.2081 40.7976 40.0526 41.3217 39.8608ZM47.5668 45.2301C46.9446 45.2301 46.38 45.1129 45.8729 44.8786C45.3658 44.6399 44.9631 44.2969 44.6648 43.8494C44.3665 43.3977 44.2173 42.8523 44.2173 42.2131C44.2173 41.6506 44.3281 41.1946 44.5497 40.8452C44.7713 40.4915 45.0675 40.2145 45.4382 40.0142C45.8089 39.8139 46.218 39.6648 46.6655 39.5668C47.1172 39.4645 47.571 39.3835 48.027 39.3239C48.6236 39.2472 49.1072 39.1896 49.478 39.1513C49.853 39.1087 50.1257 39.0384 50.2962 38.9403C50.4709 38.8423 50.5582 38.6719 50.5582 38.429V38.3778C50.5582 37.7472 50.3857 37.2571 50.0405 36.9077C49.6996 36.5582 49.1818 36.3835 48.4872 36.3835C47.767 36.3835 47.2024 36.5412 46.7933 36.8565C46.3842 37.1719 46.0966 37.5085 45.9304 37.8665L44.4986 37.3551C44.7543 36.7585 45.0952 36.294 45.5213 35.9616C45.9517 35.625 46.4205 35.3906 46.9276 35.2585C47.4389 35.1222 47.9418 35.054 48.4361 35.054C48.7514 35.054 49.1136 35.0923 49.5227 35.169C49.9361 35.2415 50.3345 35.3928 50.718 35.6229C51.1058 35.853 51.4276 36.2003 51.6832 36.6648C51.9389 37.1293 52.0668 37.7514 52.0668 38.5312V45H50.5582V43.6705H50.4815C50.3793 43.8835 50.2088 44.1115 49.9702 44.3544C49.7315 44.5973 49.4141 44.804 49.0178 44.9744C48.6214 45.1449 48.1378 45.2301 47.5668 45.2301ZM47.7969 43.875C48.3935 43.875 48.8963 43.7578 49.3054 43.5234C49.7188 43.2891 50.0298 42.9865 50.2386 42.6158C50.4517 42.245 50.5582 41.8551 50.5582 41.446V40.0653C50.4943 40.142 50.3537 40.2124 50.1364 40.2763C49.9233 40.3359 49.6761 40.3892 49.3949 40.4361C49.1179 40.4787 48.8473 40.517 48.5831 40.5511C48.3232 40.581 48.1122 40.6065 47.9503 40.6278C47.5582 40.679 47.1918 40.7621 46.8509 40.8771C46.5142 40.9879 46.2415 41.1562 46.0327 41.3821C45.8281 41.6037 45.7259 41.9062 45.7259 42.2898C45.7259 42.8139 45.9197 43.2102 46.3075 43.4787C46.6996 43.7429 47.196 43.875 47.7969 43.875ZM58.8088 45.2045C57.8883 45.2045 57.0957 44.9872 56.4309 44.5526C55.7662 44.1179 55.2548 43.5192 54.8968 42.7564C54.5389 41.9936 54.3599 41.1222 54.3599 40.142C54.3599 39.1449 54.5431 38.2649 54.9096 37.5021C55.2804 36.7351 55.796 36.1364 56.4565 35.706C57.1213 35.2713 57.8968 35.054 58.7832 35.054C59.4735 35.054 60.0957 35.1818 60.6497 35.4375C61.2037 35.6932 61.6575 36.0511 62.0112 36.5114C62.3649 36.9716 62.5843 37.5085 62.6696 38.1222H61.161C61.046 37.6747 60.7903 37.2784 60.394 36.9332C60.002 36.5838 59.4735 36.4091 58.8088 36.4091C58.2207 36.4091 57.7051 36.5625 57.2619 36.8693C56.823 37.1719 56.4799 37.6001 56.2328 38.1541C55.9899 38.7038 55.8684 39.3494 55.8684 40.0909C55.8684 40.8494 55.9877 41.5099 56.2264 42.0724C56.4693 42.6349 56.8102 43.0717 57.2491 43.3828C57.6923 43.6939 58.2122 43.8494 58.8088 43.8494C59.2008 43.8494 59.5566 43.7812 59.8762 43.6449C60.1958 43.5085 60.4664 43.3125 60.688 43.0568C60.9096 42.8011 61.0673 42.4943 61.161 42.1364H62.6696C62.5843 42.7159 62.3734 43.2379 62.0368 43.7024C61.7044 44.1626 61.2633 44.5291 60.7136 44.8018C60.1681 45.0703 59.5332 45.2045 58.8088 45.2045ZM67.764 45.2301C67.1419 45.2301 66.5772 45.1129 66.0701 44.8786C65.563 44.6399 65.1603 44.2969 64.862 43.8494C64.5637 43.3977 64.4146 42.8523 64.4146 42.2131C64.4146 41.6506 64.5254 41.1946 64.747 40.8452C64.9686 40.4915 65.2647 40.2145 65.6355 40.0142C66.0062 39.8139 66.4153 39.6648 66.8627 39.5668C67.3145 39.4645 67.7683 39.3835 68.2243 39.3239C68.8208 39.2472 69.3045 39.1896 69.6752 39.1513C70.0502 39.1087 70.323 39.0384 70.4934 38.9403C70.6681 38.8423 70.7555 38.6719 70.7555 38.429V38.3778C70.7555 37.7472 70.5829 37.2571 70.2377 36.9077C69.8968 36.5582 69.3791 36.3835 68.6845 36.3835C67.9643 36.3835 67.3997 36.5412 66.9906 36.8565C66.5815 37.1719 66.2939 37.5085 66.1277 37.8665L64.6958 37.3551C64.9515 36.7585 65.2924 36.294 65.7186 35.9616C66.149 35.625 66.6177 35.3906 67.1248 35.2585C67.6362 35.1222 68.139 35.054 68.6333 35.054C68.9487 35.054 69.3109 35.0923 69.72 35.169C70.1333 35.2415 70.5318 35.3928 70.9153 35.6229C71.3031 35.853 71.6248 36.2003 71.8805 36.6648C72.1362 37.1293 72.264 37.7514 72.264 38.5312V45H70.7555V43.6705H70.6788C70.5765 43.8835 70.4061 44.1115 70.1674 44.3544C69.9288 44.5973 69.6113 44.804 69.215 44.9744C68.8187 45.1449 68.3351 45.2301 67.764 45.2301ZM67.9941 43.875C68.5907 43.875 69.0936 43.7578 69.5027 43.5234C69.916 43.2891 70.2271 42.9865 70.4359 42.6158C70.649 42.245 70.7555 41.8551 70.7555 41.446V40.0653C70.6916 40.142 70.551 40.2124 70.3336 40.2763C70.1206 40.3359 69.8734 40.3892 69.5922 40.4361C69.3152 40.4787 69.0446 40.517 68.7804 40.5511C68.5204 40.581 68.3095 40.6065 68.1476 40.6278C67.7555 40.679 67.389 40.7621 67.0481 40.8771C66.7115 40.9879 66.4387 41.1562 66.2299 41.3821C66.0254 41.6037 65.9231 41.9062 65.9231 42.2898C65.9231 42.8139 66.117 43.2102 66.5048 43.4787C66.8968 43.7429 67.3933 43.875 67.9941 43.875Z" fill="white"></path>
</svg>
