<svg width="288" height="139" fill="none" xmlns="http://www.w3.org/2000/svg"><path d="M4 109c0-16.569 13.431-30 30-30h254v60H34c-16.569 0-30-13.431-30-30Z" fill="#FFEE32"/><path stroke="#FFEE32" stroke-width="4" d="M6 111V11"/><circle cx="6" cy="12" r="6" fill="#FFEE32"/><rect x="8" y="83" width="280" height="52" rx="26" fill="#000"/><circle cx="23" cy="109" r="11" fill="#fff"/><path d="M75.685 98.636V119h-3.083v-17.281h-.119l-4.872 3.182v-2.944l5.08-3.32h2.994Zm12.598 20.702c-1.571-.007-2.914-.421-4.027-1.243-1.114-.822-1.966-2.018-2.556-3.589-.59-1.571-.885-3.464-.885-5.678 0-2.207.295-4.093.885-5.658.597-1.564 1.452-2.757 2.566-3.58 1.12-.821 2.459-1.232 4.017-1.232 1.557 0 2.893.414 4.007 1.243 1.113.822 1.965 2.015 2.555 3.579.597 1.558.895 3.441.895 5.648 0 2.221-.295 4.117-.885 5.688-.59 1.564-1.442 2.761-2.555 3.589-1.114.822-2.453 1.233-4.017 1.233Zm0-2.655c1.379 0 2.456-.673 3.231-2.018.782-1.346 1.174-3.291 1.174-5.837 0-1.69-.18-3.119-.537-4.285-.352-1.174-.859-2.062-1.522-2.665a3.329 3.329 0 0 0-2.346-.915c-1.373 0-2.45.676-3.232 2.028-.782 1.353-1.177 3.298-1.183 5.837 0 1.697.176 3.132.527 4.306.358 1.166.865 2.051 1.521 2.654.656.597 1.445.895 2.367.895Zm12.983-.209a1.93 1.93 0 0 1-1.402-.576 1.925 1.925 0 0 1-.587-1.412c0-.544.196-1.008.587-1.392a1.913 1.913 0 0 1 1.402-.587c.544 0 1.011.196 1.402.587.391.384.587.848.587 1.392 0 .364-.093.699-.279 1.004a2.054 2.054 0 0 1-.716.716 1.892 1.892 0 0 1-.994.268Zm0-10.201a1.931 1.931 0 0 1-1.402-.577 1.925 1.925 0 0 1-.587-1.412c0-.543.196-1.007.587-1.392a1.913 1.913 0 0 1 1.402-.587c.544 0 1.011.196 1.402.587.391.385.587.849.587 1.392 0 .365-.093.699-.279 1.004a2.046 2.046 0 0 1-.716.716 1.893 1.893 0 0 1-.994.269Zm13.021 13.065c-1.571-.007-2.914-.421-4.027-1.243-1.114-.822-1.966-2.018-2.556-3.589-.59-1.571-.885-3.464-.885-5.678 0-2.207.295-4.093.885-5.658.597-1.564 1.452-2.757 2.566-3.58 1.12-.821 2.459-1.232 4.017-1.232 1.557 0 2.893.414 4.007 1.243 1.113.822 1.965 2.015 2.555 3.579.597 1.558.895 3.441.895 5.648 0 2.221-.295 4.117-.885 5.688-.59 1.564-1.442 2.761-2.555 3.589-1.114.822-2.453 1.233-4.017 1.233Zm0-2.655c1.378 0 2.456-.673 3.231-2.018.782-1.346 1.173-3.291 1.173-5.837 0-1.69-.179-3.119-.537-4.285-.351-1.174-.858-2.062-1.521-2.665a3.327 3.327 0 0 0-2.346-.915c-1.373 0-2.45.676-3.232 2.028-.782 1.353-1.177 3.298-1.183 5.837 0 1.697.175 3.132.527 4.306.358 1.166.865 2.051 1.521 2.654.656.597 1.445.895 2.367.895Zm18.074 2.655c-1.571-.007-2.914-.421-4.027-1.243-1.114-.822-1.966-2.018-2.556-3.589-.59-1.571-.885-3.464-.885-5.678 0-2.207.295-4.093.885-5.658.597-1.564 1.452-2.757 2.566-3.58 1.12-.821 2.459-1.232 4.017-1.232 1.558 0 2.893.414 4.007 1.243 1.114.822 1.965 2.015 2.555 3.579.597 1.558.895 3.441.895 5.648 0 2.221-.295 4.117-.885 5.688-.59 1.564-1.442 2.761-2.555 3.589-1.114.822-2.453 1.233-4.017 1.233Zm0-2.655c1.379 0 2.456-.673 3.231-2.018.783-1.346 1.174-3.291 1.174-5.837 0-1.69-.179-3.119-.537-4.285-.352-1.174-.859-2.062-1.522-2.665a3.327 3.327 0 0 0-2.346-.915c-1.372 0-2.45.676-3.232 2.028-.782 1.353-1.176 3.298-1.183 5.837 0 1.697.176 3.132.527 4.306.358 1.166.865 2.051 1.521 2.654.657.597 1.445.895 2.367.895ZM17.87 6.315V4.91h9.817v1.406h-4.116V18h-1.585V6.315h-4.117Zm14.752 11.89c-.946 0-1.762-.21-2.448-.627a4.204 4.204 0 0 1-1.579-1.764c-.366-.759-.55-1.64-.55-2.646s.184-1.892.55-2.66c.37-.77.887-1.372 1.547-1.802.665-.435 1.44-.652 2.327-.652.511 0 1.016.085 1.515.256.498.17.952.447 1.361.83.41.38.735.883.978 1.51.243.626.364 1.397.364 2.313v.64H29.12v-1.305h6.034c0-.554-.11-1.048-.332-1.483a2.505 2.505 0 0 0-.933-1.029c-.4-.251-.874-.377-1.42-.377-.6 0-1.12.15-1.559.448-.435.294-.77.677-1.003 1.15a3.38 3.38 0 0 0-.352 1.521v.87c0 .741.128 1.37.384 1.885.26.512.62.902 1.08 1.17.46.264.995.396 1.604.396.397 0 .754-.055 1.074-.166.324-.115.603-.285.837-.511.235-.23.416-.516.544-.857l1.457.41a3.23 3.23 0 0 1-.773 1.303c-.363.371-.81.66-1.343.87-.532.204-1.131.306-1.796.306Zm10.349 0c-.886 0-1.664-.211-2.333-.633-.665-.422-1.185-1.012-1.56-1.77-.37-.76-.556-1.646-.556-2.66 0-1.023.185-1.915.556-2.678.375-.763.895-1.355 1.56-1.777.669-.422 1.447-.633 2.333-.633.886 0 1.662.21 2.327.633.669.422 1.188 1.014 1.56 1.777.374.763.562 1.655.562 2.678 0 1.014-.188 1.9-.563 2.66-.37.758-.89 1.348-1.56 1.77-.664.422-1.44.633-2.326.633Zm0-1.356c.673 0 1.227-.172 1.662-.517.434-.346.756-.8.965-1.362a5.213 5.213 0 0 0 .313-1.828c0-.656-.104-1.268-.313-1.835a3.092 3.092 0 0 0-.965-1.374c-.435-.35-.989-.524-1.662-.524-.673 0-1.227.175-1.662.524-.435.35-.756.808-.965 1.374a5.264 5.264 0 0 0-.313 1.835c0 .656.104 1.266.313 1.828.209.563.53 1.016.965 1.362.435.345.989.517 1.662.517Zm6.752 4.833v-13.5h1.457v1.56h.179c.11-.171.264-.388.46-.653.2-.268.486-.507.857-.715.375-.213.882-.32 1.52-.32.828 0 1.556.207 2.187.62.63.413 1.123 1 1.477 1.758.353.758.53 1.653.53 2.684 0 1.04-.177 1.941-.53 2.704-.354.759-.844 1.347-1.47 1.764-.627.414-1.35.62-2.168.62-.63 0-1.135-.104-1.514-.313-.38-.213-.672-.453-.876-.722a9.653 9.653 0 0 1-.473-.678h-.128v5.19h-1.509Zm1.482-8.591c0 .741.11 1.396.326 1.962.218.563.535 1.004.953 1.323.417.316.929.473 1.534.473.63 0 1.157-.166 1.579-.498.426-.337.745-.788.959-1.355a5.318 5.318 0 0 0 .326-1.905c0-.69-.107-1.313-.32-1.867-.209-.558-.526-.999-.952-1.323-.422-.328-.953-.492-1.592-.492-.614 0-1.13.156-1.547.467-.418.306-.733.737-.946 1.29-.213.55-.32 1.192-.32 1.925Zm13.603 5.114c-.946 0-1.762-.21-2.448-.627a4.205 4.205 0 0 1-1.58-1.764c-.366-.759-.549-1.64-.549-2.646s.183-1.892.55-2.66c.37-.77.886-1.372 1.547-1.802.664-.435 1.44-.652 2.326-.652.512 0 1.017.085 1.515.256.499.17.953.447 1.362.83.409.38.735.883.978 1.51.243.626.364 1.397.364 2.313v.64h-7.568v-1.305h6.034c0-.554-.11-1.048-.332-1.483a2.505 2.505 0 0 0-.934-1.029c-.4-.251-.873-.377-1.419-.377-.6 0-1.12.15-1.56.448-.434.294-.769.677-1.003 1.15a3.38 3.38 0 0 0-.352 1.521v.87c0 .741.128 1.37.384 1.885.26.512.62.902 1.08 1.17.46.264.995.396 1.605.396.396 0 .754-.055 1.074-.166.323-.115.603-.285.837-.511.234-.23.415-.516.543-.857l1.458.41a3.23 3.23 0 0 1-.774 1.303c-.362.371-.81.66-1.342.87-.533.204-1.132.306-1.796.306Zm5.446-8.617V8.182h7.977v1.406h-3.222V18h-1.508V9.588h-3.247Zm11.686 6.188 4.73-7.594h1.739V18H86.9v-7.594L82.196 18h-1.764V8.182h1.508v7.594Zm16.8-7.594V18H97.23V8.182h1.509Zm-.588 4.679v1.406c-.341.128-.68.24-1.017.339-.336.094-.69.168-1.06.223-.371.052-.778.077-1.222.077-1.112 0-2.004-.3-2.678-.901-.669-.6-1.003-1.502-1.003-2.704V8.156h1.508v3.145c0 .503.096.916.288 1.24.192.324.452.565.78.723a2.52 2.52 0 0 0 1.105.236c.64 0 1.217-.057 1.733-.173.52-.119 1.042-.274 1.566-.466Zm7.472 5.343c-.946 0-1.762-.208-2.448-.626a4.205 4.205 0 0 1-1.579-1.764c-.366-.759-.55-1.64-.55-2.646s.184-1.892.55-2.66c.371-.77.886-1.372 1.547-1.802.665-.435 1.44-.652 2.327-.652.511 0 1.016.085 1.515.256.498.17.952.447 1.361.83.409.38.735.883.978 1.51.243.626.364 1.397.364 2.313v.64h-7.568v-1.305h6.034c0-.554-.11-1.048-.332-1.483a2.5 2.5 0 0 0-.933-1.029c-.401-.251-.874-.377-1.419-.377-.601 0-1.121.15-1.56.448a2.947 2.947 0 0 0-1.004 1.15c-.234.473-.351.98-.351 1.521v.87c0 .741.128 1.37.383 1.885.26.512.62.902 1.081 1.17.46.264.995.396 1.604.396.396 0 .754-.055 1.074-.166.324-.115.603-.285.837-.511.235-.23.416-.516.544-.857l1.457.41a3.228 3.228 0 0 1-.773 1.303c-.363.371-.81.66-1.343.87-.532.204-1.131.306-1.796.306Zm10.349 0c-.921 0-1.713-.217-2.378-.651-.665-.435-1.176-1.034-1.534-1.797-.358-.762-.537-1.634-.537-2.614 0-.997.183-1.877.55-2.64.37-.767.886-1.366 1.547-1.796.664-.435 1.44-.652 2.326-.652.691 0 1.313.128 1.867.383a3.567 3.567 0 0 1 1.361 1.074c.354.46.573.998.659 1.611h-1.509c-.115-.447-.371-.844-.767-1.189-.392-.35-.92-.524-1.585-.524-.588 0-1.104.153-1.547.46-.439.303-.782.731-1.029 1.285-.243.55-.365 1.195-.365 1.937 0 .758.12 1.419.358 1.981.243.563.584 1 1.023 1.31.443.312.963.467 1.56.467a2.69 2.69 0 0 0 1.067-.204c.32-.136.591-.332.812-.588.222-.256.379-.563.473-.92h1.509a3.511 3.511 0 0 1-.633 1.565c-.333.46-.774.827-1.323 1.1-.546.268-1.181.402-1.905.402Zm6.066-.204V8.182h1.508v4.27h.998l3.528-4.27h1.943l-3.963 4.73L130.067 18h-1.943l-3.221-4.142h-1.356V18h-1.508Zm11.176-2.224 4.73-7.594h1.739V18h-1.508v-7.594L133.471 18h-1.764V8.182h1.508v7.594Zm10.741 0 4.73-7.594h1.738V18h-1.508v-7.594L144.211 18h-1.764V8.182h1.509v7.594Zm3.733-10.867h1.406c0 .69-.239 1.255-.716 1.694-.477.439-1.125.658-1.943.658-.806 0-1.447-.22-1.924-.658-.473-.439-.71-1.004-.71-1.694h1.406c0 .332.092.624.275.876.188.251.505.377.953.377.447 0 .767-.126.959-.377.196-.252.294-.544.294-.876ZM158.454 18V4.91h7.901v1.405h-6.315v4.091h3.323c.938 0 1.728.154 2.372.46.648.307 1.138.74 1.47 1.298.337.558.505 1.217.505 1.975 0 .759-.168 1.428-.505 2.007-.332.58-.822 1.034-1.47 1.362-.644.328-1.434.492-2.372.492h-4.909Zm1.586-1.38h3.323c.597 0 1.102-.12 1.515-.359.418-.242.733-.554.946-.933a2.42 2.42 0 0 0 .326-1.214c0-.627-.24-1.166-.722-1.618-.481-.456-1.17-.684-2.065-.684h-3.323v4.807Zm9.206 1.38v-1.406h.358c.294 0 .539-.058.735-.173.196-.12.353-.326.473-.62.123-.298.217-.712.281-1.24.068-.533.117-1.21.147-2.033l.179-4.346h6.545V18h-1.508V9.588h-3.605l-.154 3.503a15.841 15.841 0 0 1-.217 2.129c-.106.609-.27 1.12-.492 1.534a2.252 2.252 0 0 1-.869.933c-.363.209-.816.313-1.362.313h-.511Zm15.475.204c-.886 0-1.664-.21-2.333-.632-.665-.422-1.185-1.012-1.56-1.77-.371-.76-.556-1.646-.556-2.66 0-1.023.185-1.915.556-2.678.375-.763.895-1.355 1.56-1.777.669-.422 1.447-.633 2.333-.633.886 0 1.662.21 2.327.633.669.422 1.189 1.014 1.559 1.777.375.763.563 1.655.563 2.678 0 1.014-.188 1.9-.563 2.66-.37.758-.89 1.348-1.559 1.77-.665.422-1.441.633-2.327.633Zm0-1.355c.673 0 1.227-.172 1.662-.517.434-.346.756-.8.965-1.362a5.208 5.208 0 0 0 .313-1.828c0-.656-.104-1.268-.313-1.835a3.099 3.099 0 0 0-.965-1.374c-.435-.35-.989-.524-1.662-.524-.673 0-1.227.175-1.662.524a3.09 3.09 0 0 0-.965 1.374 5.261 5.261 0 0 0-.313 1.835c0 .656.104 1.266.313 1.828.209.563.53 1.016.965 1.362.435.345.989.517 1.662.517ZM191.472 18V8.182h1.509v4.27h.997l3.529-4.27h1.943l-3.963 4.73L199.501 18h-1.943l-3.222-4.142h-1.355V18h-1.509Z" fill="#FFEE32"/><path d="M18.355 45v-1.15l4.321-4.73c.507-.555.925-1.036 1.253-1.445a5.35 5.35 0 0 0 .729-1.164c.162-.366.243-.75.243-1.15 0-.46-.111-.859-.333-1.195a2.155 2.155 0 0 0-.895-.78 2.9 2.9 0 0 0-1.278-.275c-.503 0-.942.104-1.317.313-.37.205-.658.492-.863.863-.2.37-.3.805-.3 1.304h-1.509c0-.767.177-1.44.53-2.02a3.687 3.687 0 0 1 1.445-1.355c.614-.324 1.302-.486 2.065-.486.767 0 1.447.162 2.04.486.591.324 1.056.76 1.393 1.31.336.55.505 1.161.505 1.835 0 .481-.088.952-.263 1.412-.17.456-.468.966-.894 1.528-.422.558-1.008 1.24-1.758 2.046l-2.94 3.145v.102h6.085V45h-8.259Zm23.555-9.818V45H40.4v-9.818h1.509Zm-.588 4.679v1.406c-.341.128-.68.24-1.017.339-.336.094-.69.168-1.06.224-.371.05-.778.076-1.222.076-1.112 0-2.005-.3-2.678-.901-.669-.6-1.003-1.502-1.003-2.704v-3.145h1.508v3.145c0 .503.096.916.288 1.24.192.324.452.565.78.723a2.52 2.52 0 0 0 1.105.236c.64 0 1.217-.057 1.733-.173.52-.119 1.042-.274 1.566-.466Zm6.245 5.37a3.99 3.99 0 0 1-1.694-.352 2.907 2.907 0 0 1-1.208-1.03c-.298-.451-.448-.997-.448-1.636 0-.562.111-1.018.333-1.368.221-.353.518-.63.888-.83.37-.201.78-.35 1.227-.448.452-.102.906-.184 1.362-.243.597-.077 1.08-.134 1.451-.173.375-.042.648-.113.818-.21.175-.099.262-.27.262-.512v-.051c0-.63-.172-1.12-.517-1.47-.341-.35-.86-.525-1.554-.525-.72 0-1.285.158-1.694.473-.409.316-.696.652-.863 1.01l-1.431-.51c.255-.598.596-1.062 1.022-1.394.43-.337.9-.571 1.407-.704a5.84 5.84 0 0 1 1.508-.204c.315 0 .678.038 1.087.115.413.073.811.224 1.195.454.388.23.71.577.965 1.042.256.464.384 1.086.384 1.866V45h-1.509v-1.33h-.077a2.655 2.655 0 0 1-.51.684c-.24.243-.557.45-.953.62-.397.17-.88.256-1.451.256Zm.23-1.356c.597 0 1.1-.117 1.508-.352a2.392 2.392 0 0 0 1.253-2.077v-1.38c-.064.076-.204.146-.422.21-.213.06-.46.113-.741.16a33.842 33.842 0 0 1-1.445.192 5.77 5.77 0 0 0-1.1.25c-.336.11-.608.278-.817.504-.205.222-.307.524-.307.908 0 .524.194.92.581 1.189.393.264.889.396 1.49.396Zm11.012 1.33c-.92 0-1.713-.218-2.378-.652-.665-.435-1.176-1.034-1.534-1.797-.358-.762-.537-1.634-.537-2.614 0-.997.183-1.877.55-2.64.37-.767.886-1.366 1.547-1.796.664-.435 1.44-.652 2.326-.652.69 0 1.313.128 1.867.383a3.574 3.574 0 0 1 1.361 1.074c.354.46.573.997.659 1.611H61.16c-.115-.447-.37-.844-.767-1.189-.392-.35-.92-.524-1.585-.524-.588 0-1.104.154-1.547.46-.439.303-.782.731-1.03 1.285-.242.55-.364 1.195-.364 1.937 0 .758.12 1.419.358 1.981.243.563.584 1 1.023 1.31.443.312.963.467 1.56.467.392 0 .748-.068 1.067-.204.32-.137.59-.333.812-.588.222-.256.38-.563.473-.92h1.509a3.496 3.496 0 0 1-.633 1.565c-.333.46-.774.827-1.323 1.1-.546.268-1.18.403-1.905.403Zm8.955.025a3.99 3.99 0 0 1-1.694-.351 2.907 2.907 0 0 1-1.208-1.03c-.298-.451-.447-.997-.447-1.636 0-.562.11-1.018.332-1.368.222-.353.518-.63.888-.83.371-.201.78-.35 1.228-.448.451-.102.905-.184 1.361-.243.597-.077 1.08-.134 1.451-.173.375-.042.648-.113.818-.21.175-.099.263-.27.263-.512v-.051c0-.63-.173-1.12-.518-1.47-.341-.35-.859-.525-1.553-.525-.72 0-1.285.158-1.694.473-.41.316-.697.652-.863 1.01l-1.432-.51c.255-.598.596-1.062 1.023-1.394.43-.337.899-.571 1.406-.704a5.841 5.841 0 0 1 1.508-.204c.316 0 .678.038 1.087.115a3.48 3.48 0 0 1 1.195.454c.388.23.71.577.965 1.042.256.464.384 1.086.384 1.866V45h-1.508v-1.33h-.077a2.656 2.656 0 0 1-.512.684c-.238.243-.556.45-.952.62-.396.17-.88.256-1.451.256Zm.23-1.355c.597 0 1.1-.117 1.509-.352a2.393 2.393 0 0 0 1.252-2.077v-1.38c-.063.076-.204.146-.421.21-.213.06-.46.113-.742.16a33.842 33.842 0 0 1-1.444.192 5.772 5.772 0 0 0-1.1.25c-.337.11-.61.278-.818.504-.205.222-.307.524-.307.908 0 .524.194.92.582 1.189.392.264.888.396 1.49.396Z" fill="#fff"/></svg>