<svg width="232" height="139" fill="none" xmlns="http://www.w3.org/2000/svg"><path stroke="#FFEE32" stroke-width="4" d="M6 111V11"/><path d="M0 79h232v60H0V79Z" fill="#FFEE32"/><circle cx="6" cy="12" r="6" fill="#FFEE32"/><rect x="8" y="83" width="220" height="52" rx="26" fill="#000"/><circle cx="23" cy="109" r="11" fill="#fff"/><path d="M75.685 98.636V119h-3.083v-17.281h-.119l-4.872 3.182v-2.944l5.08-3.32h2.994ZM81.193 119v-2.227l6.89-7.139a38.008 38.008 0 0 0 1.82-2.039c.484-.59.846-1.15 1.084-1.68a4.075 4.075 0 0 0 .358-1.691c0-.676-.159-1.259-.477-1.75a3.119 3.119 0 0 0-1.303-1.143c-.55-.272-1.17-.408-1.859-.408-.73 0-1.366.149-1.91.448a3.062 3.062 0 0 0-1.252 1.263c-.292.543-.438 1.179-.438 1.909h-2.933c0-1.24.285-2.324.855-3.252a5.808 5.808 0 0 1 2.347-2.157c.994-.517 2.124-.776 3.39-.776 1.28 0 2.407.255 3.381.766.981.503 1.747 1.193 2.297 2.068.55.868.826 1.849.826 2.943a5.99 5.99 0 0 1-.428 2.217c-.278.723-.766 1.528-1.462 2.416-.696.882-1.664 1.953-2.903 3.212l-4.047 4.236v.149h9.168V119H81.193Zm19.171-2.526a1.931 1.931 0 0 1-1.402-.576 1.925 1.925 0 0 1-.587-1.412c0-.544.195-1.008.587-1.392a1.914 1.914 0 0 1 1.402-.587c.543 0 1.011.196 1.402.587.391.384.586.848.586 1.392a1.9 1.9 0 0 1-.278 1.004 2.062 2.062 0 0 1-.716.716c-.298.179-.63.268-.994.268Zm0-10.201a1.932 1.932 0 0 1-1.402-.577 1.925 1.925 0 0 1-.587-1.412c0-.543.195-1.007.587-1.392a1.914 1.914 0 0 1 1.402-.587c.543 0 1.011.196 1.402.587.391.385.586.849.586 1.392 0 .365-.093.699-.278 1.004a2.054 2.054 0 0 1-.716.716c-.298.179-.63.269-.994.269Zm13.02 13.065c-1.571-.007-2.913-.421-4.027-1.243-1.113-.822-1.965-2.018-2.555-3.589-.59-1.571-.885-3.464-.885-5.678 0-2.207.295-4.093.885-5.658.596-1.564 1.452-2.757 2.565-3.58 1.12-.821 2.459-1.232 4.017-1.232 1.558 0 2.894.414 4.007 1.243 1.114.822 1.966 2.015 2.556 3.579.596 1.558.895 3.441.895 5.648 0 2.221-.295 4.117-.885 5.688-.59 1.564-1.442 2.761-2.556 3.589-1.113.822-2.452 1.233-4.017 1.233Zm0-2.655c1.379 0 2.456-.673 3.232-2.018.782-1.346 1.173-3.291 1.173-5.837 0-1.69-.179-3.119-.537-4.285-.351-1.174-.858-2.062-1.521-2.665a3.33 3.33 0 0 0-2.347-.915c-1.372 0-2.449.676-3.231 2.028-.782 1.353-1.177 3.298-1.184 5.837 0 1.697.176 3.132.527 4.306.358 1.166.866 2.051 1.522 2.654.656.597 1.445.895 2.366.895Zm18.074 2.655c-1.571-.007-2.913-.421-4.027-1.243-1.113-.822-1.965-2.018-2.555-3.589-.59-1.571-.885-3.464-.885-5.678 0-2.207.295-4.093.885-5.658.597-1.564 1.452-2.757 2.565-3.58 1.121-.821 2.46-1.232 4.017-1.232 1.558 0 2.894.414 4.008 1.243 1.113.822 1.965 2.015 2.555 3.579.597 1.558.895 3.441.895 5.648 0 2.221-.295 4.117-.885 5.688-.59 1.564-1.442 2.761-2.556 3.589-1.113.822-2.452 1.233-4.017 1.233Zm0-2.655c1.379 0 2.456-.673 3.232-2.018.782-1.346 1.173-3.291 1.173-5.837 0-1.69-.179-3.119-.537-4.285-.351-1.174-.858-2.062-1.521-2.665a3.327 3.327 0 0 0-2.347-.915c-1.372 0-2.449.676-3.231 2.028-.782 1.353-1.177 3.298-1.183 5.837 0 1.697.175 3.132.527 4.306.358 1.166.865 2.051 1.521 2.654.656.597 1.445.895 2.366.895ZM26.281 18l-4.5-6.008h-1.61V18h-1.586V4.91h1.585v5.675h.69l5.242-5.676h1.892l-5.292 5.753L28.173 18h-1.892Zm7.004.204c-.886 0-1.664-.21-2.333-.632-.665-.422-1.184-1.012-1.56-1.77-.37-.76-.555-1.646-.555-2.66 0-1.023.185-1.915.556-2.678.375-.763.895-1.355 1.56-1.777.668-.422 1.446-.633 2.332-.633.887 0 1.662.21 2.327.633.67.422 1.189 1.014 1.56 1.777.375.763.562 1.655.562 2.678 0 1.014-.187 1.9-.562 2.66-.371.758-.89 1.348-1.56 1.77-.665.422-1.44.633-2.327.633Zm0-1.355c.674 0 1.228-.172 1.662-.517.435-.346.757-.8.965-1.362a5.213 5.213 0 0 0 .314-1.828c0-.656-.105-1.268-.313-1.835a3.093 3.093 0 0 0-.966-1.374c-.434-.35-.988-.524-1.662-.524-.673 0-1.227.175-1.662.524-.434.35-.756.808-.965 1.374a5.266 5.266 0 0 0-.313 1.835c0 .656.104 1.266.313 1.828.209.563.53 1.016.965 1.362.435.345.989.517 1.662.517Zm10.74 4.5V4.91h1.51v16.44h-1.51Zm0-3.145c-.664 0-1.27-.119-1.815-.357a4.06 4.06 0 0 1-1.406-1.03 4.727 4.727 0 0 1-.908-1.604c-.213-.622-.32-1.312-.32-2.071 0-.767.107-1.462.32-2.084a4.716 4.716 0 0 1 .908-1.61c.392-.448.86-.791 1.406-1.03a4.414 4.414 0 0 1 1.816-.364h.46v10.15h-.46Zm0-1.355h.256V9.41h-.255c-.503 0-.94.102-1.31.307-.372.2-.678.475-.921.825a3.788 3.788 0 0 0-.537 1.188 5.654 5.654 0 0 0-.173 1.413c0 .656.105 1.266.313 1.828.21.563.531 1.016.966 1.362.434.345.988.517 1.662.517Zm1.51 1.355h-.461V8.054h.46c.665 0 1.27.121 1.815.364a3.956 3.956 0 0 1 1.407 1.03c.392.447.694.984.907 1.61.213.622.32 1.317.32 2.084 0 .759-.107 1.449-.32 2.071a4.729 4.729 0 0 1-.907 1.604 4.06 4.06 0 0 1-1.407 1.03 4.482 4.482 0 0 1-1.815.357Zm0-1.355c.506 0 .943-.098 1.31-.294.37-.2.675-.473.913-.818.243-.35.422-.745.537-1.189.12-.447.18-.916.18-1.406 0-.656-.105-1.268-.314-1.835a3.092 3.092 0 0 0-.965-1.374c-.435-.35-.989-.524-1.662-.524h-.256v7.44h.256Zm10.87 1.355c-.946 0-1.762-.208-2.448-.626a4.204 4.204 0 0 1-1.579-1.764c-.366-.759-.55-1.64-.55-2.646s.184-1.892.55-2.66c.371-.77.887-1.372 1.547-1.802.665-.435 1.44-.652 2.327-.652.511 0 1.016.085 1.515.256.498.17.952.447 1.361.83.41.38.736.883.978 1.51.243.626.365 1.397.365 2.313v.64h-7.568v-1.305h6.034c0-.554-.111-1.048-.333-1.483a2.505 2.505 0 0 0-.933-1.029c-.4-.251-.874-.377-1.419-.377-.6 0-1.12.15-1.56.448-.434.294-.769.677-1.003 1.15a3.38 3.38 0 0 0-.352 1.521v.87c0 .741.128 1.37.384 1.885.26.512.62.902 1.08 1.17.46.264.995.396 1.604.396.397 0 .755-.055 1.074-.166.324-.115.603-.285.838-.511.234-.23.415-.516.543-.857l1.457.41a3.23 3.23 0 0 1-.773 1.303c-.362.371-.81.66-1.342.87-.533.204-1.132.306-1.797.306Zm11.985-6.52v1.407h-5.727v-1.406h5.727ZM78.332 4.5l.767.92c-.299.29-.644.493-1.036.608a5.79 5.79 0 0 1-1.33.21c-.494.026-1.043.052-1.648.077-.682.026-1.247.192-1.694.499-.448.307-.793.75-1.036 1.33-.243.579-.398 1.29-.467 2.134h.128c.333-.613.793-1.065 1.381-1.355a4.223 4.223 0 0 1 1.892-.434c.767 0 1.457.179 2.071.537.614.358 1.1.888 1.457 1.591.358.703.537 1.57.537 2.602 0 1.027-.183 1.913-.55 2.659-.362.746-.87 1.32-1.527 1.726-.652.4-1.417.6-2.295.6-.878 0-1.647-.206-2.307-.62-.66-.417-1.174-1.035-1.54-1.853-.367-.823-.55-1.839-.55-3.05v-1.047c0-2.187.37-3.844 1.112-4.973.745-1.13 1.866-1.714 3.362-1.752.528-.017 1-.021 1.413-.013.413.009.773-.01 1.08-.057.307-.047.567-.16.78-.339Zm-3.35 12.35c.593 0 1.102-.15 1.528-.448.43-.298.76-.718.99-1.26.23-.545.346-1.186.346-1.923 0-.716-.117-1.325-.352-1.828-.23-.503-.56-.887-.99-1.15-.43-.265-.947-.397-1.547-.397-.44 0-.833.074-1.183.224-.35.149-.648.368-.895.658a3.09 3.09 0 0 0-.575 1.06 5.015 5.015 0 0 0-.211 1.433c0 1.1.258 1.98.773 2.64.516.66 1.221.99 2.116.99Zm6.68 4.832v-13.5h1.457v1.56h.18c.11-.171.263-.388.46-.653.2-.268.485-.507.856-.715.375-.213.882-.32 1.521-.32.827 0 1.556.207 2.186.62.631.413 1.123 1 1.477 1.758.354.758.53 1.653.53 2.684 0 1.04-.176 1.941-.53 2.704-.354.759-.844 1.347-1.47 1.764-.627.414-1.349.62-2.167.62-.63 0-1.136-.104-1.515-.313-.38-.213-.671-.453-.876-.722a9.68 9.68 0 0 1-.473-.678h-.127v5.19h-1.51Zm1.483-8.591c0 .741.109 1.396.326 1.962.217.563.535 1.004.952 1.323.418.316.93.473 1.534.473.631 0 1.157-.166 1.58-.498.425-.337.745-.788.958-1.355a5.316 5.316 0 0 0 .326-1.905c0-.69-.106-1.313-.32-1.867-.208-.558-.526-.999-.952-1.323-.422-.328-.952-.492-1.592-.492-.613 0-1.129.156-1.546.467-.418.306-.733.737-.947 1.29-.213.55-.32 1.192-.32 1.925Zm13.602 5.114c-.946 0-1.762-.21-2.448-.627a4.204 4.204 0 0 1-1.579-1.764c-.366-.759-.55-1.64-.55-2.646s.184-1.892.55-2.66c.37-.77.886-1.372 1.547-1.802.665-.435 1.44-.652 2.327-.652.511 0 1.016.085 1.515.256.498.17.952.447 1.361.83.41.38.735.883.978 1.51.243.626.364 1.397.364 2.313v.64h-7.568v-1.305h6.034c0-.554-.11-1.048-.332-1.483a2.505 2.505 0 0 0-.933-1.029c-.4-.251-.874-.377-1.42-.377-.6 0-1.12.15-1.559.448-.435.294-.77.677-1.004 1.15a3.38 3.38 0 0 0-.351 1.521v.87c0 .741.128 1.37.383 1.885.26.512.62.902 1.08 1.17.461.264.996.396 1.605.396.397 0 .754-.055 1.074-.166.324-.115.603-.285.837-.511.235-.23.416-.516.544-.857l1.457.41a3.225 3.225 0 0 1-.773 1.303c-.363.371-.81.66-1.343.87-.532.204-1.131.306-1.796.306Zm7.869-2.43 4.73-7.593h1.739V18h-1.509v-7.594L104.871 18h-1.764V8.182h1.509v7.594Zm3.733-10.866h1.406c0 .69-.239 1.255-.716 1.694-.477.439-1.125.658-1.943.658-.806 0-1.447-.22-1.924-.658-.473-.439-.71-1.004-.71-1.694h1.407c0 .332.091.624.274.876.188.251.505.377.953.377.447 0 .767-.126.959-.377.196-.252.294-.544.294-.876ZM113.847 18V8.182h1.509v4.27h.997l3.529-4.27h1.943l-3.963 4.73L121.876 18h-1.943l-3.222-4.142h-1.355V18h-1.509Z" fill="#FFEE32"/><path d="M22.778 45.179c-.843 0-1.595-.145-2.256-.435-.656-.29-1.178-.692-1.566-1.208a3.247 3.247 0 0 1-.627-1.809h1.611c.034.422.18.787.435 1.093.256.303.59.537 1.004.703.413.167.871.25 1.374.25.562 0 1.06-.098 1.496-.294a2.457 2.457 0 0 0 1.022-.819c.247-.349.371-.754.371-1.214 0-.481-.12-.905-.358-1.272-.238-.37-.588-.66-1.048-.87-.46-.208-1.023-.313-1.688-.313H21.5v-1.406h1.048c.52 0 .976-.093 1.368-.281.396-.188.705-.452.927-.793.226-.34.339-.741.339-1.201 0-.444-.098-.83-.294-1.157a2.01 2.01 0 0 0-.831-.767c-.354-.184-.771-.275-1.253-.275-.452 0-.878.083-1.278.25a2.38 2.38 0 0 0-.972.709 1.848 1.848 0 0 0-.41 1.112h-1.533c.025-.686.232-1.287.62-1.803.388-.52.895-.924 1.521-1.214a4.916 4.916 0 0 1 2.078-.435c.81 0 1.504.164 2.083.492.58.324 1.025.752 1.336 1.285.311.533.467 1.108.467 1.726 0 .737-.194 1.366-.582 1.886-.383.52-.905.88-1.566 1.08v.102c.827.136 1.473.488 1.937 1.055.465.562.697 1.26.697 2.09 0 .712-.194 1.35-.582 1.918-.384.562-.908 1.005-1.572 1.33-.665.323-1.422.485-2.27.485Zm11.308 0c-.963 0-1.783-.262-2.461-.786-.678-.529-1.195-1.294-1.553-2.295-.358-1.006-.537-2.22-.537-3.643 0-1.415.179-2.623.537-3.625.362-1.005.882-1.773 1.56-2.3.681-.534 1.5-.8 2.454-.8.955 0 1.77.266 2.448.8.682.527 1.202 1.295 1.56 2.3.362 1.002.543 2.21.543 3.625 0 1.423-.179 2.637-.537 3.643-.358 1.001-.876 1.766-1.553 2.295-.678.524-1.498.786-2.461.786Zm0-1.406c.955 0 1.696-.46 2.224-1.381.529-.92.793-2.233.793-3.938 0-1.133-.122-2.098-.364-2.895-.239-.797-.584-1.404-1.036-1.822a2.286 2.286 0 0 0-1.617-.626c-.946 0-1.685.466-2.218 1.4-.533.929-.8 2.243-.8 3.944 0 1.133.12 2.096.359 2.889.239.792.581 1.395 1.029 1.809.452.413.995.62 1.63.62Zm17.437-.819 3.427-7.772h1.431L52.137 45H50.91l-4.168-9.818h1.406l3.375 7.773Zm-3.86-7.772V45h-1.509v-9.818h1.509ZM55.384 45v-9.818h1.509V45h-1.509Zm5.779-2.224 4.73-7.594h1.738V45h-1.508v-7.594L61.418 45h-1.764v-9.818h1.509v7.594ZM76.965 39.4v1.406h-5.42V39.4h5.42Zm-5.062-4.22V45h-1.509v-9.818h1.509Zm6.213 0V45h-1.509v-9.818h1.509Zm3.375 13.5c-.256 0-.484-.02-.684-.063a1.804 1.804 0 0 1-.416-.115l.384-1.33c.366.094.69.128.972.103.28-.026.53-.152.748-.378.221-.221.423-.581.607-1.08l.281-.767-3.63-9.87h1.636l2.71 7.825h.102l2.71-7.824h1.637l-4.168 11.25c-.187.507-.42.927-.697 1.26a2.61 2.61 0 0 1-.965.747 2.975 2.975 0 0 1-1.227.243Zm8.485-12.093v-1.406h7.978v1.406h-3.222V45h-1.508v-8.412h-3.248Z" fill="#fff"/></svg>