<svg width="232" height="139" viewBox="0 0 232 139" fill="none" xmlns="http://www.w3.org/2000/svg">
<line x1="6" y1="111" x2="6" y2="11" stroke="#FFEE32" stroke-width="4"></line>
<path d="M0 79H232V139H0V79Z" fill="#FFEE32"></path>
<circle cx="6" cy="12" r="6" fill="#FFEE32"></circle>
<rect x="8" y="83" width="220" height="52" rx="26" fill="black"></rect>
<circle cx="23" cy="109" r="11" fill="white"></circle>
<path d="M75.6847 98.6364V119H72.6023V101.719H72.483L67.6108 104.901V101.957L72.6918 98.6364H75.6847ZM81.1932 119V116.773L88.0838 109.634C88.8196 108.858 89.4261 108.179 89.9034 107.595C90.3873 107.005 90.7486 106.445 90.9872 105.915C91.2259 105.384 91.3452 104.821 91.3452 104.224C91.3452 103.548 91.1861 102.965 90.8679 102.474C90.5497 101.977 90.1155 101.596 89.5653 101.331C89.0152 101.059 88.3954 100.923 87.706 100.923C86.9768 100.923 86.3404 101.072 85.7969 101.371C85.2533 101.669 84.8357 102.09 84.544 102.634C84.2524 103.177 84.1065 103.813 84.1065 104.543H81.1733C81.1733 103.303 81.4583 102.219 82.0284 101.291C82.5985 100.363 83.3807 99.6439 84.375 99.1335C85.3693 98.6165 86.4995 98.358 87.7656 98.358C89.045 98.358 90.1719 98.6132 91.1463 99.1236C92.1274 99.6274 92.893 100.317 93.4432 101.192C93.9934 102.06 94.2685 103.041 94.2685 104.135C94.2685 104.891 94.1259 105.63 93.8409 106.352C93.5625 107.075 93.0753 107.88 92.3793 108.768C91.6832 109.65 90.7154 110.721 89.4759 111.98L85.429 116.216V116.365H94.5966V119H81.1932ZM100.364 116.474C99.8201 116.474 99.3527 116.282 98.9616 115.898C98.5705 115.507 98.375 115.036 98.375 114.486C98.375 113.942 98.5705 113.478 98.9616 113.094C99.3527 112.703 99.8201 112.507 100.364 112.507C100.907 112.507 101.375 112.703 101.766 113.094C102.157 113.478 102.352 113.942 102.352 114.486C102.352 114.85 102.259 115.185 102.074 115.49C101.895 115.788 101.656 116.027 101.358 116.206C101.06 116.385 100.728 116.474 100.364 116.474ZM100.364 106.273C99.8201 106.273 99.3527 106.08 98.9616 105.696C98.5705 105.305 98.375 104.834 98.375 104.284C98.375 103.741 98.5705 103.277 98.9616 102.892C99.3527 102.501 99.8201 102.305 100.364 102.305C100.907 102.305 101.375 102.501 101.766 102.892C102.157 103.277 102.352 103.741 102.352 104.284C102.352 104.649 102.259 104.983 102.074 105.288C101.895 105.587 101.656 105.825 101.358 106.004C101.06 106.183 100.728 106.273 100.364 106.273ZM113.384 119.338C111.813 119.331 110.471 118.917 109.357 118.095C108.244 117.273 107.392 116.077 106.802 114.506C106.212 112.935 105.917 111.042 105.917 108.828C105.917 106.621 106.212 104.735 106.802 103.17C107.398 101.606 108.254 100.413 109.367 99.5909C110.487 98.7689 111.826 98.358 113.384 98.358C114.942 98.358 116.278 98.7723 117.391 99.6009C118.505 100.423 119.357 101.616 119.947 103.18C120.543 104.738 120.842 106.621 120.842 108.828C120.842 111.049 120.547 112.945 119.957 114.516C119.367 116.08 118.515 117.277 117.401 118.105C116.288 118.927 114.949 119.338 113.384 119.338ZM113.384 116.683C114.763 116.683 115.84 116.01 116.616 114.665C117.398 113.319 117.789 111.374 117.789 108.828C117.789 107.138 117.61 105.709 117.252 104.543C116.901 103.369 116.394 102.481 115.731 101.878C115.075 101.268 114.292 100.963 113.384 100.963C112.012 100.963 110.935 101.639 110.153 102.991C109.371 104.344 108.976 106.289 108.969 108.828C108.969 110.525 109.145 111.96 109.496 113.134C109.854 114.3 110.362 115.185 111.018 115.788C111.674 116.385 112.463 116.683 113.384 116.683ZM131.458 119.338C129.887 119.331 128.545 118.917 127.431 118.095C126.318 117.273 125.466 116.077 124.876 114.506C124.286 112.935 123.991 111.042 123.991 108.828C123.991 106.621 124.286 104.735 124.876 103.17C125.473 101.606 126.328 100.413 127.441 99.5909C128.562 98.7689 129.901 98.358 131.458 98.358C133.016 98.358 134.352 98.7723 135.466 99.6009C136.579 100.423 137.431 101.616 138.021 103.18C138.618 104.738 138.916 106.621 138.916 108.828C138.916 111.049 138.621 112.945 138.031 114.516C137.441 116.08 136.589 117.277 135.475 118.105C134.362 118.927 133.023 119.338 131.458 119.338ZM131.458 116.683C132.837 116.683 133.914 116.01 134.69 114.665C135.472 113.319 135.863 111.374 135.863 108.828C135.863 107.138 135.684 105.709 135.326 104.543C134.975 103.369 134.468 102.481 133.805 101.878C133.149 101.268 132.367 100.963 131.458 100.963C130.086 100.963 129.009 101.639 128.227 102.991C127.445 104.344 127.05 106.289 127.044 108.828C127.044 110.525 127.219 111.96 127.571 113.134C127.929 114.3 128.436 115.185 129.092 115.788C129.748 116.385 130.537 116.683 131.458 116.683Z" fill="#FFEE32"></path>
<path d="M26.2812 18L21.7812 11.9915H20.1705V18H18.5852V4.90909H20.1705V10.5852H20.8608L26.1023 4.90909H27.9943L22.7017 10.6619L28.1733 18H26.2812ZM33.2853 18.2045C32.399 18.2045 31.6213 17.9936 30.9522 17.5717C30.2875 17.1499 29.7676 16.5597 29.3926 15.8011C29.0218 15.0426 28.8365 14.1562 28.8365 13.142C28.8365 12.1193 29.0218 11.2266 29.3926 10.4638C29.7676 9.70099 30.2875 9.10866 30.9522 8.68679C31.6213 8.26491 32.399 8.05398 33.2853 8.05398C34.1717 8.05398 34.9473 8.26491 35.612 8.68679C36.2811 9.10866 36.801 9.70099 37.1717 10.4638C37.5467 11.2266 37.7342 12.1193 37.7342 13.142C37.7342 14.1562 37.5467 15.0426 37.1717 15.8011C36.801 16.5597 36.2811 17.1499 35.612 17.5717C34.9473 17.9936 34.1717 18.2045 33.2853 18.2045ZM33.2853 16.8494C33.9586 16.8494 34.5126 16.6768 34.9473 16.3317C35.3819 15.9865 35.7037 15.5327 35.9125 14.9702C36.1213 14.4077 36.2257 13.7983 36.2257 13.142C36.2257 12.4858 36.1213 11.8743 35.9125 11.3075C35.7037 10.7408 35.3819 10.2827 34.9473 9.93324C34.5126 9.58381 33.9586 9.40909 33.2853 9.40909C32.612 9.40909 32.0581 9.58381 31.6234 9.93324C31.1887 10.2827 30.867 10.7408 30.6582 11.3075C30.4494 11.8743 30.345 12.4858 30.345 13.142C30.345 13.7983 30.4494 14.4077 30.6582 14.9702C30.867 15.5327 31.1887 15.9865 31.6234 16.3317C32.0581 16.6768 32.612 16.8494 33.2853 16.8494ZM44.0256 21.3494V4.90909H45.5341V21.3494H44.0256ZM44.0256 18.2045C43.3608 18.2045 42.7557 18.0852 42.2102 17.8466C41.6648 17.6037 41.196 17.2607 40.804 16.8175C40.4119 16.37 40.1094 15.8352 39.8963 15.2131C39.6832 14.5909 39.5767 13.9006 39.5767 13.142C39.5767 12.375 39.6832 11.6804 39.8963 11.0582C40.1094 10.4318 40.4119 9.89489 40.804 9.44744C41.196 9 41.6648 8.65696 42.2102 8.41832C42.7557 8.17543 43.3608 8.05398 44.0256 8.05398H44.4858V18.2045H44.0256ZM44.0256 16.8494H44.2812V9.40909H44.0256C43.5227 9.40909 43.0859 9.51136 42.7152 9.71591C42.3445 9.91619 42.0376 10.1911 41.7947 10.5405C41.5561 10.8857 41.3771 11.282 41.2578 11.7294C41.1428 12.1768 41.0852 12.6477 41.0852 13.142C41.0852 13.7983 41.1896 14.4077 41.3984 14.9702C41.6072 15.5327 41.929 15.9865 42.3636 16.3317C42.7983 16.6768 43.3523 16.8494 44.0256 16.8494ZM45.5341 18.2045H45.0739V8.05398H45.5341C46.1989 8.05398 46.804 8.17543 47.3494 8.41832C47.8949 8.65696 48.3636 9 48.7557 9.44744C49.1477 9.89489 49.4503 10.4318 49.6634 11.0582C49.8764 11.6804 49.983 12.375 49.983 13.142C49.983 13.9006 49.8764 14.5909 49.6634 15.2131C49.4503 15.8352 49.1477 16.37 48.7557 16.8175C48.3636 17.2607 47.8949 17.6037 47.3494 17.8466C46.804 18.0852 46.1989 18.2045 45.5341 18.2045ZM45.5341 16.8494C46.0412 16.8494 46.478 16.7514 46.8445 16.5554C47.2152 16.3551 47.5199 16.0824 47.7585 15.7372C48.0014 15.3878 48.1804 14.9915 48.2955 14.5483C48.4148 14.1009 48.4744 13.6321 48.4744 13.142C48.4744 12.4858 48.37 11.8743 48.1612 11.3075C47.9524 10.7408 47.6307 10.2827 47.196 9.93324C46.7614 9.58381 46.2074 9.40909 45.5341 9.40909H45.2784V16.8494H45.5341ZM56.4054 18.2045C55.4593 18.2045 54.6433 17.9957 53.9572 17.5781C53.2754 17.1562 52.7491 16.5682 52.3784 15.8139C52.0119 15.0554 51.8287 14.1733 51.8287 13.1676C51.8287 12.1619 52.0119 11.2756 52.3784 10.5085C52.7491 9.73722 53.2647 9.13636 53.9252 8.70597C54.59 8.27131 55.3656 8.05398 56.252 8.05398C56.7633 8.05398 57.2683 8.1392 57.7669 8.30966C58.2654 8.48011 58.7193 8.7571 59.1284 9.14062C59.5375 9.51989 59.8635 10.0227 60.1064 10.6491C60.3493 11.2756 60.4707 12.0469 60.4707 12.9631V13.6023H52.9025V12.2983H58.9366C58.9366 11.7443 58.8258 11.25 58.6042 10.8153C58.3869 10.3807 58.0758 10.0376 57.671 9.78622C57.2704 9.5348 56.7974 9.40909 56.252 9.40909C55.6511 9.40909 55.1312 9.55824 54.6923 9.85653C54.2576 10.1506 53.9231 10.5341 53.6887 11.0071C53.4544 11.4801 53.3372 11.9872 53.3372 12.5284V13.3977C53.3372 14.1392 53.465 14.7678 53.7207 15.2834C53.9806 15.7947 54.3407 16.1847 54.801 16.4531C55.2612 16.7173 55.796 16.8494 56.4054 16.8494C56.8017 16.8494 57.1596 16.794 57.4792 16.6832C57.8031 16.5682 58.0822 16.3977 58.3166 16.1719C58.551 15.9418 58.7321 15.6562 58.8599 15.3153L60.3173 15.7244C60.1639 16.2188 59.9061 16.6534 59.5439 17.0284C59.1816 17.3991 58.7342 17.6889 58.2015 17.8977C57.6689 18.1023 57.0701 18.2045 56.4054 18.2045ZM68.3904 11.6847V13.0909H62.6632V11.6847H68.3904ZM78.3317 4.5L79.0987 5.42045C78.8004 5.71023 78.4553 5.91264 78.0632 6.0277C77.6712 6.14276 77.228 6.21307 76.7337 6.23864C76.2393 6.2642 75.6896 6.28977 75.0845 6.31534C74.4027 6.34091 73.8381 6.5071 73.3906 6.81392C72.9432 7.12074 72.598 7.56392 72.3551 8.14347C72.1122 8.72301 71.9567 9.43466 71.8885 10.2784H72.0163C72.3487 9.66477 72.8089 9.21307 73.397 8.9233C73.9851 8.63352 74.6158 8.48864 75.2891 8.48864C76.0561 8.48864 76.7464 8.66761 77.3601 9.02557C77.9737 9.38352 78.4595 9.91406 78.8175 10.6172C79.1754 11.3203 79.3544 12.1875 79.3544 13.2188C79.3544 14.2457 79.1712 15.1321 78.8047 15.8778C78.4425 16.6236 77.9332 17.1989 77.277 17.6037C76.625 18.0043 75.8601 18.2045 74.9822 18.2045C74.1044 18.2045 73.3352 17.9979 72.6747 17.5845C72.0142 17.1669 71.5007 16.549 71.1342 15.7308C70.7678 14.9084 70.5845 13.892 70.5845 12.6818V11.6335C70.5845 9.44744 70.9553 7.78977 71.6967 6.66051C72.4425 5.53125 73.5632 4.94744 75.0589 4.90909C75.5874 4.89205 76.0582 4.88778 76.4716 4.89631C76.8849 4.90483 77.245 4.88565 77.5518 4.83878C77.8587 4.7919 78.1186 4.67898 78.3317 4.5ZM74.9822 16.8494C75.5746 16.8494 76.0838 16.7003 76.5099 16.402C76.9403 16.1037 77.2706 15.6839 77.5007 15.1428C77.7308 14.5973 77.8459 13.956 77.8459 13.2188C77.8459 12.5028 77.7287 11.8935 77.4943 11.3906C77.2642 10.8878 76.9339 10.5043 76.5036 10.2401C76.0732 9.97585 75.5575 9.84375 74.9567 9.84375C74.5178 9.84375 74.1236 9.91832 73.7741 10.0675C73.4247 10.2166 73.1264 10.4361 72.8793 10.7259C72.6321 11.0156 72.4403 11.3693 72.304 11.7869C72.1719 12.2045 72.1016 12.6818 72.093 13.2188C72.093 14.3182 72.3509 15.1982 72.8665 15.8587C73.3821 16.5192 74.0874 16.8494 74.9822 16.8494ZM81.6619 21.6818V8.18182H83.1193V9.74148H83.2983C83.4091 9.57102 83.5625 9.35369 83.7585 9.08949C83.9588 8.82102 84.2443 8.58239 84.6151 8.37358C84.9901 8.16051 85.4972 8.05398 86.1364 8.05398C86.9631 8.05398 87.6918 8.26065 88.3224 8.67401C88.9531 9.08736 89.4453 9.6733 89.799 10.4318C90.1527 11.1903 90.3295 12.0852 90.3295 13.1165C90.3295 14.1562 90.1527 15.0575 89.799 15.8203C89.4453 16.5788 88.9553 17.1669 88.3288 17.5845C87.7024 17.9979 86.9801 18.2045 86.1619 18.2045C85.5313 18.2045 85.0263 18.1001 84.647 17.8913C84.2678 17.6783 83.9759 17.4375 83.7713 17.169C83.5668 16.8963 83.4091 16.6705 83.2983 16.4915H83.1705V21.6818H81.6619ZM83.1449 13.0909C83.1449 13.8324 83.2536 14.4865 83.4709 15.0533C83.6882 15.6158 84.0057 16.0568 84.4233 16.3764C84.8409 16.6918 85.3523 16.8494 85.9574 16.8494C86.5881 16.8494 87.1143 16.6832 87.5362 16.3509C87.9624 16.0142 88.282 15.5625 88.495 14.9957C88.7124 14.4247 88.821 13.7898 88.821 13.0909C88.821 12.4006 88.7145 11.7784 88.5014 11.2244C88.2926 10.6662 87.9751 10.2251 87.549 9.90128C87.1271 9.57315 86.5966 9.40909 85.9574 9.40909C85.3438 9.40909 84.8281 9.56463 84.4105 9.87571C83.9929 10.1825 83.6776 10.6129 83.4645 11.1669C83.2514 11.7166 83.1449 12.358 83.1449 13.0909ZM96.7472 18.2045C95.8011 18.2045 94.9851 17.9957 94.299 17.5781C93.6172 17.1562 93.0909 16.5682 92.7202 15.8139C92.3537 15.0554 92.1705 14.1733 92.1705 13.1676C92.1705 12.1619 92.3537 11.2756 92.7202 10.5085C93.0909 9.73722 93.6065 9.13636 94.267 8.70597C94.9318 8.27131 95.7074 8.05398 96.5938 8.05398C97.1051 8.05398 97.6101 8.1392 98.1087 8.30966C98.6072 8.48011 99.0611 8.7571 99.4702 9.14062C99.8793 9.51989 100.205 10.0227 100.448 10.6491C100.691 11.2756 100.812 12.0469 100.812 12.9631V13.6023H93.2443V12.2983H99.2784C99.2784 11.7443 99.1676 11.25 98.946 10.8153C98.7287 10.3807 98.4176 10.0376 98.0128 9.78622C97.6122 9.5348 97.1392 9.40909 96.5938 9.40909C95.9929 9.40909 95.473 9.55824 95.0341 9.85653C94.5994 10.1506 94.2649 10.5341 94.0305 11.0071C93.7962 11.4801 93.679 11.9872 93.679 12.5284V13.3977C93.679 14.1392 93.8068 14.7678 94.0625 15.2834C94.3224 15.7947 94.6825 16.1847 95.1428 16.4531C95.603 16.7173 96.1378 16.8494 96.7472 16.8494C97.1435 16.8494 97.5014 16.794 97.821 16.6832C98.1449 16.5682 98.424 16.3977 98.6584 16.1719C98.8928 15.9418 99.0739 15.6562 99.2017 15.3153L100.659 15.7244C100.506 16.2188 100.248 16.6534 99.8857 17.0284C99.5234 17.3991 99.076 17.6889 98.5433 17.8977C98.0107 18.1023 97.4119 18.2045 96.7472 18.2045ZM104.616 15.7756L109.346 8.18182H111.085V18H109.576V10.4062L104.871 18H103.107V8.18182H104.616V15.7756ZM108.349 4.90909H109.755C109.755 5.59943 109.516 6.16406 109.039 6.60298C108.562 7.0419 107.914 7.26136 107.096 7.26136C106.29 7.26136 105.649 7.0419 105.172 6.60298C104.699 6.16406 104.462 5.59943 104.462 4.90909H105.869C105.869 5.24148 105.96 5.53338 106.143 5.7848C106.331 6.03622 106.648 6.16193 107.096 6.16193C107.543 6.16193 107.863 6.03622 108.055 5.7848C108.251 5.53338 108.349 5.24148 108.349 4.90909ZM113.847 18V8.18182H115.356V12.4517H116.353L119.882 8.18182H121.825L117.862 12.9119L121.876 18H119.933L116.711 13.858H115.356V18H113.847Z" fill="#FFEE32"></path>
<path d="M22.7784 45.179C21.9347 45.179 21.1825 45.0341 20.522 44.7443C19.8658 44.4545 19.3438 44.0518 18.956 43.5362C18.5724 43.0163 18.3636 42.4134 18.3295 41.7273H19.9403C19.9744 42.1491 20.1193 42.5135 20.375 42.8203C20.6307 43.1229 20.9652 43.3572 21.3786 43.5234C21.7919 43.6896 22.25 43.7727 22.7528 43.7727C23.3153 43.7727 23.8139 43.6747 24.2486 43.4787C24.6832 43.2827 25.0241 43.0099 25.2713 42.6605C25.5185 42.3111 25.642 41.9062 25.642 41.446C25.642 40.9645 25.5227 40.5405 25.2841 40.174C25.0455 39.8033 24.696 39.5135 24.2358 39.3047C23.7756 39.0959 23.2131 38.9915 22.5483 38.9915H21.5V37.5852H22.5483C23.0682 37.5852 23.5241 37.4915 23.9162 37.304C24.3125 37.1165 24.6214 36.8523 24.843 36.5114C25.0689 36.1705 25.1818 35.7699 25.1818 35.3097C25.1818 34.8665 25.0838 34.4808 24.8878 34.1527C24.6918 33.8246 24.4148 33.5689 24.0568 33.3857C23.7031 33.2024 23.2855 33.1108 22.804 33.1108C22.3523 33.1108 21.9261 33.1939 21.5256 33.3601C21.1293 33.522 20.8054 33.7585 20.554 34.0696C20.3026 34.3764 20.1662 34.7472 20.1449 35.1818H18.6108C18.6364 34.4957 18.843 33.8949 19.2308 33.3793C19.6186 32.8594 20.1257 32.4545 20.7521 32.1648C21.3828 31.875 22.0753 31.7301 22.8295 31.7301C23.6392 31.7301 24.3338 31.8942 24.9134 32.2223C25.4929 32.5462 25.9382 32.9744 26.2493 33.5071C26.5604 34.0398 26.7159 34.6151 26.7159 35.233C26.7159 35.9702 26.522 36.5987 26.1342 37.1186C25.7507 37.6385 25.2287 37.9986 24.5682 38.1989V38.3011C25.3949 38.4375 26.0405 38.7891 26.505 39.3558C26.9695 39.9183 27.2017 40.6151 27.2017 41.446C27.2017 42.1577 27.0078 42.7969 26.62 43.3636C26.2365 43.9261 25.7124 44.3693 25.0476 44.6932C24.3828 45.017 23.6264 45.179 22.7784 45.179ZM34.0859 45.179C33.1229 45.179 32.3026 44.9169 31.625 44.3928C30.9474 43.8643 30.4297 43.0994 30.0717 42.098C29.7138 41.0923 29.5348 39.8778 29.5348 38.4545C29.5348 37.0398 29.7138 35.8317 30.0717 34.8303C30.4339 33.8246 30.9538 33.0575 31.6314 32.5291C32.3132 31.9964 33.1314 31.7301 34.0859 31.7301C35.0405 31.7301 35.8565 31.9964 36.5341 32.5291C37.2159 33.0575 37.7358 33.8246 38.0938 34.8303C38.456 35.8317 38.6371 37.0398 38.6371 38.4545C38.6371 39.8778 38.4581 41.0923 38.1001 42.098C37.7422 43.0994 37.2244 43.8643 36.5469 44.3928C35.8693 44.9169 35.049 45.179 34.0859 45.179ZM34.0859 43.7727C35.0405 43.7727 35.782 43.3125 36.3104 42.392C36.8388 41.4716 37.103 40.1591 37.103 38.4545C37.103 37.321 36.9815 36.3558 36.7386 35.5589C36.5 34.7621 36.1548 34.1548 35.7031 33.7372C35.2557 33.3196 34.7166 33.1108 34.0859 33.1108C33.1399 33.1108 32.4006 33.5774 31.8679 34.5107C31.3352 35.4396 31.0689 36.7543 31.0689 38.4545C31.0689 39.5881 31.1882 40.5511 31.4268 41.3438C31.6655 42.1364 32.0085 42.7393 32.456 43.1527C32.9077 43.5661 33.451 43.7727 34.0859 43.7727ZM51.5234 42.9545L54.9496 35.1818H56.3814L52.1371 45H50.9098L46.7422 35.1818H48.1484L51.5234 42.9545ZM47.6626 35.1818V45H46.1541V35.1818H47.6626ZM55.3842 45V35.1818H56.8928V45H55.3842ZM61.1626 42.7756L65.8928 35.1818H67.6314V45H66.1229V37.4062L61.4183 45H59.6541V35.1818H61.1626V42.7756ZM76.9654 39.4006V40.8068H71.5449V39.4006H76.9654ZM71.9029 35.1818V45H70.3944V35.1818H71.9029ZM78.1159 35.1818V45H76.6074V35.1818H78.1159ZM81.4909 48.6818C81.2353 48.6818 81.0073 48.6605 80.807 48.6179C80.6067 48.5795 80.4682 48.5412 80.3915 48.5028L80.775 47.1733C81.1415 47.267 81.4654 47.3011 81.7466 47.2756C82.0279 47.25 82.2772 47.1243 82.4945 46.8984C82.7161 46.6768 82.9185 46.3168 83.1017 45.8182L83.383 45.0511L79.7523 35.1818H81.3887L84.0989 43.0057H84.2012L86.9114 35.1818H88.5478L84.3801 46.4318C84.1926 46.9389 83.9604 47.3587 83.6834 47.6911C83.4064 48.0277 83.0847 48.277 82.7182 48.4389C82.356 48.6009 81.9469 48.6818 81.4909 48.6818ZM89.9764 36.5881V35.1818H97.9537V36.5881H94.7321V45H93.2235V36.5881H89.9764Z" fill="white"></path>
</svg>
