<svg width="292" height="139" fill="none" xmlns="http://www.w3.org/2000/svg"><path d="M0 79h292v60H0V79Z" fill="#FFEE32"/><path stroke="#FFEE32" stroke-width="4" d="M6 111V11"/><circle cx="6" cy="12" r="6" fill="#FFEE32"/><rect x="8" y="83" width="280" height="52" rx="26" fill="#000"/><circle cx="23" cy="109" r="11" fill="#fff"/><path d="M75.685 98.636V119h-3.083v-17.281h-.119l-4.872 3.182v-2.944l5.08-3.32h2.994ZM81.193 119v-2.227l6.89-7.139a38.008 38.008 0 0 0 1.82-2.039c.484-.59.846-1.15 1.084-1.68a4.075 4.075 0 0 0 .358-1.691c0-.676-.159-1.259-.477-1.75a3.119 3.119 0 0 0-1.303-1.143c-.55-.272-1.17-.408-1.859-.408-.73 0-1.366.149-1.91.448a3.062 3.062 0 0 0-1.252 1.263c-.292.543-.438 1.179-.438 1.909h-2.933c0-1.24.285-2.324.855-3.252a5.808 5.808 0 0 1 2.347-2.157c.994-.517 2.124-.776 3.39-.776 1.28 0 2.407.255 3.381.766.981.503 1.747 1.193 2.297 2.068.55.868.826 1.849.826 2.943a5.99 5.99 0 0 1-.428 2.217c-.278.723-.766 1.528-1.462 2.416-.696.882-1.664 1.953-2.903 3.212l-4.047 4.236v.149h9.168V119H81.193Zm19.171-2.526a1.931 1.931 0 0 1-1.402-.576 1.925 1.925 0 0 1-.587-1.412c0-.544.195-1.008.587-1.392a1.914 1.914 0 0 1 1.402-.587c.543 0 1.011.196 1.402.587.391.384.586.848.586 1.392a1.9 1.9 0 0 1-.278 1.004 2.062 2.062 0 0 1-.716.716c-.298.179-.63.268-.994.268Zm0-10.201a1.932 1.932 0 0 1-1.402-.577 1.925 1.925 0 0 1-.587-1.412c0-.543.195-1.007.587-1.392a1.914 1.914 0 0 1 1.402-.587c.543 0 1.011.196 1.402.587.391.385.586.849.586 1.392 0 .365-.093.699-.278 1.004a2.054 2.054 0 0 1-.716.716c-.298.179-.63.269-.994.269Zm13.02 13.005c-1.365 0-2.585-.235-3.659-.706-1.067-.47-1.912-1.123-2.535-1.958-.617-.842-.948-1.817-.995-2.924h3.122c.04.604.242 1.127.607 1.571.371.438.855.776 1.452 1.015a5.318 5.318 0 0 0 1.988.358c.802 0 1.512-.14 2.128-.418.623-.279 1.111-.666 1.462-1.163.351-.504.527-1.084.527-1.741 0-.682-.176-1.282-.527-1.799-.345-.524-.852-.935-1.521-1.233-.663-.298-1.465-.448-2.407-.448h-1.72v-2.505h1.72c.756 0 1.419-.136 1.989-.408.577-.272 1.027-.65 1.352-1.133.325-.491.487-1.064.487-1.721 0-.629-.142-1.176-.427-1.64a2.873 2.873 0 0 0-1.193-1.104c-.511-.265-1.114-.398-1.81-.398-.663 0-1.283.123-1.859.368a3.443 3.443 0 0 0-1.392 1.034c-.358.444-.551.978-.577 1.601h-2.973c.033-1.1.358-2.068.974-2.903.623-.836 1.445-1.488 2.466-1.96 1.021-.47 2.155-.705 3.401-.705 1.306 0 2.433.255 3.38.766.955.503 1.691 1.176 2.208 2.018a5.06 5.06 0 0 1 .775 2.764c.007 1.14-.311 2.108-.954 2.904-.636.795-1.485 1.329-2.546 1.601v.159c1.353.205 2.4.742 3.142 1.61.75.869 1.121 1.946 1.114 3.232.007 1.12-.305 2.124-.935 3.013-.623.888-1.474 1.587-2.555 2.098-1.08.504-2.317.755-3.709.755Zm18.047.06c-1.571-.007-2.913-.421-4.027-1.243-1.114-.822-1.965-2.018-2.555-3.589-.59-1.571-.885-3.464-.885-5.678 0-2.207.295-4.093.885-5.658.596-1.564 1.451-2.757 2.565-3.58 1.12-.821 2.459-1.232 4.017-1.232 1.558 0 2.894.414 4.007 1.243 1.114.822 1.966 2.015 2.556 3.579.596 1.558.894 3.441.894 5.648 0 2.221-.294 4.117-.884 5.688-.59 1.564-1.442 2.761-2.556 3.589-1.113.822-2.452 1.233-4.017 1.233Zm0-2.655c1.379 0 2.456-.673 3.232-2.018.782-1.346 1.173-3.291 1.173-5.837 0-1.69-.179-3.119-.537-4.285-.351-1.174-.858-2.062-1.521-2.665a3.33 3.33 0 0 0-2.347-.915c-1.372 0-2.449.676-3.231 2.028-.783 1.353-1.177 3.298-1.184 5.837 0 1.697.176 3.132.527 4.306.358 1.166.865 2.051 1.522 2.654.656.597 1.445.895 2.366.895ZM17.46 21.17v-4.576h.844c.29-.265.563-.637.818-1.119.26-.486.48-1.133.659-1.943.183-.814.304-1.847.364-3.1l.281-5.523H28.2v11.685h1.508v4.55H28.2V18h-9.23v3.17H17.46Zm2.736-4.576h6.494V6.315h-4.832l-.205 4.117c-.05.954-.14 1.82-.268 2.595a13.333 13.333 0 0 1-.492 2.052 7.073 7.073 0 0 1-.697 1.515Zm15.819 1.61c-.946 0-1.762-.208-2.448-.626a4.205 4.205 0 0 1-1.58-1.764c-.366-.759-.549-1.64-.549-2.646s.183-1.892.55-2.66c.37-.77.886-1.372 1.547-1.802.664-.435 1.44-.652 2.326-.652.512 0 1.017.085 1.515.256.499.17.953.447 1.362.83.409.38.735.883.978 1.51.243.626.364 1.397.364 2.313v.64h-7.568v-1.305h6.034c0-.554-.11-1.048-.332-1.483a2.505 2.505 0 0 0-.934-1.029c-.4-.251-.873-.377-1.419-.377-.6 0-1.12.15-1.56.448-.434.294-.769.677-1.003 1.15a3.38 3.38 0 0 0-.351 1.521v.87c0 .741.127 1.37.383 1.885.26.512.62.902 1.08 1.17.46.264.995.396 1.605.396.396 0 .754-.055 1.074-.166.324-.115.603-.285.837-.511.234-.23.415-.516.543-.857l1.458.41a3.231 3.231 0 0 1-.774 1.303c-.362.371-.81.66-1.342.87-.533.204-1.132.306-1.796.306Zm11.73-2.25 3.425-7.772h1.432L48.358 18H47.13l-4.168-9.818h1.406l3.375 7.772Zm-3.862-7.772V18h-1.508V8.182h1.508ZM51.605 18V8.182h1.509V18h-1.51Zm8.259.204c-.887 0-1.665-.21-2.334-.632-.664-.422-1.184-1.012-1.56-1.77-.37-.76-.555-1.646-.555-2.66 0-1.023.185-1.915.556-2.678.375-.763.895-1.355 1.56-1.777.668-.422 1.446-.633 2.333-.633.886 0 1.661.21 2.326.633.67.422 1.19 1.014 1.56 1.777.375.763.562 1.655.562 2.678 0 1.014-.187 1.9-.562 2.66-.37.758-.89 1.348-1.56 1.77-.665.422-1.44.633-2.326.633Zm0-1.355c.673 0 1.227-.172 1.661-.517.435-.346.757-.8.966-1.362a5.213 5.213 0 0 0 .313-1.828c0-.656-.105-1.268-.313-1.835a3.093 3.093 0 0 0-.966-1.374c-.434-.35-.988-.524-1.661-.524-.674 0-1.228.175-1.662.524-.435.35-.757.808-.966 1.374a5.266 5.266 0 0 0-.313 1.835c0 .656.105 1.266.313 1.828.21.563.53 1.016.966 1.362.434.345.988.517 1.662.517Zm13.322-4.448v1.406h-5.42V12.4h5.42Zm-5.062-4.22V18h-1.509V8.182h1.509Zm6.213 0V18h-1.509V8.182h1.509Zm6.743 10.024c-.92 0-1.713-.218-2.378-.652-.664-.435-1.176-1.034-1.534-1.797-.358-.762-.537-1.634-.537-2.614 0-.997.184-1.877.55-2.64.37-.767.886-1.366 1.547-1.796.665-.435 1.44-.652 2.327-.652.69 0 1.312.128 1.866.383a3.575 3.575 0 0 1 1.362 1.074c.353.46.573.998.658 1.611h-1.508c-.116-.447-.371-.844-.768-1.189-.392-.35-.92-.524-1.585-.524-.588 0-1.103.153-1.547.46-.439.303-.782.731-1.029 1.285-.243.55-.364 1.195-.364 1.937 0 .758.12 1.419.358 1.981.243.563.584 1 1.023 1.31.443.312.963.467 1.56.467.391 0 .747-.068 1.067-.204.32-.136.59-.332.812-.588.221-.256.379-.563.473-.92h1.508a3.495 3.495 0 0 1-.633 1.565c-.332.46-.773.827-1.323 1.1-.545.268-1.18.402-1.905.402Zm5.293-8.617V8.182h7.977v1.406H91.13V18H89.62V9.588h-3.247ZM96.55 21.682v-13.5h1.457v1.56h.179c.11-.171.264-.388.46-.653.2-.268.486-.507.857-.715.375-.213.882-.32 1.521-.32.827 0 1.555.207 2.186.62.631.413 1.123 1 1.477 1.758.353.758.53 1.653.53 2.684 0 1.04-.177 1.941-.53 2.704-.354.759-.844 1.347-1.47 1.764-.627.414-1.349.62-2.167.62-.631 0-1.136-.104-1.515-.313-.38-.213-.671-.453-.876-.722a9.646 9.646 0 0 1-.473-.678h-.128v5.19h-1.508Zm1.483-8.591c0 .741.108 1.396.326 1.962.217.563.534 1.004.952 1.323.418.316.929.473 1.534.473.631 0 1.157-.166 1.579-.498.426-.337.746-.788.959-1.355a5.325 5.325 0 0 0 .326-1.905c0-.69-.107-1.313-.32-1.867-.209-.558-.526-.999-.952-1.323-.422-.328-.953-.492-1.592-.492-.614 0-1.13.156-1.547.467-.417.306-.733.737-.946 1.29-.213.55-.32 1.192-.32 1.925Zm12.375 5.14a3.988 3.988 0 0 1-1.694-.352 2.906 2.906 0 0 1-1.208-1.03c-.299-.451-.448-.997-.448-1.636 0-.562.111-1.018.333-1.368.221-.354.517-.63.888-.83.371-.201.78-.35 1.227-.448.452-.103.906-.184 1.362-.243.596-.077 1.08-.134 1.451-.173.375-.042.648-.113.818-.21.175-.099.262-.27.262-.512v-.051c0-.63-.173-1.12-.518-1.47-.341-.35-.858-.524-1.553-.524-.72 0-1.285.157-1.694.473-.409.315-.697.652-.863 1.01l-1.432-.512c.256-.596.597-1.061 1.023-1.393a3.837 3.837 0 0 1 1.406-.703 5.848 5.848 0 0 1 1.509-.205c.315 0 .677.038 1.087.115.413.072.811.224 1.195.454.388.23.709.577.965 1.042.256.464.384 1.086.384 1.866V18H113.4v-1.33h-.077a2.64 2.64 0 0 1-.511.684c-.239.243-.556.45-.952.62-.397.17-.88.256-1.451.256Zm.23-1.356c.596 0 1.099-.117 1.508-.352.414-.234.725-.537.933-.907.214-.371.32-.76.32-1.17v-1.38c-.064.076-.205.146-.422.21-.213.06-.46.113-.741.16a34 34 0 0 1-1.445.192 5.77 5.77 0 0 0-1.099.25c-.337.11-.61.278-.819.504-.204.222-.306.524-.306.908 0 .524.194.92.581 1.189.392.264.889.396 1.49.396Zm14.745-8.693v8.412h1.38v4.576h-1.508V18h-7.594V8.182h1.508v8.412h4.705V8.182h1.509Zm5.212 7.594 4.73-7.594h1.739V18h-1.509v-7.594L130.852 18h-1.764V8.182h1.508v7.594ZM145.734 18V9.562h-2.608c-.588 0-1.05.137-1.387.41-.336.272-.505.647-.505 1.125 0 .468.151.837.454 1.105.307.269.727.403 1.259.403h3.171v1.406h-3.171c-.665 0-1.238-.117-1.719-.351a2.57 2.57 0 0 1-1.112-1.004c-.26-.439-.39-.959-.39-1.56 0-.604.136-1.124.409-1.56.272-.434.662-.768 1.17-1.003.511-.234 1.118-.351 1.821-.351h4.04V18h-1.432Zm-6.545 0 2.787-4.883h1.636L140.825 18h-1.636Zm22.38-5.6v1.407h-5.421V12.4h5.421Zm-5.063-4.218V18h-1.508V8.182h1.508Zm6.213 0V18h-1.508V8.182h1.508Zm5.645 10.048a3.988 3.988 0 0 1-1.694-.351 2.906 2.906 0 0 1-1.208-1.03c-.299-.451-.448-.997-.448-1.636 0-.562.111-1.018.333-1.368.221-.354.517-.63.888-.83.371-.201.78-.35 1.227-.448.452-.103.906-.184 1.362-.243.596-.077 1.08-.134 1.451-.173.375-.042.648-.113.818-.21.175-.099.262-.27.262-.512v-.051c0-.63-.172-1.12-.518-1.47-.341-.35-.858-.524-1.553-.524-.72 0-1.285.157-1.694.473-.409.315-.697.652-.863 1.01l-1.432-.512c.256-.596.597-1.061 1.023-1.393a3.837 3.837 0 0 1 1.406-.703 5.848 5.848 0 0 1 1.509-.205c.315 0 .678.038 1.087.115.413.072.811.224 1.195.454.388.23.709.577.965 1.042.256.464.384 1.086.384 1.866V18h-1.509v-1.33h-.077a2.64 2.64 0 0 1-.511.684c-.239.243-.556.45-.952.62-.397.17-.88.256-1.451.256Zm.23-1.355c.596 0 1.099-.117 1.508-.352a2.392 2.392 0 0 0 1.253-2.077v-1.38c-.064.076-.204.146-.422.21-.213.06-.46.113-.741.16a34 34 0 0 1-1.445.192 5.77 5.77 0 0 0-1.099.25c-.337.11-.61.278-.818.504-.205.222-.307.524-.307.908 0 .524.194.92.581 1.189.392.264.889.396 1.49.396Zm17.455-.92 3.426-7.773h1.432L186.662 18h-1.227l-4.167-9.818h1.406l3.375 7.772Zm-3.861-7.773V18h-1.508V8.182h1.508ZM189.91 18V8.182h1.508V18h-1.508Zm8.258.204c-.886 0-1.664-.21-2.333-.632-.665-.422-1.185-1.012-1.56-1.77-.37-.76-.556-1.646-.556-2.66 0-1.023.186-1.915.556-2.678.375-.763.895-1.355 1.56-1.777.669-.422 1.447-.633 2.333-.633.887 0 1.662.21 2.327.633.669.422 1.189 1.014 1.56 1.777.375.763.562 1.655.562 2.678 0 1.014-.187 1.9-.562 2.66-.371.758-.891 1.348-1.56 1.77-.665.422-1.44.633-2.327.633Zm0-1.355c.673 0 1.227-.172 1.662-.517.435-.346.756-.8.965-1.362a5.208 5.208 0 0 0 .313-1.828c0-.656-.104-1.268-.313-1.835a3.09 3.09 0 0 0-.965-1.374c-.435-.35-.989-.524-1.662-.524-.673 0-1.227.175-1.662.524-.434.35-.756.808-.965 1.374a5.261 5.261 0 0 0-.313 1.835c0 .656.104 1.266.313 1.828.209.563.531 1.016.965 1.362.435.345.989.517 1.662.517Zm5.703 3.963v-4.218h.819a3.73 3.73 0 0 0 .895-1.54c.11-.337.204-.747.281-1.228.076-.486.145-1.072.204-1.758l.333-3.886h6.238v8.412h1.509v4.218h-1.509V18h-7.261v2.813h-1.509Zm2.532-4.218h4.73V9.588h-3.324l-.256 2.48a27.502 27.502 0 0 1-.396 2.691c-.158.767-.409 1.379-.754 1.835Zm13.866 1.61c-.946 0-1.762-.208-2.449-.626a4.203 4.203 0 0 1-1.578-1.764c-.367-.759-.55-1.64-.55-2.646s.183-1.892.55-2.66c.37-.77.886-1.372 1.547-1.802.664-.435 1.44-.652 2.326-.652a4.65 4.65 0 0 1 1.515.256c.499.17.953.447 1.362.83.409.38.735.883.978 1.51.243.626.364 1.397.364 2.313v.64h-7.568v-1.305h6.034c0-.554-.111-1.048-.332-1.483a2.51 2.51 0 0 0-.934-1.029c-.4-.251-.873-.377-1.419-.377-.601 0-1.121.15-1.559.448-.435.294-.77.677-1.004 1.15-.234.473-.352.98-.352 1.521v.87c0 .741.128 1.37.384 1.885.26.512.62.902 1.08 1.17.46.264.995.396 1.605.396.396 0 .754-.055 1.074-.166a2.31 2.31 0 0 0 .837-.511 2.33 2.33 0 0 0 .543-.857l1.458.41a3.241 3.241 0 0 1-.774 1.303c-.362.371-.81.66-1.342.87-.533.204-1.132.306-1.796.306Zm5.49-.204v-1.406h.358c.294 0 .539-.058.735-.173.196-.12.354-.326.473-.62.124-.298.218-.712.282-1.24.068-.533.117-1.21.147-2.033l.179-4.346h6.545V18h-1.508V9.588h-3.605l-.154 3.503a15.841 15.841 0 0 1-.217 2.129c-.107.609-.271 1.12-.492 1.534a2.26 2.26 0 0 1-.87.933c-.362.209-.816.313-1.361.313h-.512Zm12.995-2.224 4.731-7.594h1.738V18h-1.508v-7.594L239.01 18h-1.764V8.182h1.508v7.594Z" fill="#FFEE32"/><path d="M22.957 31.91V45h-1.585V33.571h-.076l-3.197 2.122v-1.61l3.273-2.174h1.585Zm4.117 13.192c-.316 0-.586-.113-.812-.338a1.107 1.107 0 0 1-.339-.812c0-.316.113-.586.34-.812.225-.226.495-.339.81-.339.316 0 .587.113.813.339.226.226.338.496.338.812 0 .209-.053.4-.16.575-.102.175-.24.315-.415.422-.17.102-.362.153-.575.153Zm7.66.077c-.75 0-1.426-.15-2.027-.448a3.764 3.764 0 0 1-1.445-1.227 3.343 3.343 0 0 1-.594-1.777h1.534c.06.593.328 1.083.805 1.47.482.384 1.057.576 1.726.576.537 0 1.014-.126 1.432-.377.422-.252.752-.597.99-1.036.244-.443.365-.944.365-1.502 0-.571-.126-1.08-.377-1.528a2.767 2.767 0 0 0-1.023-1.067 2.888 2.888 0 0 0-1.49-.396c-.4-.005-.81.057-1.233.185-.422.123-.769.283-1.042.48l-1.483-.18.793-6.443h6.801v1.406h-5.471l-.46 3.861h.076c.268-.213.605-.39 1.01-.53a3.83 3.83 0 0 1 1.265-.211c.802 0 1.515.191 2.142.575.63.38 1.125.9 1.483 1.56.362.66.543 1.414.543 2.262 0 .836-.187 1.581-.562 2.238a4.113 4.113 0 0 1-1.534 1.547c-.652.375-1.394.562-2.225.562Zm19.516-9.997V45H52.74v-9.818h1.509Zm-.588 4.679v1.406c-.341.128-.68.24-1.017.339-.336.094-.69.168-1.06.224a8.96 8.96 0 0 1-1.222.076c-1.112 0-2.005-.3-2.678-.901-.669-.6-1.004-1.502-1.004-2.704v-3.145h1.509v3.145c0 .503.096.916.288 1.24.191.324.451.565.78.723a2.52 2.52 0 0 0 1.105.236c.64 0 1.217-.057 1.733-.173.52-.119 1.041-.274 1.566-.466Zm6.245 5.37a3.99 3.99 0 0 1-1.694-.352 2.907 2.907 0 0 1-1.208-1.03c-.299-.451-.448-.997-.448-1.636 0-.562.111-1.018.333-1.368.221-.353.517-.63.888-.83.37-.201.78-.35 1.227-.448.452-.102.906-.184 1.362-.243.596-.077 1.08-.134 1.45-.173.376-.042.649-.113.819-.21.175-.099.262-.27.262-.512v-.051c0-.63-.173-1.12-.518-1.47-.34-.35-.858-.525-1.553-.525-.72 0-1.285.158-1.694.473-.409.316-.697.652-.863 1.01l-1.432-.51c.256-.598.597-1.062 1.023-1.394.43-.337.9-.571 1.406-.704a5.841 5.841 0 0 1 1.509-.204c.315 0 .677.038 1.087.115a3.48 3.48 0 0 1 1.195.454c.388.23.71.577.965 1.042.256.464.384 1.086.384 1.866V45h-1.509v-1.33h-.077a2.656 2.656 0 0 1-.511.684c-.239.243-.556.45-.952.62-.397.17-.88.256-1.451.256Zm.23-1.356c.596 0 1.1-.117 1.508-.352a2.393 2.393 0 0 0 1.253-2.077v-1.38c-.064.076-.205.146-.422.21-.213.06-.46.113-.741.16a33.842 33.842 0 0 1-1.445.192 5.772 5.772 0 0 0-1.1.25c-.336.11-.609.278-.817.504-.205.222-.307.524-.307.908 0 .524.194.92.581 1.189.392.264.889.396 1.49.396Zm11.012 1.33c-.92 0-1.713-.218-2.378-.652-.665-.435-1.176-1.034-1.534-1.797-.358-.762-.537-1.634-.537-2.614 0-.997.183-1.877.55-2.64.37-.767.886-1.366 1.546-1.796.665-.435 1.44-.652 2.327-.652.69 0 1.313.128 1.867.383a3.574 3.574 0 0 1 1.361 1.074c.354.46.573.997.658 1.611h-1.508c-.115-.447-.37-.844-.767-1.189-.392-.35-.92-.524-1.585-.524-.588 0-1.104.154-1.547.46-.44.303-.782.731-1.03 1.285-.242.55-.364 1.195-.364 1.937 0 .758.12 1.419.358 1.981.243.563.584 1 1.023 1.31.443.312.963.467 1.56.467.392 0 .748-.068 1.067-.204.32-.137.59-.333.812-.588.221-.256.38-.563.473-.92h1.508a3.495 3.495 0 0 1-.632 1.565c-.333.46-.774.827-1.324 1.1-.545.268-1.18.403-1.904.403Zm8.955.025a3.99 3.99 0 0 1-1.694-.351 2.907 2.907 0 0 1-1.208-1.03c-.298-.451-.448-.997-.448-1.636 0-.562.111-1.018.333-1.368.221-.353.518-.63.888-.83.371-.201.78-.35 1.228-.448.451-.102.905-.184 1.361-.243.597-.077 1.08-.134 1.451-.173.375-.042.648-.113.818-.21.175-.099.262-.27.262-.512v-.051c0-.63-.172-1.12-.517-1.47-.341-.35-.86-.525-1.554-.525-.72 0-1.284.158-1.694.473-.409.316-.696.652-.862 1.01l-1.432-.51c.255-.598.596-1.062 1.022-1.394.43-.337.9-.571 1.407-.704a5.84 5.84 0 0 1 1.508-.204c.316 0 .678.038 1.087.115.413.073.812.224 1.195.454.388.23.71.577.965 1.042.256.464.384 1.086.384 1.866V45h-1.509v-1.33h-.076a2.655 2.655 0 0 1-.512.684c-.238.243-.556.45-.952.62-.396.17-.88.256-1.451.256Zm.23-1.355c.597 0 1.1-.117 1.508-.352a2.392 2.392 0 0 0 1.253-2.077v-1.38c-.064.076-.204.146-.421.21-.214.06-.46.113-.742.16a33.842 33.842 0 0 1-1.445.192 5.77 5.77 0 0 0-1.099.25c-.337.11-.61.278-.818.504-.205.222-.307.524-.307.908 0 .524.194.92.582 1.189.392.264.888.396 1.489.396Z" fill="#fff"/></svg>