<svg width="172" height="139" viewBox="0 0 172 139" fill="none" xmlns="http://www.w3.org/2000/svg">
<path d="M0 79H172V139H0V79Z" fill="#FFEE32"></path>
<line x1="6" y1="111" x2="6" y2="11" stroke="#FFEE32" stroke-width="4"></line>
<circle cx="6" cy="12" r="6" fill="#FFEE32"></circle>
<rect x="8" y="83" width="160" height="52" rx="26" fill="black"></rect>
<circle cx="23" cy="109" r="11" fill="white"></circle>
<path d="M75.6847 98.6364V119H72.6023V101.719H72.483L67.6108 104.901V101.957L72.6918 98.6364H75.6847ZM80.7656 115.023V112.537L89.5653 98.6364H91.5241V102.295H90.2812L83.9872 112.259V112.418H96.0483V115.023H80.7656ZM90.4205 119V114.267L90.4403 113.134V98.6364H93.3537V119H90.4205ZM101.512 116.474C100.969 116.474 100.501 116.282 100.11 115.898C99.719 115.507 99.5234 115.036 99.5234 114.486C99.5234 113.942 99.719 113.478 100.11 113.094C100.501 112.703 100.969 112.507 101.512 112.507C102.056 112.507 102.523 112.703 102.914 113.094C103.305 113.478 103.501 113.942 103.501 114.486C103.501 114.85 103.408 115.185 103.222 115.49C103.043 115.788 102.805 116.027 102.506 116.206C102.208 116.385 101.877 116.474 101.512 116.474ZM101.512 106.273C100.969 106.273 100.501 106.08 100.11 105.696C99.719 105.305 99.5234 104.834 99.5234 104.284C99.5234 103.741 99.719 103.277 100.11 102.892C100.501 102.501 100.969 102.305 101.512 102.305C102.056 102.305 102.523 102.501 102.914 102.892C103.305 103.277 103.501 103.741 103.501 104.284C103.501 104.649 103.408 104.983 103.222 105.288C103.043 105.587 102.805 105.825 102.506 106.004C102.208 106.183 101.877 106.273 101.512 106.273ZM114.533 119.338C112.962 119.331 111.619 118.917 110.506 118.095C109.392 117.273 108.54 116.077 107.95 114.506C107.36 112.935 107.065 111.042 107.065 108.828C107.065 106.621 107.36 104.735 107.95 103.17C108.547 101.606 109.402 100.413 110.516 99.5909C111.636 98.7689 112.975 98.358 114.533 98.358C116.09 98.358 117.426 98.7723 118.54 99.6009C119.653 100.423 120.505 101.616 121.095 103.18C121.692 104.738 121.99 106.621 121.99 108.828C121.99 111.049 121.695 112.945 121.105 114.516C120.515 116.08 119.663 117.277 118.55 118.105C117.436 118.927 116.097 119.338 114.533 119.338ZM114.533 116.683C115.911 116.683 116.989 116.01 117.764 114.665C118.546 113.319 118.938 111.374 118.938 108.828C118.938 107.138 118.759 105.709 118.401 104.543C118.049 103.369 117.542 102.481 116.879 101.878C116.223 101.268 115.441 100.963 114.533 100.963C113.161 100.963 112.083 101.639 111.301 102.991C110.519 104.344 110.125 106.289 110.118 108.828C110.118 110.525 110.294 111.96 110.645 113.134C111.003 114.3 111.51 115.185 112.166 115.788C112.822 116.385 113.611 116.683 114.533 116.683ZM132.607 119.338C131.036 119.331 129.694 118.917 128.58 118.095C127.466 117.273 126.614 116.077 126.025 114.506C125.435 112.935 125.14 111.042 125.14 108.828C125.14 106.621 125.435 104.735 126.025 103.17C126.621 101.606 127.476 100.413 128.59 99.5909C129.71 98.7689 131.049 98.358 132.607 98.358C134.165 98.358 135.5 98.7723 136.614 99.6009C137.728 100.423 138.579 101.616 139.169 103.18C139.766 104.738 140.064 106.621 140.064 108.828C140.064 111.049 139.769 112.945 139.179 114.516C138.589 116.08 137.738 117.277 136.624 118.105C135.51 118.927 134.171 119.338 132.607 119.338ZM132.607 116.683C133.986 116.683 135.063 116.01 135.838 114.665C136.621 113.319 137.012 111.374 137.012 108.828C137.012 107.138 136.833 105.709 136.475 104.543C136.123 103.369 135.616 102.481 134.953 101.878C134.297 101.268 133.515 100.963 132.607 100.963C131.235 100.963 130.158 101.639 129.375 102.991C128.593 104.344 128.199 106.289 128.192 108.828C128.192 110.525 128.368 111.96 128.719 113.134C129.077 114.3 129.584 115.185 130.24 115.788C130.897 116.385 131.685 116.683 132.607 116.683Z" fill="#FFEE32"></path>
<path d="M29.6307 11.4545C29.6307 12.8352 29.3814 14.0284 28.8828 15.0341C28.3842 16.0398 27.7003 16.8153 26.831 17.3608C25.9616 17.9062 24.9688 18.179 23.8523 18.179C22.7358 18.179 21.7429 17.9062 20.8736 17.3608C20.0043 16.8153 19.3203 16.0398 18.8217 15.0341C18.3232 14.0284 18.0739 12.8352 18.0739 11.4545C18.0739 10.0739 18.3232 8.88068 18.8217 7.875C19.3203 6.86932 20.0043 6.09375 20.8736 5.5483C21.7429 5.00284 22.7358 4.73011 23.8523 4.73011C24.9688 4.73011 25.9616 5.00284 26.831 5.5483C27.7003 6.09375 28.3842 6.86932 28.8828 7.875C29.3814 8.88068 29.6307 10.0739 29.6307 11.4545ZM28.0966 11.4545C28.0966 10.321 27.907 9.36435 27.5277 8.58452C27.1527 7.80469 26.6435 7.21449 26 6.81392C25.3608 6.41335 24.6449 6.21307 23.8523 6.21307C23.0597 6.21307 22.3416 6.41335 21.6982 6.81392C21.0589 7.21449 20.5497 7.80469 20.1705 8.58452C19.7955 9.36435 19.608 10.321 19.608 11.4545C19.608 12.5881 19.7955 13.5447 20.1705 14.3246C20.5497 15.1044 21.0589 15.6946 21.6982 16.0952C22.3416 16.4957 23.0597 16.696 23.8523 16.696C24.6449 16.696 25.3608 16.4957 26 16.0952C26.6435 15.6946 27.1527 15.1044 27.5277 14.3246C27.907 13.5447 28.0966 12.5881 28.0966 11.4545ZM39.3786 4.5L40.1456 5.42045C39.8473 5.71023 39.5021 5.91264 39.1101 6.0277C38.718 6.14276 38.2749 6.21307 37.7805 6.23864C37.2862 6.2642 36.7365 6.28977 36.1314 6.31534C35.4496 6.34091 34.8849 6.5071 34.4375 6.81392C33.9901 7.12074 33.6449 7.56392 33.402 8.14347C33.1591 8.72301 33.0036 9.43466 32.9354 10.2784H33.0632C33.3956 9.66477 33.8558 9.21307 34.4439 8.9233C35.032 8.63352 35.6626 8.48864 36.3359 8.48864C37.103 8.48864 37.7933 8.66761 38.407 9.02557C39.0206 9.38352 39.5064 9.91406 39.8643 10.6172C40.2223 11.3203 40.4013 12.1875 40.4013 13.2188C40.4013 14.2457 40.218 15.1321 39.8516 15.8778C39.4893 16.6236 38.9801 17.1989 38.3239 17.6037C37.6719 18.0043 36.907 18.2045 36.0291 18.2045C35.1513 18.2045 34.3821 17.9979 33.7216 17.5845C33.0611 17.1669 32.5476 16.549 32.1811 15.7308C31.8146 14.9084 31.6314 13.892 31.6314 12.6818V11.6335C31.6314 9.44744 32.0021 7.78977 32.7436 6.66051C33.4893 5.53125 34.6101 4.94744 36.1058 4.90909C36.6342 4.89205 37.1051 4.88778 37.5185 4.89631C37.9318 4.90483 38.2919 4.88565 38.5987 4.83878C38.9055 4.7919 39.1655 4.67898 39.3786 4.5ZM36.0291 16.8494C36.6214 16.8494 37.1307 16.7003 37.5568 16.402C37.9872 16.1037 38.3175 15.6839 38.5476 15.1428C38.7777 14.5973 38.8928 13.956 38.8928 13.2188C38.8928 12.5028 38.7756 11.8935 38.5412 11.3906C38.3111 10.8878 37.9808 10.5043 37.5504 10.2401C37.12 9.97585 36.6044 9.84375 36.0036 9.84375C35.5646 9.84375 35.1705 9.91832 34.821 10.0675C34.4716 10.2166 34.1733 10.4361 33.9261 10.7259C33.679 11.0156 33.4872 11.3693 33.3509 11.7869C33.2188 12.2045 33.1484 12.6818 33.1399 13.2188C33.1399 14.3182 33.3977 15.1982 33.9134 15.8587C34.429 16.5192 35.1342 16.8494 36.0291 16.8494ZM46.8253 18.2045C45.8793 18.2045 45.0632 17.9957 44.3771 17.5781C43.6953 17.1562 43.169 16.5682 42.7983 15.8139C42.4318 15.0554 42.2486 14.1733 42.2486 13.1676C42.2486 12.1619 42.4318 11.2756 42.7983 10.5085C43.169 9.73722 43.6847 9.13636 44.3452 8.70597C45.0099 8.27131 45.7855 8.05398 46.6719 8.05398C47.1832 8.05398 47.6882 8.1392 48.1868 8.30966C48.6854 8.48011 49.1392 8.7571 49.5483 9.14062C49.9574 9.51989 50.2834 10.0227 50.5263 10.6491C50.7692 11.2756 50.8906 12.0469 50.8906 12.9631V13.6023H43.3224V12.2983H49.3565C49.3565 11.7443 49.2457 11.25 49.0241 10.8153C48.8068 10.3807 48.4957 10.0376 48.0909 9.78622C47.6903 9.5348 47.2173 9.40909 46.6719 9.40909C46.071 9.40909 45.5511 9.55824 45.1122 9.85653C44.6776 10.1506 44.343 10.5341 44.1087 11.0071C43.8743 11.4801 43.7571 11.9872 43.7571 12.5284V13.3977C43.7571 14.1392 43.8849 14.7678 44.1406 15.2834C44.4006 15.7947 44.7607 16.1847 45.2209 16.4531C45.6811 16.7173 46.2159 16.8494 46.8253 16.8494C47.2216 16.8494 47.5795 16.794 47.8991 16.6832C48.223 16.5682 48.5021 16.3977 48.7365 16.1719C48.9709 15.9418 49.152 15.6562 49.2798 15.3153L50.7372 15.7244C50.5838 16.2188 50.326 16.6534 49.9638 17.0284C49.6016 17.3991 49.1541 17.6889 48.6214 17.8977C48.0888 18.1023 47.4901 18.2045 46.8253 18.2045ZM52.1371 20.8125V16.5938H52.9553C53.1555 16.3849 53.3281 16.1591 53.473 15.9162C53.6179 15.6733 53.7436 15.3857 53.8501 15.0533C53.9609 14.7166 54.0547 14.3075 54.1314 13.826C54.2081 13.3402 54.2763 12.7543 54.3359 12.0682L54.6683 8.18182H60.907V16.5938H62.4155V20.8125H60.907V18H53.6456V20.8125H52.1371ZM54.6683 16.5938H59.3984V9.58807H56.0746L55.8189 12.0682C55.7124 13.0952 55.5803 13.9922 55.4226 14.7592C55.2649 15.5263 55.0135 16.1378 54.6683 16.5938Z" fill="#FFEE32"></path>
<path d="M18.3551 45V43.8494L22.6761 39.1193C23.1832 38.5653 23.6009 38.0838 23.929 37.6747C24.2571 37.2614 24.5 36.8736 24.6577 36.5114C24.8196 36.1449 24.9006 35.7614 24.9006 35.3608C24.9006 34.9006 24.7898 34.5021 24.5682 34.1655C24.3509 33.8288 24.0526 33.5689 23.6733 33.3857C23.294 33.2024 22.8679 33.1108 22.3949 33.1108C21.892 33.1108 21.4531 33.2152 21.0781 33.424C20.7074 33.6286 20.4197 33.9162 20.2152 34.2869C20.0149 34.6577 19.9148 35.0923 19.9148 35.5909H18.4062C18.4062 34.8239 18.5831 34.1506 18.9368 33.571C19.2905 32.9915 19.772 32.5398 20.3814 32.2159C20.995 31.892 21.6832 31.7301 22.446 31.7301C23.2131 31.7301 23.8928 31.892 24.4851 32.2159C25.0774 32.5398 25.5419 32.9766 25.8786 33.5263C26.2152 34.076 26.3835 34.6875 26.3835 35.3608C26.3835 35.8423 26.2962 36.3132 26.1214 36.7734C25.951 37.2294 25.6527 37.7386 25.2266 38.3011C24.8047 38.8594 24.2188 39.5412 23.4688 40.3466L20.5284 43.4915V43.5938H26.6136V45H18.3551ZM41.9098 35.1818V45H40.4013V35.1818H41.9098ZM41.3217 39.8608V41.267C40.9808 41.3949 40.642 41.5078 40.3054 41.6058C39.9688 41.6996 39.6151 41.7741 39.2443 41.8295C38.8736 41.8807 38.4666 41.9062 38.0234 41.9062C36.9112 41.9062 36.0185 41.6058 35.3452 41.005C34.6761 40.4041 34.3416 39.5028 34.3416 38.3011V35.1562H35.8501V38.3011C35.8501 38.804 35.946 39.2173 36.1378 39.5412C36.3295 39.8651 36.5895 40.1058 36.9176 40.2635C37.2457 40.4212 37.6143 40.5 38.0234 40.5C38.6626 40.5 39.2401 40.4425 39.7557 40.3274C40.2756 40.2081 40.7976 40.0526 41.3217 39.8608ZM47.5668 45.2301C46.9446 45.2301 46.38 45.1129 45.8729 44.8786C45.3658 44.6399 44.9631 44.2969 44.6648 43.8494C44.3665 43.3977 44.2173 42.8523 44.2173 42.2131C44.2173 41.6506 44.3281 41.1946 44.5497 40.8452C44.7713 40.4915 45.0675 40.2145 45.4382 40.0142C45.8089 39.8139 46.218 39.6648 46.6655 39.5668C47.1172 39.4645 47.571 39.3835 48.027 39.3239C48.6236 39.2472 49.1072 39.1896 49.478 39.1513C49.853 39.1087 50.1257 39.0384 50.2962 38.9403C50.4709 38.8423 50.5582 38.6719 50.5582 38.429V38.3778C50.5582 37.7472 50.3857 37.2571 50.0405 36.9077C49.6996 36.5582 49.1818 36.3835 48.4872 36.3835C47.767 36.3835 47.2024 36.5412 46.7933 36.8565C46.3842 37.1719 46.0966 37.5085 45.9304 37.8665L44.4986 37.3551C44.7543 36.7585 45.0952 36.294 45.5213 35.9616C45.9517 35.625 46.4205 35.3906 46.9276 35.2585C47.4389 35.1222 47.9418 35.054 48.4361 35.054C48.7514 35.054 49.1136 35.0923 49.5227 35.169C49.9361 35.2415 50.3345 35.3928 50.718 35.6229C51.1058 35.853 51.4276 36.2003 51.6832 36.6648C51.9389 37.1293 52.0668 37.7514 52.0668 38.5312V45H50.5582V43.6705H50.4815C50.3793 43.8835 50.2088 44.1115 49.9702 44.3544C49.7315 44.5973 49.4141 44.804 49.0178 44.9744C48.6214 45.1449 48.1378 45.2301 47.5668 45.2301ZM47.7969 43.875C48.3935 43.875 48.8963 43.7578 49.3054 43.5234C49.7188 43.2891 50.0298 42.9865 50.2386 42.6158C50.4517 42.245 50.5582 41.8551 50.5582 41.446V40.0653C50.4943 40.142 50.3537 40.2124 50.1364 40.2763C49.9233 40.3359 49.6761 40.3892 49.3949 40.4361C49.1179 40.4787 48.8473 40.517 48.5831 40.5511C48.3232 40.581 48.1122 40.6065 47.9503 40.6278C47.5582 40.679 47.1918 40.7621 46.8509 40.8771C46.5142 40.9879 46.2415 41.1562 46.0327 41.3821C45.8281 41.6037 45.7259 41.9062 45.7259 42.2898C45.7259 42.8139 45.9197 43.2102 46.3075 43.4787C46.6996 43.7429 47.196 43.875 47.7969 43.875ZM58.8088 45.2045C57.8883 45.2045 57.0957 44.9872 56.4309 44.5526C55.7662 44.1179 55.2548 43.5192 54.8968 42.7564C54.5389 41.9936 54.3599 41.1222 54.3599 40.142C54.3599 39.1449 54.5431 38.2649 54.9096 37.5021C55.2804 36.7351 55.796 36.1364 56.4565 35.706C57.1213 35.2713 57.8968 35.054 58.7832 35.054C59.4735 35.054 60.0957 35.1818 60.6497 35.4375C61.2037 35.6932 61.6575 36.0511 62.0112 36.5114C62.3649 36.9716 62.5843 37.5085 62.6696 38.1222H61.161C61.046 37.6747 60.7903 37.2784 60.394 36.9332C60.002 36.5838 59.4735 36.4091 58.8088 36.4091C58.2207 36.4091 57.7051 36.5625 57.2619 36.8693C56.823 37.1719 56.4799 37.6001 56.2328 38.1541C55.9899 38.7038 55.8684 39.3494 55.8684 40.0909C55.8684 40.8494 55.9877 41.5099 56.2264 42.0724C56.4693 42.6349 56.8102 43.0717 57.2491 43.3828C57.6923 43.6939 58.2122 43.8494 58.8088 43.8494C59.2008 43.8494 59.5566 43.7812 59.8762 43.6449C60.1958 43.5085 60.4664 43.3125 60.688 43.0568C60.9096 42.8011 61.0673 42.4943 61.161 42.1364H62.6696C62.5843 42.7159 62.3734 43.2379 62.0368 43.7024C61.7044 44.1626 61.2633 44.5291 60.7136 44.8018C60.1681 45.0703 59.5332 45.2045 58.8088 45.2045ZM67.764 45.2301C67.1419 45.2301 66.5772 45.1129 66.0701 44.8786C65.563 44.6399 65.1603 44.2969 64.862 43.8494C64.5637 43.3977 64.4146 42.8523 64.4146 42.2131C64.4146 41.6506 64.5254 41.1946 64.747 40.8452C64.9686 40.4915 65.2647 40.2145 65.6355 40.0142C66.0062 39.8139 66.4153 39.6648 66.8627 39.5668C67.3145 39.4645 67.7683 39.3835 68.2243 39.3239C68.8208 39.2472 69.3045 39.1896 69.6752 39.1513C70.0502 39.1087 70.323 39.0384 70.4934 38.9403C70.6681 38.8423 70.7555 38.6719 70.7555 38.429V38.3778C70.7555 37.7472 70.5829 37.2571 70.2377 36.9077C69.8968 36.5582 69.3791 36.3835 68.6845 36.3835C67.9643 36.3835 67.3997 36.5412 66.9906 36.8565C66.5815 37.1719 66.2939 37.5085 66.1277 37.8665L64.6958 37.3551C64.9515 36.7585 65.2924 36.294 65.7186 35.9616C66.149 35.625 66.6177 35.3906 67.1248 35.2585C67.6362 35.1222 68.139 35.054 68.6333 35.054C68.9487 35.054 69.3109 35.0923 69.72 35.169C70.1333 35.2415 70.5318 35.3928 70.9153 35.6229C71.3031 35.853 71.6248 36.2003 71.8805 36.6648C72.1362 37.1293 72.264 37.7514 72.264 38.5312V45H70.7555V43.6705H70.6788C70.5765 43.8835 70.4061 44.1115 70.1674 44.3544C69.9288 44.5973 69.6113 44.804 69.215 44.9744C68.8187 45.1449 68.3351 45.2301 67.764 45.2301ZM67.9941 43.875C68.5907 43.875 69.0936 43.7578 69.5027 43.5234C69.916 43.2891 70.2271 42.9865 70.4359 42.6158C70.649 42.245 70.7555 41.8551 70.7555 41.446V40.0653C70.6916 40.142 70.551 40.2124 70.3336 40.2763C70.1206 40.3359 69.8734 40.3892 69.5922 40.4361C69.3152 40.4787 69.0446 40.517 68.7804 40.5511C68.5204 40.581 68.3095 40.6065 68.1476 40.6278C67.7555 40.679 67.389 40.7621 67.0481 40.8771C66.7115 40.9879 66.4387 41.1562 66.2299 41.3821C66.0254 41.6037 65.9231 41.9062 65.9231 42.2898C65.9231 42.8139 66.117 43.2102 66.5048 43.4787C66.8968 43.7429 67.3933 43.875 67.9941 43.875Z" fill="white"></path>
</svg>
