<svg width="280" height="139" fill="none" xmlns="http://www.w3.org/2000/svg"><path d="M0 79h174v60H0V79ZM183 79h10v60h-10zM203 79h10v60h-10zM223 79h10v60h-10zM243 79h10v60h-10zM263 79h10v60h-10z" fill="#FFEE32"/><path d="M8 109c0-14.36 11.64-26 26-26h246v52H34c-14.36 0-26-11.641-26-26Z" fill="#000"/><path d="M75.685 98.636V119h-3.083v-17.281h-.119l-4.872 3.182v-2.944l5.08-3.32h2.994Zm12.618 20.642a8.21 8.21 0 0 1-2.685-.497c-.875-.318-1.67-.848-2.386-1.591-.716-.742-1.29-1.74-1.72-2.993-.425-1.252-.637-2.817-.637-4.693 0-1.776.176-3.354.527-4.733.358-1.378.872-2.542 1.541-3.49.67-.954 1.478-1.68 2.426-2.177.948-.498 2.012-.746 3.192-.746 1.213 0 2.29.239 3.232.716a6.072 6.072 0 0 1 2.286 1.979c.59.841.965 1.799 1.124 2.873h-3.032c-.206-.848-.614-1.541-1.224-2.078-.61-.537-1.405-.805-2.386-.805-1.491 0-2.655.649-3.49 1.948-.829 1.3-1.246 3.106-1.253 5.42h.15a5.519 5.519 0 0 1 1.292-1.472 5.783 5.783 0 0 1 1.73-.945 6.096 6.096 0 0 1 2.029-.338c1.18 0 2.247.289 3.201.865a6.3 6.3 0 0 1 2.297 2.367c.57 1.007.855 2.161.855 3.46s-.295 2.476-.885 3.53a6.492 6.492 0 0 1-2.466 2.506c-1.06.609-2.3.908-3.718.894Zm-.01-2.585c.782 0 1.481-.192 2.098-.577a4.155 4.155 0 0 0 1.461-1.551c.358-.649.537-1.375.537-2.177 0-.782-.175-1.495-.527-2.138a3.98 3.98 0 0 0-1.432-1.531c-.603-.378-1.292-.567-2.068-.567-.59 0-1.137.113-1.64.338a4.158 4.158 0 0 0-1.313.935 4.538 4.538 0 0 0-.895 1.372 4.182 4.182 0 0 0-.318 1.621c0 .762.176 1.468.527 2.118a4.328 4.328 0 0 0 1.462 1.571c.623.391 1.325.586 2.108.586Zm12.7-.219a1.931 1.931 0 0 1-1.402-.576 1.925 1.925 0 0 1-.587-1.412c0-.544.195-1.008.587-1.392a1.914 1.914 0 0 1 1.402-.587c.543 0 1.01.196 1.402.587.391.384.586.848.586 1.392a1.9 1.9 0 0 1-.278 1.004 2.062 2.062 0 0 1-.716.716c-.298.179-.63.268-.994.268Zm0-10.201a1.932 1.932 0 0 1-1.402-.577 1.925 1.925 0 0 1-.587-1.412c0-.543.195-1.007.587-1.392a1.914 1.914 0 0 1 1.402-.587c.543 0 1.01.196 1.402.587.391.385.586.849.586 1.392 0 .365-.093.699-.278 1.004a2.054 2.054 0 0 1-.716.716c-.298.179-.63.269-.994.269Zm13.02 13.065c-1.571-.007-2.913-.421-4.027-1.243-1.113-.822-1.965-2.018-2.555-3.589-.59-1.571-.885-3.464-.885-5.678 0-2.207.295-4.093.885-5.658.596-1.564 1.451-2.757 2.565-3.58 1.12-.821 2.459-1.232 4.017-1.232 1.558 0 2.894.414 4.007 1.243 1.114.822 1.966 2.015 2.556 3.579.596 1.558.895 3.441.895 5.648 0 2.221-.295 4.117-.885 5.688-.59 1.564-1.442 2.761-2.556 3.589-1.113.822-2.452 1.233-4.017 1.233Zm0-2.655c1.379 0 2.456-.673 3.232-2.018.782-1.346 1.173-3.291 1.173-5.837 0-1.69-.179-3.119-.537-4.285-.351-1.174-.858-2.062-1.521-2.665a3.33 3.33 0 0 0-2.347-.915c-1.372 0-2.449.676-3.231 2.028-.783 1.353-1.177 3.298-1.184 5.837 0 1.697.176 3.132.527 4.306.358 1.166.865 2.051 1.522 2.654.656.597 1.445.895 2.366.895Zm18.074 2.655c-1.571-.007-2.913-.421-4.027-1.243-1.113-.822-1.965-2.018-2.555-3.589-.59-1.571-.885-3.464-.885-5.678 0-2.207.295-4.093.885-5.658.597-1.564 1.452-2.757 2.565-3.58 1.121-.821 2.46-1.232 4.017-1.232 1.558 0 2.894.414 4.007 1.243 1.114.822 1.966 2.015 2.556 3.579.596 1.558.895 3.441.895 5.648 0 2.221-.295 4.117-.885 5.688-.59 1.564-1.442 2.761-2.556 3.589-1.113.822-2.452 1.233-4.017 1.233Zm0-2.655c1.379 0 2.456-.673 3.232-2.018.782-1.346 1.173-3.291 1.173-5.837 0-1.69-.179-3.119-.537-4.285-.351-1.174-.858-2.062-1.521-2.665a3.327 3.327 0 0 0-2.347-.915c-1.372 0-2.449.676-3.231 2.028-.782 1.353-1.177 3.298-1.183 5.837 0 1.697.175 3.132.527 4.306.358 1.166.865 2.051 1.521 2.654.656.597 1.445.895 2.366.895ZM29.63 11.454c0 1.381-.249 2.574-.747 3.58-.499 1.006-1.183 1.781-2.052 2.327-.87.545-1.862.818-2.979.818-1.116 0-2.11-.273-2.978-.818-.87-.546-1.554-1.321-2.052-2.327-.499-1.006-.748-2.199-.748-3.58 0-1.38.25-2.573.748-3.579.498-1.006 1.182-1.781 2.052-2.327.869-.545 1.862-.818 2.978-.818 1.117 0 2.11.273 2.979.818.87.546 1.553 1.321 2.052 2.327.498 1.006.748 2.199.748 3.58Zm-1.533 0c0-1.133-.19-2.09-.57-2.87-.374-.78-.884-1.37-1.527-1.77-.64-.4-1.355-.6-2.148-.6-.792 0-1.51.2-2.154.6-.64.4-1.148.99-1.527 1.77-.375.78-.563 1.737-.563 2.87 0 1.134.188 2.09.563 2.87.379.78.888 1.37 1.527 1.771.644.4 1.362.601 2.154.601.793 0 1.509-.2 2.148-.6.643-.401 1.153-.992 1.528-1.771.379-.78.569-1.737.569-2.87ZM39.379 4.5l.767.92c-.299.29-.644.493-1.036.608a5.792 5.792 0 0 1-1.33.21c-.494.026-1.044.052-1.649.077-.681.026-1.246.192-1.694.499-.447.307-.792.75-1.035 1.33-.243.579-.398 1.29-.467 2.134h.128c.333-.613.793-1.065 1.38-1.355a4.223 4.223 0 0 1 1.893-.434c.767 0 1.457.179 2.071.537.614.358 1.1.888 1.457 1.591.358.703.537 1.57.537 2.602 0 1.027-.183 1.913-.55 2.659-.362.746-.87 1.32-1.527 1.726-.652.4-1.417.6-2.295.6-.878 0-1.647-.206-2.307-.62-.66-.417-1.174-1.035-1.54-1.853-.367-.823-.55-1.839-.55-3.05v-1.047c0-2.187.37-3.844 1.112-4.973.745-1.13 1.866-1.714 3.362-1.752.528-.017 1-.021 1.413-.013.413.009.773-.01 1.08-.057.307-.047.567-.16.78-.339Zm-3.35 12.35c.592 0 1.102-.15 1.528-.448.43-.298.76-.718.99-1.26.23-.545.346-1.186.346-1.923 0-.716-.117-1.325-.352-1.828-.23-.503-.56-.887-.99-1.15-.431-.265-.947-.397-1.547-.397-.44 0-.834.074-1.183.224-.35.149-.648.368-.895.658-.247.29-.439.643-.575 1.06a5.012 5.012 0 0 0-.211 1.433c0 1.1.258 1.98.773 2.64.516.66 1.221.99 2.116.99Zm6.68 4.832v-13.5h1.457v1.56h.18c.11-.171.263-.388.46-.653.2-.268.485-.507.856-.715.375-.213.882-.32 1.521-.32.827 0 1.556.207 2.186.62.631.413 1.123 1 1.477 1.758.354.758.53 1.653.53 2.684 0 1.04-.176 1.941-.53 2.704-.354.759-.844 1.347-1.47 1.764-.627.414-1.349.62-2.167.62-.63 0-1.136-.104-1.515-.313-.38-.213-.671-.453-.876-.722a9.646 9.646 0 0 1-.473-.678h-.128v5.19H42.71Zm1.483-8.591c0 .741.108 1.396.326 1.962.217.563.535 1.004.952 1.323.418.316.93.473 1.534.473.63 0 1.157-.166 1.58-.498.425-.337.745-.788.958-1.355a5.318 5.318 0 0 0 .326-1.905c0-.69-.107-1.313-.32-1.867-.209-.558-.526-.999-.952-1.323-.422-.328-.952-.492-1.592-.492-.613 0-1.129.156-1.547.467-.417.306-.733.737-.946 1.29-.213.55-.32 1.192-.32 1.925Zm12.375 5.14a3.99 3.99 0 0 1-1.694-.352 2.907 2.907 0 0 1-1.208-1.03c-.298-.451-.448-.997-.448-1.636 0-.562.111-1.018.333-1.368.221-.354.518-.63.888-.83.37-.201.78-.35 1.227-.448.452-.103.906-.184 1.362-.243.597-.077 1.08-.134 1.451-.173.375-.042.648-.113.818-.21.175-.099.262-.27.262-.512v-.051c0-.63-.172-1.12-.517-1.47-.341-.35-.86-.524-1.554-.524-.72 0-1.285.157-1.694.473-.409.315-.696.652-.863 1.01l-1.431-.512c.255-.596.596-1.061 1.022-1.393.43-.337.9-.571 1.407-.703a5.838 5.838 0 0 1 1.508-.205c.315 0 .678.038 1.087.115.413.072.811.224 1.195.454.388.23.71.577.965 1.042.256.464.384 1.086.384 1.866V18h-1.509v-1.33h-.077a2.655 2.655 0 0 1-.51.684c-.24.243-.557.45-.953.62-.397.17-.88.256-1.451.256Zm.23-1.356c.597 0 1.1-.117 1.508-.352a2.392 2.392 0 0 0 1.253-2.077v-1.38c-.064.076-.204.146-.422.21-.213.06-.46.113-.741.16a33.842 33.842 0 0 1-1.445.192 5.77 5.77 0 0 0-1.1.25c-.336.11-.608.278-.817.504-.205.222-.307.524-.307.908 0 .524.194.92.581 1.189.393.264.889.396 1.49.396ZM71.107 4.5l.767.92c-.298.29-.643.493-1.035.608a5.79 5.79 0 0 1-1.33.21c-.494.026-1.044.052-1.65.077-.68.026-1.245.192-1.693.499-.447.307-.793.75-1.035 1.33-.243.579-.399 1.29-.467 2.134h.128c.332-.613.792-1.065 1.38-1.355a4.223 4.223 0 0 1 1.892-.434c.768 0 1.458.179 2.072.537.613.358 1.099.888 1.457 1.591.358.703.537 1.57.537 2.602 0 1.027-.183 1.913-.55 2.659-.362.746-.871 1.32-1.528 1.726-.652.4-1.417.6-2.294.6-.878 0-1.647-.206-2.308-.62-.66-.417-1.174-1.035-1.54-1.853-.367-.823-.55-1.839-.55-3.05v-1.047c0-2.187.37-3.844 1.112-4.973.746-1.13 1.867-1.714 3.362-1.752.529-.017 1-.021 1.413-.013.413.009.773-.01 1.08-.057.307-.047.567-.16.78-.339Zm-3.35 12.35c.593 0 1.102-.15 1.528-.448.43-.298.761-.718.991-1.26.23-.545.345-1.186.345-1.923 0-.716-.117-1.325-.351-1.828-.23-.503-.56-.887-.991-1.15-.43-.265-.946-.397-1.547-.397-.439 0-.833.074-1.183.224-.349.149-.647.368-.894.658a3.09 3.09 0 0 0-.576 1.06 5.015 5.015 0 0 0-.21 1.433c0 1.1.257 1.98.773 2.64.516.66 1.22.99 2.116.99Zm10.669 1.354c-.886 0-1.664-.21-2.333-.632-.665-.422-1.185-1.012-1.56-1.77-.37-.76-.556-1.646-.556-2.66 0-1.023.185-1.915.556-2.678.375-.763.895-1.355 1.56-1.777.669-.422 1.447-.633 2.333-.633.886 0 1.662.21 2.327.633.669.422 1.189 1.014 1.56 1.777.374.763.562 1.655.562 2.678 0 1.014-.188 1.9-.563 2.66-.37.758-.89 1.348-1.56 1.77-.664.422-1.44.633-2.326.633Zm0-1.355c.673 0 1.227-.172 1.662-.517.434-.346.756-.8.965-1.362a5.213 5.213 0 0 0 .313-1.828c0-.656-.104-1.268-.313-1.835a3.093 3.093 0 0 0-.965-1.374c-.435-.35-.989-.524-1.662-.524-.673 0-1.227.175-1.662.524-.435.35-.756.808-.965 1.374a5.266 5.266 0 0 0-.313 1.835c0 .656.104 1.266.313 1.828.209.563.53 1.016.965 1.362.435.345.989.517 1.662.517Zm5.468-7.26V8.181h7.978v1.406H88.65V18h-1.509V9.588h-3.247ZM94.072 18V8.182h1.509v4.27h.997l3.528-4.27h1.943l-3.963 4.73L102.1 18h-1.943l-3.221-4.142H95.58V18h-1.509Zm12.557.23a3.991 3.991 0 0 1-1.694-.351 2.912 2.912 0 0 1-1.208-1.03c-.298-.451-.447-.997-.447-1.636 0-.562.111-1.018.332-1.368.222-.354.518-.63.889-.83.37-.201.78-.35 1.227-.448.452-.103.906-.184 1.361-.243a62.011 62.011 0 0 1 1.451-.173c.375-.042.648-.113.819-.21.174-.099.262-.27.262-.512v-.051c0-.63-.173-1.12-.518-1.47-.341-.35-.859-.524-1.553-.524-.72 0-1.285.157-1.694.473-.409.315-.697.652-.863 1.01l-1.432-.512c.256-.596.597-1.061 1.023-1.393a3.83 3.83 0 0 1 1.406-.703 5.836 5.836 0 0 1 1.509-.205c.315 0 .677.038 1.086.115a3.48 3.48 0 0 1 1.196.454c.387.23.709.577.965 1.042.255.464.383 1.086.383 1.866V18h-1.508v-1.33h-.077c-.102.213-.273.441-.511.684-.239.243-.556.45-.953.62-.396.17-.88.256-1.451.256Zm.23-1.355c.597 0 1.1-.117 1.509-.352a2.396 2.396 0 0 0 1.253-2.077v-1.38c-.064.076-.205.146-.422.21-.213.06-.46.113-.742.16a33.93 33.93 0 0 1-1.444.192 5.78 5.78 0 0 0-1.1.25 1.9 1.9 0 0 0-.818.504c-.204.222-.307.524-.307.908 0 .524.194.92.582 1.189.392.264.889.396 1.489.396Zm18.657-4.474v1.406h-5.42V12.4h5.42Zm-5.062-4.22V18h-1.509V8.182h1.509Zm6.213 0V18h-1.509V8.182h1.509Zm5.644 10.05a3.991 3.991 0 0 1-1.694-.352 2.906 2.906 0 0 1-1.208-1.03c-.298-.451-.448-.997-.448-1.636 0-.562.111-1.018.333-1.368.221-.354.518-.63.888-.83.371-.201.78-.35 1.228-.448.451-.103.905-.184 1.361-.243.597-.077 1.08-.134 1.451-.173.375-.042.648-.113.818-.21.175-.099.262-.27.262-.512v-.051c0-.63-.172-1.12-.517-1.47-.341-.35-.859-.524-1.554-.524-.72 0-1.284.157-1.694.473-.409.315-.696.652-.862 1.01l-1.432-.512c.255-.596.596-1.061 1.022-1.393.431-.337.9-.571 1.407-.703a5.835 5.835 0 0 1 1.508-.205c.316 0 .678.038 1.087.115.413.072.812.224 1.195.454.388.23.71.577.965 1.042.256.464.384 1.086.384 1.866V18h-1.509v-1.33h-.076a2.67 2.67 0 0 1-.512.684c-.238.243-.556.45-.952.62-.396.17-.88.256-1.451.256Zm.23-1.356c.597 0 1.099-.117 1.509-.352a2.396 2.396 0 0 0 1.252-2.077v-1.38c-.064.076-.204.146-.421.21-.214.06-.461.113-.742.16a34 34 0 0 1-1.445.192 5.77 5.77 0 0 0-1.099.25c-.337.11-.609.278-.818.504-.205.222-.307.524-.307.908 0 .524.194.92.582 1.189.392.264.888.396 1.489.396Zm17.455-.92 3.426-7.773h1.432L150.61 18h-1.228l-4.167-9.818h1.406l3.375 7.772Zm-3.861-7.773V18h-1.508V8.182h1.508ZM153.857 18V8.182h1.508V18h-1.508Zm8.258.204c-.886 0-1.664-.21-2.333-.632-.664-.422-1.184-1.012-1.559-1.77-.371-.76-.556-1.646-.556-2.66 0-1.023.185-1.915.556-2.678.375-.763.895-1.355 1.559-1.777.669-.422 1.447-.633 2.333-.633.887 0 1.662.21 2.327.633.669.422 1.189 1.014 1.56 1.777.375.763.562 1.655.562 2.678 0 1.014-.187 1.9-.562 2.66-.371.758-.891 1.348-1.56 1.77-.665.422-1.44.633-2.327.633Zm0-1.355c.674 0 1.228-.172 1.662-.517.435-.346.757-.8.966-1.362a5.231 5.231 0 0 0 .313-1.828c0-.656-.105-1.268-.313-1.835a3.093 3.093 0 0 0-.966-1.374c-.434-.35-.988-.524-1.662-.524-.673 0-1.227.175-1.662.524-.434.35-.756.808-.965 1.374a5.261 5.261 0 0 0-.313 1.835c0 .656.104 1.266.313 1.828.209.563.531 1.016.965 1.362.435.345.989.517 1.662.517Zm5.704 3.963v-4.218h.818c.2-.21.373-.435.518-.678.145-.243.27-.53.377-.863.111-.336.204-.746.281-1.227.077-.486.145-1.072.205-1.758l.332-3.886h6.239v8.412h1.508v4.218h-1.508V18h-7.262v2.813h-1.508Zm2.531-4.218h4.73V9.588h-3.324l-.255 2.48a27.784 27.784 0 0 1-.397 2.691c-.157.767-.409 1.379-.754 1.835Zm13.866 1.61c-.946 0-1.762-.208-2.448-.626a4.205 4.205 0 0 1-1.579-1.764c-.367-.759-.55-1.64-.55-2.646s.183-1.892.55-2.66c.371-.77.886-1.372 1.547-1.802.665-.435 1.44-.652 2.326-.652a4.65 4.65 0 0 1 1.515.256c.499.17.953.447 1.362.83.409.38.735.883.978 1.51.243.626.364 1.397.364 2.313v.64h-7.568v-1.305h6.034c0-.554-.111-1.048-.332-1.483a2.514 2.514 0 0 0-.933-1.029c-.401-.251-.874-.377-1.42-.377-.6 0-1.12.15-1.559.448a2.947 2.947 0 0 0-1.004 1.15c-.234.473-.351.98-.351 1.521v.87c0 .741.128 1.37.383 1.885.26.512.62.902 1.081 1.17.46.264.995.396 1.604.396.396 0 .754-.055 1.074-.166.324-.115.603-.285.837-.511.235-.23.416-.516.543-.857l1.458.41a3.23 3.23 0 0 1-.774 1.303c-.362.371-.809.66-1.342.87-.533.204-1.131.306-1.796.306Zm5.491-.204v-1.406h.358c.294 0 .539-.058.735-.173.196-.12.353-.326.473-.62.123-.298.217-.712.281-1.24.068-.533.117-1.21.147-2.033l.179-4.346h6.545V18h-1.508V9.588h-3.605l-.154 3.503a15.841 15.841 0 0 1-.217 2.129c-.106.609-.271 1.12-.492 1.534a2.252 2.252 0 0 1-.869.933c-.363.209-.817.313-1.362.313h-.511Zm17.392 0V9.562h-2.608c-.588 0-1.05.137-1.387.41-.336.272-.505.647-.505 1.125 0 .468.152.837.454 1.105.307.269.727.403 1.259.403h3.171v1.406h-3.171c-.664 0-1.237-.117-1.719-.351a2.575 2.575 0 0 1-1.112-1.004c-.26-.439-.39-.959-.39-1.56 0-.604.136-1.124.409-1.56.273-.434.663-.768 1.17-1.003.511-.234 1.118-.351 1.821-.351h4.04V18h-1.432Zm-6.545 0 2.787-4.883h1.636L202.19 18h-1.636Zm11.872-9.818 2.352 4.014 2.352-4.014h1.739l-3.171 4.909L218.869 18h-1.739l-2.352-3.81-2.352 3.81h-1.739l3.119-4.91-3.119-4.908h1.739ZM18.381 40v-9.818h7.721V40h-1.508v-8.412h-4.705V40h-1.508Zm14.465.205c-.886 0-1.664-.211-2.333-.633-.665-.422-1.185-1.012-1.56-1.77-.37-.76-.556-1.646-.556-2.66 0-1.023.185-1.915.556-2.678.375-.763.895-1.355 1.56-1.777.669-.422 1.446-.633 2.333-.633.886 0 1.662.21 2.327.633.669.422 1.188 1.014 1.56 1.777.374.763.562 1.655.562 2.678 0 1.014-.188 1.9-.563 2.66-.37.758-.89 1.348-1.56 1.77-.664.422-1.44.633-2.326.633Zm0-1.356c.673 0 1.227-.172 1.662-.517.434-.346.756-.8.965-1.362a5.213 5.213 0 0 0 .313-1.828c0-.656-.104-1.268-.313-1.835a3.092 3.092 0 0 0-.965-1.374c-.435-.35-.989-.524-1.662-.524-.673 0-1.227.175-1.662.524-.435.35-.756.808-.965 1.374a5.264 5.264 0 0 0-.314 1.835c0 .656.105 1.266.314 1.828.209.563.53 1.017.965 1.362.435.345.989.517 1.662.517Zm5.703 3.964v-4.22h.818c.2-.208.373-.434.518-.677.145-.243.27-.53.377-.863.111-.336.205-.745.282-1.227.076-.486.144-1.072.204-1.758l.332-3.886h6.24v8.412h1.508v4.218h-1.509V40h-7.261v2.813h-1.509Zm2.531-4.22h4.73v-7.005h-3.323l-.256 2.48a27.74 27.74 0 0 1-.396 2.691c-.158.767-.41 1.379-.755 1.835Zm20.182-.639 3.426-7.772h1.432L61.875 40h-1.227l-4.168-9.818h1.407l3.375 7.773ZM57.4 30.183V40h-1.509v-9.818h1.509ZM65.122 40v-9.818h1.509V40h-1.508Zm8.259.205c-.886 0-1.664-.211-2.333-.633-.665-.422-1.185-1.012-1.56-1.77-.37-.76-.556-1.646-.556-2.66 0-1.023.186-1.915.556-2.678.375-.763.895-1.355 1.56-1.777.669-.422 1.447-.633 2.333-.633.886 0 1.662.21 2.327.633.669.422 1.189 1.014 1.56 1.777.374.763.562 1.655.562 2.678 0 1.014-.188 1.9-.563 2.66-.37.758-.89 1.348-1.56 1.77-.664.422-1.44.633-2.326.633Zm0-1.356c.673 0 1.227-.172 1.662-.517.435-.346.756-.8.965-1.362a5.213 5.213 0 0 0 .313-1.828c0-.656-.104-1.268-.313-1.835a3.093 3.093 0 0 0-.965-1.374c-.435-.35-.989-.524-1.662-.524-.673 0-1.227.175-1.662.524-.435.35-.756.808-.965 1.374a5.266 5.266 0 0 0-.313 1.835c0 .656.104 1.266.313 1.828.209.563.53 1.017.965 1.362.435.345.989.517 1.662.517Zm10.868 1.356c-.946 0-1.762-.21-2.448-.627a4.205 4.205 0 0 1-1.579-1.764c-.366-.759-.55-1.64-.55-2.646s.184-1.892.55-2.66c.37-.77.887-1.372 1.547-1.802.665-.435 1.44-.652 2.327-.652.511 0 1.016.085 1.515.256.498.17.952.447 1.361.83.41.38.735.883.978 1.51.243.626.364 1.397.364 2.313v.64h-7.568v-1.305h6.034c0-.554-.11-1.048-.332-1.483a2.505 2.505 0 0 0-.933-1.029c-.4-.251-.874-.377-1.42-.377-.6 0-1.12.15-1.559.448-.435.294-.77.677-1.004 1.15a3.38 3.38 0 0 0-.351 1.521v.87c0 .741.128 1.37.383 1.885.26.512.62.902 1.08 1.17.46.264.996.396 1.605.396.396 0 .754-.055 1.074-.166.324-.115.603-.285.837-.511.235-.23.416-.516.544-.857l1.457.41a3.23 3.23 0 0 1-.773 1.303c-.363.371-.81.66-1.343.87-.532.204-1.131.306-1.796.306Zm7.869-2.43 4.73-7.593h1.739V40h-1.51v-7.594L92.374 40H90.61v-9.818h1.509v7.594ZM95.85 26.91h1.406c0 .69-.239 1.255-.716 1.694-.477.439-1.125.658-1.943.658-.806 0-1.447-.22-1.924-.658-.473-.439-.71-1.004-.71-1.694h1.407c0 .332.091.624.274.876.188.251.505.377.953.377.447 0 .767-.126.959-.377.196-.252.294-.544.294-.876ZM106.412 40v-9.818h1.508v4.27h.998l3.528-4.27h1.943l-3.963 4.73L114.44 40h-1.943l-3.221-4.142h-1.356V40h-1.508Zm10.639 3.682c-.255 0-.483-.022-.683-.064a1.804 1.804 0 0 1-.416-.115l.384-1.33c.366.094.69.128.971.103.281-.026.531-.152.748-.378.222-.221.424-.581.607-1.08l.282-.767-3.631-9.87h1.636l2.71 7.825h.103l2.71-7.824h1.636l-4.167 11.25c-.188.507-.42.927-.697 1.26a2.614 2.614 0 0 1-.965.747 2.978 2.978 0 0 1-1.228.243Zm9.048 0v-13.5h1.458v1.56h.179c.111-.171.264-.388.46-.652.2-.269.486-.508.857-.716.375-.213.882-.32 1.521-.32.827 0 1.555.207 2.186.62.631.413 1.123 1 1.477 1.758.353.758.53 1.653.53 2.684 0 1.04-.177 1.941-.53 2.704-.354.759-.844 1.347-1.471 1.764-.626.414-1.348.62-2.167.62-.63 0-1.135-.104-1.514-.313-.38-.213-.672-.453-.876-.722a9.578 9.578 0 0 1-.473-.677h-.128v5.19h-1.509Zm1.483-8.591c0 .741.109 1.395.326 1.962.218.563.535 1.004.953 1.323.417.316.929.473 1.534.473.631 0 1.157-.166 1.579-.498.426-.337.745-.788.959-1.355a5.325 5.325 0 0 0 .326-1.905c0-.69-.107-1.313-.32-1.867-.209-.558-.526-.999-.952-1.323-.422-.328-.953-.492-1.592-.492-.614 0-1.129.156-1.547.467-.418.306-.733.737-.946 1.29-.213.55-.32 1.192-.32 1.925Zm12.375 5.14a3.995 3.995 0 0 1-1.694-.352 2.912 2.912 0 0 1-1.208-1.03c-.298-.451-.447-.997-.447-1.636 0-.562.111-1.018.332-1.368.222-.353.518-.63.889-.83.371-.201.78-.35 1.227-.448.452-.102.906-.184 1.362-.243.596-.077 1.08-.134 1.451-.173.375-.042.647-.113.818-.21.175-.099.262-.27.262-.512v-.051c0-.63-.173-1.12-.518-1.47-.341-.35-.859-.524-1.553-.524-.72 0-1.285.157-1.694.473-.409.315-.697.651-.863 1.01l-1.432-.512c.256-.596.597-1.061 1.023-1.393a3.83 3.83 0 0 1 1.406-.703 5.844 5.844 0 0 1 1.509-.205c.315 0 .677.038 1.086.115.414.072.812.224 1.196.454.387.23.709.577.965 1.042.256.464.383 1.086.383 1.866V40h-1.508v-1.33h-.077c-.102.213-.273.441-.511.684-.239.243-.556.45-.953.62-.396.17-.88.256-1.451.256Zm.231-1.356c.596 0 1.099-.117 1.508-.352a2.396 2.396 0 0 0 1.253-2.077v-1.38c-.064.076-.205.146-.422.21-.213.06-.46.113-.741.16a34 34 0 0 1-1.445.192 5.78 5.78 0 0 0-1.1.25 1.9 1.9 0 0 0-.818.504c-.204.222-.307.524-.307.908 0 .524.194.92.582 1.189.392.264.889.396 1.49.396Zm14.744-8.693v8.412h1.381v4.576h-1.508V40h-7.594v-9.818h1.508v8.412h4.705v-8.412h1.508Zm5.213 7.594 4.73-7.594h1.739V40h-1.509v-7.594L160.401 40h-1.764v-9.818h1.508v7.594Zm13.348 2.428c-.946 0-1.762-.208-2.448-.626a4.205 4.205 0 0 1-1.579-1.764c-.366-.759-.549-1.64-.549-2.646s.183-1.892.549-2.66c.371-.77.887-1.372 1.547-1.802.665-.435 1.44-.652 2.327-.652.511 0 1.016.085 1.515.256.498.17.952.447 1.361.83.409.38.735.883.978 1.51.243.626.365 1.397.365 2.313v.64h-7.569v-1.305h6.035c0-.554-.111-1.048-.333-1.483a2.5 2.5 0 0 0-.933-1.029c-.401-.251-.874-.377-1.419-.377-.601 0-1.121.15-1.56.448a2.945 2.945 0 0 0-1.003 1.15c-.235.473-.352.98-.352 1.521v.87c0 .741.128 1.37.384 1.885.26.512.62.902 1.08 1.17.46.264.995.396 1.604.396a3.26 3.26 0 0 0 1.074-.166c.324-.115.603-.285.837-.511.235-.23.416-.516.544-.857l1.457.41a3.228 3.228 0 0 1-.773 1.303c-.362.371-.81.66-1.343.87-.532.204-1.131.306-1.796.306Zm7.869-2.428 4.73-7.594h1.739V40h-1.509v-7.594L181.618 40h-1.765v-9.818h1.509v7.594Zm3.733-10.867h1.406c0 .69-.239 1.255-.716 1.694-.477.439-1.125.658-1.943.658-.805 0-1.447-.22-1.924-.658-.473-.439-.71-1.004-.71-1.694h1.407c0 .332.091.624.275.876.187.251.505.377.952.377.447 0 .767-.126.959-.377.196-.252.294-.544.294-.876Z" fill="#FFEE32"/><circle cx="23" cy="109" r="11" fill="#fff"/><path stroke="#FFEE32" stroke-width="4" d="M6 111V11"/><circle cx="6" cy="12" r="6" fill="#FFEE32"/></svg>