<svg width="27" height="27" viewBox="0 0 27 27" fill="none" xmlns="http://www.w3.org/2000/svg">
<path d="M13.5 4.5C8.52944 4.5 4.5 8.52944 4.5 13.5C4.5 18.4706 8.52944 22.5 13.5 22.5C18.4706 22.5 22.5 18.4706 22.5 13.5C22.5 8.52944 18.4706 4.5 13.5 4.5ZM2.25 13.5C2.25 7.2868 7.2868 2.25 13.5 2.25C19.7132 2.25 24.75 7.2868 24.75 13.5C24.75 19.7132 19.7132 24.75 13.5 24.75C7.2868 24.75 2.25 19.7132 2.25 13.5ZM13.5 7.875C14.1213 7.875 14.625 8.37868 14.625 9V12.375H18C18.6213 12.375 19.125 12.8787 19.125 13.5C19.125 14.1213 18.6213 14.625 18 14.625H14.625V18C14.625 18.6213 14.1213 19.125 13.5 19.125C12.8787 19.125 12.375 18.6213 12.375 18V14.625H9C8.37868 14.625 7.875 14.1213 7.875 13.5C7.875 12.8787 8.37868 12.375 9 12.375H12.375V9C12.375 8.37868 12.8787 7.875 13.5 7.875Z" fill="#FFEE32"></path>
</svg>
