<svg width="242" height="40" fill="none" xmlns="http://www.w3.org/2000/svg"><path fill-rule="evenodd" clip-rule="evenodd" d="M60.127 38.716c0 .69.56 1.249 1.249 1.249h34.969c.69 0 1.249-.56 1.249-1.25v-1.248c0-.69-.56-1.249-1.249-1.249H63.874V1.248c0-.689-.56-1.248-1.25-1.248h-1.248c-.69 0-1.249.56-1.249 1.249V38.716Z" fill="#fff"/><path d="M117.077 1.249v37.467c0 .69.559 1.249 1.249 1.249h1.249c.689 0 1.248-.56 1.248-1.25V1.25c0-.69-.559-1.249-1.248-1.249h-1.249c-.69 0-1.249.56-1.249 1.249ZM38.716 0H1.249C.559 0 0 .56 0 1.249v1.249c0 .69.56 1.249 1.249 1.249h37.467c.69 0 1.249-.56 1.249-1.25V1.25c0-.69-.56-1.249-1.25-1.249ZM38.716 18.109H1.249c-.69 0-1.249.56-1.249 1.249v1.249c0 .69.56 1.249 1.249 1.249h37.467c.69 0 1.249-.56 1.249-1.25v-1.248c0-.69-.56-1.249-1.25-1.249ZM38.716 36.218H1.249c-.69 0-1.249.56-1.249 1.249v1.249c0 .69.56 1.249 1.249 1.249h37.467c.69 0 1.249-.56 1.249-1.25v-1.248c0-.69-.56-1.249-1.25-1.249Z" fill="#fff"/><path fill-rule="evenodd" clip-rule="evenodd" d="M160.655 0c.711 0 1.362.403 1.678 1.04l18.238 36.597a1.25 1.25 0 0 1-.563 1.676l-1.12.556a1.248 1.248 0 0 1-1.672-.56l-16.561-33.1-16.436 32.973a1.25 1.25 0 0 1-1.674.562l-1.12-.557a1.248 1.248 0 0 1-.563-1.674L158.977 1.04A1.874 1.874 0 0 1 160.655 0ZM198.988 10.928C198.988 4.893 203.881 0 209.916 0h29.036c.691 0 1.249.56 1.249 1.249v1.249c0 .69-.558 1.249-1.249 1.249h-29.036a7.182 7.182 0 1 0 0 14.362h20.606c6.036 0 10.928 4.892 10.928 10.928 0 6.035-4.892 10.928-10.928 10.928h-29.037c-.689 0-1.248-.56-1.248-1.25v-1.248c0-.69.559-1.249 1.248-1.249h29.037a7.18 7.18 0 0 0 7.181-7.181 7.18 7.18 0 0 0-7.181-7.181h-20.606c-6.035 0-10.928-4.893-10.928-10.928Z" fill="#fff"/></svg>