<svg width="242" height="40" viewBox="0 0 242 40" fill="none" xmlns="http://www.w3.org/2000/svg">
<path fill-rule="evenodd" clip-rule="evenodd" d="M60.1271 38.7157C60.1271 39.4055 60.6864 39.9646 61.376 39.9646H62.6249H96.3451C97.0349 39.9646 97.594 39.4055 97.594 38.7157V37.4669C97.594 36.7771 97.0349 36.218 96.3451 36.218H63.8738V1.2489C63.8738 0.559149 63.3147 0 62.6249 0H61.376C60.6864 0 60.1271 0.559149 60.1271 1.2489V37.4669V38.7157Z" fill="white"></path>
<path d="M117.077 1.24891V38.7158C117.077 39.4055 117.636 39.9647 118.326 39.9647H119.575C120.264 39.9647 120.823 39.4055 120.823 38.7158V1.24891C120.823 0.559166 120.264 1.90735e-05 119.575 1.90735e-05H118.326C117.636 1.90735e-05 117.077 0.559166 117.077 1.24891Z" fill="white"></path>
<path d="M38.7157 0H1.2489C0.559149 0 0 0.559149 0 1.2489V2.49779C0 3.18754 0.559149 3.74669 1.2489 3.74669H38.7157C39.4055 3.74669 39.9646 3.18754 39.9646 2.49779V1.2489C39.9646 0.559149 39.4055 0 38.7157 0Z" fill="white"></path>
<path d="M38.7157 18.109H1.2489C0.559149 18.109 0 18.6681 0 19.3579V20.6068C0 21.2965 0.559149 21.8557 1.2489 21.8557H38.7157C39.4055 21.8557 39.9646 21.2965 39.9646 20.6068V19.3579C39.9646 18.6681 39.4055 18.109 38.7157 18.109Z" fill="white"></path>
<path d="M38.7157 36.218H1.2489C0.559149 36.218 0 36.7771 0 37.4669V38.7157C0 39.4055 0.559149 39.9646 1.2489 39.9646H38.7157C39.4055 39.9646 39.9646 39.4055 39.9646 38.7157V37.4669C39.9646 36.7771 39.4055 36.218 38.7157 36.218Z" fill="white"></path>
<path fill-rule="evenodd" clip-rule="evenodd" d="M160.655 0C161.366 0 162.017 0.402925 162.333 1.04005L180.571 37.6373C180.879 38.2553 180.626 39.0059 180.008 39.313L178.888 39.8693C178.272 40.1756 177.524 39.9252 177.216 39.3096L160.655 6.20973L144.219 39.1823C143.911 39.7989 143.162 40.0502 142.545 39.7437L141.425 39.1873C140.807 38.8805 140.554 38.131 140.862 37.5132L158.977 1.04005C159.294 0.402925 159.943 0 160.655 0Z" fill="white"></path>
<path fill-rule="evenodd" clip-rule="evenodd" d="M198.988 10.9278C198.988 4.89256 203.881 0 209.916 0H238.952C239.643 0 240.201 0.559149 240.201 1.2489V2.49779C240.201 3.18753 239.643 3.74669 238.952 3.74669H209.916C205.95 3.74669 202.734 6.96179 202.734 10.9278C202.734 14.8938 205.95 18.109 209.916 18.109H230.522C236.558 18.109 241.45 23.0015 241.45 29.0368C241.45 35.0721 236.558 39.9646 230.522 39.9646H201.485C200.796 39.9646 200.237 39.4055 200.237 38.7157V37.4669C200.237 36.7771 200.796 36.218 201.485 36.218H230.522C234.489 36.218 237.703 33.0028 237.703 29.0368C237.703 25.0708 234.489 21.8557 230.522 21.8557H209.916C203.881 21.8557 198.988 16.9631 198.988 10.9278Z" fill="white"></path>
</svg>
