<svg width="601" height="220" viewBox="0 0 601 220" fill="none" xmlns="http://www.w3.org/2000/svg">
<path d="M163 83C163 67.1775 158.308 51.7103 149.518 38.5544C140.727 25.3984 128.233 15.1446 113.615 9.08964C98.9966 3.03463 82.9113 1.45036 67.3928 4.53718C51.8743 7.624 37.6197 15.2433 26.4315 26.4315C15.2433 37.6197 7.62399 51.8743 4.53718 67.3928C1.45036 82.9113 3.03463 98.9966 9.08964 113.615C15.1446 128.233 25.3984 140.727 38.5544 149.518C51.7103 158.308 67.1775 163 83 163" stroke="white" stroke-width="5"/>
<circle cx="83" cy="83" r="65" fill="#FFEE32" fill-opacity="0.45"/>
<circle cx="83" cy="67" r="23" fill="white"/>
<path d="M88.4379 52.4545V83H81.07V59.3452H80.8911L74.0601 63.5213V57.1378L81.5921 52.4545H88.4379Z" fill="black"/>
<path d="M49.7161 121.405V114.425H50.959C51.2772 114.133 51.5456 113.785 51.7644 113.381C51.9898 112.976 52.1787 112.496 52.3311 111.939C52.4902 111.382 52.6228 110.732 52.7289 109.99C52.8349 109.241 52.9277 108.386 53.0073 107.425L53.4846 101.727H63.8652V114.425H66.2118V121.405H63.3084V117H52.6593V121.405H49.7161ZM54.1408 114.425H60.9618V104.273H56.1493L55.8311 107.425C55.6787 109.029 55.4864 110.421 55.2544 111.601C55.0224 112.774 54.6512 113.715 54.1408 114.425ZM75.7001 117.308C74.1954 117.308 72.8994 116.987 71.8123 116.344C70.7318 115.694 69.8966 114.783 69.3066 113.609C68.7233 112.429 68.4316 111.047 68.4316 109.463C68.4316 107.899 68.7233 106.52 69.3066 105.327C69.8966 104.134 70.7186 103.202 71.7725 102.533C72.8332 101.863 74.0727 101.528 75.4913 101.528C76.353 101.528 77.1883 101.671 77.997 101.956C78.8057 102.241 79.5315 102.688 80.1745 103.298C80.8175 103.908 81.3246 104.7 81.6958 105.675C82.0671 106.643 82.2527 107.819 82.2527 109.205V110.259H70.112V108.031H79.3393C79.3393 107.249 79.1802 106.556 78.862 105.953C78.5439 105.343 78.0964 104.863 77.5197 104.511C76.9496 104.16 76.2801 103.984 75.5112 103.984C74.676 103.984 73.9468 104.19 73.3237 104.601C72.7072 105.005 72.2299 105.536 71.8919 106.192C71.5604 106.841 71.3947 107.547 71.3947 108.31V110.05C71.3947 111.071 71.5737 111.939 71.9316 112.655C72.2962 113.371 72.8033 113.918 73.4529 114.295C74.1026 114.667 74.8616 114.852 75.7299 114.852C76.2934 114.852 76.8071 114.773 77.2711 114.614C77.7351 114.448 78.1362 114.203 78.4743 113.878C78.8123 113.553 79.0708 113.152 79.2498 112.675L82.0637 113.182C81.8384 114.01 81.434 114.736 80.8507 115.359C80.274 115.976 79.5481 116.456 78.6731 116.801C77.8047 117.139 76.8137 117.308 75.7001 117.308ZM95.9022 108.081V110.656H87.6294V108.081H95.9022ZM88.4647 101.727V117H85.5513V101.727H88.4647ZM97.9803 101.727V117H95.0769V101.727H97.9803ZM104.195 106.977H108.629C110.499 106.977 111.937 107.441 112.945 108.369C113.952 109.297 114.456 110.494 114.456 111.959C114.456 112.913 114.231 113.772 113.78 114.534C113.329 115.296 112.67 115.9 111.801 116.344C110.933 116.781 109.876 117 108.629 117H101.958V101.727H104.871V114.435H108.629C109.485 114.435 110.187 114.213 110.737 113.768C111.288 113.318 111.563 112.744 111.563 112.048C111.563 111.312 111.288 110.713 110.737 110.249C110.187 109.778 109.485 109.543 108.629 109.543H104.195V106.977Z" fill="white"/>
<circle cx="83" cy="83" r="59.5" stroke="white"/>
<path d="M196.5 118.597C195.984 118.597 195.513 118.471 195.087 118.219C194.661 117.964 194.32 117.623 194.065 117.197C193.813 116.771 193.688 116.3 193.688 115.784C193.688 115.264 193.813 114.793 194.065 114.371C194.32 113.945 194.661 113.607 195.087 113.355C195.513 113.099 195.984 112.972 196.5 112.972C197.02 112.972 197.491 113.099 197.913 113.355C198.339 113.607 198.678 113.945 198.929 114.371C199.185 114.793 199.312 115.264 199.312 115.784C199.312 116.3 199.185 116.771 198.929 117.197C198.678 117.623 198.339 117.964 197.913 118.219C197.491 118.471 197.02 118.597 196.5 118.597ZM210.869 109.315V107.909H220.688V109.315H216.571V121H214.986V109.315H210.869ZM225.622 121.205C224.676 121.205 223.86 120.996 223.174 120.578C222.492 120.156 221.966 119.568 221.595 118.814C221.229 118.055 221.045 117.173 221.045 116.168C221.045 115.162 221.229 114.276 221.595 113.509C221.966 112.737 222.482 112.136 223.142 111.706C223.807 111.271 224.582 111.054 225.469 111.054C225.98 111.054 226.485 111.139 226.984 111.31C227.482 111.48 227.936 111.757 228.345 112.141C228.754 112.52 229.08 113.023 229.323 113.649C229.566 114.276 229.688 115.047 229.688 115.963V116.602H222.119V115.298H228.153C228.153 114.744 228.043 114.25 227.821 113.815C227.604 113.381 227.293 113.038 226.888 112.786C226.487 112.535 226.014 112.409 225.469 112.409C224.868 112.409 224.348 112.558 223.909 112.857C223.474 113.151 223.14 113.534 222.906 114.007C222.671 114.48 222.554 114.987 222.554 115.528V116.398C222.554 117.139 222.682 117.768 222.938 118.283C223.197 118.795 223.558 119.185 224.018 119.453C224.478 119.717 225.013 119.849 225.622 119.849C226.018 119.849 226.376 119.794 226.696 119.683C227.02 119.568 227.299 119.398 227.533 119.172C227.768 118.942 227.949 118.656 228.077 118.315L229.534 118.724C229.381 119.219 229.123 119.653 228.761 120.028C228.398 120.399 227.951 120.689 227.418 120.898C226.886 121.102 226.287 121.205 225.622 121.205ZM235.971 121.205C235.085 121.205 234.307 120.994 233.638 120.572C232.973 120.15 232.453 119.56 232.078 118.801C231.707 118.043 231.522 117.156 231.522 116.142C231.522 115.119 231.707 114.227 232.078 113.464C232.453 112.701 232.973 112.109 233.638 111.687C234.307 111.265 235.085 111.054 235.971 111.054C236.857 111.054 237.633 111.265 238.298 111.687C238.967 112.109 239.487 112.701 239.857 113.464C240.232 114.227 240.42 115.119 240.42 116.142C240.42 117.156 240.232 118.043 239.857 118.801C239.487 119.56 238.967 120.15 238.298 120.572C237.633 120.994 236.857 121.205 235.971 121.205ZM235.971 119.849C236.644 119.849 237.198 119.677 237.633 119.332C238.067 118.987 238.389 118.533 238.598 117.97C238.807 117.408 238.911 116.798 238.911 116.142C238.911 115.486 238.807 114.874 238.598 114.308C238.389 113.741 238.067 113.283 237.633 112.933C237.198 112.584 236.644 112.409 235.971 112.409C235.298 112.409 234.744 112.584 234.309 112.933C233.874 113.283 233.553 113.741 233.344 114.308C233.135 114.874 233.031 115.486 233.031 116.142C233.031 116.798 233.135 117.408 233.344 117.97C233.553 118.533 233.874 118.987 234.309 119.332C234.744 119.677 235.298 119.849 235.971 119.849ZM242.722 124.682V111.182H244.18V112.741H244.359C244.47 112.571 244.623 112.354 244.819 112.089C245.019 111.821 245.305 111.582 245.676 111.374C246.051 111.161 246.558 111.054 247.197 111.054C248.024 111.054 248.752 111.261 249.383 111.674C250.014 112.087 250.506 112.673 250.86 113.432C251.213 114.19 251.39 115.085 251.39 116.116C251.39 117.156 251.213 118.058 250.86 118.82C250.506 119.579 250.016 120.167 249.389 120.585C248.763 120.998 248.041 121.205 247.222 121.205C246.592 121.205 246.087 121.1 245.708 120.891C245.328 120.678 245.036 120.437 244.832 120.169C244.627 119.896 244.47 119.67 244.359 119.491H244.231V124.682H242.722ZM244.205 116.091C244.205 116.832 244.314 117.487 244.531 118.053C244.749 118.616 245.066 119.057 245.484 119.376C245.901 119.692 246.413 119.849 247.018 119.849C247.649 119.849 248.175 119.683 248.597 119.351C249.023 119.014 249.343 118.562 249.556 117.996C249.773 117.425 249.882 116.79 249.882 116.091C249.882 115.401 249.775 114.778 249.562 114.224C249.353 113.666 249.036 113.225 248.61 112.901C248.188 112.573 247.657 112.409 247.018 112.409C246.404 112.409 245.889 112.565 245.471 112.876C245.053 113.183 244.738 113.613 244.525 114.167C244.312 114.717 244.205 115.358 244.205 116.091ZM255.2 118.776L259.93 111.182H261.669V121H260.16V113.406L255.455 121H253.691V111.182H255.2V118.776ZM270.338 121V112.562H267.73C267.142 112.562 266.679 112.699 266.343 112.972C266.006 113.244 265.838 113.619 265.838 114.097C265.838 114.565 265.989 114.934 266.292 115.202C266.598 115.471 267.018 115.605 267.551 115.605H270.721V117.011H267.551C266.886 117.011 266.313 116.894 265.831 116.66C265.35 116.425 264.979 116.091 264.719 115.656C264.459 115.217 264.329 114.697 264.329 114.097C264.329 113.491 264.466 112.972 264.738 112.537C265.011 112.102 265.401 111.768 265.908 111.533C266.419 111.299 267.027 111.182 267.73 111.182H271.77V121H270.338ZM263.792 121L266.579 116.116H268.216L265.429 121H263.792ZM283.437 120.105V111.668H284.868V120.105H283.437ZM279.934 116.602V115.17H288.371V116.602H279.934ZM300.518 121.205C299.631 121.205 298.854 120.994 298.185 120.572C297.52 120.15 297 119.56 296.625 118.801C296.254 118.043 296.069 117.156 296.069 116.142C296.069 115.119 296.254 114.227 296.625 113.464C297 112.701 297.52 112.109 298.185 111.687C298.854 111.265 299.631 111.054 300.518 111.054C301.404 111.054 302.18 111.265 302.844 111.687C303.513 112.109 304.033 112.701 304.404 113.464C304.779 114.227 304.967 115.119 304.967 116.142C304.967 117.156 304.779 118.043 304.404 118.801C304.033 119.56 303.513 120.15 302.844 120.572C302.18 120.994 301.404 121.205 300.518 121.205ZM300.518 119.849C301.191 119.849 301.745 119.677 302.18 119.332C302.614 118.987 302.936 118.533 303.145 117.97C303.354 117.408 303.458 116.798 303.458 116.142C303.458 115.486 303.354 114.874 303.145 114.308C302.936 113.741 302.614 113.283 302.18 112.933C301.745 112.584 301.191 112.409 300.518 112.409C299.844 112.409 299.29 112.584 298.856 112.933C298.421 113.283 298.099 113.741 297.891 114.308C297.682 114.874 297.577 115.486 297.577 116.142C297.577 116.798 297.682 117.408 297.891 117.97C298.099 118.533 298.421 118.987 298.856 119.332C299.29 119.677 299.844 119.849 300.518 119.849ZM306.221 123.812V119.594H307.039C307.24 119.385 307.412 119.159 307.557 118.916C307.702 118.673 307.828 118.386 307.934 118.053C308.045 117.717 308.139 117.308 308.215 116.826C308.292 116.34 308.36 115.754 308.42 115.068L308.752 111.182H314.991V119.594H316.499V123.812H314.991V121H307.73V123.812H306.221ZM308.752 119.594H313.482V112.588H310.159L309.903 115.068C309.796 116.095 309.664 116.992 309.507 117.759C309.349 118.526 309.097 119.138 308.752 119.594ZM325.073 115.401V116.807H319.652V115.401H325.073ZM320.01 111.182V121H318.502V111.182H320.01ZM326.223 111.182V121H324.715V111.182H326.223ZM331.868 121.23C331.245 121.23 330.681 121.113 330.174 120.879C329.667 120.64 329.264 120.297 328.966 119.849C328.667 119.398 328.518 118.852 328.518 118.213C328.518 117.651 328.629 117.195 328.85 116.845C329.072 116.491 329.368 116.214 329.739 116.014C330.11 115.814 330.519 115.665 330.966 115.567C331.418 115.464 331.872 115.384 332.328 115.324C332.924 115.247 333.408 115.19 333.779 115.151C334.154 115.109 334.426 115.038 334.597 114.94C334.772 114.842 334.859 114.672 334.859 114.429V114.378C334.859 113.747 334.686 113.257 334.341 112.908C334 112.558 333.483 112.384 332.788 112.384C332.068 112.384 331.503 112.541 331.094 112.857C330.685 113.172 330.397 113.509 330.231 113.866L328.799 113.355C329.055 112.759 329.396 112.294 329.822 111.962C330.252 111.625 330.721 111.391 331.228 111.259C331.74 111.122 332.243 111.054 332.737 111.054C333.052 111.054 333.414 111.092 333.824 111.169C334.237 111.241 334.635 111.393 335.019 111.623C335.407 111.853 335.728 112.2 335.984 112.665C336.24 113.129 336.368 113.751 336.368 114.531V121H334.859V119.67H334.782C334.68 119.884 334.51 120.112 334.271 120.354C334.032 120.597 333.715 120.804 333.319 120.974C332.922 121.145 332.439 121.23 331.868 121.23ZM332.098 119.875C332.694 119.875 333.197 119.758 333.606 119.523C334.02 119.289 334.331 118.987 334.539 118.616C334.752 118.245 334.859 117.855 334.859 117.446V116.065C334.795 116.142 334.654 116.212 334.437 116.276C334.224 116.336 333.977 116.389 333.696 116.436C333.419 116.479 333.148 116.517 332.884 116.551C332.624 116.581 332.413 116.607 332.251 116.628C331.859 116.679 331.493 116.762 331.152 116.877C330.815 116.988 330.542 117.156 330.333 117.382C330.129 117.604 330.027 117.906 330.027 118.29C330.027 118.814 330.221 119.21 330.608 119.479C331 119.743 331.497 119.875 332.098 119.875ZM343.135 123.812V119.594H343.953C344.154 119.385 344.326 119.159 344.471 118.916C344.616 118.673 344.742 118.386 344.848 118.053C344.959 117.717 345.053 117.308 345.129 116.826C345.206 116.34 345.274 115.754 345.334 115.068L345.666 111.182H351.905V119.594H353.414V123.812H351.905V121H344.644V123.812H343.135ZM345.666 119.594H350.396V112.588H347.073L346.817 115.068C346.71 116.095 346.578 116.992 346.421 117.759C346.263 118.526 346.012 119.138 345.666 119.594ZM359.532 121.205C358.586 121.205 357.77 120.996 357.084 120.578C356.402 120.156 355.876 119.568 355.505 118.814C355.139 118.055 354.956 117.173 354.956 116.168C354.956 115.162 355.139 114.276 355.505 113.509C355.876 112.737 356.392 112.136 357.052 111.706C357.717 111.271 358.493 111.054 359.379 111.054C359.89 111.054 360.395 111.139 360.894 111.31C361.392 111.48 361.846 111.757 362.255 112.141C362.664 112.52 362.99 113.023 363.233 113.649C363.476 114.276 363.598 115.047 363.598 115.963V116.602H356.029V115.298H362.064C362.064 114.744 361.953 114.25 361.731 113.815C361.514 113.381 361.203 113.038 360.798 112.786C360.397 112.535 359.924 112.409 359.379 112.409C358.778 112.409 358.258 112.558 357.819 112.857C357.385 113.151 357.05 113.534 356.816 114.007C356.581 114.48 356.464 114.987 356.464 115.528V116.398C356.464 117.139 356.592 117.768 356.848 118.283C357.108 118.795 357.468 119.185 357.928 119.453C358.388 119.717 358.923 119.849 359.532 119.849C359.929 119.849 360.287 119.794 360.606 119.683C360.93 119.568 361.209 119.398 361.444 119.172C361.678 118.942 361.859 118.656 361.987 118.315L363.444 118.724C363.291 119.219 363.033 119.653 362.671 120.028C362.309 120.399 361.861 120.689 361.328 120.898C360.796 121.102 360.197 121.205 359.532 121.205ZM371.262 118.955L374.688 111.182H376.12L371.875 121H370.648L366.48 111.182H367.887L371.262 118.955ZM367.401 111.182V121H365.892V111.182H367.401ZM375.123 121V111.182H376.631V121H375.123ZM383.381 121.205C382.495 121.205 381.717 120.994 381.048 120.572C380.383 120.15 379.863 119.56 379.488 118.801C379.118 118.043 378.932 117.156 378.932 116.142C378.932 115.119 379.118 114.227 379.488 113.464C379.863 112.701 380.383 112.109 381.048 111.687C381.717 111.265 382.495 111.054 383.381 111.054C384.267 111.054 385.043 111.265 385.708 111.687C386.377 112.109 386.897 112.701 387.267 113.464C387.642 114.227 387.83 115.119 387.83 116.142C387.83 117.156 387.642 118.043 387.267 118.801C386.897 119.56 386.377 120.15 385.708 120.572C385.043 120.994 384.267 121.205 383.381 121.205ZM383.381 119.849C384.054 119.849 384.608 119.677 385.043 119.332C385.478 118.987 385.799 118.533 386.008 117.97C386.217 117.408 386.321 116.798 386.321 116.142C386.321 115.486 386.217 114.874 386.008 114.308C385.799 113.741 385.478 113.283 385.043 112.933C384.608 112.584 384.054 112.409 383.381 112.409C382.708 112.409 382.154 112.584 381.719 112.933C381.284 113.283 380.963 113.741 380.754 114.308C380.545 114.874 380.441 115.486 380.441 116.142C380.441 116.798 380.545 117.408 380.754 117.97C380.963 118.533 381.284 118.987 381.719 119.332C382.154 119.677 382.708 119.849 383.381 119.849ZM396.704 115.401V116.807H391.283V115.401H396.704ZM391.641 111.182V121H390.133V111.182H391.641ZM397.854 111.182V121H396.346V111.182H397.854ZM404.598 121.205C403.677 121.205 402.885 120.987 402.22 120.553C401.555 120.118 401.044 119.519 400.686 118.756C400.328 117.994 400.149 117.122 400.149 116.142C400.149 115.145 400.332 114.265 400.699 113.502C401.069 112.735 401.585 112.136 402.246 111.706C402.91 111.271 403.686 111.054 404.572 111.054C405.263 111.054 405.885 111.182 406.439 111.438C406.993 111.693 407.447 112.051 407.8 112.511C408.154 112.972 408.373 113.509 408.459 114.122H406.95C406.835 113.675 406.579 113.278 406.183 112.933C405.791 112.584 405.263 112.409 404.598 112.409C404.01 112.409 403.494 112.562 403.051 112.869C402.612 113.172 402.269 113.6 402.022 114.154C401.779 114.704 401.657 115.349 401.657 116.091C401.657 116.849 401.777 117.51 402.015 118.072C402.258 118.635 402.599 119.072 403.038 119.383C403.481 119.694 404.001 119.849 404.598 119.849C404.99 119.849 405.346 119.781 405.665 119.645C405.985 119.509 406.256 119.312 406.477 119.057C406.699 118.801 406.856 118.494 406.95 118.136H408.459C408.373 118.716 408.162 119.238 407.826 119.702C407.493 120.163 407.052 120.529 406.503 120.802C405.957 121.07 405.322 121.205 404.598 121.205ZM409.89 112.588V111.182H417.868V112.588H414.646V121H413.138V112.588H409.89ZM420.068 124.682V111.182H421.526V112.741H421.705C421.815 112.571 421.969 112.354 422.165 112.089C422.365 111.821 422.651 111.582 423.021 111.374C423.396 111.161 423.903 111.054 424.543 111.054C425.369 111.054 426.098 111.261 426.729 111.674C427.359 112.087 427.852 112.673 428.205 113.432C428.559 114.19 428.736 115.085 428.736 116.116C428.736 117.156 428.559 118.058 428.205 118.82C427.852 119.579 427.362 120.167 426.735 120.585C426.109 120.998 425.386 121.205 424.568 121.205C423.938 121.205 423.433 121.1 423.053 120.891C422.674 120.678 422.382 120.437 422.178 120.169C421.973 119.896 421.815 119.67 421.705 119.491H421.577V124.682H420.068ZM421.551 116.091C421.551 116.832 421.66 117.487 421.877 118.053C422.094 118.616 422.412 119.057 422.83 119.376C423.247 119.692 423.759 119.849 424.364 119.849C424.994 119.849 425.521 119.683 425.942 119.351C426.369 119.014 426.688 118.562 426.901 117.996C427.119 117.425 427.227 116.79 427.227 116.091C427.227 115.401 427.121 114.778 426.908 114.224C426.699 113.666 426.381 113.225 425.955 112.901C425.533 112.573 425.003 112.409 424.364 112.409C423.75 112.409 423.234 112.565 422.817 112.876C422.399 113.183 422.084 113.613 421.871 114.167C421.658 114.717 421.551 115.358 421.551 116.091ZM433.926 121.23C433.304 121.23 432.739 121.113 432.232 120.879C431.725 120.64 431.322 120.297 431.024 119.849C430.726 119.398 430.577 118.852 430.577 118.213C430.577 117.651 430.688 117.195 430.909 116.845C431.131 116.491 431.427 116.214 431.798 116.014C432.168 115.814 432.577 115.665 433.025 115.567C433.477 115.464 433.93 115.384 434.386 115.324C434.983 115.247 435.467 115.19 435.837 115.151C436.212 115.109 436.485 115.038 436.656 114.94C436.83 114.842 436.918 114.672 436.918 114.429V114.378C436.918 113.747 436.745 113.257 436.4 112.908C436.059 112.558 435.541 112.384 434.847 112.384C434.126 112.384 433.562 112.541 433.153 112.857C432.744 113.172 432.456 113.509 432.29 113.866L430.858 113.355C431.114 112.759 431.455 112.294 431.881 111.962C432.311 111.625 432.78 111.391 433.287 111.259C433.798 111.122 434.301 111.054 434.795 111.054C435.111 111.054 435.473 111.092 435.882 111.169C436.295 111.241 436.694 111.393 437.077 111.623C437.465 111.853 437.787 112.2 438.043 112.665C438.298 113.129 438.426 113.751 438.426 114.531V121H436.918V119.67H436.841C436.739 119.884 436.568 120.112 436.33 120.354C436.091 120.597 435.773 120.804 435.377 120.974C434.981 121.145 434.497 121.23 433.926 121.23ZM434.156 119.875C434.753 119.875 435.256 119.758 435.665 119.523C436.078 119.289 436.389 118.987 436.598 118.616C436.811 118.245 436.918 117.855 436.918 117.446V116.065C436.854 116.142 436.713 116.212 436.496 116.276C436.283 116.336 436.036 116.389 435.754 116.436C435.477 116.479 435.207 116.517 434.942 116.551C434.683 116.581 434.472 116.607 434.31 116.628C433.918 116.679 433.551 116.762 433.21 116.877C432.874 116.988 432.601 117.156 432.392 117.382C432.188 117.604 432.085 117.906 432.085 118.29C432.085 118.814 432.279 119.21 432.667 119.479C433.059 119.743 433.555 119.875 434.156 119.875ZM448.901 111.182V119.594H450.282V124.17H448.773V121H441.18V111.182H442.688V119.594H447.393V111.182H448.901ZM454.114 118.776L458.844 111.182H460.583V121H459.074V113.406L454.369 121H452.605V111.182H454.114V118.776ZM469.252 121V112.562H466.644C466.056 112.562 465.593 112.699 465.257 112.972C464.92 113.244 464.752 113.619 464.752 114.097C464.752 114.565 464.903 114.934 465.206 115.202C465.512 115.471 465.932 115.605 466.465 115.605H469.635V117.011H466.465C465.8 117.011 465.227 116.894 464.745 116.66C464.264 116.425 463.893 116.091 463.633 115.656C463.373 115.217 463.243 114.697 463.243 114.097C463.243 113.491 463.38 112.972 463.652 112.537C463.925 112.102 464.315 111.768 464.822 111.533C465.333 111.299 465.941 111.182 466.644 111.182H470.684V121H469.252ZM462.706 121L465.493 116.116H467.13L464.343 121H462.706Z" fill="white"/>
<path d="M196.5 150.597C195.984 150.597 195.513 150.471 195.087 150.219C194.661 149.964 194.32 149.623 194.065 149.197C193.813 148.771 193.688 148.3 193.688 147.784C193.688 147.264 193.813 146.793 194.065 146.371C194.32 145.945 194.661 145.607 195.087 145.355C195.513 145.099 195.984 144.972 196.5 144.972C197.02 144.972 197.491 145.099 197.913 145.355C198.339 145.607 198.678 145.945 198.929 146.371C199.185 146.793 199.312 147.264 199.312 147.784C199.312 148.3 199.185 148.771 198.929 149.197C198.678 149.623 198.339 149.964 197.913 150.219C197.491 150.471 197.02 150.597 196.5 150.597ZM219.281 153L214.781 146.991H213.17V153H211.585V139.909H213.17V145.585H213.861L219.102 139.909H220.994L215.702 145.662L221.173 153H219.281ZM226.285 153.205C225.399 153.205 224.621 152.994 223.952 152.572C223.287 152.15 222.768 151.56 222.393 150.801C222.022 150.043 221.836 149.156 221.836 148.142C221.836 147.119 222.022 146.227 222.393 145.464C222.768 144.701 223.287 144.109 223.952 143.687C224.621 143.265 225.399 143.054 226.285 143.054C227.172 143.054 227.947 143.265 228.612 143.687C229.281 144.109 229.801 144.701 230.172 145.464C230.547 146.227 230.734 147.119 230.734 148.142C230.734 149.156 230.547 150.043 230.172 150.801C229.801 151.56 229.281 152.15 228.612 152.572C227.947 152.994 227.172 153.205 226.285 153.205ZM226.285 151.849C226.959 151.849 227.513 151.677 227.947 151.332C228.382 150.987 228.704 150.533 228.912 149.97C229.121 149.408 229.226 148.798 229.226 148.142C229.226 147.486 229.121 146.874 228.912 146.308C228.704 145.741 228.382 145.283 227.947 144.933C227.513 144.584 226.959 144.409 226.285 144.409C225.612 144.409 225.058 144.584 224.623 144.933C224.189 145.283 223.867 145.741 223.658 146.308C223.449 146.874 223.345 147.486 223.345 148.142C223.345 148.798 223.449 149.408 223.658 149.97C223.867 150.533 224.189 150.987 224.623 151.332C225.058 151.677 225.612 151.849 226.285 151.849ZM232.168 153V151.594H232.526C232.82 151.594 233.065 151.536 233.261 151.421C233.457 151.302 233.614 151.095 233.734 150.801C233.857 150.503 233.951 150.089 234.015 149.561C234.083 149.028 234.132 148.351 234.162 147.528L234.341 143.182H240.886V153H239.378V144.588H235.773L235.619 148.091C235.585 148.896 235.513 149.606 235.402 150.219C235.295 150.829 235.131 151.34 234.91 151.754C234.692 152.167 234.403 152.478 234.04 152.687C233.678 152.896 233.224 153 232.679 153H232.168ZM245.163 150.776L249.893 143.182H251.631V153H250.123V145.406L245.418 153H243.654V143.182H245.163V150.776ZM261.963 143.182V153H260.454V143.182H261.963ZM261.374 147.861V149.267C261.034 149.395 260.695 149.508 260.358 149.606C260.021 149.7 259.668 149.774 259.297 149.83C258.926 149.881 258.519 149.906 258.076 149.906C256.964 149.906 256.071 149.606 255.398 149.005C254.729 148.404 254.394 147.503 254.394 146.301V143.156H255.903V146.301C255.903 146.804 255.999 147.217 256.191 147.541C256.382 147.865 256.642 148.106 256.97 148.263C257.298 148.421 257.667 148.5 258.076 148.5C258.715 148.5 259.293 148.442 259.808 148.327C260.328 148.208 260.85 148.053 261.374 147.861ZM268.847 153.205C267.901 153.205 267.085 152.996 266.399 152.578C265.717 152.156 265.191 151.568 264.82 150.814C264.453 150.055 264.27 149.173 264.27 148.168C264.27 147.162 264.453 146.276 264.82 145.509C265.191 144.737 265.706 144.136 266.367 143.706C267.031 143.271 267.807 143.054 268.693 143.054C269.205 143.054 269.71 143.139 270.208 143.31C270.707 143.48 271.161 143.757 271.57 144.141C271.979 144.52 272.305 145.023 272.548 145.649C272.791 146.276 272.912 147.047 272.912 147.963V148.602H265.344V147.298H271.378C271.378 146.744 271.267 146.25 271.046 145.815C270.828 145.381 270.517 145.038 270.112 144.786C269.712 144.535 269.239 144.409 268.693 144.409C268.093 144.409 267.573 144.558 267.134 144.857C266.699 145.151 266.365 145.534 266.13 146.007C265.896 146.48 265.779 146.987 265.779 147.528V148.398C265.779 149.139 265.906 149.768 266.162 150.283C266.422 150.795 266.782 151.185 267.242 151.453C267.703 151.717 268.237 151.849 268.847 151.849C269.243 151.849 269.601 151.794 269.921 151.683C270.244 151.568 270.524 151.398 270.758 151.172C270.992 150.942 271.173 150.656 271.301 150.315L272.759 150.724C272.605 151.219 272.347 151.653 271.985 152.028C271.623 152.399 271.176 152.689 270.643 152.898C270.11 153.102 269.512 153.205 268.847 153.205ZM279.195 153.205C278.275 153.205 277.482 152.987 276.818 152.553C276.153 152.118 275.642 151.519 275.284 150.756C274.926 149.994 274.747 149.122 274.747 148.142C274.747 147.145 274.93 146.265 275.296 145.502C275.667 144.735 276.183 144.136 276.843 143.706C277.508 143.271 278.284 143.054 279.17 143.054C279.86 143.054 280.482 143.182 281.036 143.438C281.59 143.693 282.044 144.051 282.398 144.511C282.752 144.972 282.971 145.509 283.056 146.122H281.548C281.433 145.675 281.177 145.278 280.781 144.933C280.389 144.584 279.86 144.409 279.195 144.409C278.607 144.409 278.092 144.562 277.649 144.869C277.21 145.172 276.867 145.6 276.619 146.154C276.377 146.704 276.255 147.349 276.255 148.091C276.255 148.849 276.374 149.51 276.613 150.072C276.856 150.635 277.197 151.072 277.636 151.383C278.079 151.694 278.599 151.849 279.195 151.849C279.588 151.849 279.943 151.781 280.263 151.645C280.583 151.509 280.853 151.312 281.075 151.057C281.296 150.801 281.454 150.494 281.548 150.136H283.056C282.971 150.716 282.76 151.238 282.423 151.702C282.091 152.163 281.65 152.529 281.1 152.802C280.555 153.07 279.92 153.205 279.195 153.205ZM284.488 144.588V143.182H292.465V144.588H289.244V153H287.735V144.588H284.488ZM294.666 153V143.182H298.68C299.737 143.182 300.576 143.42 301.199 143.898C301.821 144.375 302.132 145.006 302.132 145.79C302.132 146.386 301.955 146.849 301.601 147.177C301.248 147.501 300.794 147.72 300.24 147.835C300.602 147.886 300.953 148.014 301.294 148.219C301.64 148.423 301.925 148.705 302.151 149.062C302.377 149.416 302.49 149.851 302.49 150.366C302.49 150.869 302.362 151.319 302.106 151.715C301.85 152.112 301.484 152.425 301.007 152.655C300.529 152.885 299.958 153 299.294 153H294.666ZM296.098 151.619H299.294C299.814 151.619 300.221 151.496 300.515 151.249C300.809 151.001 300.956 150.665 300.956 150.239C300.956 149.732 300.809 149.333 300.515 149.043C300.221 148.749 299.814 148.602 299.294 148.602H296.098V151.619ZM296.098 147.298H298.68C299.085 147.298 299.432 147.243 299.722 147.132C300.012 147.017 300.233 146.855 300.387 146.646C300.544 146.433 300.623 146.182 300.623 145.892C300.623 145.479 300.451 145.155 300.105 144.92C299.76 144.682 299.285 144.562 298.68 144.562H296.098V147.298ZM308.762 153.205C307.876 153.205 307.098 152.994 306.429 152.572C305.764 152.15 305.244 151.56 304.869 150.801C304.498 150.043 304.313 149.156 304.313 148.142C304.313 147.119 304.498 146.227 304.869 145.464C305.244 144.701 305.764 144.109 306.429 143.687C307.098 143.265 307.876 143.054 308.762 143.054C309.648 143.054 310.424 143.265 311.089 143.687C311.758 144.109 312.278 144.701 312.648 145.464C313.023 146.227 313.211 147.119 313.211 148.142C313.211 149.156 313.023 150.043 312.648 150.801C312.278 151.56 311.758 152.15 311.089 152.572C310.424 152.994 309.648 153.205 308.762 153.205ZM308.762 151.849C309.435 151.849 309.989 151.677 310.424 151.332C310.858 150.987 311.18 150.533 311.389 149.97C311.598 149.408 311.702 148.798 311.702 148.142C311.702 147.486 311.598 146.874 311.389 146.308C311.18 145.741 310.858 145.283 310.424 144.933C309.989 144.584 309.435 144.409 308.762 144.409C308.089 144.409 307.535 144.584 307.1 144.933C306.665 145.283 306.344 145.741 306.135 146.308C305.926 146.874 305.822 147.486 305.822 148.142C305.822 148.798 305.926 149.408 306.135 149.97C306.344 150.533 306.665 150.987 307.1 151.332C307.535 151.677 308.089 151.849 308.762 151.849ZM325.945 150.955L329.371 143.182H330.803L326.559 153H325.332L321.164 143.182H322.57L325.945 150.955ZM322.085 143.182V153H320.576V143.182H322.085ZM329.806 153V143.182H331.315V153H329.806ZM338.192 153.205C337.246 153.205 336.43 152.996 335.744 152.578C335.062 152.156 334.536 151.568 334.165 150.814C333.799 150.055 333.616 149.173 333.616 148.168C333.616 147.162 333.799 146.276 334.165 145.509C334.536 144.737 335.052 144.136 335.712 143.706C336.377 143.271 337.153 143.054 338.039 143.054C338.55 143.054 339.055 143.139 339.554 143.31C340.053 143.48 340.506 143.757 340.915 144.141C341.325 144.52 341.651 145.023 341.893 145.649C342.136 146.276 342.258 147.047 342.258 147.963V148.602H334.69V147.298H340.724C340.724 146.744 340.613 146.25 340.391 145.815C340.174 145.381 339.863 145.038 339.458 144.786C339.058 144.535 338.585 144.409 338.039 144.409C337.438 144.409 336.918 144.558 336.479 144.857C336.045 145.151 335.71 145.534 335.476 146.007C335.241 146.48 335.124 146.987 335.124 147.528V148.398C335.124 149.139 335.252 149.768 335.508 150.283C335.768 150.795 336.128 151.185 336.588 151.453C337.048 151.717 337.583 151.849 338.192 151.849C338.589 151.849 338.947 151.794 339.266 151.683C339.59 151.568 339.869 151.398 340.104 151.172C340.338 150.942 340.519 150.656 340.647 150.315L342.104 150.724C341.951 151.219 341.693 151.653 341.331 152.028C340.969 152.399 340.521 152.689 339.989 152.898C339.456 153.102 338.857 153.205 338.192 153.205ZM348.541 153.205C347.621 153.205 346.828 152.987 346.163 152.553C345.499 152.118 344.987 151.519 344.629 150.756C344.271 149.994 344.092 149.122 344.092 148.142C344.092 147.145 344.276 146.265 344.642 145.502C345.013 144.735 345.528 144.136 346.189 143.706C346.854 143.271 347.629 143.054 348.516 143.054C349.206 143.054 349.828 143.182 350.382 143.438C350.936 143.693 351.39 144.051 351.744 144.511C352.097 144.972 352.317 145.509 352.402 146.122H350.893C350.778 145.675 350.523 145.278 350.126 144.933C349.734 144.584 349.206 144.409 348.541 144.409C347.953 144.409 347.438 144.562 346.994 144.869C346.555 145.172 346.212 145.6 345.965 146.154C345.722 146.704 345.601 147.349 345.601 148.091C345.601 148.849 345.72 149.51 345.959 150.072C346.202 150.635 346.543 151.072 346.982 151.383C347.425 151.694 347.945 151.849 348.541 151.849C348.933 151.849 349.289 151.781 349.609 151.645C349.928 151.509 350.199 151.312 350.42 151.057C350.642 150.801 350.8 150.494 350.893 150.136H352.402C352.317 150.716 352.106 151.238 351.769 151.702C351.437 152.163 350.996 152.529 350.446 152.802C349.901 153.07 349.266 153.205 348.541 153.205ZM353.834 144.588V143.182H361.811V144.588H358.589V153H357.081V144.588H353.834ZM375.645 147.401V148.807H370.225V147.401H375.645ZM370.583 143.182V153H369.074V143.182H370.583ZM376.796 143.182V153H375.287V143.182H376.796ZM383.667 153.205C382.721 153.205 381.905 152.996 381.219 152.578C380.537 152.156 380.011 151.568 379.64 150.814C379.274 150.055 379.09 149.173 379.09 148.168C379.09 147.162 379.274 146.276 379.64 145.509C380.011 144.737 380.526 144.136 381.187 143.706C381.852 143.271 382.627 143.054 383.514 143.054C384.025 143.054 384.53 143.139 385.029 143.31C385.527 143.48 385.981 143.757 386.39 144.141C386.799 144.52 387.125 145.023 387.368 145.649C387.611 146.276 387.732 147.047 387.732 147.963V148.602H380.164V147.298H386.198C386.198 146.744 386.088 146.25 385.866 145.815C385.649 145.381 385.338 145.038 384.933 144.786C384.532 144.535 384.059 144.409 383.514 144.409C382.913 144.409 382.393 144.558 381.954 144.857C381.519 145.151 381.185 145.534 380.95 146.007C380.716 146.48 380.599 146.987 380.599 147.528V148.398C380.599 149.139 380.727 149.768 380.982 150.283C381.242 150.795 381.602 151.185 382.063 151.453C382.523 151.717 383.058 151.849 383.667 151.849C384.063 151.849 384.421 151.794 384.741 151.683C385.065 151.568 385.344 151.398 385.578 151.172C385.813 150.942 385.994 150.656 386.122 150.315L387.579 150.724C387.426 151.219 387.168 151.653 386.806 152.028C386.443 152.399 385.996 152.689 385.463 152.898C384.931 153.102 384.332 153.205 383.667 153.205ZM399.078 153.205C398.192 153.205 397.414 152.994 396.745 152.572C396.08 152.15 395.561 151.56 395.186 150.801C394.815 150.043 394.629 149.156 394.629 148.142C394.629 147.119 394.815 146.227 395.186 145.464C395.561 144.701 396.08 144.109 396.745 143.687C397.414 143.265 398.192 143.054 399.078 143.054C399.965 143.054 400.74 143.265 401.405 143.687C402.074 144.109 402.594 144.701 402.965 145.464C403.34 146.227 403.527 147.119 403.527 148.142C403.527 149.156 403.34 150.043 402.965 150.801C402.594 151.56 402.074 152.15 401.405 152.572C400.74 152.994 399.965 153.205 399.078 153.205ZM399.078 151.849C399.752 151.849 400.306 151.677 400.74 151.332C401.175 150.987 401.497 150.533 401.705 149.97C401.914 149.408 402.019 148.798 402.019 148.142C402.019 147.486 401.914 146.874 401.705 146.308C401.497 145.741 401.175 145.283 400.74 144.933C400.306 144.584 399.752 144.409 399.078 144.409C398.405 144.409 397.851 144.584 397.416 144.933C396.982 145.283 396.66 145.741 396.451 146.308C396.242 146.874 396.138 147.486 396.138 148.142C396.138 148.798 396.242 149.408 396.451 149.97C396.66 150.533 396.982 150.987 397.416 151.332C397.851 151.677 398.405 151.849 399.078 151.849ZM411.89 143.182V144.588H407.338V153H405.83V143.182H411.89ZM414.092 156.682V143.182H415.549V144.741H415.728C415.839 144.571 415.992 144.354 416.188 144.089C416.388 143.821 416.674 143.582 417.045 143.374C417.42 143.161 417.927 143.054 418.566 143.054C419.393 143.054 420.121 143.261 420.752 143.674C421.383 144.087 421.875 144.673 422.229 145.432C422.582 146.19 422.759 147.085 422.759 148.116C422.759 149.156 422.582 150.058 422.229 150.82C421.875 151.579 421.385 152.167 420.759 152.585C420.132 152.998 419.41 153.205 418.592 153.205C417.961 153.205 417.456 153.1 417.077 152.891C416.697 152.678 416.406 152.437 416.201 152.169C415.996 151.896 415.839 151.67 415.728 151.491H415.6V156.682H414.092ZM415.575 148.091C415.575 148.832 415.683 149.487 415.901 150.053C416.118 150.616 416.435 151.057 416.853 151.376C417.271 151.692 417.782 151.849 418.387 151.849C419.018 151.849 419.544 151.683 419.966 151.351C420.392 151.014 420.712 150.562 420.925 149.996C421.142 149.425 421.251 148.79 421.251 148.091C421.251 147.401 421.144 146.778 420.931 146.224C420.722 145.666 420.405 145.225 419.979 144.901C419.557 144.573 419.026 144.409 418.387 144.409C417.773 144.409 417.258 144.565 416.84 144.876C416.423 145.183 416.107 145.613 415.894 146.167C415.681 146.717 415.575 147.358 415.575 148.091ZM427.95 153.23C427.327 153.23 426.763 153.113 426.256 152.879C425.749 152.64 425.346 152.297 425.048 151.849C424.749 151.398 424.6 150.852 424.6 150.213C424.6 149.651 424.711 149.195 424.933 148.845C425.154 148.491 425.45 148.214 425.821 148.014C426.192 147.814 426.601 147.665 427.048 147.567C427.5 147.464 427.954 147.384 428.41 147.324C429.006 147.247 429.49 147.19 429.861 147.151C430.236 147.109 430.509 147.038 430.679 146.94C430.854 146.842 430.941 146.672 430.941 146.429V146.378C430.941 145.747 430.768 145.257 430.423 144.908C430.082 144.558 429.565 144.384 428.87 144.384C428.15 144.384 427.585 144.541 427.176 144.857C426.767 145.172 426.479 145.509 426.313 145.866L424.881 145.355C425.137 144.759 425.478 144.294 425.904 143.962C426.335 143.625 426.803 143.391 427.31 143.259C427.822 143.122 428.325 143.054 428.819 143.054C429.134 143.054 429.496 143.092 429.906 143.169C430.319 143.241 430.717 143.393 431.101 143.623C431.489 143.853 431.81 144.2 432.066 144.665C432.322 145.129 432.45 145.751 432.45 146.531V153H430.941V151.67H430.864C430.762 151.884 430.592 152.112 430.353 152.354C430.114 152.597 429.797 152.804 429.401 152.974C429.004 153.145 428.521 153.23 427.95 153.23ZM428.18 151.875C428.776 151.875 429.279 151.758 429.688 151.523C430.102 151.289 430.413 150.987 430.621 150.616C430.835 150.245 430.941 149.855 430.941 149.446V148.065C430.877 148.142 430.737 148.212 430.519 148.276C430.306 148.336 430.059 148.389 429.778 148.436C429.501 148.479 429.23 148.517 428.966 148.551C428.706 148.581 428.495 148.607 428.333 148.628C427.941 148.679 427.575 148.762 427.234 148.877C426.897 148.988 426.624 149.156 426.415 149.382C426.211 149.604 426.109 149.906 426.109 150.29C426.109 150.814 426.303 151.21 426.69 151.479C427.082 151.743 427.579 151.875 428.18 151.875ZM441.774 147.401V148.807H436.354V147.401H441.774ZM436.711 143.182V153H435.203V143.182H436.711ZM442.925 143.182V153H441.416V143.182H442.925ZM447.188 150.776L451.918 143.182H453.657V153H452.148V145.406L447.444 153H445.68V143.182H447.188V150.776ZM463.988 143.182V153H462.479V143.182H463.988ZM463.4 147.861V149.267C463.059 149.395 462.72 149.508 462.384 149.606C462.047 149.7 461.693 149.774 461.322 149.83C460.952 149.881 460.545 149.906 460.102 149.906C458.989 149.906 458.097 149.606 457.423 149.005C456.754 148.404 456.42 147.503 456.42 146.301V143.156H457.928V146.301C457.928 146.804 458.024 147.217 458.216 147.541C458.408 147.865 458.668 148.106 458.996 148.263C459.324 148.421 459.692 148.5 460.102 148.5C460.741 148.5 461.318 148.442 461.834 148.327C462.354 148.208 462.876 148.053 463.4 147.861ZM470.872 153.205C469.926 153.205 469.11 152.996 468.424 152.578C467.742 152.156 467.216 151.568 466.845 150.814C466.479 150.055 466.295 149.173 466.295 148.168C466.295 147.162 466.479 146.276 466.845 145.509C467.216 144.737 467.732 144.136 468.392 143.706C469.057 143.271 469.832 143.054 470.719 143.054C471.23 143.054 471.735 143.139 472.234 143.31C472.732 143.48 473.186 143.757 473.595 144.141C474.004 144.52 474.33 145.023 474.573 145.649C474.816 146.276 474.938 147.047 474.938 147.963V148.602H467.369V147.298H473.403C473.403 146.744 473.293 146.25 473.071 145.815C472.854 145.381 472.543 145.038 472.138 144.786C471.737 144.535 471.264 144.409 470.719 144.409C470.118 144.409 469.598 144.558 469.159 144.857C468.724 145.151 468.39 145.534 468.156 146.007C467.921 146.48 467.804 146.987 467.804 147.528V148.398C467.804 149.139 467.932 149.768 468.188 150.283C468.447 150.795 468.808 151.185 469.268 151.453C469.728 151.717 470.263 151.849 470.872 151.849C471.268 151.849 471.626 151.794 471.946 151.683C472.27 151.568 472.549 151.398 472.783 151.172C473.018 150.942 473.199 150.656 473.327 150.315L474.784 150.724C474.631 151.219 474.373 151.653 474.011 152.028C473.648 152.399 473.201 152.689 472.668 152.898C472.136 153.102 471.537 153.205 470.872 153.205ZM483.803 147.401V148.807H478.383V147.401H483.803ZM478.741 143.182V153H477.232V143.182H478.741ZM484.954 143.182V153H483.445V143.182H484.954ZM491.697 153.205C490.811 153.205 490.033 152.994 489.364 152.572C488.7 152.15 488.18 151.56 487.805 150.801C487.434 150.043 487.249 149.156 487.249 148.142C487.249 147.119 487.434 146.227 487.805 145.464C488.18 144.701 488.7 144.109 489.364 143.687C490.033 143.265 490.811 143.054 491.697 143.054C492.584 143.054 493.359 143.265 494.024 143.687C494.693 144.109 495.213 144.701 495.584 145.464C495.959 146.227 496.146 147.119 496.146 148.142C496.146 149.156 495.959 150.043 495.584 150.801C495.213 151.56 494.693 152.15 494.024 152.572C493.359 152.994 492.584 153.205 491.697 153.205ZM491.697 151.849C492.371 151.849 492.925 151.677 493.359 151.332C493.794 150.987 494.116 150.533 494.325 149.97C494.533 149.408 494.638 148.798 494.638 148.142C494.638 147.486 494.533 146.874 494.325 146.308C494.116 145.741 493.794 145.283 493.359 144.933C492.925 144.584 492.371 144.409 491.697 144.409C491.024 144.409 490.47 144.584 490.036 144.933C489.601 145.283 489.279 145.741 489.07 146.308C488.862 146.874 488.757 147.486 488.757 148.142C488.757 148.798 488.862 149.408 489.07 149.97C489.279 150.533 489.601 150.987 490.036 151.332C490.47 151.677 491.024 151.849 491.697 151.849Z" fill="white"/>
<path d="M160.5 83C330.378 83 598 83 598 83V201.5" stroke="white" stroke-width="5"/>
<path d="M398.232 199.232C397.256 200.209 397.256 201.791 398.232 202.768L414.142 218.678C415.118 219.654 416.701 219.654 417.678 218.678C418.654 217.701 418.654 216.118 417.678 215.142L403.536 201L417.678 186.858C418.654 185.882 418.654 184.299 417.678 183.322C416.701 182.346 415.118 182.346 414.142 183.322L398.232 199.232ZM600.5 198.5L400 198.5L400 203.5L600.5 203.5L600.5 198.5Z" fill="white"/>
</svg>
