<svg width="600" height="220" viewBox="0 0 600 220" fill="none" xmlns="http://www.w3.org/2000/svg">
<path d="M437.5 83C437.5 67.1775 442.192 51.7103 450.982 38.5544C459.773 25.3984 472.267 15.1446 486.885 9.08964C501.503 3.03463 517.589 1.45036 533.107 4.53718C548.626 7.624 562.88 15.2433 574.069 26.4315C585.257 37.6197 592.876 51.8743 595.963 67.3928C599.05 82.9113 597.465 98.9966 591.41 113.615C585.355 128.233 575.102 140.727 561.946 149.518C548.79 158.308 533.323 163 517.5 163" stroke="white" stroke-width="5"/>
<circle cx="518" cy="83" r="65" fill="#FFEE32" fill-opacity="0.45"/>
<circle cx="518" cy="67" r="23" fill="white"/>
<path d="M506.361 83V77.6903L517.502 67.9361C518.337 67.1804 519.048 66.4893 519.635 65.8629C520.221 65.2266 520.669 64.5902 520.977 63.9538C521.285 63.3075 521.439 62.6065 521.439 61.8509C521.439 61.0057 521.255 60.2848 520.888 59.6882C520.52 59.0817 520.013 58.6143 519.366 58.2862C518.72 57.9581 517.979 57.794 517.144 57.794C516.299 57.794 515.558 57.968 514.922 58.3161C514.285 58.6541 513.788 59.1463 513.43 59.7926C513.082 60.4389 512.908 61.2244 512.908 62.1491H505.913C505.913 60.071 506.38 58.2763 507.315 56.7649C508.25 55.2536 509.562 54.0902 511.253 53.2749C512.953 52.4496 514.927 52.0369 517.174 52.0369C519.491 52.0369 521.504 52.4247 523.214 53.2003C524.924 53.9759 526.247 55.0597 527.182 56.4517C528.126 57.8338 528.598 59.4396 528.598 61.2692C528.598 62.4325 528.365 63.5859 527.897 64.7294C527.43 65.8729 526.59 67.1357 525.377 68.5178C524.174 69.8999 522.464 71.5554 520.246 73.4844L516.592 76.8551V77.049H528.971V83H506.361Z" fill="black"/>
<path d="M492.919 121.405V114.425H494.162C494.48 114.133 494.749 113.785 494.968 113.381C495.193 112.976 495.382 112.496 495.534 111.939C495.693 111.382 495.826 110.732 495.932 109.99C496.038 109.241 496.131 108.386 496.21 107.425L496.688 101.727H507.068V114.425H509.415V121.405H506.512V117H495.862V121.405H492.919ZM497.344 114.425H504.165V104.273H499.352L499.034 107.425C498.882 109.029 498.69 110.421 498.458 111.601C498.226 112.774 497.854 113.715 497.344 114.425ZM522.672 108.081V110.656H514.399V108.081H522.672ZM515.234 101.727V117H512.321V101.727H515.234ZM524.75 101.727V117H521.846V101.727H524.75ZM537.835 117V104.263H534.176C533.308 104.263 532.631 104.465 532.148 104.869C531.664 105.274 531.422 105.804 531.422 106.46C531.422 107.11 531.644 107.634 532.088 108.031C532.539 108.422 533.168 108.618 533.977 108.618H538.7V111.024H533.977C532.85 111.024 531.876 110.839 531.054 110.467C530.238 110.089 529.609 109.556 529.165 108.866C528.727 108.177 528.508 107.362 528.508 106.42C528.508 105.459 528.734 104.631 529.184 103.935C529.642 103.232 530.295 102.688 531.143 102.304C531.998 101.92 533.009 101.727 534.176 101.727H540.629V117H537.835ZM527.812 117L532.118 109.284H535.16L530.855 117H527.812Z" fill="white"/>
<circle cx="518" cy="83" r="59.5" stroke="white"/>
<path d="M33.5 118.597C32.9844 118.597 32.5135 118.471 32.0874 118.219C31.6612 117.964 31.3203 117.623 31.0646 117.197C30.8132 116.771 30.6875 116.3 30.6875 115.784C30.6875 115.264 30.8132 114.793 31.0646 114.371C31.3203 113.945 31.6612 113.607 32.0874 113.355C32.5135 113.099 32.9844 112.972 33.5 112.972C34.0199 112.972 34.4908 113.099 34.9126 113.355C35.3388 113.607 35.6776 113.945 35.929 114.371C36.1847 114.793 36.3125 115.264 36.3125 115.784C36.3125 116.3 36.1847 116.771 35.929 117.197C35.6776 117.623 35.3388 117.964 34.9126 118.219C34.4908 118.471 34.0199 118.597 33.5 118.597ZM47.8693 109.315V107.909H57.6875V109.315H53.571V121H51.9858V109.315H47.8693ZM62.6222 121.205C61.6761 121.205 60.8601 120.996 60.174 120.578C59.4922 120.156 58.9659 119.568 58.5952 118.814C58.2287 118.055 58.0455 117.173 58.0455 116.168C58.0455 115.162 58.2287 114.276 58.5952 113.509C58.9659 112.737 59.4815 112.136 60.142 111.706C60.8068 111.271 61.5824 111.054 62.4688 111.054C62.9801 111.054 63.4851 111.139 63.9837 111.31C64.4822 111.48 64.9361 111.757 65.3452 112.141C65.7543 112.52 66.0803 113.023 66.3232 113.649C66.5661 114.276 66.6875 115.047 66.6875 115.963V116.602H59.1193V115.298H65.1534C65.1534 114.744 65.0426 114.25 64.821 113.815C64.6037 113.381 64.2926 113.038 63.8878 112.786C63.4872 112.535 63.0142 112.409 62.4688 112.409C61.8679 112.409 61.348 112.558 60.9091 112.857C60.4744 113.151 60.1399 113.534 59.9055 114.007C59.6712 114.48 59.554 114.987 59.554 115.528V116.398C59.554 117.139 59.6818 117.768 59.9375 118.283C60.1974 118.795 60.5575 119.185 61.0178 119.453C61.478 119.717 62.0128 119.849 62.6222 119.849C63.0185 119.849 63.3764 119.794 63.696 119.683C64.0199 119.568 64.299 119.398 64.5334 119.172C64.7678 118.942 64.9489 118.656 65.0767 118.315L66.5341 118.724C66.3807 119.219 66.1229 119.653 65.7607 120.028C65.3984 120.399 64.951 120.689 64.4183 120.898C63.8857 121.102 63.2869 121.205 62.6222 121.205ZM72.9709 121.205C72.0845 121.205 71.3068 120.994 70.6378 120.572C69.973 120.15 69.4531 119.56 69.0781 118.801C68.7074 118.043 68.522 117.156 68.522 116.142C68.522 115.119 68.7074 114.227 69.0781 113.464C69.4531 112.701 69.973 112.109 70.6378 111.687C71.3068 111.265 72.0845 111.054 72.9709 111.054C73.8572 111.054 74.6328 111.265 75.2976 111.687C75.9666 112.109 76.4865 112.701 76.8572 113.464C77.2322 114.227 77.4197 115.119 77.4197 116.142C77.4197 117.156 77.2322 118.043 76.8572 118.801C76.4865 119.56 75.9666 120.15 75.2976 120.572C74.6328 120.994 73.8572 121.205 72.9709 121.205ZM72.9709 119.849C73.6442 119.849 74.1982 119.677 74.6328 119.332C75.0675 118.987 75.3892 118.533 75.598 117.97C75.8068 117.408 75.9112 116.798 75.9112 116.142C75.9112 115.486 75.8068 114.874 75.598 114.308C75.3892 113.741 75.0675 113.283 74.6328 112.933C74.1982 112.584 73.6442 112.409 72.9709 112.409C72.2976 112.409 71.7436 112.584 71.3089 112.933C70.8743 113.283 70.5526 113.741 70.3438 114.308C70.1349 114.874 70.0305 115.486 70.0305 116.142C70.0305 116.798 70.1349 117.408 70.3438 117.97C70.5526 118.533 70.8743 118.987 71.3089 119.332C71.7436 119.677 72.2976 119.849 72.9709 119.849ZM79.7225 124.682V111.182H81.1799V112.741H81.3588C81.4696 112.571 81.623 112.354 81.8191 112.089C82.0194 111.821 82.3049 111.582 82.6756 111.374C83.0506 111.161 83.5577 111.054 84.1969 111.054C85.0236 111.054 85.7523 111.261 86.383 111.674C87.0137 112.087 87.5059 112.673 87.8596 113.432C88.2132 114.19 88.3901 115.085 88.3901 116.116C88.3901 117.156 88.2132 118.058 87.8596 118.82C87.5059 119.579 87.0158 120.167 86.3894 120.585C85.763 120.998 85.0407 121.205 84.2225 121.205C83.5918 121.205 83.0868 121.1 82.7076 120.891C82.3283 120.678 82.0364 120.437 81.8319 120.169C81.6273 119.896 81.4696 119.67 81.3588 119.491H81.231V124.682H79.7225ZM81.2054 116.091C81.2054 116.832 81.3141 117.487 81.5314 118.053C81.7488 118.616 82.0662 119.057 82.4838 119.376C82.9015 119.692 83.4128 119.849 84.0179 119.849C84.6486 119.849 85.1749 119.683 85.5968 119.351C86.0229 119.014 86.3425 118.562 86.5556 117.996C86.7729 117.425 86.8816 116.79 86.8816 116.091C86.8816 115.401 86.775 114.778 86.562 114.224C86.3532 113.666 86.0357 113.225 85.6096 112.901C85.1877 112.573 84.6571 112.409 84.0179 112.409C83.4043 112.409 82.8887 112.565 82.4711 112.876C82.0534 113.183 81.7381 113.613 81.525 114.167C81.312 114.717 81.2054 115.358 81.2054 116.091ZM92.1998 118.776L96.9299 111.182H98.6685V121H97.16V113.406L92.4554 121H90.6912V111.182H92.1998V118.776ZM107.338 121V112.562H104.73C104.142 112.562 103.679 112.699 103.343 112.972C103.006 113.244 102.838 113.619 102.838 114.097C102.838 114.565 102.989 114.934 103.292 115.202C103.598 115.471 104.018 115.605 104.551 115.605H107.721V117.011H104.551C103.886 117.011 103.313 116.894 102.831 116.66C102.35 116.425 101.979 116.091 101.719 115.656C101.459 115.217 101.329 114.697 101.329 114.097C101.329 113.491 101.466 112.972 101.738 112.537C102.011 112.102 102.401 111.768 102.908 111.533C103.419 111.299 104.027 111.182 104.73 111.182H108.77V121H107.338ZM100.792 121L103.579 116.116H105.216L102.429 121H100.792ZM120.437 120.105V111.668H121.868V120.105H120.437ZM116.934 116.602V115.17H125.371V116.602H116.934ZM132.481 123.812V119.594H133.299C133.499 119.385 133.672 119.159 133.817 118.916C133.962 118.673 134.087 118.386 134.194 118.053C134.305 117.717 134.398 117.308 134.475 116.826C134.552 116.34 134.62 115.754 134.68 115.068L135.012 111.182H141.251V119.594H142.759V123.812H141.251V121H133.989V123.812H132.481ZM135.012 119.594H139.742V112.588H136.418L136.163 115.068C136.056 116.095 135.924 116.992 135.766 117.759C135.609 118.526 135.357 119.138 135.012 119.594ZM144.762 121V111.182H148.776C149.833 111.182 150.672 111.42 151.294 111.898C151.916 112.375 152.227 113.006 152.227 113.79C152.227 114.386 152.051 114.849 151.697 115.177C151.343 115.501 150.889 115.72 150.335 115.835C150.698 115.886 151.049 116.014 151.39 116.219C151.735 116.423 152.021 116.705 152.247 117.062C152.472 117.416 152.585 117.851 152.585 118.366C152.585 118.869 152.458 119.319 152.202 119.715C151.946 120.112 151.58 120.425 151.102 120.655C150.625 120.885 150.054 121 149.389 121H144.762ZM146.193 119.619H149.389C149.909 119.619 150.316 119.496 150.61 119.249C150.904 119.001 151.051 118.665 151.051 118.239C151.051 117.732 150.904 117.333 150.61 117.043C150.316 116.749 149.909 116.602 149.389 116.602H146.193V119.619ZM146.193 115.298H148.776C149.181 115.298 149.528 115.243 149.818 115.132C150.107 115.017 150.329 114.855 150.482 114.646C150.64 114.433 150.719 114.182 150.719 113.892C150.719 113.479 150.546 113.155 150.201 112.92C149.856 112.682 149.381 112.562 148.776 112.562H146.193V115.298ZM158.985 121.205C158.039 121.205 157.223 120.996 156.537 120.578C155.855 120.156 155.329 119.568 154.958 118.814C154.592 118.055 154.409 117.173 154.409 116.168C154.409 115.162 154.592 114.276 154.958 113.509C155.329 112.737 155.845 112.136 156.505 111.706C157.17 111.271 157.946 111.054 158.832 111.054C159.343 111.054 159.848 111.139 160.347 111.31C160.846 111.48 161.299 111.757 161.708 112.141C162.118 112.52 162.444 113.023 162.686 113.649C162.929 114.276 163.051 115.047 163.051 115.963V116.602H155.483V115.298H161.517C161.517 114.744 161.406 114.25 161.184 113.815C160.967 113.381 160.656 113.038 160.251 112.786C159.85 112.535 159.377 112.409 158.832 112.409C158.231 112.409 157.711 112.558 157.272 112.857C156.838 113.151 156.503 113.534 156.269 114.007C156.034 114.48 155.917 114.987 155.917 115.528V116.398C155.917 117.139 156.045 117.768 156.301 118.283C156.561 118.795 156.921 119.185 157.381 119.453C157.841 119.717 158.376 119.849 158.985 119.849C159.382 119.849 159.74 119.794 160.059 119.683C160.383 119.568 160.662 119.398 160.897 119.172C161.131 118.942 161.312 118.656 161.44 118.315L162.897 118.724C162.744 119.219 162.486 119.653 162.124 120.028C161.762 120.399 161.314 120.689 160.782 120.898C160.249 121.102 159.65 121.205 158.985 121.205ZM169.36 123.812V119.594H170.178C170.378 119.385 170.551 119.159 170.696 118.916C170.841 118.673 170.966 118.386 171.073 118.053C171.184 117.717 171.277 117.308 171.354 116.826C171.431 116.34 171.499 115.754 171.559 115.068L171.891 111.182H178.13V119.594H179.638V123.812H178.13V121H170.868V123.812H169.36ZM171.891 119.594H176.621V112.588H173.297L173.042 115.068C172.935 116.095 172.803 116.992 172.645 117.759C172.488 118.526 172.236 119.138 171.891 119.594ZM185.757 121.205C184.811 121.205 183.995 120.996 183.309 120.578C182.627 120.156 182.101 119.568 181.73 118.814C181.363 118.055 181.18 117.173 181.18 116.168C181.18 115.162 181.363 114.276 181.73 113.509C182.101 112.737 182.616 112.136 183.277 111.706C183.942 111.271 184.717 111.054 185.604 111.054C186.115 111.054 186.62 111.139 187.118 111.31C187.617 111.48 188.071 111.757 188.48 112.141C188.889 112.52 189.215 113.023 189.458 113.649C189.701 114.276 189.822 115.047 189.822 115.963V116.602H182.254V115.298H188.288C188.288 114.744 188.177 114.25 187.956 113.815C187.738 113.381 187.427 113.038 187.023 112.786C186.622 112.535 186.149 112.409 185.604 112.409C185.003 112.409 184.483 112.558 184.044 112.857C183.609 113.151 183.275 113.534 183.04 114.007C182.806 114.48 182.689 114.987 182.689 115.528V116.398C182.689 117.139 182.817 117.768 183.072 118.283C183.332 118.795 183.692 119.185 184.153 119.453C184.613 119.717 185.148 119.849 185.757 119.849C186.153 119.849 186.511 119.794 186.831 119.683C187.155 119.568 187.434 119.398 187.668 119.172C187.903 118.942 188.084 118.656 188.211 118.315L189.669 118.724C189.515 119.219 189.258 119.653 188.895 120.028C188.533 120.399 188.086 120.689 187.553 120.898C187.02 121.102 186.422 121.205 185.757 121.205ZM197.486 118.955L200.912 111.182H202.344L198.1 121H196.873L192.705 111.182H194.111L197.486 118.955ZM193.626 111.182V121H192.117V111.182H193.626ZM201.347 121V111.182H202.856V121H201.347ZM209.606 121.205C208.719 121.205 207.942 120.994 207.273 120.572C206.608 120.15 206.088 119.56 205.713 118.801C205.342 118.043 205.157 117.156 205.157 116.142C205.157 115.119 205.342 114.227 205.713 113.464C206.088 112.701 206.608 112.109 207.273 111.687C207.942 111.265 208.719 111.054 209.606 111.054C210.492 111.054 211.268 111.265 211.932 111.687C212.601 112.109 213.121 112.701 213.492 113.464C213.867 114.227 214.055 115.119 214.055 116.142C214.055 117.156 213.867 118.043 213.492 118.801C213.121 119.56 212.601 120.15 211.932 120.572C211.268 120.994 210.492 121.205 209.606 121.205ZM209.606 119.849C210.279 119.849 210.833 119.677 211.268 119.332C211.702 118.987 212.024 118.533 212.233 117.97C212.442 117.408 212.546 116.798 212.546 116.142C212.546 115.486 212.442 114.874 212.233 114.308C212.024 113.741 211.702 113.283 211.268 112.933C210.833 112.584 210.279 112.409 209.606 112.409C208.932 112.409 208.378 112.584 207.944 112.933C207.509 113.283 207.187 113.741 206.979 114.308C206.77 114.874 206.665 115.486 206.665 116.142C206.665 116.798 206.77 117.408 206.979 117.97C207.187 118.533 207.509 118.987 207.944 119.332C208.378 119.677 208.932 119.849 209.606 119.849ZM222.928 115.401V116.807H217.508V115.401H222.928ZM217.866 111.182V121H216.357V111.182H217.866ZM224.079 111.182V121H222.57V111.182H224.079ZM230.822 121.205C229.902 121.205 229.109 120.987 228.445 120.553C227.78 120.118 227.268 119.519 226.911 118.756C226.553 117.994 226.374 117.122 226.374 116.142C226.374 115.145 226.557 114.265 226.923 113.502C227.294 112.735 227.81 112.136 228.47 111.706C229.135 111.271 229.911 111.054 230.797 111.054C231.487 111.054 232.109 111.182 232.663 111.438C233.217 111.693 233.671 112.051 234.025 112.511C234.379 112.972 234.598 113.509 234.683 114.122H233.175C233.06 113.675 232.804 113.278 232.408 112.933C232.016 112.584 231.487 112.409 230.822 112.409C230.234 112.409 229.719 112.562 229.276 112.869C228.837 113.172 228.494 113.6 228.246 114.154C228.004 114.704 227.882 115.349 227.882 116.091C227.882 116.849 228.001 117.51 228.24 118.072C228.483 118.635 228.824 119.072 229.263 119.383C229.706 119.694 230.226 119.849 230.822 119.849C231.214 119.849 231.57 119.781 231.89 119.645C232.21 119.509 232.48 119.312 232.702 119.057C232.923 118.801 233.081 118.494 233.175 118.136H234.683C234.598 118.716 234.387 119.238 234.05 119.702C233.718 120.163 233.277 120.529 232.727 120.802C232.182 121.07 231.547 121.205 230.822 121.205ZM236.115 112.588V111.182H244.092V112.588H240.871V121H239.362V112.588H236.115ZM246.293 124.682V111.182H247.75V112.741H247.929C248.04 112.571 248.193 112.354 248.389 112.089C248.59 111.821 248.875 111.582 249.246 111.374C249.621 111.161 250.128 111.054 250.767 111.054C251.594 111.054 252.323 111.261 252.953 111.674C253.584 112.087 254.076 112.673 254.43 113.432C254.784 114.19 254.96 115.085 254.96 116.116C254.96 117.156 254.784 118.058 254.43 118.82C254.076 119.579 253.586 120.167 252.96 120.585C252.333 120.998 251.611 121.205 250.793 121.205C250.162 121.205 249.657 121.1 249.278 120.891C248.899 120.678 248.607 120.437 248.402 120.169C248.198 119.896 248.04 119.67 247.929 119.491H247.801V124.682H246.293ZM247.776 116.091C247.776 116.832 247.884 117.487 248.102 118.053C248.319 118.616 248.637 119.057 249.054 119.376C249.472 119.692 249.983 119.849 250.588 119.849C251.219 119.849 251.745 119.683 252.167 119.351C252.593 119.014 252.913 118.562 253.126 117.996C253.343 117.425 253.452 116.79 253.452 116.091C253.452 115.401 253.345 114.778 253.132 114.224C252.923 113.666 252.606 113.225 252.18 112.901C251.758 112.573 251.227 112.409 250.588 112.409C249.975 112.409 249.459 112.565 249.041 112.876C248.624 113.183 248.308 113.613 248.095 114.167C247.882 114.717 247.776 115.358 247.776 116.091ZM260.151 121.23C259.529 121.23 258.964 121.113 258.457 120.879C257.95 120.64 257.547 120.297 257.249 119.849C256.95 119.398 256.801 118.852 256.801 118.213C256.801 117.651 256.912 117.195 257.134 116.845C257.355 116.491 257.651 116.214 258.022 116.014C258.393 115.814 258.802 115.665 259.249 115.567C259.701 115.464 260.155 115.384 260.611 115.324C261.208 115.247 261.691 115.19 262.062 115.151C262.437 115.109 262.71 115.038 262.88 114.94C263.055 114.842 263.142 114.672 263.142 114.429V114.378C263.142 113.747 262.97 113.257 262.624 112.908C262.284 112.558 261.766 112.384 261.071 112.384C260.351 112.384 259.786 112.541 259.377 112.857C258.968 113.172 258.681 113.509 258.514 113.866L257.083 113.355C257.338 112.759 257.679 112.294 258.105 111.962C258.536 111.625 259.004 111.391 259.512 111.259C260.023 111.122 260.526 111.054 261.02 111.054C261.335 111.054 261.698 111.092 262.107 111.169C262.52 111.241 262.919 111.393 263.302 111.623C263.69 111.853 264.012 112.2 264.267 112.665C264.523 113.129 264.651 113.751 264.651 114.531V121H263.142V119.67H263.066C262.963 119.884 262.793 120.112 262.554 120.354C262.316 120.597 261.998 120.804 261.602 120.974C261.205 121.145 260.722 121.23 260.151 121.23ZM260.381 119.875C260.977 119.875 261.48 119.758 261.889 119.523C262.303 119.289 262.614 118.987 262.823 118.616C263.036 118.245 263.142 117.855 263.142 117.446V116.065C263.078 116.142 262.938 116.212 262.72 116.276C262.507 116.336 262.26 116.389 261.979 116.436C261.702 116.479 261.431 116.517 261.167 116.551C260.907 116.581 260.696 116.607 260.534 116.628C260.142 116.679 259.776 116.762 259.435 116.877C259.098 116.988 258.825 117.156 258.617 117.382C258.412 117.604 258.31 117.906 258.31 118.29C258.31 118.814 258.504 119.21 258.892 119.479C259.284 119.743 259.78 119.875 260.381 119.875ZM275.126 111.182V119.594H276.506V124.17H274.998V121H267.404V111.182H268.913V119.594H273.617V111.182H275.126ZM280.338 118.776L285.069 111.182H286.807V121H285.299V113.406L280.594 121H278.83V111.182H280.338V118.776ZM291.079 118.776L295.809 111.182H297.547V121H296.039V113.406L291.334 121H289.57V111.182H291.079V118.776Z" fill="white"/>
<path d="M33.5 150.597C32.9844 150.597 32.5135 150.471 32.0874 150.219C31.6612 149.964 31.3203 149.623 31.0646 149.197C30.8132 148.771 30.6875 148.3 30.6875 147.784C30.6875 147.264 30.8132 146.793 31.0646 146.371C31.3203 145.945 31.6612 145.607 32.0874 145.355C32.5135 145.099 32.9844 144.972 33.5 144.972C34.0199 144.972 34.4908 145.099 34.9126 145.355C35.3388 145.607 35.6776 145.945 35.929 146.371C36.1847 146.793 36.3125 147.264 36.3125 147.784C36.3125 148.3 36.1847 148.771 35.929 149.197C35.6776 149.623 35.3388 149.964 34.9126 150.219C34.4908 150.471 34.0199 150.597 33.5 150.597ZM56.2812 153L51.7812 146.991H50.1705V153H48.5852V139.909H50.1705V145.585H50.8608L56.1023 139.909H57.9943L52.7017 145.662L58.1733 153H56.2812ZM63.2853 153.205C62.399 153.205 61.6213 152.994 60.9522 152.572C60.2875 152.15 59.7676 151.56 59.3926 150.801C59.0218 150.043 58.8365 149.156 58.8365 148.142C58.8365 147.119 59.0218 146.227 59.3926 145.464C59.7676 144.701 60.2875 144.109 60.9522 143.687C61.6213 143.265 62.399 143.054 63.2853 143.054C64.1717 143.054 64.9473 143.265 65.612 143.687C66.2811 144.109 66.801 144.701 67.1717 145.464C67.5467 146.227 67.7342 147.119 67.7342 148.142C67.7342 149.156 67.5467 150.043 67.1717 150.801C66.801 151.56 66.2811 152.15 65.612 152.572C64.9473 152.994 64.1717 153.205 63.2853 153.205ZM63.2853 151.849C63.9586 151.849 64.5126 151.677 64.9473 151.332C65.3819 150.987 65.7037 150.533 65.9125 149.97C66.1213 149.408 66.2257 148.798 66.2257 148.142C66.2257 147.486 66.1213 146.874 65.9125 146.308C65.7037 145.741 65.3819 145.283 64.9473 144.933C64.5126 144.584 63.9586 144.409 63.2853 144.409C62.612 144.409 62.0581 144.584 61.6234 144.933C61.1887 145.283 60.867 145.741 60.6582 146.308C60.4494 146.874 60.345 147.486 60.345 148.142C60.345 148.798 60.4494 149.408 60.6582 149.97C60.867 150.533 61.1887 150.987 61.6234 151.332C62.0581 151.677 62.612 151.849 63.2853 151.849ZM69.1676 153V151.594H69.5256C69.8196 151.594 70.0646 151.536 70.2607 151.421C70.4567 151.302 70.6143 151.095 70.7337 150.801C70.8572 150.503 70.951 150.089 71.0149 149.561C71.0831 149.028 71.1321 148.351 71.1619 147.528L71.3409 143.182H77.8864V153H76.3778V144.588H72.7727L72.6193 148.091C72.5852 148.896 72.5128 149.606 72.402 150.219C72.2955 150.829 72.1314 151.34 71.9098 151.754C71.6925 152.167 71.4027 152.478 71.0405 152.687C70.6783 152.896 70.2244 153 69.679 153H69.1676ZM82.1626 150.776L86.8928 143.182H88.6314V153H87.1229V145.406L82.4183 153H80.6541V143.182H82.1626V150.776ZM98.9625 143.182V153H97.454V143.182H98.9625ZM98.3745 147.861V149.267C98.0336 149.395 97.6948 149.508 97.3581 149.606C97.0215 149.7 96.6678 149.774 96.2971 149.83C95.9263 149.881 95.5194 149.906 95.0762 149.906C93.964 149.906 93.0712 149.606 92.3979 149.005C91.7289 148.404 91.3944 147.503 91.3944 146.301V143.156H92.9029V146.301C92.9029 146.804 92.9988 147.217 93.1905 147.541C93.3823 147.865 93.6422 148.106 93.9703 148.263C94.2985 148.421 94.6671 148.5 95.0762 148.5C95.7154 148.5 96.2928 148.442 96.8084 148.327C97.3283 148.208 97.8503 148.053 98.3745 147.861ZM105.847 153.205C104.901 153.205 104.085 152.996 103.399 152.578C102.717 152.156 102.191 151.568 101.82 150.814C101.453 150.055 101.27 149.173 101.27 148.168C101.27 147.162 101.453 146.276 101.82 145.509C102.191 144.737 102.706 144.136 103.367 143.706C104.031 143.271 104.807 143.054 105.693 143.054C106.205 143.054 106.71 143.139 107.208 143.31C107.707 143.48 108.161 143.757 108.57 144.141C108.979 144.52 109.305 145.023 109.548 145.649C109.791 146.276 109.912 147.047 109.912 147.963V148.602H102.344V147.298H108.378C108.378 146.744 108.267 146.25 108.046 145.815C107.828 145.381 107.517 145.038 107.112 144.786C106.712 144.535 106.239 144.409 105.693 144.409C105.093 144.409 104.573 144.558 104.134 144.857C103.699 145.151 103.365 145.534 103.13 146.007C102.896 146.48 102.779 146.987 102.779 147.528V148.398C102.779 149.139 102.906 149.768 103.162 150.283C103.422 150.795 103.782 151.185 104.242 151.453C104.703 151.717 105.237 151.849 105.847 151.849C106.243 151.849 106.601 151.794 106.921 151.683C107.244 151.568 107.524 151.398 107.758 151.172C107.992 150.942 108.173 150.656 108.301 150.315L109.759 150.724C109.605 151.219 109.347 151.653 108.985 152.028C108.623 152.399 108.176 152.689 107.643 152.898C107.11 153.102 106.512 153.205 105.847 153.205ZM116.195 153.205C115.275 153.205 114.482 152.987 113.818 152.553C113.153 152.118 112.642 151.519 112.284 150.756C111.926 149.994 111.747 149.122 111.747 148.142C111.747 147.145 111.93 146.265 112.296 145.502C112.667 144.735 113.183 144.136 113.843 143.706C114.508 143.271 115.284 143.054 116.17 143.054C116.86 143.054 117.482 143.182 118.036 143.438C118.59 143.693 119.044 144.051 119.398 144.511C119.752 144.972 119.971 145.509 120.056 146.122H118.548C118.433 145.675 118.177 145.278 117.781 144.933C117.389 144.584 116.86 144.409 116.195 144.409C115.607 144.409 115.092 144.562 114.649 144.869C114.21 145.172 113.867 145.6 113.619 146.154C113.377 146.704 113.255 147.349 113.255 148.091C113.255 148.849 113.374 149.51 113.613 150.072C113.856 150.635 114.197 151.072 114.636 151.383C115.079 151.694 115.599 151.849 116.195 151.849C116.588 151.849 116.943 151.781 117.263 151.645C117.583 151.509 117.853 151.312 118.075 151.057C118.296 150.801 118.454 150.494 118.548 150.136H120.056C119.971 150.716 119.76 151.238 119.423 151.702C119.091 152.163 118.65 152.529 118.1 152.802C117.555 153.07 116.92 153.205 116.195 153.205ZM121.488 144.588V143.182H129.465V144.588H126.244V153H124.735V144.588H121.488ZM131.666 153V143.182H135.68C136.737 143.182 137.576 143.42 138.199 143.898C138.821 144.375 139.132 145.006 139.132 145.79C139.132 146.386 138.955 146.849 138.601 147.177C138.248 147.501 137.794 147.72 137.24 147.835C137.602 147.886 137.953 148.014 138.294 148.219C138.64 148.423 138.925 148.705 139.151 149.062C139.377 149.416 139.49 149.851 139.49 150.366C139.49 150.869 139.362 151.319 139.106 151.715C138.85 152.112 138.484 152.425 138.007 152.655C137.529 152.885 136.958 153 136.294 153H131.666ZM133.098 151.619H136.294C136.814 151.619 137.221 151.496 137.515 151.249C137.809 151.001 137.956 150.665 137.956 150.239C137.956 149.732 137.809 149.333 137.515 149.043C137.221 148.749 136.814 148.602 136.294 148.602H133.098V151.619ZM133.098 147.298H135.68C136.085 147.298 136.432 147.243 136.722 147.132C137.012 147.017 137.233 146.855 137.387 146.646C137.544 146.433 137.623 146.182 137.623 145.892C137.623 145.479 137.451 145.155 137.105 144.92C136.76 144.682 136.285 144.562 135.68 144.562H133.098V147.298ZM145.762 153.205C144.876 153.205 144.098 152.994 143.429 152.572C142.764 152.15 142.244 151.56 141.869 150.801C141.498 150.043 141.313 149.156 141.313 148.142C141.313 147.119 141.498 146.227 141.869 145.464C142.244 144.701 142.764 144.109 143.429 143.687C144.098 143.265 144.876 143.054 145.762 143.054C146.648 143.054 147.424 143.265 148.089 143.687C148.758 144.109 149.278 144.701 149.648 145.464C150.023 146.227 150.211 147.119 150.211 148.142C150.211 149.156 150.023 150.043 149.648 150.801C149.278 151.56 148.758 152.15 148.089 152.572C147.424 152.994 146.648 153.205 145.762 153.205ZM145.762 151.849C146.435 151.849 146.989 151.677 147.424 151.332C147.858 150.987 148.18 150.533 148.389 149.97C148.598 149.408 148.702 148.798 148.702 148.142C148.702 147.486 148.598 146.874 148.389 146.308C148.18 145.741 147.858 145.283 147.424 144.933C146.989 144.584 146.435 144.409 145.762 144.409C145.089 144.409 144.535 144.584 144.1 144.933C143.665 145.283 143.344 145.741 143.135 146.308C142.926 146.874 142.822 147.486 142.822 148.142C142.822 148.798 142.926 149.408 143.135 149.97C143.344 150.533 143.665 150.987 144.1 151.332C144.535 151.677 145.089 151.849 145.762 151.849ZM162.945 150.955L166.371 143.182H167.803L163.559 153H162.332L158.164 143.182H159.57L162.945 150.955ZM159.085 143.182V153H157.576V143.182H159.085ZM166.806 153V143.182H168.315V153H166.806ZM175.192 153.205C174.246 153.205 173.43 152.996 172.744 152.578C172.062 152.156 171.536 151.568 171.165 150.814C170.799 150.055 170.616 149.173 170.616 148.168C170.616 147.162 170.799 146.276 171.165 145.509C171.536 144.737 172.052 144.136 172.712 143.706C173.377 143.271 174.153 143.054 175.039 143.054C175.55 143.054 176.055 143.139 176.554 143.31C177.053 143.48 177.506 143.757 177.915 144.141C178.325 144.52 178.651 145.023 178.893 145.649C179.136 146.276 179.258 147.047 179.258 147.963V148.602H171.69V147.298H177.724C177.724 146.744 177.613 146.25 177.391 145.815C177.174 145.381 176.863 145.038 176.458 144.786C176.058 144.535 175.585 144.409 175.039 144.409C174.438 144.409 173.918 144.558 173.479 144.857C173.045 145.151 172.71 145.534 172.476 146.007C172.241 146.48 172.124 146.987 172.124 147.528V148.398C172.124 149.139 172.252 149.768 172.508 150.283C172.768 150.795 173.128 151.185 173.588 151.453C174.048 151.717 174.583 151.849 175.192 151.849C175.589 151.849 175.947 151.794 176.266 151.683C176.59 151.568 176.869 151.398 177.104 151.172C177.338 150.942 177.519 150.656 177.647 150.315L179.104 150.724C178.951 151.219 178.693 151.653 178.331 152.028C177.969 152.399 177.521 152.689 176.989 152.898C176.456 153.102 175.857 153.205 175.192 153.205ZM185.541 153.205C184.621 153.205 183.828 152.987 183.163 152.553C182.499 152.118 181.987 151.519 181.629 150.756C181.271 149.994 181.092 149.122 181.092 148.142C181.092 147.145 181.276 146.265 181.642 145.502C182.013 144.735 182.528 144.136 183.189 143.706C183.854 143.271 184.629 143.054 185.516 143.054C186.206 143.054 186.828 143.182 187.382 143.438C187.936 143.693 188.39 144.051 188.744 144.511C189.097 144.972 189.317 145.509 189.402 146.122H187.893C187.778 145.675 187.523 145.278 187.126 144.933C186.734 144.584 186.206 144.409 185.541 144.409C184.953 144.409 184.438 144.562 183.994 144.869C183.555 145.172 183.212 145.6 182.965 146.154C182.722 146.704 182.601 147.349 182.601 148.091C182.601 148.849 182.72 149.51 182.959 150.072C183.202 150.635 183.543 151.072 183.982 151.383C184.425 151.694 184.945 151.849 185.541 151.849C185.933 151.849 186.289 151.781 186.609 151.645C186.928 151.509 187.199 151.312 187.42 151.057C187.642 150.801 187.8 150.494 187.893 150.136H189.402C189.317 150.716 189.106 151.238 188.769 151.702C188.437 152.163 187.996 152.529 187.446 152.802C186.901 153.07 186.266 153.205 185.541 153.205ZM190.834 144.588V143.182H198.811V144.588H195.589V153H194.081V144.588H190.834ZM212.645 147.401V148.807H207.225V147.401H212.645ZM207.583 143.182V153H206.074V143.182H207.583ZM213.796 143.182V153H212.287V143.182H213.796ZM220.667 153.205C219.721 153.205 218.905 152.996 218.219 152.578C217.537 152.156 217.011 151.568 216.64 150.814C216.274 150.055 216.09 149.173 216.09 148.168C216.09 147.162 216.274 146.276 216.64 145.509C217.011 144.737 217.526 144.136 218.187 143.706C218.852 143.271 219.627 143.054 220.514 143.054C221.025 143.054 221.53 143.139 222.029 143.31C222.527 143.48 222.981 143.757 223.39 144.141C223.799 144.52 224.125 145.023 224.368 145.649C224.611 146.276 224.732 147.047 224.732 147.963V148.602H217.164V147.298H223.198C223.198 146.744 223.088 146.25 222.866 145.815C222.649 145.381 222.338 145.038 221.933 144.786C221.532 144.535 221.059 144.409 220.514 144.409C219.913 144.409 219.393 144.558 218.954 144.857C218.519 145.151 218.185 145.534 217.95 146.007C217.716 146.48 217.599 146.987 217.599 147.528V148.398C217.599 149.139 217.727 149.768 217.982 150.283C218.242 150.795 218.602 151.185 219.063 151.453C219.523 151.717 220.058 151.849 220.667 151.849C221.063 151.849 221.421 151.794 221.741 151.683C222.065 151.568 222.344 151.398 222.578 151.172C222.813 150.942 222.994 150.656 223.122 150.315L224.579 150.724C224.426 151.219 224.168 151.653 223.806 152.028C223.443 152.399 222.996 152.689 222.463 152.898C221.931 153.102 221.332 153.205 220.667 153.205ZM236.078 153.205C235.192 153.205 234.414 152.994 233.745 152.572C233.08 152.15 232.561 151.56 232.186 150.801C231.815 150.043 231.629 149.156 231.629 148.142C231.629 147.119 231.815 146.227 232.186 145.464C232.561 144.701 233.08 144.109 233.745 143.687C234.414 143.265 235.192 143.054 236.078 143.054C236.965 143.054 237.74 143.265 238.405 143.687C239.074 144.109 239.594 144.701 239.965 145.464C240.34 146.227 240.527 147.119 240.527 148.142C240.527 149.156 240.34 150.043 239.965 150.801C239.594 151.56 239.074 152.15 238.405 152.572C237.74 152.994 236.965 153.205 236.078 153.205ZM236.078 151.849C236.752 151.849 237.306 151.677 237.74 151.332C238.175 150.987 238.497 150.533 238.705 149.97C238.914 149.408 239.019 148.798 239.019 148.142C239.019 147.486 238.914 146.874 238.705 146.308C238.497 145.741 238.175 145.283 237.74 144.933C237.306 144.584 236.752 144.409 236.078 144.409C235.405 144.409 234.851 144.584 234.416 144.933C233.982 145.283 233.66 145.741 233.451 146.308C233.242 146.874 233.138 147.486 233.138 148.142C233.138 148.798 233.242 149.408 233.451 149.97C233.66 150.533 233.982 150.987 234.416 151.332C234.851 151.677 235.405 151.849 236.078 151.849ZM248.89 143.182V144.588H244.338V153H242.83V143.182H248.89ZM251.092 156.682V143.182H252.549V144.741H252.728C252.839 144.571 252.992 144.354 253.188 144.089C253.388 143.821 253.674 143.582 254.045 143.374C254.42 143.161 254.927 143.054 255.566 143.054C256.393 143.054 257.121 143.261 257.752 143.674C258.383 144.087 258.875 144.673 259.229 145.432C259.582 146.19 259.759 147.085 259.759 148.116C259.759 149.156 259.582 150.058 259.229 150.82C258.875 151.579 258.385 152.167 257.759 152.585C257.132 152.998 256.41 153.205 255.592 153.205C254.961 153.205 254.456 153.1 254.077 152.891C253.697 152.678 253.406 152.437 253.201 152.169C252.996 151.896 252.839 151.67 252.728 151.491H252.6V156.682H251.092ZM252.575 148.091C252.575 148.832 252.683 149.487 252.901 150.053C253.118 150.616 253.435 151.057 253.853 151.376C254.271 151.692 254.782 151.849 255.387 151.849C256.018 151.849 256.544 151.683 256.966 151.351C257.392 151.014 257.712 150.562 257.925 149.996C258.142 149.425 258.251 148.79 258.251 148.091C258.251 147.401 258.144 146.778 257.931 146.224C257.722 145.666 257.405 145.225 256.979 144.901C256.557 144.573 256.026 144.409 255.387 144.409C254.773 144.409 254.258 144.565 253.84 144.876C253.423 145.183 253.107 145.613 252.894 146.167C252.681 146.717 252.575 147.358 252.575 148.091ZM264.95 153.23C264.327 153.23 263.763 153.113 263.256 152.879C262.749 152.64 262.346 152.297 262.048 151.849C261.749 151.398 261.6 150.852 261.6 150.213C261.6 149.651 261.711 149.195 261.933 148.845C262.154 148.491 262.45 148.214 262.821 148.014C263.192 147.814 263.601 147.665 264.048 147.567C264.5 147.464 264.954 147.384 265.41 147.324C266.006 147.247 266.49 147.19 266.861 147.151C267.236 147.109 267.509 147.038 267.679 146.94C267.854 146.842 267.941 146.672 267.941 146.429V146.378C267.941 145.747 267.768 145.257 267.423 144.908C267.082 144.558 266.565 144.384 265.87 144.384C265.15 144.384 264.585 144.541 264.176 144.857C263.767 145.172 263.479 145.509 263.313 145.866L261.881 145.355C262.137 144.759 262.478 144.294 262.904 143.962C263.335 143.625 263.803 143.391 264.31 143.259C264.822 143.122 265.325 143.054 265.819 143.054C266.134 143.054 266.496 143.092 266.906 143.169C267.319 143.241 267.717 143.393 268.101 143.623C268.489 143.853 268.81 144.2 269.066 144.665C269.322 145.129 269.45 145.751 269.45 146.531V153H267.941V151.67H267.864C267.762 151.884 267.592 152.112 267.353 152.354C267.114 152.597 266.797 152.804 266.401 152.974C266.004 153.145 265.521 153.23 264.95 153.23ZM265.18 151.875C265.776 151.875 266.279 151.758 266.688 151.523C267.102 151.289 267.413 150.987 267.621 150.616C267.835 150.245 267.941 149.855 267.941 149.446V148.065C267.877 148.142 267.737 148.212 267.519 148.276C267.306 148.336 267.059 148.389 266.778 148.436C266.501 148.479 266.23 148.517 265.966 148.551C265.706 148.581 265.495 148.607 265.333 148.628C264.941 148.679 264.575 148.762 264.234 148.877C263.897 148.988 263.624 149.156 263.415 149.382C263.211 149.604 263.109 149.906 263.109 150.29C263.109 150.814 263.303 151.21 263.69 151.479C264.082 151.743 264.579 151.875 265.18 151.875ZM278.774 147.401V148.807H273.354V147.401H278.774ZM273.711 143.182V153H272.203V143.182H273.711ZM279.925 143.182V153H278.416V143.182H279.925ZM284.188 150.776L288.918 143.182H290.657V153H289.148V145.406L284.444 153H282.68V143.182H284.188V150.776ZM300.988 143.182V153H299.479V143.182H300.988ZM300.4 147.861V149.267C300.059 149.395 299.72 149.508 299.384 149.606C299.047 149.7 298.693 149.774 298.322 149.83C297.952 149.881 297.545 149.906 297.102 149.906C295.989 149.906 295.097 149.606 294.423 149.005C293.754 148.404 293.42 147.503 293.42 146.301V143.156H294.928V146.301C294.928 146.804 295.024 147.217 295.216 147.541C295.408 147.865 295.668 148.106 295.996 148.263C296.324 148.421 296.692 148.5 297.102 148.5C297.741 148.5 298.318 148.442 298.834 148.327C299.354 148.208 299.876 148.053 300.4 147.861ZM307.872 153.205C306.926 153.205 306.11 152.996 305.424 152.578C304.742 152.156 304.216 151.568 303.845 150.814C303.479 150.055 303.295 149.173 303.295 148.168C303.295 147.162 303.479 146.276 303.845 145.509C304.216 144.737 304.732 144.136 305.392 143.706C306.057 143.271 306.832 143.054 307.719 143.054C308.23 143.054 308.735 143.139 309.234 143.31C309.732 143.48 310.186 143.757 310.595 144.141C311.004 144.52 311.33 145.023 311.573 145.649C311.816 146.276 311.938 147.047 311.938 147.963V148.602H304.369V147.298H310.403C310.403 146.744 310.293 146.25 310.071 145.815C309.854 145.381 309.543 145.038 309.138 144.786C308.737 144.535 308.264 144.409 307.719 144.409C307.118 144.409 306.598 144.558 306.159 144.857C305.724 145.151 305.39 145.534 305.156 146.007C304.921 146.48 304.804 146.987 304.804 147.528V148.398C304.804 149.139 304.932 149.768 305.188 150.283C305.447 150.795 305.808 151.185 306.268 151.453C306.728 151.717 307.263 151.849 307.872 151.849C308.268 151.849 308.626 151.794 308.946 151.683C309.27 151.568 309.549 151.398 309.783 151.172C310.018 150.942 310.199 150.656 310.327 150.315L311.784 150.724C311.631 151.219 311.373 151.653 311.011 152.028C310.648 152.399 310.201 152.689 309.668 152.898C309.136 153.102 308.537 153.205 307.872 153.205ZM320.803 147.401V148.807H315.383V147.401H320.803ZM315.741 143.182V153H314.232V143.182H315.741ZM321.954 143.182V153H320.445V143.182H321.954ZM328.697 153.205C327.811 153.205 327.033 152.994 326.364 152.572C325.7 152.15 325.18 151.56 324.805 150.801C324.434 150.043 324.249 149.156 324.249 148.142C324.249 147.119 324.434 146.227 324.805 145.464C325.18 144.701 325.7 144.109 326.364 143.687C327.033 143.265 327.811 143.054 328.697 143.054C329.584 143.054 330.359 143.265 331.024 143.687C331.693 144.109 332.213 144.701 332.584 145.464C332.959 146.227 333.146 147.119 333.146 148.142C333.146 149.156 332.959 150.043 332.584 150.801C332.213 151.56 331.693 152.15 331.024 152.572C330.359 152.994 329.584 153.205 328.697 153.205ZM328.697 151.849C329.371 151.849 329.925 151.677 330.359 151.332C330.794 150.987 331.116 150.533 331.325 149.97C331.533 149.408 331.638 148.798 331.638 148.142C331.638 147.486 331.533 146.874 331.325 146.308C331.116 145.741 330.794 145.283 330.359 144.933C329.925 144.584 329.371 144.409 328.697 144.409C328.024 144.409 327.47 144.584 327.036 144.933C326.601 145.283 326.279 145.741 326.07 146.308C325.862 146.874 325.757 147.486 325.757 148.142C325.757 148.798 325.862 149.408 326.07 149.97C326.279 150.533 326.601 150.987 327.036 151.332C327.47 151.677 328.024 151.849 328.697 151.849Z" fill="white"/>
<path d="M440 83C270.122 83 2.5 83 2.5 83V200.5" stroke="white" stroke-width="5"/>
<path d="M202.268 199.232C203.244 200.209 203.244 201.791 202.268 202.768L186.358 218.678C185.382 219.654 183.799 219.654 182.822 218.678C181.846 217.701 181.846 216.118 182.822 215.142L196.964 201L182.822 186.858C181.846 185.882 181.846 184.299 182.822 183.322C183.799 182.346 185.382 182.346 186.358 183.322L202.268 199.232ZM-5.46579e-10 198.5L200.5 198.5L200.5 203.5L5.43536e-10 203.5L-5.46579e-10 198.5Z" fill="white"/>
</svg>
