<svg width="292" height="139" viewBox="0 0 292 139" fill="none" xmlns="http://www.w3.org/2000/svg">
<path d="M0 79H292V139H0V79Z" fill="#FFEE32"></path>
<line x1="6" y1="111" x2="6" y2="11" stroke="#FFEE32" stroke-width="4"></line>
<circle cx="6" cy="12" r="6" fill="#FFEE32"></circle>
<rect x="8" y="83" width="280" height="52" rx="26" fill="black"></rect>
<circle cx="23" cy="109" r="11" fill="white"></circle>
<path d="M75.6847 98.6364V119H72.6023V101.719H72.483L67.6108 104.901V101.957L72.6918 98.6364H75.6847ZM81.1932 119V116.773L88.0838 109.634C88.8196 108.858 89.4261 108.179 89.9034 107.595C90.3873 107.005 90.7486 106.445 90.9872 105.915C91.2259 105.384 91.3452 104.821 91.3452 104.224C91.3452 103.548 91.1861 102.965 90.8679 102.474C90.5497 101.977 90.1155 101.596 89.5653 101.331C89.0152 101.059 88.3954 100.923 87.706 100.923C86.9768 100.923 86.3404 101.072 85.7969 101.371C85.2533 101.669 84.8357 102.09 84.544 102.634C84.2524 103.177 84.1065 103.813 84.1065 104.543H81.1733C81.1733 103.303 81.4583 102.219 82.0284 101.291C82.5985 100.363 83.3807 99.6439 84.375 99.1335C85.3693 98.6165 86.4995 98.358 87.7656 98.358C89.045 98.358 90.1719 98.6132 91.1463 99.1236C92.1274 99.6274 92.893 100.317 93.4432 101.192C93.9934 102.06 94.2685 103.041 94.2685 104.135C94.2685 104.891 94.1259 105.63 93.8409 106.352C93.5625 107.075 93.0753 107.88 92.3793 108.768C91.6832 109.65 90.7154 110.721 89.4759 111.98L85.429 116.216V116.365H94.5966V119H81.1932ZM100.364 116.474C99.8201 116.474 99.3527 116.282 98.9616 115.898C98.5705 115.507 98.375 115.036 98.375 114.486C98.375 113.942 98.5705 113.478 98.9616 113.094C99.3527 112.703 99.8201 112.507 100.364 112.507C100.907 112.507 101.375 112.703 101.766 113.094C102.157 113.478 102.352 113.942 102.352 114.486C102.352 114.85 102.259 115.185 102.074 115.49C101.895 115.788 101.656 116.027 101.358 116.206C101.06 116.385 100.728 116.474 100.364 116.474ZM100.364 106.273C99.8201 106.273 99.3527 106.08 98.9616 105.696C98.5705 105.305 98.375 104.834 98.375 104.284C98.375 103.741 98.5705 103.277 98.9616 102.892C99.3527 102.501 99.8201 102.305 100.364 102.305C100.907 102.305 101.375 102.501 101.766 102.892C102.157 103.277 102.352 103.741 102.352 104.284C102.352 104.649 102.259 104.983 102.074 105.288C101.895 105.587 101.656 105.825 101.358 106.004C101.06 106.183 100.728 106.273 100.364 106.273ZM113.384 119.278C112.019 119.278 110.799 119.043 109.725 118.572C108.658 118.102 107.813 117.449 107.19 116.614C106.573 115.772 106.242 114.797 106.195 113.69H109.317C109.357 114.294 109.559 114.817 109.924 115.261C110.295 115.699 110.779 116.037 111.376 116.276C111.972 116.514 112.635 116.634 113.364 116.634C114.166 116.634 114.876 116.494 115.492 116.216C116.115 115.937 116.603 115.55 116.954 115.053C117.305 114.549 117.481 113.969 117.481 113.312C117.481 112.63 117.305 112.03 116.954 111.513C116.609 110.989 116.102 110.578 115.433 110.28C114.77 109.982 113.968 109.832 113.026 109.832H111.306V107.327H113.026C113.782 107.327 114.445 107.191 115.015 106.919C115.592 106.647 116.042 106.269 116.367 105.786C116.692 105.295 116.854 104.722 116.854 104.065C116.854 103.436 116.712 102.889 116.427 102.425C116.148 101.954 115.751 101.586 115.234 101.321C114.723 101.056 114.12 100.923 113.424 100.923C112.761 100.923 112.141 101.046 111.565 101.291C110.995 101.53 110.531 101.875 110.173 102.325C109.815 102.769 109.622 103.303 109.596 103.926H106.623C106.656 102.826 106.981 101.858 107.597 101.023C108.22 100.187 109.042 99.5346 110.063 99.0639C111.084 98.5933 112.218 98.358 113.464 98.358C114.77 98.358 115.897 98.6132 116.844 99.1236C117.799 99.6274 118.535 100.3 119.052 101.142C119.576 101.984 119.834 102.905 119.827 103.906C119.834 105.046 119.516 106.014 118.873 106.81C118.237 107.605 117.388 108.139 116.327 108.411V108.57C117.68 108.775 118.727 109.312 119.469 110.18C120.219 111.049 120.59 112.126 120.583 113.412C120.59 114.532 120.278 115.536 119.648 116.425C119.025 117.313 118.174 118.012 117.093 118.523C116.013 119.027 114.776 119.278 113.384 119.278ZM131.431 119.338C129.86 119.331 128.518 118.917 127.404 118.095C126.29 117.273 125.439 116.077 124.849 114.506C124.259 112.935 123.964 111.042 123.964 108.828C123.964 106.621 124.259 104.735 124.849 103.17C125.445 101.606 126.3 100.413 127.414 99.5909C128.534 98.7689 129.873 98.358 131.431 98.358C132.989 98.358 134.325 98.7723 135.438 99.6009C136.552 100.423 137.404 101.616 137.994 103.18C138.59 104.738 138.888 106.621 138.888 108.828C138.888 111.049 138.594 112.945 138.004 114.516C137.414 116.08 136.562 117.277 135.448 118.105C134.335 118.927 132.996 119.338 131.431 119.338ZM131.431 116.683C132.81 116.683 133.887 116.01 134.663 114.665C135.445 113.319 135.836 111.374 135.836 108.828C135.836 107.138 135.657 105.709 135.299 104.543C134.948 103.369 134.441 102.481 133.778 101.878C133.121 101.268 132.339 100.963 131.431 100.963C130.059 100.963 128.982 101.639 128.2 102.991C127.417 104.344 127.023 106.289 127.016 108.828C127.016 110.525 127.192 111.96 127.543 113.134C127.901 114.3 128.408 115.185 129.065 115.788C129.721 116.385 130.51 116.683 131.431 116.683Z" fill="#FFEE32"></path>
<path d="M17.4602 21.1705V16.5938H18.304C18.5938 16.3295 18.8665 15.9567 19.1222 15.4751C19.3821 14.9893 19.6016 14.3416 19.7805 13.532C19.9638 12.718 20.0852 11.6847 20.1449 10.4318L20.4261 4.90909H28.1989V16.5938H29.7074V21.1449H28.1989V18H18.9688V21.1705H17.4602ZM20.196 16.5938H26.6903V6.31534H21.858L21.6534 10.4318C21.6023 11.3864 21.5128 12.2514 21.3849 13.027C21.2571 13.7983 21.093 14.4822 20.8928 15.0788C20.6925 15.6712 20.4602 16.1761 20.196 16.5938ZM36.0147 18.2045C35.0687 18.2045 34.2527 17.9957 33.5666 17.5781C32.8848 17.1562 32.3585 16.5682 31.9877 15.8139C31.6213 15.0554 31.438 14.1733 31.438 13.1676C31.438 12.1619 31.6213 11.2756 31.9877 10.5085C32.3585 9.73722 32.8741 9.13636 33.5346 8.70597C34.1994 8.27131 34.975 8.05398 35.8613 8.05398C36.3727 8.05398 36.8777 8.1392 37.3762 8.30966C37.8748 8.48011 38.3287 8.7571 38.7377 9.14062C39.1468 9.51989 39.4728 10.0227 39.7157 10.6491C39.9586 11.2756 40.0801 12.0469 40.0801 12.9631V13.6023H32.5119V12.2983H38.546C38.546 11.7443 38.4352 11.25 38.2136 10.8153C37.9963 10.3807 37.6852 10.0376 37.2804 9.78622C36.8798 9.5348 36.4068 9.40909 35.8613 9.40909C35.2605 9.40909 34.7406 9.55824 34.3017 9.85653C33.867 10.1506 33.5325 10.5341 33.2981 11.0071C33.0637 11.4801 32.9466 11.9872 32.9466 12.5284V13.3977C32.9466 14.1392 33.0744 14.7678 33.3301 15.2834C33.59 15.7947 33.9501 16.1847 34.4103 16.4531C34.8706 16.7173 35.4054 16.8494 36.0147 16.8494C36.411 16.8494 36.769 16.794 37.0886 16.6832C37.4125 16.5682 37.6916 16.3977 37.926 16.1719C38.1603 15.9418 38.3414 15.6562 38.4693 15.3153L39.9267 15.7244C39.7733 16.2188 39.5154 16.6534 39.1532 17.0284C38.791 17.3991 38.3436 17.6889 37.8109 17.8977C37.2782 18.1023 36.6795 18.2045 36.0147 18.2045ZM47.7441 15.9545L51.1703 8.18182H52.6021L48.3578 18H47.1305L42.9629 8.18182H44.3691L47.7441 15.9545ZM43.8833 8.18182V18H42.3748V8.18182H43.8833ZM51.6049 18V8.18182H53.1135V18H51.6049ZM59.8635 18.2045C58.9771 18.2045 58.1994 17.9936 57.5304 17.5717C56.8656 17.1499 56.3457 16.5597 55.9707 15.8011C55.6 15.0426 55.4146 14.1562 55.4146 13.142C55.4146 12.1193 55.6 11.2266 55.9707 10.4638C56.3457 9.70099 56.8656 9.10866 57.5304 8.68679C58.1994 8.26491 58.9771 8.05398 59.8635 8.05398C60.7498 8.05398 61.5254 8.26491 62.1902 8.68679C62.8592 9.10866 63.3791 9.70099 63.7498 10.4638C64.1248 11.2266 64.3123 12.1193 64.3123 13.142C64.3123 14.1562 64.1248 15.0426 63.7498 15.8011C63.3791 16.5597 62.8592 17.1499 62.1902 17.5717C61.5254 17.9936 60.7498 18.2045 59.8635 18.2045ZM59.8635 16.8494C60.5368 16.8494 61.0907 16.6768 61.5254 16.3317C61.96 15.9865 62.2818 15.5327 62.4906 14.9702C62.6994 14.4077 62.8038 13.7983 62.8038 13.142C62.8038 12.4858 62.6994 11.8743 62.4906 11.3075C62.2818 10.7408 61.96 10.2827 61.5254 9.93324C61.0907 9.58381 60.5368 9.40909 59.8635 9.40909C59.1902 9.40909 58.6362 9.58381 58.2015 9.93324C57.7669 10.2827 57.4451 10.7408 57.2363 11.3075C57.0275 11.8743 56.9231 12.4858 56.9231 13.142C56.9231 13.7983 57.0275 14.4077 57.2363 14.9702C57.4451 15.5327 57.7669 15.9865 58.2015 16.3317C58.6362 16.6768 59.1902 16.8494 59.8635 16.8494ZM73.1861 12.4006V13.8068H67.7656V12.4006H73.1861ZM68.1236 8.18182V18H66.6151V8.18182H68.1236ZM74.3366 8.18182V18H72.8281V8.18182H74.3366ZM81.0803 18.2045C80.1598 18.2045 79.3672 17.9872 78.7024 17.5526C78.0376 17.1179 77.5263 16.5192 77.1683 15.7564C76.8104 14.9936 76.6314 14.1222 76.6314 13.142C76.6314 12.1449 76.8146 11.2649 77.1811 10.5021C77.5518 9.73509 78.0675 9.13636 78.728 8.70597C79.3928 8.27131 80.1683 8.05398 81.0547 8.05398C81.745 8.05398 82.3672 8.18182 82.9212 8.4375C83.4751 8.69318 83.929 9.05114 84.2827 9.51136C84.6364 9.97159 84.8558 10.5085 84.9411 11.1222H83.4325C83.3175 10.6747 83.0618 10.2784 82.6655 9.93324C82.2734 9.58381 81.745 9.40909 81.0803 9.40909C80.4922 9.40909 79.9766 9.5625 79.5334 9.86932C79.0945 10.1719 78.7514 10.6001 78.5043 11.1541C78.2614 11.7038 78.1399 12.3494 78.1399 13.0909C78.1399 13.8494 78.2592 14.5099 78.4979 15.0724C78.7408 15.6349 79.0817 16.0717 79.5206 16.3828C79.9638 16.6939 80.4837 16.8494 81.0803 16.8494C81.4723 16.8494 81.8281 16.7812 82.1477 16.6449C82.4673 16.5085 82.7379 16.3125 82.9595 16.0568C83.1811 15.8011 83.3388 15.4943 83.4325 15.1364H84.9411C84.8558 15.7159 84.6449 16.2379 84.3082 16.7024C83.9759 17.1626 83.5348 17.5291 82.9851 17.8018C82.4396 18.0703 81.8047 18.2045 81.0803 18.2045ZM86.3729 9.58807V8.18182H94.3501V9.58807H91.1286V18H89.62V9.58807H86.3729ZM96.5506 21.6818V8.18182H98.008V9.74148H98.187C98.2978 9.57102 98.4512 9.35369 98.6472 9.08949C98.8475 8.82102 99.133 8.58239 99.5037 8.37358C99.8787 8.16051 100.386 8.05398 101.025 8.05398C101.852 8.05398 102.58 8.26065 103.211 8.67401C103.842 9.08736 104.334 9.6733 104.688 10.4318C105.041 11.1903 105.218 12.0852 105.218 13.1165C105.218 14.1562 105.041 15.0575 104.688 15.8203C104.334 16.5788 103.844 17.1669 103.218 17.5845C102.591 17.9979 101.869 18.2045 101.051 18.2045C100.42 18.2045 99.915 18.1001 99.5357 17.8913C99.1564 17.6783 98.8645 17.4375 98.66 17.169C98.4554 16.8963 98.2978 16.6705 98.187 16.4915H98.0591V21.6818H96.5506ZM98.0336 13.0909C98.0336 13.8324 98.1422 14.4865 98.3596 15.0533C98.5769 15.6158 98.8944 16.0568 99.312 16.3764C99.7296 16.6918 100.241 16.8494 100.846 16.8494C101.477 16.8494 102.003 16.6832 102.425 16.3509C102.851 16.0142 103.171 15.5625 103.384 14.9957C103.601 14.4247 103.71 13.7898 103.71 13.0909C103.71 12.4006 103.603 11.7784 103.39 11.2244C103.181 10.6662 102.864 10.2251 102.438 9.90128C102.016 9.57315 101.485 9.40909 100.846 9.40909C100.232 9.40909 99.7168 9.56463 99.2992 9.87571C98.8816 10.1825 98.5662 10.6129 98.3532 11.1669C98.1401 11.7166 98.0336 12.358 98.0336 13.0909ZM110.409 18.2301C109.786 18.2301 109.222 18.1129 108.715 17.8786C108.208 17.6399 107.805 17.2969 107.507 16.8494C107.208 16.3977 107.059 15.8523 107.059 15.2131C107.059 14.6506 107.17 14.1946 107.392 13.8452C107.613 13.4915 107.909 13.2145 108.28 13.0142C108.651 12.8139 109.06 12.6648 109.507 12.5668C109.959 12.4645 110.413 12.3835 110.869 12.3239C111.465 12.2472 111.949 12.1896 112.32 12.1513C112.695 12.1087 112.968 12.0384 113.138 11.9403C113.313 11.8423 113.4 11.6719 113.4 11.429V11.3778C113.4 10.7472 113.227 10.2571 112.882 9.90767C112.541 9.55824 112.024 9.38352 111.329 9.38352C110.609 9.38352 110.044 9.54119 109.635 9.85653C109.226 10.1719 108.938 10.5085 108.772 10.8665L107.34 10.3551C107.596 9.75852 107.937 9.29403 108.363 8.96165C108.794 8.625 109.262 8.39062 109.769 8.25852C110.281 8.12216 110.784 8.05398 111.278 8.05398C111.593 8.05398 111.955 8.09233 112.365 8.16903C112.778 8.24148 113.176 8.39276 113.56 8.62287C113.948 8.85298 114.269 9.20028 114.525 9.66477C114.781 10.1293 114.909 10.7514 114.909 11.5312V18H113.4V16.6705H113.323C113.221 16.8835 113.051 17.1115 112.812 17.3544C112.573 17.5973 112.256 17.804 111.86 17.9744C111.463 18.1449 110.98 18.2301 110.409 18.2301ZM110.639 16.875C111.235 16.875 111.738 16.7578 112.147 16.5234C112.561 16.2891 112.872 15.9865 113.08 15.6158C113.294 15.245 113.4 14.8551 113.4 14.446V13.0653C113.336 13.142 113.195 13.2124 112.978 13.2763C112.765 13.3359 112.518 13.3892 112.237 13.4361C111.96 13.4787 111.689 13.517 111.425 13.5511C111.165 13.581 110.954 13.6065 110.792 13.6278C110.4 13.679 110.034 13.7621 109.693 13.8771C109.356 13.9879 109.083 14.1562 108.874 14.3821C108.67 14.6037 108.568 14.9062 108.568 15.2898C108.568 15.8139 108.762 16.2102 109.149 16.4787C109.541 16.7429 110.038 16.875 110.639 16.875ZM125.384 8.18182V16.5938H126.764V21.1705H125.256V18H117.662V8.18182H119.17V16.5938H123.875V8.18182H125.384ZM130.596 15.7756L135.326 8.18182H137.065V18H135.556V10.4062L130.852 18H129.088V8.18182H130.596V15.7756ZM145.734 18V9.5625H143.126C142.538 9.5625 142.076 9.69886 141.739 9.97159C141.403 10.2443 141.234 10.6193 141.234 11.0966C141.234 11.5653 141.385 11.9339 141.688 12.2024C141.995 12.4709 142.415 12.6051 142.947 12.6051H146.118V14.0114H142.947C142.282 14.0114 141.709 13.8942 141.228 13.6598C140.746 13.4254 140.376 13.0909 140.116 12.6562C139.856 12.2173 139.726 11.6974 139.726 11.0966C139.726 10.4915 139.862 9.97159 140.135 9.53693C140.407 9.10227 140.797 8.76776 141.305 8.53338C141.816 8.29901 142.423 8.18182 143.126 8.18182H147.166V18H145.734ZM139.189 18L141.976 13.1165H143.612L140.825 18H139.189ZM161.569 12.4006V13.8068H156.148V12.4006H161.569ZM156.506 8.18182V18H154.998V8.18182H156.506ZM162.719 8.18182V18H161.211V8.18182H162.719ZM168.364 18.2301C167.741 18.2301 167.177 18.1129 166.67 17.8786C166.163 17.6399 165.76 17.2969 165.462 16.8494C165.163 16.3977 165.014 15.8523 165.014 15.2131C165.014 14.6506 165.125 14.1946 165.347 13.8452C165.568 13.4915 165.864 13.2145 166.235 13.0142C166.606 12.8139 167.015 12.6648 167.462 12.5668C167.914 12.4645 168.368 12.3835 168.824 12.3239C169.42 12.2472 169.904 12.1896 170.275 12.1513C170.65 12.1087 170.923 12.0384 171.093 11.9403C171.268 11.8423 171.355 11.6719 171.355 11.429V11.3778C171.355 10.7472 171.183 10.2571 170.837 9.90767C170.496 9.55824 169.979 9.38352 169.284 9.38352C168.564 9.38352 167.999 9.54119 167.59 9.85653C167.181 10.1719 166.893 10.5085 166.727 10.8665L165.295 10.3551C165.551 9.75852 165.892 9.29403 166.318 8.96165C166.749 8.625 167.217 8.39062 167.724 8.25852C168.236 8.12216 168.739 8.05398 169.233 8.05398C169.548 8.05398 169.911 8.09233 170.32 8.16903C170.733 8.24148 171.131 8.39276 171.515 8.62287C171.903 8.85298 172.224 9.20028 172.48 9.66477C172.736 10.1293 172.864 10.7514 172.864 11.5312V18H171.355V16.6705H171.278C171.176 16.8835 171.006 17.1115 170.767 17.3544C170.528 17.5973 170.211 17.804 169.815 17.9744C169.418 18.1449 168.935 18.2301 168.364 18.2301ZM168.594 16.875C169.19 16.875 169.693 16.7578 170.102 16.5234C170.516 16.2891 170.827 15.9865 171.036 15.6158C171.249 15.245 171.355 14.8551 171.355 14.446V13.0653C171.291 13.142 171.151 13.2124 170.933 13.2763C170.72 13.3359 170.473 13.3892 170.192 13.4361C169.915 13.4787 169.644 13.517 169.38 13.5511C169.12 13.581 168.909 13.6065 168.747 13.6278C168.355 13.679 167.989 13.7621 167.648 13.8771C167.311 13.9879 167.038 14.1562 166.83 14.3821C166.625 14.6037 166.523 14.9062 166.523 15.2898C166.523 15.8139 166.717 16.2102 167.104 16.4787C167.496 16.7429 167.993 16.875 168.594 16.875ZM186.049 15.9545L189.475 8.18182H190.907L186.662 18H185.435L181.268 8.18182H182.674L186.049 15.9545ZM182.188 8.18182V18H180.68V8.18182H182.188ZM189.91 18V8.18182H191.418V18H189.91ZM198.168 18.2045C197.282 18.2045 196.504 17.9936 195.835 17.5717C195.17 17.1499 194.65 16.5597 194.275 15.8011C193.905 15.0426 193.719 14.1562 193.719 13.142C193.719 12.1193 193.905 11.2266 194.275 10.4638C194.65 9.70099 195.17 9.10866 195.835 8.68679C196.504 8.26491 197.282 8.05398 198.168 8.05398C199.055 8.05398 199.83 8.26491 200.495 8.68679C201.164 9.10866 201.684 9.70099 202.055 10.4638C202.43 11.2266 202.617 12.1193 202.617 13.142C202.617 14.1562 202.43 15.0426 202.055 15.8011C201.684 16.5597 201.164 17.1499 200.495 17.5717C199.83 17.9936 199.055 18.2045 198.168 18.2045ZM198.168 16.8494C198.841 16.8494 199.395 16.6768 199.83 16.3317C200.265 15.9865 200.586 15.5327 200.795 14.9702C201.004 14.4077 201.108 13.7983 201.108 13.142C201.108 12.4858 201.004 11.8743 200.795 11.3075C200.586 10.7408 200.265 10.2827 199.83 9.93324C199.395 9.58381 198.841 9.40909 198.168 9.40909C197.495 9.40909 196.941 9.58381 196.506 9.93324C196.072 10.2827 195.75 10.7408 195.541 11.3075C195.332 11.8743 195.228 12.4858 195.228 13.142C195.228 13.7983 195.332 14.4077 195.541 14.9702C195.75 15.5327 196.072 15.9865 196.506 16.3317C196.941 16.6768 197.495 16.8494 198.168 16.8494ZM203.871 20.8125V16.5938H204.69C204.89 16.3849 205.063 16.1591 205.207 15.9162C205.352 15.6733 205.478 15.3857 205.585 15.0533C205.695 14.7166 205.789 14.3075 205.866 13.826C205.942 13.3402 206.011 12.7543 206.07 12.0682L206.403 8.18182H212.641V16.5938H214.15V20.8125H212.641V18H205.38V20.8125H203.871ZM206.403 16.5938H211.133V9.58807H207.809L207.553 12.0682C207.447 13.0952 207.315 13.9922 207.157 14.7592C206.999 15.5263 206.748 16.1378 206.403 16.5938ZM220.269 18.2045C219.323 18.2045 218.507 17.9957 217.82 17.5781C217.139 17.1562 216.612 16.5682 216.242 15.8139C215.875 15.0554 215.692 14.1733 215.692 13.1676C215.692 12.1619 215.875 11.2756 216.242 10.5085C216.612 9.73722 217.128 9.13636 217.789 8.70597C218.453 8.27131 219.229 8.05398 220.115 8.05398C220.627 8.05398 221.132 8.1392 221.63 8.30966C222.129 8.48011 222.583 8.7571 222.992 9.14062C223.401 9.51989 223.727 10.0227 223.97 10.6491C224.213 11.2756 224.334 12.0469 224.334 12.9631V13.6023H216.766V12.2983H222.8C222.8 11.7443 222.689 11.25 222.468 10.8153C222.25 10.3807 221.939 10.0376 221.534 9.78622C221.134 9.5348 220.661 9.40909 220.115 9.40909C219.514 9.40909 218.994 9.55824 218.556 9.85653C218.121 10.1506 217.786 10.5341 217.552 11.0071C217.318 11.4801 217.2 11.9872 217.2 12.5284V13.3977C217.2 14.1392 217.328 14.7678 217.584 15.2834C217.844 15.7947 218.204 16.1847 218.664 16.4531C219.124 16.7173 219.659 16.8494 220.269 16.8494C220.665 16.8494 221.023 16.794 221.343 16.6832C221.666 16.5682 221.945 16.3977 222.18 16.1719C222.414 15.9418 222.595 15.6562 222.723 15.3153L224.181 15.7244C224.027 16.2188 223.769 16.6534 223.407 17.0284C223.045 17.3991 222.597 17.6889 222.065 17.8977C221.532 18.1023 220.933 18.2045 220.269 18.2045ZM225.759 18V16.5938H226.117C226.411 16.5938 226.656 16.5362 226.852 16.4212C227.048 16.3018 227.206 16.0952 227.325 15.8011C227.449 15.5028 227.543 15.0895 227.607 14.5611C227.675 14.0284 227.724 13.3509 227.754 12.5284L227.933 8.18182H234.478V18H232.97V9.58807H229.365L229.211 13.0909C229.177 13.8963 229.105 14.6058 228.994 15.2195C228.887 15.8288 228.723 16.3402 228.502 16.7536C228.284 17.1669 227.994 17.478 227.632 17.6868C227.27 17.8956 226.816 18 226.271 18H225.759ZM238.754 15.7756L243.485 8.18182H245.223V18H243.715V10.4062L239.01 18H237.246V8.18182H238.754V15.7756Z" fill="#FFEE32"></path>
<path d="M22.9574 31.9091V45H21.3722V33.571H21.2955L18.0994 35.6932V34.0824L21.3722 31.9091H22.9574ZM27.0739 45.1023C26.7585 45.1023 26.4879 44.9893 26.2621 44.7635C26.0362 44.5376 25.9233 44.267 25.9233 43.9517C25.9233 43.6364 26.0362 43.3658 26.2621 43.1399C26.4879 42.9141 26.7585 42.8011 27.0739 42.8011C27.3892 42.8011 27.6598 42.9141 27.8857 43.1399C28.1115 43.3658 28.2244 43.6364 28.2244 43.9517C28.2244 44.1605 28.1712 44.3523 28.0646 44.527C27.9624 44.7017 27.8239 44.8423 27.6491 44.9489C27.4787 45.0511 27.2869 45.1023 27.0739 45.1023ZM34.7331 45.179C33.9831 45.179 33.3077 45.0298 32.7069 44.7315C32.106 44.4332 31.6245 44.0241 31.2623 43.5043C30.9 42.9844 30.7019 42.392 30.6678 41.7273H32.2019C32.2615 42.3196 32.53 42.8097 33.0073 43.1974C33.4888 43.581 34.0641 43.7727 34.7331 43.7727C35.2701 43.7727 35.7473 43.647 36.165 43.3956C36.5868 43.1442 36.9171 42.799 37.1557 42.3601C37.3986 41.9169 37.5201 41.4162 37.5201 40.858C37.5201 40.2869 37.3944 39.7777 37.1429 39.3303C36.8958 38.8786 36.5549 38.5227 36.1202 38.2628C35.6855 38.0028 35.1891 37.8707 34.6309 37.8665C34.2303 37.8622 33.8191 37.924 33.3972 38.0518C32.9753 38.1754 32.628 38.3352 32.3553 38.5312L30.8723 38.3523L31.665 31.9091H38.4661V33.3153H32.9945L32.5343 37.1761H32.611C32.8794 36.9631 33.2161 36.7862 33.6209 36.6456C34.0257 36.505 34.4476 36.4347 34.8865 36.4347C35.6877 36.4347 36.4015 36.6264 37.0279 37.0099C37.6586 37.3892 38.1529 37.9091 38.5108 38.5696C38.873 39.2301 39.0542 39.9844 39.0542 40.8324C39.0542 41.6676 38.8667 42.4134 38.4917 43.0696C38.1209 43.7216 37.6096 44.2372 36.9576 44.6165C36.3056 44.9915 35.5641 45.179 34.7331 45.179ZM54.2496 35.1818V45H52.7411V35.1818H54.2496ZM53.6616 39.8608V41.267C53.3207 41.3949 52.9819 41.5078 52.6452 41.6058C52.3086 41.6996 51.9549 41.7741 51.5842 41.8295C51.2134 41.8807 50.8065 41.9062 50.3633 41.9062C49.2511 41.9062 48.3583 41.6058 47.685 41.005C47.016 40.4041 46.6815 39.5028 46.6815 38.3011V35.1562H48.19V38.3011C48.19 38.804 48.2859 39.2173 48.4776 39.5412C48.6694 39.8651 48.9293 40.1058 49.2575 40.2635C49.5856 40.4212 49.9542 40.5 50.3633 40.5C51.0025 40.5 51.5799 40.4425 52.0955 40.3274C52.6154 40.2081 53.1374 40.0526 53.6616 39.8608ZM59.9066 45.2301C59.2844 45.2301 58.7198 45.1129 58.2127 44.8786C57.7056 44.6399 57.3029 44.2969 57.0046 43.8494C56.7063 43.3977 56.5572 42.8523 56.5572 42.2131C56.5572 41.6506 56.668 41.1946 56.8896 40.8452C57.1112 40.4915 57.4073 40.2145 57.7781 40.0142C58.1488 39.8139 58.5579 39.6648 59.0053 39.5668C59.457 39.4645 59.9109 39.3835 60.3668 39.3239C60.9634 39.2472 61.4471 39.1896 61.8178 39.1513C62.1928 39.1087 62.4656 39.0384 62.636 38.9403C62.8107 38.8423 62.8981 38.6719 62.8981 38.429V38.3778C62.8981 37.7472 62.7255 37.2571 62.3803 36.9077C62.0394 36.5582 61.5217 36.3835 60.8271 36.3835C60.1069 36.3835 59.5423 36.5412 59.1332 36.8565C58.7241 37.1719 58.4364 37.5085 58.2702 37.8665L56.8384 37.3551C57.0941 36.7585 57.435 36.294 57.8612 35.9616C58.2915 35.625 58.7603 35.3906 59.2674 35.2585C59.7788 35.1222 60.2816 35.054 60.7759 35.054C61.0913 35.054 61.4535 35.0923 61.8626 35.169C62.2759 35.2415 62.6744 35.3928 63.0579 35.6229C63.4457 35.853 63.7674 36.2003 64.0231 36.6648C64.2788 37.1293 64.4066 37.7514 64.4066 38.5312V45H62.8981V43.6705H62.8214C62.7191 43.8835 62.5487 44.1115 62.31 44.3544C62.0714 44.5973 61.7539 44.804 61.3576 44.9744C60.9613 45.1449 60.4776 45.2301 59.9066 45.2301ZM60.1367 43.875C60.7333 43.875 61.2362 43.7578 61.6452 43.5234C62.0586 43.2891 62.3697 42.9865 62.5785 42.6158C62.7915 42.245 62.8981 41.8551 62.8981 41.446V40.0653C62.8342 40.142 62.6935 40.2124 62.4762 40.2763C62.2631 40.3359 62.016 40.3892 61.7347 40.4361C61.4577 40.4787 61.1871 40.517 60.9229 40.5511C60.663 40.581 60.4521 40.6065 60.2901 40.6278C59.8981 40.679 59.5316 40.7621 59.1907 40.8771C58.854 40.9879 58.5813 41.1562 58.3725 41.3821C58.168 41.6037 58.0657 41.9062 58.0657 42.2898C58.0657 42.8139 58.2596 43.2102 58.6474 43.4787C59.0394 43.7429 59.5359 43.875 60.1367 43.875ZM71.1486 45.2045C70.2282 45.2045 69.4355 44.9872 68.7708 44.5526C68.106 44.1179 67.5946 43.5192 67.2367 42.7564C66.8787 41.9936 66.6998 41.1222 66.6998 40.142C66.6998 39.1449 66.883 38.2649 67.2495 37.5021C67.6202 36.7351 68.1358 36.1364 68.7963 35.706C69.4611 35.2713 70.2367 35.054 71.123 35.054C71.8134 35.054 72.4355 35.1818 72.9895 35.4375C73.5435 35.6932 73.9973 36.0511 74.351 36.5114C74.7047 36.9716 74.9242 37.5085 75.0094 38.1222H73.5009C73.3858 37.6747 73.1301 37.2784 72.7338 36.9332C72.3418 36.5838 71.8134 36.4091 71.1486 36.4091C70.5605 36.4091 70.0449 36.5625 69.6017 36.8693C69.1628 37.1719 68.8198 37.6001 68.5726 38.1541C68.3297 38.7038 68.2083 39.3494 68.2083 40.0909C68.2083 40.8494 68.3276 41.5099 68.5662 42.0724C68.8091 42.6349 69.15 43.0717 69.589 43.3828C70.0321 43.6939 70.552 43.8494 71.1486 43.8494C71.5407 43.8494 71.8965 43.7812 72.2161 43.6449C72.5357 43.5085 72.8063 43.3125 73.0279 43.0568C73.2495 42.8011 73.4071 42.4943 73.5009 42.1364H75.0094C74.9242 42.7159 74.7132 43.2379 74.3766 43.7024C74.0442 44.1626 73.6032 44.5291 73.0534 44.8018C72.508 45.0703 71.873 45.2045 71.1486 45.2045ZM80.1039 45.2301C79.4817 45.2301 78.9171 45.1129 78.41 44.8786C77.9029 44.6399 77.5002 44.2969 77.2019 43.8494C76.9036 43.3977 76.7544 42.8523 76.7544 42.2131C76.7544 41.6506 76.8652 41.1946 77.0868 40.8452C77.3084 40.4915 77.6046 40.2145 77.9753 40.0142C78.3461 39.8139 78.7551 39.6648 79.2026 39.5668C79.6543 39.4645 80.1081 39.3835 80.5641 39.3239C81.1607 39.2472 81.6444 39.1896 82.0151 39.1513C82.3901 39.1087 82.6628 39.0384 82.8333 38.9403C83.008 38.8423 83.0953 38.6719 83.0953 38.429V38.3778C83.0953 37.7472 82.9228 37.2571 82.5776 36.9077C82.2367 36.5582 81.7189 36.3835 81.0243 36.3835C80.3042 36.3835 79.7395 36.5412 79.3304 36.8565C78.9213 37.1719 78.6337 37.5085 78.4675 37.8665L77.0357 37.3551C77.2914 36.7585 77.6323 36.294 78.0584 35.9616C78.4888 35.625 78.9576 35.3906 79.4647 35.2585C79.976 35.1222 80.4789 35.054 80.9732 35.054C81.2885 35.054 81.6507 35.0923 82.0598 35.169C82.4732 35.2415 82.8716 35.3928 83.2551 35.6229C83.6429 35.853 83.9647 36.2003 84.2203 36.6648C84.476 37.1293 84.6039 37.7514 84.6039 38.5312V45H83.0953V43.6705H83.0186C82.9164 43.8835 82.7459 44.1115 82.5073 44.3544C82.2686 44.5973 81.9512 44.804 81.5549 44.9744C81.1586 45.1449 80.6749 45.2301 80.1039 45.2301ZM80.334 43.875C80.9306 43.875 81.4334 43.7578 81.8425 43.5234C82.2559 43.2891 82.5669 42.9865 82.7757 42.6158C82.9888 42.245 83.0953 41.8551 83.0953 41.446V40.0653C83.0314 40.142 82.8908 40.2124 82.6735 40.2763C82.4604 40.3359 82.2132 40.3892 81.932 40.4361C81.655 40.4787 81.3844 40.517 81.1202 40.5511C80.8603 40.581 80.6493 40.6065 80.4874 40.6278C80.0953 40.679 79.7289 40.7621 79.388 40.8771C79.0513 40.9879 78.7786 41.1562 78.5698 41.3821C78.3652 41.6037 78.263 41.9062 78.263 42.2898C78.263 42.8139 78.4569 43.2102 78.8446 43.4787C79.2367 43.7429 79.7331 43.875 80.334 43.875Z" fill="white"></path>
</svg>
