<svg width="172" height="139" fill="none" xmlns="http://www.w3.org/2000/svg"><path d="M0 79h172v60H0V79Z" fill="#FFEE32"/><path stroke="#FFEE32" stroke-width="4" d="M6 111V11"/><circle cx="6" cy="12" r="6" fill="#FFEE32"/><rect x="8" y="83" width="160" height="52" rx="26" fill="#000"/><circle cx="23" cy="109" r="11" fill="#fff"/><path d="M75.685 98.636V119h-3.083v-17.281h-.119l-4.872 3.182v-2.944l5.08-3.32h2.994Zm5.08 16.387v-2.486l8.8-13.9h1.96v3.658H90.28l-6.294 9.964v.159h12.061v2.605H80.766ZM90.422 119v-4.733l.02-1.133V98.636h2.913V119H90.42Zm11.091-2.526a1.932 1.932 0 0 1-1.402-.576 1.925 1.925 0 0 1-.587-1.412c0-.544.196-1.008.587-1.392a1.915 1.915 0 0 1 1.402-.587c.544 0 1.011.196 1.402.587.391.384.587.848.587 1.392 0 .364-.093.699-.279 1.004a2.054 2.054 0 0 1-.716.716 1.892 1.892 0 0 1-.994.268Zm0-10.201a1.933 1.933 0 0 1-1.402-.577 1.925 1.925 0 0 1-.587-1.412c0-.543.196-1.007.587-1.392a1.915 1.915 0 0 1 1.402-.587c.544 0 1.011.196 1.402.587.391.385.587.849.587 1.392 0 .365-.093.699-.279 1.004a2.046 2.046 0 0 1-.716.716 1.893 1.893 0 0 1-.994.269Zm13.021 13.065c-1.571-.007-2.914-.421-4.027-1.243-1.114-.822-1.966-2.018-2.556-3.589-.59-1.571-.885-3.464-.885-5.678 0-2.207.295-4.093.885-5.658.597-1.564 1.452-2.757 2.566-3.58 1.12-.821 2.459-1.232 4.017-1.232 1.557 0 2.893.414 4.007 1.243 1.113.822 1.965 2.015 2.555 3.579.597 1.558.895 3.441.895 5.648 0 2.221-.295 4.117-.885 5.688-.59 1.564-1.442 2.761-2.555 3.589-1.114.822-2.453 1.233-4.017 1.233Zm0-2.655c1.378 0 2.456-.673 3.231-2.018.782-1.346 1.174-3.291 1.174-5.837 0-1.69-.179-3.119-.537-4.285-.352-1.174-.859-2.062-1.522-2.665a3.327 3.327 0 0 0-2.346-.915c-1.372 0-2.45.676-3.232 2.028-.782 1.353-1.176 3.298-1.183 5.837 0 1.697.176 3.132.527 4.306.358 1.166.865 2.051 1.521 2.654.656.597 1.445.895 2.367.895Zm18.074 2.655c-1.571-.007-2.913-.421-4.027-1.243-1.114-.822-1.966-2.018-2.555-3.589-.59-1.571-.885-3.464-.885-5.678 0-2.207.295-4.093.885-5.658.596-1.564 1.451-2.757 2.565-3.58 1.12-.821 2.459-1.232 4.017-1.232 1.558 0 2.893.414 4.007 1.243 1.114.822 1.965 2.015 2.555 3.579.597 1.558.895 3.441.895 5.648 0 2.221-.295 4.117-.885 5.688-.59 1.564-1.441 2.761-2.555 3.589-1.114.822-2.453 1.233-4.017 1.233Zm0-2.655c1.379 0 2.456-.673 3.231-2.018.783-1.346 1.174-3.291 1.174-5.837 0-1.69-.179-3.119-.537-4.285-.352-1.174-.859-2.062-1.522-2.665a3.327 3.327 0 0 0-2.346-.915c-1.372 0-2.449.676-3.232 2.028-.782 1.353-1.176 3.298-1.183 5.837 0 1.697.176 3.132.527 4.306.358 1.166.865 2.051 1.521 2.654.657.597 1.445.895 2.367.895ZM29.63 11.454c0 1.381-.249 2.574-.747 3.58-.499 1.006-1.183 1.781-2.052 2.327-.87.545-1.862.818-2.979.818-1.116 0-2.11-.273-2.978-.818-.87-.546-1.554-1.321-2.052-2.327-.499-1.006-.748-2.199-.748-3.58 0-1.38.25-2.573.748-3.579.498-1.006 1.182-1.781 2.052-2.327.869-.545 1.862-.818 2.978-.818 1.117 0 2.11.273 2.979.818.87.546 1.553 1.321 2.052 2.327.498 1.006.748 2.199.748 3.58Zm-1.533 0c0-1.133-.19-2.09-.57-2.87-.374-.78-.884-1.37-1.527-1.77-.64-.4-1.355-.6-2.148-.6-.792 0-1.51.2-2.154.6-.64.4-1.148.99-1.527 1.77-.375.78-.563 1.737-.563 2.87 0 1.134.188 2.09.563 2.87.379.78.888 1.37 1.527 1.771.644.4 1.362.601 2.154.601.793 0 1.509-.2 2.148-.6.643-.401 1.153-.992 1.528-1.771.379-.78.569-1.737.569-2.87ZM39.379 4.5l.767.92c-.299.29-.644.493-1.036.608a5.792 5.792 0 0 1-1.33.21c-.494.026-1.044.052-1.649.077-.681.026-1.246.192-1.694.499-.447.307-.792.75-1.035 1.33-.243.579-.398 1.29-.467 2.134h.128c.333-.613.793-1.065 1.38-1.355a4.223 4.223 0 0 1 1.893-.434c.767 0 1.457.179 2.071.537.614.358 1.1.888 1.457 1.591.358.703.537 1.57.537 2.602 0 1.027-.183 1.913-.55 2.659-.362.746-.87 1.32-1.527 1.726-.652.4-1.417.6-2.295.6-.878 0-1.647-.206-2.307-.62-.66-.417-1.174-1.035-1.54-1.853-.367-.823-.55-1.839-.55-3.05v-1.047c0-2.187.37-3.844 1.112-4.973.745-1.13 1.866-1.714 3.362-1.752.528-.017 1-.021 1.413-.013.413.009.773-.01 1.08-.057.307-.047.567-.16.78-.339Zm-3.35 12.35c.592 0 1.102-.15 1.528-.448.43-.298.76-.718.99-1.26.23-.545.346-1.186.346-1.923 0-.716-.117-1.325-.352-1.828-.23-.503-.56-.887-.99-1.15-.431-.265-.947-.397-1.547-.397-.44 0-.834.074-1.183.224-.35.149-.648.368-.895.658-.247.29-.439.643-.575 1.06a5.012 5.012 0 0 0-.211 1.433c0 1.1.258 1.98.773 2.64.516.66 1.221.99 2.116.99Zm10.796 1.354c-.946 0-1.762-.208-2.448-.626a4.204 4.204 0 0 1-1.579-1.764c-.366-.759-.55-1.64-.55-2.646s.184-1.892.55-2.66c.371-.77.887-1.372 1.547-1.802.665-.435 1.44-.652 2.327-.652.511 0 1.016.085 1.515.256.498.17.952.447 1.361.83.41.38.735.883.978 1.51.243.626.365 1.397.365 2.313v.64h-7.569v-1.305h6.034c0-.554-.11-1.048-.332-1.483a2.505 2.505 0 0 0-.933-1.029c-.4-.251-.874-.377-1.42-.377-.6 0-1.12.15-1.559.448-.434.294-.769.677-1.003 1.15a3.38 3.38 0 0 0-.352 1.521v.87c0 .741.128 1.37.384 1.885.26.512.62.902 1.08 1.17.46.264.995.396 1.604.396.397 0 .755-.055 1.074-.166.324-.115.603-.285.837-.511.235-.23.416-.516.544-.857l1.457.41a3.23 3.23 0 0 1-.773 1.303c-.362.371-.81.66-1.343.87-.532.204-1.13.306-1.796.306Zm5.312 2.608v-4.218h.818c.2-.21.373-.435.518-.678.145-.243.27-.53.377-.863.11-.336.205-.746.281-1.227.077-.486.145-1.072.205-1.758l.332-3.886h6.239v8.412h1.509v4.218h-1.509V18h-7.261v2.813h-1.509Zm2.531-4.218h4.73V9.588h-3.323l-.256 2.48a27.74 27.74 0 0 1-.396 2.691c-.158.767-.41 1.379-.755 1.835Z" fill="#FFEE32"/><path d="M18.355 45v-1.15l4.321-4.73c.507-.555.925-1.036 1.253-1.445a5.35 5.35 0 0 0 .729-1.164c.162-.366.243-.75.243-1.15 0-.46-.111-.859-.333-1.195a2.155 2.155 0 0 0-.895-.78 2.9 2.9 0 0 0-1.278-.275c-.503 0-.942.104-1.317.313-.37.205-.658.492-.863.863-.2.37-.3.805-.3 1.304h-1.509c0-.767.177-1.44.53-2.02a3.687 3.687 0 0 1 1.445-1.355c.614-.324 1.302-.486 2.065-.486.767 0 1.447.162 2.04.486.591.324 1.056.76 1.393 1.31.336.55.505 1.161.505 1.835 0 .481-.088.952-.263 1.412-.17.456-.468.966-.894 1.528-.422.558-1.008 1.24-1.758 2.046l-2.94 3.145v.102h6.085V45h-8.259Zm23.555-9.818V45H40.4v-9.818h1.509Zm-.588 4.679v1.406c-.341.128-.68.24-1.017.339-.336.094-.69.168-1.06.224-.371.05-.778.076-1.222.076-1.112 0-2.005-.3-2.678-.901-.669-.6-1.003-1.502-1.003-2.704v-3.145h1.508v3.145c0 .503.096.916.288 1.24.192.324.452.565.78.723a2.52 2.52 0 0 0 1.105.236c.64 0 1.217-.057 1.733-.173.52-.119 1.042-.274 1.566-.466Zm6.245 5.37a3.99 3.99 0 0 1-1.694-.352 2.907 2.907 0 0 1-1.208-1.03c-.298-.451-.448-.997-.448-1.636 0-.562.111-1.018.333-1.368.221-.353.518-.63.888-.83.37-.201.78-.35 1.227-.448.452-.102.906-.184 1.362-.243.597-.077 1.08-.134 1.451-.173.375-.042.648-.113.818-.21.175-.099.262-.27.262-.512v-.051c0-.63-.172-1.12-.517-1.47-.341-.35-.86-.525-1.554-.525-.72 0-1.285.158-1.694.473-.409.316-.696.652-.863 1.01l-1.431-.51c.255-.598.596-1.062 1.022-1.394.43-.337.9-.571 1.407-.704a5.84 5.84 0 0 1 1.508-.204c.315 0 .678.038 1.087.115.413.073.811.224 1.195.454.388.23.71.577.965 1.042.256.464.384 1.086.384 1.866V45h-1.509v-1.33h-.077a2.655 2.655 0 0 1-.51.684c-.24.243-.557.45-.953.62-.397.17-.88.256-1.451.256Zm.23-1.356c.597 0 1.1-.117 1.508-.352a2.392 2.392 0 0 0 1.253-2.077v-1.38c-.064.076-.204.146-.422.21-.213.06-.46.113-.741.16a33.842 33.842 0 0 1-1.445.192 5.77 5.77 0 0 0-1.1.25c-.336.11-.608.278-.817.504-.205.222-.307.524-.307.908 0 .524.194.92.581 1.189.393.264.889.396 1.49.396Zm11.012 1.33c-.92 0-1.713-.218-2.378-.652-.665-.435-1.176-1.034-1.534-1.797-.358-.762-.537-1.634-.537-2.614 0-.997.183-1.877.55-2.64.37-.767.886-1.366 1.547-1.796.664-.435 1.44-.652 2.326-.652.69 0 1.313.128 1.867.383a3.574 3.574 0 0 1 1.361 1.074c.354.46.573.997.659 1.611H61.16c-.115-.447-.37-.844-.767-1.189-.392-.35-.92-.524-1.585-.524-.588 0-1.104.154-1.547.46-.439.303-.782.731-1.03 1.285-.242.55-.364 1.195-.364 1.937 0 .758.12 1.419.358 1.981.243.563.584 1 1.023 1.31.443.312.963.467 1.56.467.392 0 .748-.068 1.067-.204.32-.137.59-.333.812-.588.222-.256.38-.563.473-.92h1.509a3.496 3.496 0 0 1-.633 1.565c-.333.46-.774.827-1.323 1.1-.546.268-1.18.403-1.905.403Zm8.955.025a3.99 3.99 0 0 1-1.694-.351 2.907 2.907 0 0 1-1.208-1.03c-.298-.451-.447-.997-.447-1.636 0-.562.11-1.018.332-1.368.222-.353.518-.63.888-.83.371-.201.78-.35 1.228-.448.451-.102.905-.184 1.361-.243.597-.077 1.08-.134 1.451-.173.375-.042.648-.113.818-.21.175-.099.263-.27.263-.512v-.051c0-.63-.173-1.12-.518-1.47-.341-.35-.859-.525-1.553-.525-.72 0-1.285.158-1.694.473-.41.316-.697.652-.863 1.01l-1.432-.51c.255-.598.596-1.062 1.023-1.394.43-.337.899-.571 1.406-.704a5.841 5.841 0 0 1 1.508-.204c.316 0 .678.038 1.087.115a3.48 3.48 0 0 1 1.195.454c.388.23.71.577.965 1.042.256.464.384 1.086.384 1.866V45h-1.508v-1.33h-.077a2.656 2.656 0 0 1-.512.684c-.238.243-.556.45-.952.62-.396.17-.88.256-1.451.256Zm.23-1.355c.597 0 1.1-.117 1.509-.352a2.393 2.393 0 0 0 1.252-2.077v-1.38c-.063.076-.204.146-.421.21-.213.06-.46.113-.742.16a33.842 33.842 0 0 1-1.444.192 5.772 5.772 0 0 0-1.1.25c-.337.11-.61.278-.818.504-.205.222-.307.524-.307.908 0 .524.194.92.582 1.189.392.264.888.396 1.49.396Z" fill="#fff"/></svg>