<svg width="280" height="139" viewBox="0 0 280 139" fill="none" xmlns="http://www.w3.org/2000/svg">
<path d="M0 79H174V139H0V79Z" fill="#FFEE32"></path>
<rect x="183" y="79" width="10" height="60" fill="#FFEE32"></rect>
<rect x="203" y="79" width="10" height="60" fill="#FFEE32"></rect>
<rect x="223" y="79" width="10" height="60" fill="#FFEE32"></rect>
<rect x="243" y="79" width="10" height="60" fill="#FFEE32"></rect>
<rect x="263" y="79" width="10" height="60" fill="#FFEE32"></rect>
<path d="M8 109C8 94.6406 19.6406 83 34 83H280V135H34C19.6406 135 8 123.359 8 109V109Z" fill="black"></path>
<path d="M75.6847 98.6364V119H72.6023V101.719H72.483L67.6108 104.901V101.957L72.6918 98.6364H75.6847ZM88.3026 119.278C87.3944 119.265 86.4995 119.099 85.6179 118.781C84.7429 118.463 83.9474 117.933 83.2315 117.19C82.5156 116.448 81.9422 115.45 81.5114 114.197C81.0871 112.945 80.875 111.38 80.875 109.504C80.875 107.728 81.0507 106.15 81.402 104.771C81.7599 103.393 82.2737 102.229 82.9432 101.281C83.6127 100.327 84.4214 99.6009 85.3693 99.1037C86.3172 98.6065 87.3812 98.358 88.5611 98.358C89.7741 98.358 90.8513 98.5966 91.7926 99.0739C92.7339 99.5511 93.4962 100.211 94.0795 101.053C94.6695 101.894 95.044 102.852 95.2031 103.926H92.1705C91.965 103.078 91.5573 102.385 90.9474 101.848C90.3376 101.311 89.5421 101.043 88.5611 101.043C87.0696 101.043 85.9063 101.692 85.071 102.991C84.2424 104.291 83.8248 106.097 83.8182 108.411H83.9673C84.3187 107.834 84.7495 107.343 85.2599 106.939C85.777 106.528 86.3537 106.213 86.9901 105.994C87.633 105.769 88.3092 105.656 89.0185 105.656C90.1984 105.656 91.2656 105.945 92.2202 106.521C93.1813 107.091 93.947 107.88 94.517 108.888C95.0871 109.895 95.3722 111.049 95.3722 112.348C95.3722 113.647 95.0772 114.824 94.4872 115.878C93.9039 116.932 93.0819 117.767 92.0213 118.384C90.9607 118.993 89.7211 119.292 88.3026 119.278ZM88.2926 116.693C89.0748 116.693 89.7741 116.501 90.3906 116.116C91.0071 115.732 91.4943 115.215 91.8523 114.565C92.2102 113.916 92.3892 113.19 92.3892 112.388C92.3892 111.606 92.2135 110.893 91.8622 110.25C91.5175 109.607 91.0402 109.097 90.4304 108.719C89.8272 108.341 89.1378 108.152 88.3622 108.152C87.7723 108.152 87.2254 108.265 86.7216 108.49C86.2244 108.715 85.7869 109.027 85.4091 109.425C85.0313 109.822 84.733 110.28 84.5142 110.797C84.3021 111.307 84.196 111.848 84.196 112.418C84.196 113.18 84.3717 113.886 84.723 114.536C85.081 115.185 85.5682 115.709 86.1847 116.107C86.8078 116.498 87.5104 116.693 88.2926 116.693ZM100.993 116.474C100.449 116.474 99.9817 116.282 99.5906 115.898C99.1995 115.507 99.0039 115.036 99.0039 114.486C99.0039 113.942 99.1995 113.478 99.5906 113.094C99.9817 112.703 100.449 112.507 100.993 112.507C101.536 112.507 102.003 112.703 102.395 113.094C102.786 113.478 102.981 113.942 102.981 114.486C102.981 114.85 102.888 115.185 102.703 115.49C102.524 115.788 102.285 116.027 101.987 116.206C101.689 116.385 101.357 116.474 100.993 116.474ZM100.993 106.273C100.449 106.273 99.9817 106.08 99.5906 105.696C99.1995 105.305 99.0039 104.834 99.0039 104.284C99.0039 103.741 99.1995 103.277 99.5906 102.892C99.9817 102.501 100.449 102.305 100.993 102.305C101.536 102.305 102.003 102.501 102.395 102.892C102.786 103.277 102.981 103.741 102.981 104.284C102.981 104.649 102.888 104.983 102.703 105.288C102.524 105.587 102.285 105.825 101.987 106.004C101.689 106.183 101.357 106.273 100.993 106.273ZM114.013 119.338C112.442 119.331 111.1 118.917 109.986 118.095C108.873 117.273 108.021 116.077 107.431 114.506C106.841 112.935 106.546 111.042 106.546 108.828C106.546 106.621 106.841 104.735 107.431 103.17C108.027 101.606 108.882 100.413 109.996 99.5909C111.116 98.7689 112.455 98.358 114.013 98.358C115.571 98.358 116.907 98.7723 118.02 99.6009C119.134 100.423 119.986 101.616 120.576 103.18C121.172 104.738 121.471 106.621 121.471 108.828C121.471 111.049 121.176 112.945 120.586 114.516C119.996 116.08 119.144 117.277 118.03 118.105C116.917 118.927 115.578 119.338 114.013 119.338ZM114.013 116.683C115.392 116.683 116.469 116.01 117.245 114.665C118.027 113.319 118.418 111.374 118.418 108.828C118.418 107.138 118.239 105.709 117.881 104.543C117.53 103.369 117.023 102.481 116.36 101.878C115.703 101.268 114.921 100.963 114.013 100.963C112.641 100.963 111.564 101.639 110.782 102.991C109.999 104.344 109.605 106.289 109.598 108.828C109.598 110.525 109.774 111.96 110.125 113.134C110.483 114.3 110.99 115.185 111.647 115.788C112.303 116.385 113.092 116.683 114.013 116.683ZM132.087 119.338C130.516 119.331 129.174 118.917 128.06 118.095C126.947 117.273 126.095 116.077 125.505 114.506C124.915 112.935 124.62 111.042 124.62 108.828C124.62 106.621 124.915 104.735 125.505 103.17C126.102 101.606 126.957 100.413 128.07 99.5909C129.191 98.7689 130.53 98.358 132.087 98.358C133.645 98.358 134.981 98.7723 136.094 99.6009C137.208 100.423 138.06 101.616 138.65 103.18C139.246 104.738 139.545 106.621 139.545 108.828C139.545 111.049 139.25 112.945 138.66 114.516C138.07 116.08 137.218 117.277 136.104 118.105C134.991 118.927 133.652 119.338 132.087 119.338ZM132.087 116.683C133.466 116.683 134.543 116.01 135.319 114.665C136.101 113.319 136.492 111.374 136.492 108.828C136.492 107.138 136.313 105.709 135.955 104.543C135.604 103.369 135.097 102.481 134.434 101.878C133.778 101.268 132.996 100.963 132.087 100.963C130.715 100.963 129.638 101.639 128.856 102.991C128.074 104.344 127.679 106.289 127.673 108.828C127.673 110.525 127.848 111.96 128.2 113.134C128.558 114.3 129.065 115.185 129.721 115.788C130.377 116.385 131.166 116.683 132.087 116.683Z" fill="#FFEE32"></path>
<path d="M29.6307 11.4545C29.6307 12.8352 29.3814 14.0284 28.8828 15.0341C28.3842 16.0398 27.7003 16.8153 26.831 17.3608C25.9616 17.9062 24.9688 18.179 23.8523 18.179C22.7358 18.179 21.7429 17.9062 20.8736 17.3608C20.0043 16.8153 19.3203 16.0398 18.8217 15.0341C18.3232 14.0284 18.0739 12.8352 18.0739 11.4545C18.0739 10.0739 18.3232 8.88068 18.8217 7.875C19.3203 6.86932 20.0043 6.09375 20.8736 5.5483C21.7429 5.00284 22.7358 4.73011 23.8523 4.73011C24.9688 4.73011 25.9616 5.00284 26.831 5.5483C27.7003 6.09375 28.3842 6.86932 28.8828 7.875C29.3814 8.88068 29.6307 10.0739 29.6307 11.4545ZM28.0966 11.4545C28.0966 10.321 27.907 9.36435 27.5277 8.58452C27.1527 7.80469 26.6435 7.21449 26 6.81392C25.3608 6.41335 24.6449 6.21307 23.8523 6.21307C23.0597 6.21307 22.3416 6.41335 21.6982 6.81392C21.0589 7.21449 20.5497 7.80469 20.1705 8.58452C19.7955 9.36435 19.608 10.321 19.608 11.4545C19.608 12.5881 19.7955 13.5447 20.1705 14.3246C20.5497 15.1044 21.0589 15.6946 21.6982 16.0952C22.3416 16.4957 23.0597 16.696 23.8523 16.696C24.6449 16.696 25.3608 16.4957 26 16.0952C26.6435 15.6946 27.1527 15.1044 27.5277 14.3246C27.907 13.5447 28.0966 12.5881 28.0966 11.4545ZM39.3786 4.5L40.1456 5.42045C39.8473 5.71023 39.5021 5.91264 39.1101 6.0277C38.718 6.14276 38.2749 6.21307 37.7805 6.23864C37.2862 6.2642 36.7365 6.28977 36.1314 6.31534C35.4496 6.34091 34.8849 6.5071 34.4375 6.81392C33.9901 7.12074 33.6449 7.56392 33.402 8.14347C33.1591 8.72301 33.0036 9.43466 32.9354 10.2784H33.0632C33.3956 9.66477 33.8558 9.21307 34.4439 8.9233C35.032 8.63352 35.6626 8.48864 36.3359 8.48864C37.103 8.48864 37.7933 8.66761 38.407 9.02557C39.0206 9.38352 39.5064 9.91406 39.8643 10.6172C40.2223 11.3203 40.4013 12.1875 40.4013 13.2188C40.4013 14.2457 40.218 15.1321 39.8516 15.8778C39.4893 16.6236 38.9801 17.1989 38.3239 17.6037C37.6719 18.0043 36.907 18.2045 36.0291 18.2045C35.1513 18.2045 34.3821 17.9979 33.7216 17.5845C33.0611 17.1669 32.5476 16.549 32.1811 15.7308C31.8146 14.9084 31.6314 13.892 31.6314 12.6818V11.6335C31.6314 9.44744 32.0021 7.78977 32.7436 6.66051C33.4893 5.53125 34.6101 4.94744 36.1058 4.90909C36.6342 4.89205 37.1051 4.88778 37.5185 4.89631C37.9318 4.90483 38.2919 4.88565 38.5987 4.83878C38.9055 4.7919 39.1655 4.67898 39.3786 4.5ZM36.0291 16.8494C36.6214 16.8494 37.1307 16.7003 37.5568 16.402C37.9872 16.1037 38.3175 15.6839 38.5476 15.1428C38.7777 14.5973 38.8928 13.956 38.8928 13.2188C38.8928 12.5028 38.7756 11.8935 38.5412 11.3906C38.3111 10.8878 37.9808 10.5043 37.5504 10.2401C37.12 9.97585 36.6044 9.84375 36.0036 9.84375C35.5646 9.84375 35.1705 9.91832 34.821 10.0675C34.4716 10.2166 34.1733 10.4361 33.9261 10.7259C33.679 11.0156 33.4872 11.3693 33.3509 11.7869C33.2188 12.2045 33.1484 12.6818 33.1399 13.2188C33.1399 14.3182 33.3977 15.1982 33.9134 15.8587C34.429 16.5192 35.1342 16.8494 36.0291 16.8494ZM42.7088 21.6818V8.18182H44.1662V9.74148H44.3452C44.456 9.57102 44.6094 9.35369 44.8054 9.08949C45.0057 8.82102 45.2912 8.58239 45.6619 8.37358C46.0369 8.16051 46.544 8.05398 47.1832 8.05398C48.0099 8.05398 48.7386 8.26065 49.3693 8.67401C50 9.08736 50.4922 9.6733 50.8459 10.4318C51.1996 11.1903 51.3764 12.0852 51.3764 13.1165C51.3764 14.1562 51.1996 15.0575 50.8459 15.8203C50.4922 16.5788 50.0021 17.1669 49.3757 17.5845C48.7493 17.9979 48.027 18.2045 47.2088 18.2045C46.5781 18.2045 46.0732 18.1001 45.6939 17.8913C45.3146 17.6783 45.0227 17.4375 44.8182 17.169C44.6136 16.8963 44.456 16.6705 44.3452 16.4915H44.2173V21.6818H42.7088ZM44.1918 13.0909C44.1918 13.8324 44.3004 14.4865 44.5178 15.0533C44.7351 15.6158 45.0526 16.0568 45.4702 16.3764C45.8878 16.6918 46.3991 16.8494 47.0043 16.8494C47.6349 16.8494 48.1612 16.6832 48.5831 16.3509C49.0092 16.0142 49.3288 15.5625 49.5419 14.9957C49.7592 14.4247 49.8679 13.7898 49.8679 13.0909C49.8679 12.4006 49.7614 11.7784 49.5483 11.2244C49.3395 10.6662 49.022 10.2251 48.5959 9.90128C48.174 9.57315 47.6435 9.40909 47.0043 9.40909C46.3906 9.40909 45.875 9.56463 45.4574 9.87571C45.0398 10.1825 44.7244 10.6129 44.5114 11.1669C44.2983 11.7166 44.1918 12.358 44.1918 13.0909ZM56.5668 18.2301C55.9446 18.2301 55.38 18.1129 54.8729 17.8786C54.3658 17.6399 53.9631 17.2969 53.6648 16.8494C53.3665 16.3977 53.2173 15.8523 53.2173 15.2131C53.2173 14.6506 53.3281 14.1946 53.5497 13.8452C53.7713 13.4915 54.0675 13.2145 54.4382 13.0142C54.8089 12.8139 55.218 12.6648 55.6655 12.5668C56.1172 12.4645 56.571 12.3835 57.027 12.3239C57.6236 12.2472 58.1072 12.1896 58.478 12.1513C58.853 12.1087 59.1257 12.0384 59.2962 11.9403C59.4709 11.8423 59.5582 11.6719 59.5582 11.429V11.3778C59.5582 10.7472 59.3857 10.2571 59.0405 9.90767C58.6996 9.55824 58.1818 9.38352 57.4872 9.38352C56.767 9.38352 56.2024 9.54119 55.7933 9.85653C55.3842 10.1719 55.0966 10.5085 54.9304 10.8665L53.4986 10.3551C53.7543 9.75852 54.0952 9.29403 54.5213 8.96165C54.9517 8.625 55.4205 8.39062 55.9276 8.25852C56.4389 8.12216 56.9418 8.05398 57.4361 8.05398C57.7514 8.05398 58.1136 8.09233 58.5227 8.16903C58.9361 8.24148 59.3345 8.39276 59.718 8.62287C60.1058 8.85298 60.4276 9.20028 60.6832 9.66477C60.9389 10.1293 61.0668 10.7514 61.0668 11.5312V18H59.5582V16.6705H59.4815C59.3793 16.8835 59.2088 17.1115 58.9702 17.3544C58.7315 17.5973 58.4141 17.804 58.0178 17.9744C57.6214 18.1449 57.1378 18.2301 56.5668 18.2301ZM56.7969 16.875C57.3935 16.875 57.8963 16.7578 58.3054 16.5234C58.7188 16.2891 59.0298 15.9865 59.2386 15.6158C59.4517 15.245 59.5582 14.8551 59.5582 14.446V13.0653C59.4943 13.142 59.3537 13.2124 59.1364 13.2763C58.9233 13.3359 58.6761 13.3892 58.3949 13.4361C58.1179 13.4787 57.8473 13.517 57.5831 13.5511C57.3232 13.581 57.1122 13.6065 56.9503 13.6278C56.5582 13.679 56.1918 13.7621 55.8509 13.8771C55.5142 13.9879 55.2415 14.1562 55.0327 14.3821C54.8281 14.6037 54.7259 14.9062 54.7259 15.2898C54.7259 15.8139 54.9197 16.2102 55.3075 16.4787C55.6996 16.7429 56.196 16.875 56.7969 16.875ZM71.1071 4.5L71.8741 5.42045C71.5758 5.71023 71.2306 5.91264 70.8386 6.0277C70.4466 6.14276 70.0034 6.21307 69.5091 6.23864C69.0147 6.2642 68.465 6.28977 67.8599 6.31534C67.1781 6.34091 66.6135 6.5071 66.166 6.81392C65.7186 7.12074 65.3734 7.56392 65.1305 8.14347C64.8876 8.72301 64.7321 9.43466 64.6639 10.2784H64.7917C65.1241 9.66477 65.5843 9.21307 66.1724 8.9233C66.7605 8.63352 67.3912 8.48864 68.0645 8.48864C68.8315 8.48864 69.5218 8.66761 70.1355 9.02557C70.7491 9.38352 71.2349 9.91406 71.5929 10.6172C71.9508 11.3203 72.1298 12.1875 72.1298 13.2188C72.1298 14.2457 71.9466 15.1321 71.5801 15.8778C71.2179 16.6236 70.7086 17.1989 70.0524 17.6037C69.4004 18.0043 68.6355 18.2045 67.7576 18.2045C66.8798 18.2045 66.1106 17.9979 65.4501 17.5845C64.7896 17.1669 64.2761 16.549 63.9096 15.7308C63.5431 14.9084 63.3599 13.892 63.3599 12.6818V11.6335C63.3599 9.44744 63.7306 7.78977 64.4721 6.66051C65.2179 5.53125 66.3386 4.94744 67.8343 4.90909C68.3627 4.89205 68.8336 4.88778 69.247 4.89631C69.6603 4.90483 70.0204 4.88565 70.3272 4.83878C70.6341 4.7919 70.894 4.67898 71.1071 4.5ZM67.7576 16.8494C68.35 16.8494 68.8592 16.7003 69.2853 16.402C69.7157 16.1037 70.046 15.6839 70.2761 15.1428C70.5062 14.5973 70.6213 13.956 70.6213 13.2188C70.6213 12.5028 70.5041 11.8935 70.2697 11.3906C70.0396 10.8878 69.7093 10.5043 69.2789 10.2401C68.8485 9.97585 68.3329 9.84375 67.7321 9.84375C67.2931 9.84375 66.899 9.91832 66.5495 10.0675C66.2001 10.2166 65.9018 10.4361 65.6547 10.7259C65.4075 11.0156 65.2157 11.3693 65.0794 11.7869C64.9473 12.2045 64.877 12.6818 64.8684 13.2188C64.8684 14.3182 65.1262 15.1982 65.6419 15.8587C66.1575 16.5192 66.8627 16.8494 67.7576 16.8494ZM78.426 18.2045C77.5396 18.2045 76.7619 17.9936 76.0929 17.5717C75.4281 17.1499 74.9082 16.5597 74.5332 15.8011C74.1625 15.0426 73.9771 14.1562 73.9771 13.142C73.9771 12.1193 74.1625 11.2266 74.5332 10.4638C74.9082 9.70099 75.4281 9.10866 76.0929 8.68679C76.7619 8.26491 77.5396 8.05398 78.426 8.05398C79.3123 8.05398 80.0879 8.26491 80.7527 8.68679C81.4217 9.10866 81.9416 9.70099 82.3123 10.4638C82.6873 11.2266 82.8748 12.1193 82.8748 13.142C82.8748 14.1562 82.6873 15.0426 82.3123 15.8011C81.9416 16.5597 81.4217 17.1499 80.7527 17.5717C80.0879 17.9936 79.3123 18.2045 78.426 18.2045ZM78.426 16.8494C79.0993 16.8494 79.6532 16.6768 80.0879 16.3317C80.5225 15.9865 80.8443 15.5327 81.0531 14.9702C81.2619 14.4077 81.3663 13.7983 81.3663 13.142C81.3663 12.4858 81.2619 11.8743 81.0531 11.3075C80.8443 10.7408 80.5225 10.2827 80.0879 9.93324C79.6532 9.58381 79.0993 9.40909 78.426 9.40909C77.7527 9.40909 77.1987 9.58381 76.764 9.93324C76.3294 10.2827 76.0076 10.7408 75.7988 11.3075C75.59 11.8743 75.4856 12.4858 75.4856 13.142C75.4856 13.7983 75.59 14.4077 75.7988 14.9702C76.0076 15.5327 76.3294 15.9865 76.764 16.3317C77.1987 16.6768 77.7527 16.8494 78.426 16.8494ZM83.8944 9.58807V8.18182H91.8716V9.58807H88.65V18H87.1415V9.58807H83.8944ZM94.0721 18V8.18182H95.5806V12.4517H96.5778L100.106 8.18182H102.049L98.0863 12.9119L102.1 18H100.157L96.9357 13.858H95.5806V18H94.0721ZM106.629 18.2301C106.007 18.2301 105.442 18.1129 104.935 17.8786C104.428 17.6399 104.026 17.2969 103.727 16.8494C103.429 16.3977 103.28 15.8523 103.28 15.2131C103.28 14.6506 103.391 14.1946 103.612 13.8452C103.834 13.4915 104.13 13.2145 104.501 13.0142C104.871 12.8139 105.281 12.6648 105.728 12.5668C106.18 12.4645 106.634 12.3835 107.089 12.3239C107.686 12.2472 108.17 12.1896 108.54 12.1513C108.915 12.1087 109.188 12.0384 109.359 11.9403C109.533 11.8423 109.621 11.6719 109.621 11.429V11.3778C109.621 10.7472 109.448 10.2571 109.103 9.90767C108.762 9.55824 108.244 9.38352 107.55 9.38352C106.83 9.38352 106.265 9.54119 105.856 9.85653C105.447 10.1719 105.159 10.5085 104.993 10.8665L103.561 10.3551C103.817 9.75852 104.158 9.29403 104.584 8.96165C105.014 8.625 105.483 8.39062 105.99 8.25852C106.501 8.12216 107.004 8.05398 107.499 8.05398C107.814 8.05398 108.176 8.09233 108.585 8.16903C108.999 8.24148 109.397 8.39276 109.781 8.62287C110.168 8.85298 110.49 9.20028 110.746 9.66477C111.001 10.1293 111.129 10.7514 111.129 11.5312V18H109.621V16.6705H109.544C109.442 16.8835 109.271 17.1115 109.033 17.3544C108.794 17.5973 108.477 17.804 108.08 17.9744C107.684 18.1449 107.2 18.2301 106.629 18.2301ZM106.859 16.875C107.456 16.875 107.959 16.7578 108.368 16.5234C108.781 16.2891 109.092 15.9865 109.301 15.6158C109.514 15.245 109.621 14.8551 109.621 14.446V13.0653C109.557 13.142 109.416 13.2124 109.199 13.2763C108.986 13.3359 108.739 13.3892 108.457 13.4361C108.18 13.4787 107.91 13.517 107.646 13.5511C107.386 13.581 107.175 13.6065 107.013 13.6278C106.621 13.679 106.254 13.7621 105.913 13.8771C105.577 13.9879 105.304 14.1562 105.095 14.3821C104.891 14.6037 104.788 14.9062 104.788 15.2898C104.788 15.8139 104.982 16.2102 105.37 16.4787C105.762 16.7429 106.259 16.875 106.859 16.875ZM125.516 12.4006V13.8068H120.096V12.4006H125.516ZM120.454 8.18182V18H118.945V8.18182H120.454ZM126.667 8.18182V18H125.158V8.18182H126.667ZM132.311 18.2301C131.689 18.2301 131.124 18.1129 130.617 17.8786C130.11 17.6399 129.707 17.2969 129.409 16.8494C129.111 16.3977 128.961 15.8523 128.961 15.2131C128.961 14.6506 129.072 14.1946 129.294 13.8452C129.515 13.4915 129.812 13.2145 130.182 13.0142C130.553 12.8139 130.962 12.6648 131.41 12.5668C131.861 12.4645 132.315 12.3835 132.771 12.3239C133.368 12.2472 133.851 12.1896 134.222 12.1513C134.597 12.1087 134.87 12.0384 135.04 11.9403C135.215 11.8423 135.302 11.6719 135.302 11.429V11.3778C135.302 10.7472 135.13 10.2571 134.785 9.90767C134.444 9.55824 133.926 9.38352 133.231 9.38352C132.511 9.38352 131.947 9.54119 131.537 9.85653C131.128 10.1719 130.841 10.5085 130.675 10.8665L129.243 10.3551C129.498 9.75852 129.839 9.29403 130.265 8.96165C130.696 8.625 131.165 8.39062 131.672 8.25852C132.183 8.12216 132.686 8.05398 133.18 8.05398C133.496 8.05398 133.858 8.09233 134.267 8.16903C134.68 8.24148 135.079 8.39276 135.462 8.62287C135.85 8.85298 136.172 9.20028 136.427 9.66477C136.683 10.1293 136.811 10.7514 136.811 11.5312V18H135.302V16.6705H135.226C135.123 16.8835 134.953 17.1115 134.714 17.3544C134.476 17.5973 134.158 17.804 133.762 17.9744C133.366 18.1449 132.882 18.2301 132.311 18.2301ZM132.541 16.875C133.138 16.875 133.64 16.7578 134.05 16.5234C134.463 16.2891 134.774 15.9865 134.983 15.6158C135.196 15.245 135.302 14.8551 135.302 14.446V13.0653C135.238 13.142 135.098 13.2124 134.881 13.2763C134.667 13.3359 134.42 13.3892 134.139 13.4361C133.862 13.4787 133.591 13.517 133.327 13.5511C133.067 13.581 132.856 13.6065 132.694 13.6278C132.302 13.679 131.936 13.7621 131.595 13.8771C131.258 13.9879 130.986 14.1562 130.777 14.3821C130.572 14.6037 130.47 14.9062 130.47 15.2898C130.47 15.8139 130.664 16.2102 131.052 16.4787C131.444 16.7429 131.94 16.875 132.541 16.875ZM149.996 15.9545L153.422 8.18182H154.854L150.61 18H149.382L145.215 8.18182H146.621L149.996 15.9545ZM146.135 8.18182V18H144.627V8.18182H146.135ZM153.857 18V8.18182H155.365V18H153.857ZM162.115 18.2045C161.229 18.2045 160.451 17.9936 159.782 17.5717C159.118 17.1499 158.598 16.5597 158.223 15.8011C157.852 15.0426 157.667 14.1562 157.667 13.142C157.667 12.1193 157.852 11.2266 158.223 10.4638C158.598 9.70099 159.118 9.10866 159.782 8.68679C160.451 8.26491 161.229 8.05398 162.115 8.05398C163.002 8.05398 163.777 8.26491 164.442 8.68679C165.111 9.10866 165.631 9.70099 166.002 10.4638C166.377 11.2266 166.564 12.1193 166.564 13.142C166.564 14.1562 166.377 15.0426 166.002 15.8011C165.631 16.5597 165.111 17.1499 164.442 17.5717C163.777 17.9936 163.002 18.2045 162.115 18.2045ZM162.115 16.8494C162.789 16.8494 163.343 16.6768 163.777 16.3317C164.212 15.9865 164.534 15.5327 164.743 14.9702C164.951 14.4077 165.056 13.7983 165.056 13.142C165.056 12.4858 164.951 11.8743 164.743 11.3075C164.534 10.7408 164.212 10.2827 163.777 9.93324C163.343 9.58381 162.789 9.40909 162.115 9.40909C161.442 9.40909 160.888 9.58381 160.453 9.93324C160.019 10.2827 159.697 10.7408 159.488 11.3075C159.279 11.8743 159.175 12.4858 159.175 13.142C159.175 13.7983 159.279 14.4077 159.488 14.9702C159.697 15.5327 160.019 15.9865 160.453 16.3317C160.888 16.6768 161.442 16.8494 162.115 16.8494ZM167.819 20.8125V16.5938H168.637C168.837 16.3849 169.01 16.1591 169.155 15.9162C169.3 15.6733 169.425 15.3857 169.532 15.0533C169.643 14.7166 169.736 14.3075 169.813 13.826C169.89 13.3402 169.958 12.7543 170.018 12.0682L170.35 8.18182H176.589V16.5938H178.097V20.8125H176.589V18H169.327V20.8125H167.819ZM170.35 16.5938H175.08V9.58807H171.756L171.501 12.0682C171.394 13.0952 171.262 13.9922 171.104 14.7592C170.947 15.5263 170.695 16.1378 170.35 16.5938ZM184.216 18.2045C183.27 18.2045 182.454 17.9957 181.768 17.5781C181.086 17.1562 180.56 16.5682 180.189 15.8139C179.822 15.0554 179.639 14.1733 179.639 13.1676C179.639 12.1619 179.822 11.2756 180.189 10.5085C180.56 9.73722 181.075 9.13636 181.736 8.70597C182.401 8.27131 183.176 8.05398 184.062 8.05398C184.574 8.05398 185.079 8.1392 185.577 8.30966C186.076 8.48011 186.53 8.7571 186.939 9.14062C187.348 9.51989 187.674 10.0227 187.917 10.6491C188.16 11.2756 188.281 12.0469 188.281 12.9631V13.6023H180.713V12.2983H186.747C186.747 11.7443 186.636 11.25 186.415 10.8153C186.197 10.3807 185.886 10.0376 185.482 9.78622C185.081 9.5348 184.608 9.40909 184.062 9.40909C183.462 9.40909 182.942 9.55824 182.503 9.85653C182.068 10.1506 181.734 10.5341 181.499 11.0071C181.265 11.4801 181.148 11.9872 181.148 12.5284V13.3977C181.148 14.1392 181.276 14.7678 181.531 15.2834C181.791 15.7947 182.151 16.1847 182.612 16.4531C183.072 16.7173 183.607 16.8494 184.216 16.8494C184.612 16.8494 184.97 16.794 185.29 16.6832C185.614 16.5682 185.893 16.3977 186.127 16.1719C186.362 15.9418 186.543 15.6562 186.67 15.3153L188.128 15.7244C187.974 16.2188 187.717 16.6534 187.354 17.0284C186.992 17.3991 186.545 17.6889 186.012 17.8977C185.479 18.1023 184.881 18.2045 184.216 18.2045ZM189.707 18V16.5938H190.065C190.359 16.5938 190.604 16.5362 190.8 16.4212C190.996 16.3018 191.153 16.0952 191.273 15.8011C191.396 15.5028 191.49 15.0895 191.554 14.5611C191.622 14.0284 191.671 13.3509 191.701 12.5284L191.88 8.18182H198.425V18H196.917V9.58807H193.312L193.158 13.0909C193.124 13.8963 193.052 14.6058 192.941 15.2195C192.835 15.8288 192.67 16.3402 192.449 16.7536C192.232 17.1669 191.942 17.478 191.58 17.6868C191.217 17.8956 190.763 18 190.218 18H189.707ZM207.099 18V9.5625H204.491C203.903 9.5625 203.441 9.69886 203.104 9.97159C202.768 10.2443 202.599 10.6193 202.599 11.0966C202.599 11.5653 202.751 11.9339 203.053 12.2024C203.36 12.4709 203.78 12.6051 204.312 12.6051H207.483V14.0114H204.312C203.648 14.0114 203.075 13.8942 202.593 13.6598C202.112 13.4254 201.741 13.0909 201.481 12.6562C201.221 12.2173 201.091 11.6974 201.091 11.0966C201.091 10.4915 201.227 9.97159 201.5 9.53693C201.773 9.10227 202.163 8.76776 202.67 8.53338C203.181 8.29901 203.788 8.18182 204.491 8.18182H208.531V18H207.099ZM200.554 18L203.341 13.1165H204.977L202.19 18H200.554ZM212.426 8.18182L214.778 12.196L217.13 8.18182H218.869L215.698 13.0909L218.869 18H217.13L214.778 14.1903L212.426 18H210.687L213.806 13.0909L210.687 8.18182H212.426ZM18.3807 40V30.1818H26.1023V40H24.5938V31.5881H19.8892V40H18.3807ZM32.8459 40.2045C31.9595 40.2045 31.1818 39.9936 30.5128 39.5717C29.848 39.1499 29.3281 38.5597 28.9531 37.8011C28.5824 37.0426 28.397 36.1562 28.397 35.142C28.397 34.1193 28.5824 33.2266 28.9531 32.4638C29.3281 31.701 29.848 31.1087 30.5128 30.6868C31.1818 30.2649 31.9595 30.054 32.8459 30.054C33.7322 30.054 34.5078 30.2649 35.1726 30.6868C35.8416 31.1087 36.3615 31.701 36.7322 32.4638C37.1072 33.2266 37.2947 34.1193 37.2947 35.142C37.2947 36.1562 37.1072 37.0426 36.7322 37.8011C36.3615 38.5597 35.8416 39.1499 35.1726 39.5717C34.5078 39.9936 33.7322 40.2045 32.8459 40.2045ZM32.8459 38.8494C33.5192 38.8494 34.0732 38.6768 34.5078 38.3317C34.9425 37.9865 35.2642 37.5327 35.473 36.9702C35.6818 36.4077 35.7862 35.7983 35.7862 35.142C35.7862 34.4858 35.6818 33.8743 35.473 33.3075C35.2642 32.7408 34.9425 32.2827 34.5078 31.9332C34.0732 31.5838 33.5192 31.4091 32.8459 31.4091C32.1726 31.4091 31.6186 31.5838 31.1839 31.9332C30.7493 32.2827 30.4276 32.7408 30.2188 33.3075C30.0099 33.8743 29.9055 34.4858 29.9055 35.142C29.9055 35.7983 30.0099 36.4077 30.2188 36.9702C30.4276 37.5327 30.7493 37.9865 31.1839 38.3317C31.6186 38.6768 32.1726 38.8494 32.8459 38.8494ZM38.5492 42.8125V38.5938H39.3674C39.5676 38.3849 39.7402 38.1591 39.8851 37.9162C40.03 37.6733 40.1557 37.3857 40.2623 37.0533C40.373 36.7166 40.4668 36.3075 40.5435 35.826C40.6202 35.3402 40.6884 34.7543 40.748 34.0682L41.0804 30.1818H47.3191V38.5938H48.8276V42.8125H47.3191V40H40.0577V42.8125H38.5492ZM41.0804 38.5938H45.8105V31.5881H42.4867L42.231 34.0682C42.1245 35.0952 41.9924 35.9922 41.8347 36.7592C41.677 37.5263 41.4256 38.1378 41.0804 38.5938ZM61.2617 37.9545L64.6879 30.1818H66.1197L61.8754 40H60.6481L56.4805 30.1818H57.8867L61.2617 37.9545ZM57.4009 30.1818V40H55.8924V30.1818H57.4009ZM65.1225 40V30.1818H66.631V40H65.1225ZM73.381 40.2045C72.4947 40.2045 71.717 39.9936 71.0479 39.5717C70.3832 39.1499 69.8633 38.5597 69.4883 37.8011C69.1175 37.0426 68.9322 36.1562 68.9322 35.142C68.9322 34.1193 69.1175 33.2266 69.4883 32.4638C69.8633 31.701 70.3832 31.1087 71.0479 30.6868C71.717 30.2649 72.4947 30.054 73.381 30.054C74.2674 30.054 75.043 30.2649 75.7077 30.6868C76.3768 31.1087 76.8967 31.701 77.2674 32.4638C77.6424 33.2266 77.8299 34.1193 77.8299 35.142C77.8299 36.1562 77.6424 37.0426 77.2674 37.8011C76.8967 38.5597 76.3768 39.1499 75.7077 39.5717C75.043 39.9936 74.2674 40.2045 73.381 40.2045ZM73.381 38.8494C74.0543 38.8494 74.6083 38.6768 75.043 38.3317C75.4776 37.9865 75.7994 37.5327 76.0082 36.9702C76.217 36.4077 76.3214 35.7983 76.3214 35.142C76.3214 34.4858 76.217 33.8743 76.0082 33.3075C75.7994 32.7408 75.4776 32.2827 75.043 31.9332C74.6083 31.5838 74.0543 31.4091 73.381 31.4091C72.7077 31.4091 72.1538 31.5838 71.7191 31.9332C71.2844 32.2827 70.9627 32.7408 70.7539 33.3075C70.5451 33.8743 70.4407 34.4858 70.4407 35.142C70.4407 35.7983 70.5451 36.4077 70.7539 36.9702C70.9627 37.5327 71.2844 37.9865 71.7191 38.3317C72.1538 38.6768 72.7077 38.8494 73.381 38.8494ZM84.2491 40.2045C83.3031 40.2045 82.487 39.9957 81.801 39.5781C81.1191 39.1562 80.5929 38.5682 80.2221 37.8139C79.8556 37.0554 79.6724 36.1733 79.6724 35.1676C79.6724 34.1619 79.8556 33.2756 80.2221 32.5085C80.5929 31.7372 81.1085 31.1364 81.769 30.706C82.4338 30.2713 83.2093 30.054 84.0957 30.054C84.6071 30.054 85.112 30.1392 85.6106 30.3097C86.1092 30.4801 86.563 30.7571 86.9721 31.1406C87.3812 31.5199 87.7072 32.0227 87.9501 32.6491C88.193 33.2756 88.3145 34.0469 88.3145 34.9631V35.6023H80.7463V34.2983H86.7804C86.7804 33.7443 86.6696 33.25 86.448 32.8153C86.2306 32.3807 85.9196 32.0376 85.5147 31.7862C85.1142 31.5348 84.6412 31.4091 84.0957 31.4091C83.4949 31.4091 82.975 31.5582 82.536 31.8565C82.1014 32.1506 81.7669 32.5341 81.5325 33.0071C81.2981 33.4801 81.1809 33.9872 81.1809 34.5284V35.3977C81.1809 36.1392 81.3088 36.7678 81.5645 37.2834C81.8244 37.7947 82.1845 38.1847 82.6447 38.4531C83.1049 38.7173 83.6397 38.8494 84.2491 38.8494C84.6454 38.8494 85.0034 38.794 85.323 38.6832C85.6468 38.5682 85.926 38.3977 86.1603 38.1719C86.3947 37.9418 86.5758 37.6562 86.7037 37.3153L88.161 37.7244C88.0076 38.2188 87.7498 38.6534 87.3876 39.0284C87.0254 39.3991 86.5779 39.6889 86.0453 39.8977C85.5126 40.1023 84.9139 40.2045 84.2491 40.2045ZM92.1177 37.7756L96.8478 30.1818H98.5865V40H97.0779V32.4062L92.3734 40H90.6092V30.1818H92.1177V37.7756ZM95.8507 26.9091H97.2569C97.2569 27.5994 97.0183 28.1641 96.541 28.603C96.0637 29.0419 95.416 29.2614 94.5978 29.2614C93.7924 29.2614 93.1511 29.0419 92.6738 28.603C92.2008 28.1641 91.9643 27.5994 91.9643 26.9091H93.3706C93.3706 27.2415 93.4622 27.5334 93.6454 27.7848C93.8329 28.0362 94.1504 28.1619 94.5978 28.1619C95.0453 28.1619 95.3649 28.0362 95.5566 27.7848C95.7527 27.5334 95.8507 27.2415 95.8507 26.9091ZM106.412 40V30.1818H107.92V34.4517H108.918L112.446 30.1818H114.389L110.426 34.9119L114.44 40H112.497L109.276 35.858H107.92V40H106.412ZM117.051 43.6818C116.796 43.6818 116.568 43.6605 116.368 43.6179C116.167 43.5795 116.029 43.5412 115.952 43.5028L116.336 42.1733C116.702 42.267 117.026 42.3011 117.307 42.2756C117.588 42.25 117.838 42.1243 118.055 41.8984C118.277 41.6768 118.479 41.3168 118.662 40.8182L118.944 40.0511L115.313 30.1818H116.949L119.659 38.0057H119.762L122.472 30.1818H124.108L119.941 41.4318C119.753 41.9389 119.521 42.3587 119.244 42.6911C118.967 43.0277 118.645 43.277 118.279 43.4389C117.917 43.6009 117.507 43.6818 117.051 43.6818ZM126.099 43.6818V30.1818H127.557V31.7415H127.736C127.847 31.571 128 31.3537 128.196 31.0895C128.396 30.821 128.682 30.5824 129.053 30.3736C129.428 30.1605 129.935 30.054 130.574 30.054C131.401 30.054 132.129 30.2607 132.76 30.674C133.391 31.0874 133.883 31.6733 134.237 32.4318C134.59 33.1903 134.767 34.0852 134.767 35.1165C134.767 36.1562 134.59 37.0575 134.237 37.8203C133.883 38.5788 133.393 39.1669 132.766 39.5845C132.14 39.9979 131.418 40.2045 130.599 40.2045C129.969 40.2045 129.464 40.1001 129.085 39.8913C128.705 39.6783 128.413 39.4375 128.209 39.169C128.004 38.8963 127.847 38.6705 127.736 38.4915H127.608V43.6818H126.099ZM127.582 35.0909C127.582 35.8324 127.691 36.4865 127.908 37.0533C128.126 37.6158 128.443 38.0568 128.861 38.3764C129.278 38.6918 129.79 38.8494 130.395 38.8494C131.026 38.8494 131.552 38.6832 131.974 38.3509C132.4 38.0142 132.719 37.5625 132.933 36.9957C133.15 36.4247 133.259 35.7898 133.259 35.0909C133.259 34.4006 133.152 33.7784 132.939 33.2244C132.73 32.6662 132.413 32.2251 131.987 31.9013C131.565 31.5732 131.034 31.4091 130.395 31.4091C129.781 31.4091 129.266 31.5646 128.848 31.8757C128.43 32.1825 128.115 32.6129 127.902 33.1669C127.689 33.7166 127.582 34.358 127.582 35.0909ZM139.957 40.2301C139.335 40.2301 138.771 40.1129 138.263 39.8786C137.756 39.6399 137.354 39.2969 137.055 38.8494C136.757 38.3977 136.608 37.8523 136.608 37.2131C136.608 36.6506 136.719 36.1946 136.94 35.8452C137.162 35.4915 137.458 35.2145 137.829 35.0142C138.2 34.8139 138.609 34.6648 139.056 34.5668C139.508 34.4645 139.962 34.3835 140.418 34.3239C141.014 34.2472 141.498 34.1896 141.869 34.1513C142.244 34.1087 142.516 34.0384 142.687 33.9403C142.862 33.8423 142.949 33.6719 142.949 33.429V33.3778C142.949 32.7472 142.776 32.2571 142.431 31.9077C142.09 31.5582 141.572 31.3835 140.878 31.3835C140.158 31.3835 139.593 31.5412 139.184 31.8565C138.775 32.1719 138.487 32.5085 138.321 32.8665L136.889 32.3551C137.145 31.7585 137.486 31.294 137.912 30.9616C138.342 30.625 138.811 30.3906 139.318 30.2585C139.83 30.1222 140.332 30.054 140.827 30.054C141.142 30.054 141.504 30.0923 141.913 30.169C142.327 30.2415 142.725 30.3928 143.109 30.6229C143.496 30.853 143.818 31.2003 144.074 31.6648C144.33 32.1293 144.457 32.7514 144.457 33.5312V40H142.949V38.6705H142.872C142.77 38.8835 142.599 39.1115 142.361 39.3544C142.122 39.5973 141.805 39.804 141.408 39.9744C141.012 40.1449 140.528 40.2301 139.957 40.2301ZM140.188 38.875C140.784 38.875 141.287 38.7578 141.696 38.5234C142.109 38.2891 142.42 37.9865 142.629 37.6158C142.842 37.245 142.949 36.8551 142.949 36.446V35.0653C142.885 35.142 142.744 35.2124 142.527 35.2763C142.314 35.3359 142.067 35.3892 141.786 35.4361C141.509 35.4787 141.238 35.517 140.974 35.5511C140.714 35.581 140.503 35.6065 140.341 35.6278C139.949 35.679 139.582 35.7621 139.241 35.8771C138.905 35.9879 138.632 36.1562 138.423 36.3821C138.219 36.6037 138.116 36.9062 138.116 37.2898C138.116 37.8139 138.31 38.2102 138.698 38.4787C139.09 38.7429 139.587 38.875 140.188 38.875ZM154.932 30.1818V38.5938H156.313V43.1705H154.805V40H147.211V30.1818H148.719V38.5938H153.424V30.1818H154.932ZM160.145 37.7756L164.875 30.1818H166.614V40H165.105V32.4062L160.401 40H158.637V30.1818H160.145V37.7756ZM173.493 40.2045C172.547 40.2045 171.731 39.9957 171.045 39.5781C170.363 39.1562 169.837 38.5682 169.466 37.8139C169.1 37.0554 168.917 36.1733 168.917 35.1676C168.917 34.1619 169.1 33.2756 169.466 32.5085C169.837 31.7372 170.353 31.1364 171.013 30.706C171.678 30.2713 172.453 30.054 173.34 30.054C173.851 30.054 174.356 30.1392 174.855 30.3097C175.353 30.4801 175.807 30.7571 176.216 31.1406C176.625 31.5199 176.951 32.0227 177.194 32.6491C177.437 33.2756 177.559 34.0469 177.559 34.9631V35.6023H169.99V34.2983H176.025C176.025 33.7443 175.914 33.25 175.692 32.8153C175.475 32.3807 175.164 32.0376 174.759 31.7862C174.358 31.5348 173.885 31.4091 173.34 31.4091C172.739 31.4091 172.219 31.5582 171.78 31.8565C171.346 32.1506 171.011 32.5341 170.777 33.0071C170.542 33.4801 170.425 33.9872 170.425 34.5284V35.3977C170.425 36.1392 170.553 36.7678 170.809 37.2834C171.069 37.7947 171.429 38.1847 171.889 38.4531C172.349 38.7173 172.884 38.8494 173.493 38.8494C173.89 38.8494 174.248 38.794 174.567 38.6832C174.891 38.5682 175.17 38.3977 175.404 38.1719C175.639 37.9418 175.82 37.6562 175.948 37.3153L177.405 37.7244C177.252 38.2188 176.994 38.6534 176.632 39.0284C176.27 39.3991 175.822 39.6889 175.289 39.8977C174.757 40.1023 174.158 40.2045 173.493 40.2045ZM181.362 37.7756L186.092 30.1818H187.831V40H186.322V32.4062L181.618 40H179.853V30.1818H181.362V37.7756ZM185.095 26.9091H186.501C186.501 27.5994 186.262 28.1641 185.785 28.603C185.308 29.0419 184.66 29.2614 183.842 29.2614C183.037 29.2614 182.395 29.0419 181.918 28.603C181.445 28.1641 181.208 27.5994 181.208 26.9091H182.615C182.615 27.2415 182.706 27.5334 182.89 27.7848C183.077 28.0362 183.395 28.1619 183.842 28.1619C184.289 28.1619 184.609 28.0362 184.801 27.7848C184.997 27.5334 185.095 27.2415 185.095 26.9091Z" fill="#FFEE32"></path>
<circle cx="23" cy="109" r="11" fill="white"></circle>
<line x1="6" y1="111" x2="6" y2="11" stroke="#FFEE32" stroke-width="4"></line>
<circle cx="6" cy="12" r="6" fill="#FFEE32"></circle>
</svg>
