<svg width="600" height="220" fill="none" xmlns="http://www.w3.org/2000/svg"><path d="M437.5 83a80.004 80.004 0 0 1 49.385-73.91A80 80 0 1 1 517.5 163" stroke="#fff" stroke-width="5"/><circle cx="518" cy="83" r="65" fill="#FFEE32" fill-opacity=".45"/><circle cx="518" cy="67" r="23" fill="#fff"/><path d="M506.361 83v-5.31l11.141-9.754a36.652 36.652 0 0 0 2.133-2.073c.586-.636 1.034-1.273 1.342-1.91a4.825 4.825 0 0 0 .462-2.102c0-.845-.184-1.566-.551-2.163a3.698 3.698 0 0 0-1.522-1.402c-.646-.328-1.387-.492-2.222-.492-.845 0-1.586.174-2.222.522a3.613 3.613 0 0 0-1.492 1.477c-.348.646-.522 1.431-.522 2.356h-6.995c0-2.078.467-3.873 1.402-5.384.935-1.511 2.247-2.675 3.938-3.49 1.7-.825 3.674-1.238 5.921-1.238 2.317 0 4.33.388 6.04 1.163 1.71.776 3.033 1.86 3.968 3.252.944 1.382 1.416 2.988 1.416 4.817a9.066 9.066 0 0 1-.701 3.46c-.467 1.144-1.307 2.407-2.52 3.789-1.203 1.382-2.913 3.037-5.131 4.966l-3.654 3.371v.194h12.379V83h-22.61Z" fill="#000"/><path d="M492.919 121.405v-6.98h1.243c.318-.292.587-.64.806-1.044a6.48 6.48 0 0 0 .566-1.442c.159-.557.292-1.207.398-1.949.106-.749.199-1.604.278-2.565l.478-5.698h10.38v12.698h2.347v6.98h-2.903V117h-10.65v4.405h-2.943Zm4.425-6.98h6.821v-10.152h-4.813l-.318 3.152c-.152 1.604-.344 2.996-.576 4.176-.232 1.173-.604 2.114-1.114 2.824Zm25.328-6.344v2.575h-8.273v-2.575h8.273Zm-7.438-6.354V117h-2.913v-15.273h2.913Zm9.516 0V117h-2.904v-15.273h2.904ZM537.835 117v-12.737h-3.659c-.868 0-1.545.202-2.028.606-.484.405-.726.935-.726 1.591 0 .65.222 1.174.666 1.571.451.391 1.08.587 1.889.587h4.723v2.406h-4.723c-1.127 0-2.101-.185-2.923-.557-.816-.378-1.445-.911-1.889-1.601-.438-.689-.657-1.504-.657-2.446 0-.961.226-1.789.676-2.485.458-.703 1.111-1.247 1.959-1.631.855-.384 1.866-.577 3.033-.577h6.453V117h-2.794Zm-10.023 0 4.306-7.716h3.042L530.855 117h-3.043Z" fill="#fff"/><circle cx="518" cy="83" r="59.5" stroke="#fff"/><path d="M33.5 118.597c-.516 0-.986-.126-1.413-.378a2.931 2.931 0 0 1-1.022-1.022 2.729 2.729 0 0 1-.378-1.413c0-.52.126-.991.378-1.413a2.89 2.89 0 0 1 1.022-1.016 2.69 2.69 0 0 1 1.413-.383c.52 0 .99.127 1.413.383.426.252.765.59 1.016 1.016.256.422.383.893.383 1.413 0 .516-.127.987-.383 1.413-.251.426-.59.767-1.016 1.022a2.702 2.702 0 0 1-1.413.378Zm14.37-9.282v-1.406h9.818v1.406H53.57V121h-1.585v-11.685h-4.117Zm14.752 11.89c-.946 0-1.762-.209-2.448-.627a4.206 4.206 0 0 1-1.579-1.764c-.366-.759-.55-1.641-.55-2.646 0-1.006.184-1.892.55-2.659.37-.772.886-1.373 1.547-1.803.665-.435 1.44-.652 2.327-.652a4.64 4.64 0 0 1 1.515.256c.498.17.952.447 1.361.831.41.379.735.882.978 1.508.243.627.365 1.398.365 2.314v.639h-7.569v-1.304h6.034c0-.554-.11-1.048-.332-1.483a2.512 2.512 0 0 0-.933-1.029c-.4-.251-.874-.377-1.42-.377-.6 0-1.12.149-1.559.448-.435.294-.77.677-1.003 1.15a3.38 3.38 0 0 0-.352 1.521v.87c0 .741.128 1.37.383 1.885.26.512.62.902 1.08 1.17.461.264.996.396 1.605.396.397 0 .754-.055 1.074-.166.324-.115.603-.285.837-.511.235-.23.416-.516.544-.857l1.457.409a3.227 3.227 0 0 1-.773 1.304c-.363.371-.81.661-1.343.87-.532.204-1.131.307-1.796.307Zm10.349 0c-.886 0-1.664-.211-2.333-.633-.665-.422-1.185-1.012-1.56-1.771-.37-.758-.556-1.645-.556-2.659 0-1.023.185-1.915.556-2.678.375-.763.895-1.355 1.56-1.777.669-.422 1.447-.633 2.333-.633.886 0 1.662.211 2.327.633.669.422 1.189 1.014 1.56 1.777.374.763.562 1.655.562 2.678 0 1.014-.188 1.901-.563 2.659-.37.759-.89 1.349-1.56 1.771-.664.422-1.44.633-2.326.633Zm0-1.356c.673 0 1.227-.172 1.662-.517a3.05 3.05 0 0 0 .965-1.362 5.211 5.211 0 0 0 .313-1.828 5.26 5.26 0 0 0-.313-1.834 3.096 3.096 0 0 0-.965-1.375c-.435-.349-.989-.524-1.662-.524-.673 0-1.227.175-1.662.524-.435.35-.756.808-.965 1.375a5.259 5.259 0 0 0-.313 1.834c0 .656.104 1.266.313 1.828a3.05 3.05 0 0 0 .965 1.362c.435.345.989.517 1.662.517Zm6.751 4.833v-13.5h1.458v1.559h.179c.11-.17.264-.387.46-.652.2-.268.486-.507.857-.715.375-.213.882-.32 1.52-.32.828 0 1.556.207 2.187.62.63.413 1.123.999 1.477 1.758.353.758.53 1.653.53 2.684 0 1.04-.177 1.942-.53 2.704-.354.759-.844 1.347-1.47 1.765-.627.413-1.35.62-2.168.62-.63 0-1.135-.105-1.514-.314-.38-.213-.672-.454-.876-.722a9.715 9.715 0 0 1-.473-.678h-.128v5.191h-1.508Zm1.483-8.591c0 .741.11 1.396.326 1.962.218.563.535 1.004.953 1.323.418.316.929.473 1.534.473.63 0 1.157-.166 1.579-.498.426-.337.746-.789.959-1.355a5.319 5.319 0 0 0 .326-1.905c0-.69-.107-1.313-.32-1.867-.209-.558-.526-.999-.952-1.323-.422-.328-.953-.492-1.592-.492-.614 0-1.13.156-1.547.467-.418.307-.733.737-.946 1.291-.213.55-.32 1.191-.32 1.924Zm10.995 2.685 4.73-7.594h1.738V121H97.16v-7.594L92.455 121h-1.764v-9.818H92.2v7.594ZM107.338 121v-8.438h-2.608c-.588 0-1.051.137-1.387.41-.337.272-.505.647-.505 1.125 0 .468.151.837.454 1.105.306.269.726.403 1.259.403h3.17v1.406h-3.17c-.665 0-1.238-.117-1.72-.351a2.578 2.578 0 0 1-1.112-1.004c-.26-.439-.39-.959-.39-1.559 0-.606.137-1.125.409-1.56a2.66 2.66 0 0 1 1.17-1.004c.511-.234 1.119-.351 1.822-.351h4.04V121h-1.432Zm-6.546 0 2.787-4.884h1.637L102.429 121h-1.637Zm19.645-.895v-8.437h1.431v8.437h-1.431Zm-3.503-3.503v-1.432h8.437v1.432h-8.437Zm15.547 7.21v-4.218h.818c.2-.209.373-.435.518-.678.145-.243.27-.53.377-.863.111-.336.204-.745.281-1.227.077-.486.145-1.072.205-1.758l.332-3.886h6.239v8.412h1.508v4.218h-1.508V121h-7.262v2.812h-1.508Zm2.531-4.218h4.73v-7.006h-3.324l-.255 2.48a27.784 27.784 0 0 1-.397 2.691c-.157.767-.409 1.379-.754 1.835Zm9.75 1.406v-9.818h4.014c1.057 0 1.896.238 2.518.716.622.477.933 1.108.933 1.892 0 .596-.176 1.059-.53 1.387-.354.324-.808.543-1.362.658.363.051.714.179 1.055.384.345.204.631.486.857.843.225.354.338.789.338 1.304 0 .503-.127.953-.383 1.349-.256.397-.622.71-1.1.94-.477.23-1.048.345-1.713.345h-4.627Zm1.431-1.381h3.196c.52 0 .927-.123 1.221-.37.294-.248.441-.584.441-1.01 0-.507-.147-.906-.441-1.196-.294-.294-.701-.441-1.221-.441h-3.196v3.017Zm0-4.321h2.583c.405 0 .752-.055 1.042-.166.289-.115.511-.277.664-.486a1.23 1.23 0 0 0 .237-.754c0-.413-.173-.737-.518-.972-.345-.238-.82-.358-1.425-.358h-2.583v2.736Zm12.792 5.907c-.946 0-1.762-.209-2.448-.627a4.207 4.207 0 0 1-1.579-1.764c-.366-.759-.549-1.641-.549-2.646 0-1.006.183-1.892.549-2.659.371-.772.887-1.373 1.547-1.803.665-.435 1.441-.652 2.327-.652.511 0 1.016.085 1.515.256.499.17.952.447 1.361.831.41.379.736.882.978 1.508.243.627.365 1.398.365 2.314v.639h-7.568v-1.304h6.034c0-.554-.111-1.048-.333-1.483a2.508 2.508 0 0 0-.933-1.029c-.401-.251-.874-.377-1.419-.377-.601 0-1.121.149-1.56.448a2.942 2.942 0 0 0-1.003 1.15c-.235.473-.352.98-.352 1.521v.87c0 .741.128 1.37.384 1.885.26.512.62.902 1.08 1.17.46.264.995.396 1.604.396.397 0 .755-.055 1.074-.166.324-.115.603-.285.838-.511a2.33 2.33 0 0 0 .543-.857l1.457.409a3.224 3.224 0 0 1-.773 1.304c-.362.371-.81.661-1.342.87-.533.204-1.132.307-1.797.307Zm10.375 2.607v-4.218h.818c.2-.209.373-.435.518-.678.145-.243.27-.53.377-.863.111-.336.204-.745.281-1.227.077-.486.145-1.072.205-1.758l.332-3.886h6.239v8.412h1.508v4.218h-1.508V121h-7.262v2.812h-1.508Zm2.531-4.218h4.73v-7.006h-3.324l-.255 2.48a27.784 27.784 0 0 1-.397 2.691c-.157.767-.409 1.379-.754 1.835Zm13.866 1.611c-.946 0-1.762-.209-2.448-.627a4.207 4.207 0 0 1-1.579-1.764c-.367-.759-.55-1.641-.55-2.646 0-1.006.183-1.892.55-2.659.371-.772.886-1.373 1.547-1.803.665-.435 1.44-.652 2.327-.652.511 0 1.016.085 1.514.256.499.17.953.447 1.362.831.409.379.735.882.978 1.508.243.627.364 1.398.364 2.314v.639h-7.568v-1.304h6.034c0-.554-.111-1.048-.332-1.483a2.522 2.522 0 0 0-.933-1.029c-.401-.251-.874-.377-1.419-.377-.601 0-1.121.149-1.56.448a2.945 2.945 0 0 0-1.004 1.15c-.234.473-.351.98-.351 1.521v.87c0 .741.128 1.37.383 1.885.26.512.62.902 1.081 1.17.46.264.995.396 1.604.396.396 0 .754-.055 1.074-.166a2.29 2.29 0 0 0 .837-.511c.235-.23.416-.516.543-.857l1.458.409a3.226 3.226 0 0 1-.774 1.304 3.764 3.764 0 0 1-1.342.87c-.533.204-1.131.307-1.796.307Zm11.729-2.25 3.426-7.773h1.432L198.1 121h-1.227l-4.168-9.818h1.406l3.375 7.773Zm-3.86-7.773V121h-1.509v-9.818h1.509Zm7.721 9.818v-9.818h1.509V121h-1.509Zm8.259.205c-.887 0-1.664-.211-2.333-.633-.665-.422-1.185-1.012-1.56-1.771-.371-.758-.556-1.645-.556-2.659 0-1.023.185-1.915.556-2.678.375-.763.895-1.355 1.56-1.777.669-.422 1.446-.633 2.333-.633.886 0 1.662.211 2.326.633.669.422 1.189 1.014 1.56 1.777.375.763.563 1.655.563 2.678 0 1.014-.188 1.901-.563 2.659-.371.759-.891 1.349-1.56 1.771-.664.422-1.44.633-2.326.633Zm0-1.356c.673 0 1.227-.172 1.662-.517.434-.345.756-.799.965-1.362a5.206 5.206 0 0 0 .313-1.828c0-.656-.104-1.268-.313-1.834a3.102 3.102 0 0 0-.965-1.375c-.435-.349-.989-.524-1.662-.524-.674 0-1.228.175-1.662.524-.435.35-.757.808-.965 1.375a5.257 5.257 0 0 0-.314 1.834c0 .656.105 1.266.314 1.828.208.563.53 1.017.965 1.362.434.345.988.517 1.662.517Zm13.322-4.448v1.406h-5.42v-1.406h5.42Zm-5.062-4.219V121h-1.509v-9.818h1.509Zm6.213 0V121h-1.509v-9.818h1.509Zm6.743 10.023c-.92 0-1.713-.218-2.377-.652a4.244 4.244 0 0 1-1.534-1.797c-.358-.762-.537-1.634-.537-2.614 0-.997.183-1.877.549-2.64.371-.767.887-1.366 1.547-1.796.665-.435 1.441-.652 2.327-.652.69 0 1.312.128 1.866.384a3.572 3.572 0 0 1 1.362 1.073c.354.461.573.998.658 1.611h-1.508c-.115-.447-.371-.844-.767-1.189-.392-.349-.921-.524-1.586-.524-.588 0-1.103.153-1.546.46-.439.303-.782.731-1.03 1.285-.242.55-.364 1.195-.364 1.937 0 .758.119 1.419.358 1.981.243.563.584 1 1.023 1.311.443.311.963.466 1.559.466.392 0 .748-.068 1.068-.204.32-.136.59-.333.812-.588.221-.256.379-.563.473-.921h1.508a3.484 3.484 0 0 1-1.956 2.666c-.545.268-1.18.403-1.905.403Zm5.293-8.617v-1.406h7.977v1.406h-3.221V121h-1.509v-8.412h-3.247Zm10.178 12.094v-13.5h1.457v1.559h.179c.111-.17.264-.387.46-.652.201-.268.486-.507.857-.715.375-.213.882-.32 1.521-.32.827 0 1.556.207 2.186.62.631.413 1.123.999 1.477 1.758.354.758.53 1.653.53 2.684 0 1.04-.176 1.942-.53 2.704-.354.759-.844 1.347-1.47 1.765-.627.413-1.349.62-2.167.62-.631 0-1.136-.105-1.515-.314-.379-.213-.671-.454-.876-.722a9.992 9.992 0 0 1-.473-.678h-.128v5.191h-1.508Zm1.483-8.591c0 .741.108 1.396.326 1.962.217.563.535 1.004.952 1.323.418.316.929.473 1.534.473.631 0 1.157-.166 1.579-.498.426-.337.746-.789.959-1.355a5.325 5.325 0 0 0 .326-1.905c0-.69-.107-1.313-.32-1.867-.209-.558-.526-.999-.952-1.323-.422-.328-.953-.492-1.592-.492-.613 0-1.129.156-1.547.467-.417.307-.733.737-.946 1.291-.213.55-.319 1.191-.319 1.924Zm12.375 5.139a3.996 3.996 0 0 1-1.694-.351 2.906 2.906 0 0 1-1.208-1.03c-.299-.451-.448-.997-.448-1.636 0-.562.111-1.018.333-1.368.221-.354.517-.631.888-.831.371-.2.78-.349 1.227-.447.452-.103.906-.183 1.362-.243.597-.077 1.08-.134 1.451-.173.375-.042.648-.113.818-.211.175-.098.262-.268.262-.511v-.051c0-.631-.172-1.121-.518-1.47-.34-.35-.858-.524-1.553-.524-.72 0-1.285.157-1.694.473-.409.315-.696.652-.863 1.009l-1.431-.511c.255-.596.596-1.061 1.022-1.393a3.827 3.827 0 0 1 1.407-.703 5.808 5.808 0 0 1 1.508-.205c.315 0 .678.038 1.087.115.413.072.812.224 1.195.454.388.23.71.577.965 1.042.256.464.384 1.086.384 1.866V121h-1.509v-1.33h-.076a2.638 2.638 0 0 1-.512.684c-.238.243-.556.45-.952.62-.397.171-.88.256-1.451.256Zm.23-1.355c.596 0 1.099-.117 1.508-.352a2.387 2.387 0 0 0 1.253-2.077v-1.381c-.064.077-.204.147-.422.211-.213.06-.46.113-.741.16a31.625 31.625 0 0 1-1.445.192 5.755 5.755 0 0 0-1.099.249c-.337.111-.61.279-.818.505-.205.222-.307.524-.307.908 0 .524.194.92.582 1.189.392.264.888.396 1.489.396Zm14.745-8.693v8.412h1.38v4.576h-1.508V121h-7.594v-9.818h1.509v8.412h4.704v-8.412h1.509Zm5.212 7.594 4.731-7.594h1.738V121h-1.508v-7.594L280.594 121h-1.764v-9.818h1.508v7.594Zm10.741 0 4.73-7.594h1.738V121h-1.508v-7.594L291.334 121h-1.764v-9.818h1.509v7.594ZM33.5 150.597c-.516 0-.986-.126-1.413-.378a2.931 2.931 0 0 1-1.022-1.022 2.729 2.729 0 0 1-.378-1.413c0-.52.126-.991.378-1.413a2.89 2.89 0 0 1 1.022-1.016 2.69 2.69 0 0 1 1.413-.383c.52 0 .99.127 1.413.383.426.252.765.59 1.016 1.016.256.422.383.893.383 1.413 0 .516-.127.987-.383 1.413-.251.426-.59.767-1.016 1.022a2.702 2.702 0 0 1-1.413.378ZM56.281 153l-4.5-6.009h-1.61V153h-1.586v-13.091h1.585v5.676h.69l5.242-5.676h1.892l-5.292 5.753L58.173 153h-1.892Zm7.004.205c-.886 0-1.664-.211-2.333-.633-.664-.422-1.184-1.012-1.56-1.771-.37-.758-.556-1.645-.556-2.659 0-1.023.186-1.915.557-2.678.375-.763.895-1.355 1.56-1.777.668-.422 1.446-.633 2.332-.633.887 0 1.662.211 2.327.633.67.422 1.189 1.014 1.56 1.777.375.763.562 1.655.562 2.678 0 1.014-.187 1.901-.562 2.659-.371.759-.89 1.349-1.56 1.771-.665.422-1.44.633-2.327.633Zm0-1.356c.674 0 1.228-.172 1.662-.517a3.05 3.05 0 0 0 .965-1.362 5.211 5.211 0 0 0 .314-1.828 5.26 5.26 0 0 0-.314-1.834 3.096 3.096 0 0 0-.965-1.375c-.434-.349-.988-.524-1.662-.524-.673 0-1.227.175-1.662.524-.434.35-.756.808-.965 1.375a5.26 5.26 0 0 0-.313 1.834c0 .656.104 1.266.313 1.828a3.05 3.05 0 0 0 .965 1.362c.435.345.989.517 1.662.517ZM69.168 153v-1.406h.358c.294 0 .539-.058.735-.173.196-.119.353-.326.473-.62.123-.298.217-.712.28-1.24.07-.533.118-1.21.148-2.033l.179-4.346h6.545V153h-1.508v-8.412h-3.605l-.154 3.503a15.872 15.872 0 0 1-.217 2.128c-.106.61-.27 1.121-.492 1.535a2.256 2.256 0 0 1-.87.933c-.362.209-.816.313-1.361.313h-.511Zm12.995-2.224 4.73-7.594h1.738V153h-1.508v-7.594L82.418 153h-1.764v-9.818h1.509v7.594Zm16.8-7.594V153h-1.509v-9.818h1.509Zm-.588 4.679v1.406c-.341.128-.68.241-1.017.339-.337.094-.69.168-1.06.224-.372.051-.779.076-1.222.076-1.112 0-2.005-.3-2.678-.901-.67-.601-1.004-1.502-1.004-2.704v-3.145h1.509v3.145c0 .503.096.916.287 1.24.192.324.452.565.78.722.329.158.697.237 1.106.237.64 0 1.217-.058 1.732-.173.52-.119 1.042-.274 1.566-.466Zm7.472 5.344c-.946 0-1.762-.209-2.448-.627a4.207 4.207 0 0 1-1.579-1.764c-.367-.759-.55-1.641-.55-2.646 0-1.006.183-1.892.55-2.659.371-.772.886-1.373 1.547-1.803.664-.435 1.44-.652 2.326-.652.512 0 1.017.085 1.515.256.499.17.953.447 1.362.831.409.379.735.882.978 1.508.243.627.364 1.398.364 2.314v.639h-7.568v-1.304h6.034c0-.554-.111-1.048-.332-1.483a2.517 2.517 0 0 0-.934-1.029c-.4-.251-.873-.377-1.419-.377-.6 0-1.12.149-1.559.448a2.945 2.945 0 0 0-1.004 1.15c-.234.473-.351.98-.351 1.521v.87c0 .741.127 1.37.383 1.885.26.512.62.902 1.08 1.17.461.264.995.396 1.605.396.396 0 .754-.055 1.074-.166.323-.115.603-.285.837-.511a2.33 2.33 0 0 0 .543-.857l1.458.409a3.237 3.237 0 0 1-.774 1.304 3.764 3.764 0 0 1-1.342.87c-.533.204-1.131.307-1.796.307Zm10.348 0c-.92 0-1.713-.218-2.377-.652-.665-.435-1.176-1.034-1.534-1.797-.358-.762-.537-1.634-.537-2.614 0-.997.183-1.877.549-2.64.371-.767.887-1.366 1.547-1.796.665-.435 1.441-.652 2.327-.652.69 0 1.312.128 1.866.384a3.572 3.572 0 0 1 1.362 1.073c.354.461.573.998.658 1.611h-1.508c-.115-.447-.371-.844-.767-1.189-.392-.349-.921-.524-1.586-.524-.588 0-1.103.153-1.546.46-.439.303-.782.731-1.03 1.285-.242.55-.364 1.195-.364 1.937 0 .758.119 1.419.358 1.981.243.563.584 1 1.023 1.311.443.311.963.466 1.559.466a2.7 2.7 0 0 0 1.068-.204c.32-.136.59-.333.812-.588.221-.256.379-.563.473-.921h1.508a3.484 3.484 0 0 1-1.956 2.666c-.545.268-1.18.403-1.905.403Zm5.293-8.617v-1.406h7.977v1.406h-3.221V153h-1.509v-8.412h-3.247ZM131.666 153v-9.818h4.014c1.057 0 1.896.238 2.519.716.622.477.933 1.108.933 1.892 0 .596-.177 1.059-.531 1.387-.353.324-.807.543-1.361.658.362.051.713.179 1.054.384.346.204.631.486.857.843.226.354.339.789.339 1.304 0 .503-.128.953-.384 1.349-.256.397-.622.71-1.099.94-.478.23-1.049.345-1.713.345h-4.628Zm1.432-1.381h3.196c.52 0 .927-.123 1.221-.37.294-.248.441-.584.441-1.01 0-.507-.147-.906-.441-1.196-.294-.294-.701-.441-1.221-.441h-3.196v3.017Zm0-4.321h2.582c.405 0 .752-.055 1.042-.166.29-.115.511-.277.665-.486.157-.213.236-.464.236-.754 0-.413-.172-.737-.518-.972-.345-.238-.82-.358-1.425-.358h-2.582v2.736Zm12.664 5.907c-.886 0-1.664-.211-2.333-.633-.665-.422-1.185-1.012-1.56-1.771-.371-.758-.556-1.645-.556-2.659 0-1.023.185-1.915.556-2.678.375-.763.895-1.355 1.56-1.777.669-.422 1.447-.633 2.333-.633.886 0 1.662.211 2.327.633.669.422 1.189 1.014 1.559 1.777.375.763.563 1.655.563 2.678 0 1.014-.188 1.901-.563 2.659-.37.759-.89 1.349-1.559 1.771-.665.422-1.441.633-2.327.633Zm0-1.356c.673 0 1.227-.172 1.662-.517.434-.345.756-.799.965-1.362a5.206 5.206 0 0 0 .313-1.828c0-.656-.104-1.268-.313-1.834a3.102 3.102 0 0 0-.965-1.375c-.435-.349-.989-.524-1.662-.524-.673 0-1.227.175-1.662.524-.435.35-.756.808-.965 1.375a5.256 5.256 0 0 0-.313 1.834c0 .656.104 1.266.313 1.828.209.563.53 1.017.965 1.362.435.345.989.517 1.662.517Zm17.183-.894 3.426-7.773h1.432L163.559 153h-1.227l-4.168-9.818h1.406l3.375 7.773Zm-3.86-7.773V153h-1.509v-9.818h1.509Zm7.721 9.818v-9.818h1.509V153h-1.509Zm8.386.205c-.946 0-1.762-.209-2.448-.627a4.207 4.207 0 0 1-1.579-1.764c-.366-.759-.549-1.641-.549-2.646 0-1.006.183-1.892.549-2.659.371-.772.887-1.373 1.547-1.803.665-.435 1.441-.652 2.327-.652.511 0 1.016.085 1.515.256.499.17.952.447 1.361.831.41.379.736.882.978 1.508.243.627.365 1.398.365 2.314v.639h-7.568v-1.304h6.034c0-.554-.111-1.048-.333-1.483a2.508 2.508 0 0 0-.933-1.029c-.4-.251-.873-.377-1.419-.377-.601 0-1.121.149-1.56.448a2.942 2.942 0 0 0-1.003 1.15c-.235.473-.352.98-.352 1.521v.87c0 .741.128 1.37.384 1.885.26.512.62.902 1.08 1.17.46.264.995.396 1.604.396.397 0 .755-.055 1.074-.166.324-.115.603-.285.838-.511a2.33 2.33 0 0 0 .543-.857l1.457.409a3.224 3.224 0 0 1-.773 1.304c-.362.371-.81.661-1.342.87-.533.204-1.132.307-1.797.307Zm10.349 0c-.92 0-1.713-.218-2.378-.652-.664-.435-1.176-1.034-1.534-1.797-.358-.762-.537-1.634-.537-2.614 0-.997.184-1.877.55-2.64.371-.767.886-1.366 1.547-1.796.665-.435 1.44-.652 2.327-.652.69 0 1.312.128 1.866.384a3.572 3.572 0 0 1 1.362 1.073c.353.461.573.998.658 1.611h-1.509c-.115-.447-.37-.844-.767-1.189-.392-.349-.92-.524-1.585-.524-.588 0-1.103.153-1.547.46-.439.303-.782.731-1.029 1.285-.243.55-.364 1.195-.364 1.937 0 .758.119 1.419.358 1.981.243.563.584 1 1.023 1.311.443.311.963.466 1.559.466.392 0 .748-.068 1.068-.204.319-.136.59-.333.811-.588.222-.256.38-.563.473-.921h1.509a3.484 3.484 0 0 1-1.956 2.666c-.545.268-1.18.403-1.905.403Zm5.293-8.617v-1.406h7.977v1.406h-3.222V153h-1.508v-8.412h-3.247Zm21.811 2.813v1.406h-5.42v-1.406h5.42Zm-5.062-4.219V153h-1.509v-9.818h1.509Zm6.213 0V153h-1.509v-9.818h1.509Zm6.871 10.023c-.946 0-1.762-.209-2.448-.627a4.207 4.207 0 0 1-1.579-1.764c-.366-.759-.55-1.641-.55-2.646 0-1.006.184-1.892.55-2.659.371-.772.886-1.373 1.547-1.803.665-.435 1.44-.652 2.327-.652.511 0 1.016.085 1.515.256.498.17.952.447 1.361.831.409.379.735.882.978 1.508.243.627.364 1.398.364 2.314v.639h-7.568v-1.304h6.034c0-.554-.11-1.048-.332-1.483a2.508 2.508 0 0 0-.933-1.029c-.401-.251-.874-.377-1.419-.377-.601 0-1.121.149-1.56.448a2.945 2.945 0 0 0-1.004 1.15c-.234.473-.351.98-.351 1.521v.87c0 .741.128 1.37.383 1.885.26.512.62.902 1.081 1.17.46.264.995.396 1.604.396.396 0 .754-.055 1.074-.166a2.29 2.29 0 0 0 .837-.511c.235-.23.416-.516.544-.857l1.457.409a3.224 3.224 0 0 1-.773 1.304c-.363.371-.81.661-1.343.87-.532.204-1.131.307-1.796.307Zm15.411 0c-.886 0-1.664-.211-2.333-.633-.665-.422-1.184-1.012-1.559-1.771-.371-.758-.557-1.645-.557-2.659 0-1.023.186-1.915.557-2.678.375-.763.894-1.355 1.559-1.777.669-.422 1.447-.633 2.333-.633.887 0 1.662.211 2.327.633.669.422 1.189 1.014 1.56 1.777.375.763.562 1.655.562 2.678 0 1.014-.187 1.901-.562 2.659-.371.759-.891 1.349-1.56 1.771-.665.422-1.44.633-2.327.633Zm0-1.356c.674 0 1.228-.172 1.662-.517.435-.345.757-.799.965-1.362a5.207 5.207 0 0 0 .314-1.828c0-.656-.105-1.268-.314-1.834a3.087 3.087 0 0 0-.965-1.375c-.434-.349-.988-.524-1.662-.524-.673 0-1.227.175-1.662.524-.434.35-.756.808-.965 1.375a5.256 5.256 0 0 0-.313 1.834c0 .656.104 1.266.313 1.828.209.563.531 1.017.965 1.362.435.345.989.517 1.662.517Zm12.812-8.667v1.406h-4.552V153h-1.508v-9.818h6.06Zm2.202 13.5v-13.5h1.457v1.559h.179c.111-.17.264-.387.46-.652.2-.268.486-.507.857-.715.375-.213.882-.32 1.521-.32.827 0 1.555.207 2.186.62.631.413 1.123.999 1.477 1.758.353.758.53 1.653.53 2.684 0 1.04-.177 1.942-.53 2.704-.354.759-.844 1.347-1.47 1.765-.627.413-1.349.62-2.167.62-.631 0-1.136-.105-1.515-.314-.38-.213-.671-.454-.876-.722a9.64 9.64 0 0 1-.473-.678h-.128v5.191h-1.508Zm1.483-8.591c0 .741.108 1.396.326 1.962.217.563.534 1.004.952 1.323.418.316.929.473 1.534.473.631 0 1.157-.166 1.579-.498.426-.337.746-.789.959-1.355a5.325 5.325 0 0 0 .326-1.905c0-.69-.107-1.313-.32-1.867-.209-.558-.526-.999-.952-1.323-.422-.328-.953-.492-1.592-.492-.614 0-1.129.156-1.547.467-.417.307-.733.737-.946 1.291-.213.55-.319 1.191-.319 1.924Zm12.375 5.139a3.993 3.993 0 0 1-1.694-.351 2.906 2.906 0 0 1-1.208-1.03c-.299-.451-.448-.997-.448-1.636 0-.562.111-1.018.333-1.368.221-.354.517-.631.888-.831.371-.2.78-.349 1.227-.447.452-.103.906-.183 1.362-.243.596-.077 1.08-.134 1.451-.173.375-.042.648-.113.818-.211.175-.098.262-.268.262-.511v-.051c0-.631-.173-1.121-.518-1.47-.341-.35-.858-.524-1.553-.524-.72 0-1.285.157-1.694.473-.409.315-.697.652-.863 1.009l-1.432-.511c.256-.596.597-1.061 1.023-1.393a3.83 3.83 0 0 1 1.406-.703 5.821 5.821 0 0 1 1.509-.205c.315 0 .677.038 1.087.115.413.072.811.224 1.195.454.388.23.709.577.965 1.042.256.464.384 1.086.384 1.866V153h-1.509v-1.33h-.077a2.609 2.609 0 0 1-.511.684c-.239.243-.556.45-.952.62-.397.171-.88.256-1.451.256Zm.23-1.355c.596 0 1.099-.117 1.508-.352.414-.234.725-.536.933-.907.214-.371.32-.761.32-1.17v-1.381c-.064.077-.204.147-.422.211-.213.06-.46.113-.741.16a31.625 31.625 0 0 1-1.445.192 5.755 5.755 0 0 0-1.099.249c-.337.111-.61.279-.819.505-.204.222-.306.524-.306.908 0 .524.194.92.581 1.189.392.264.889.396 1.49.396Zm13.594-4.474v1.406h-5.42v-1.406h5.42Zm-5.063-4.219V153h-1.508v-9.818h1.508Zm6.214 0V153h-1.509v-9.818h1.509Zm4.263 7.594 4.73-7.594h1.739V153h-1.509v-7.594L284.444 153h-1.764v-9.818h1.508v7.594Zm16.8-7.594V153h-1.509v-9.818h1.509Zm-.588 4.679v1.406c-.341.128-.68.241-1.016.339a8.89 8.89 0 0 1-1.062.224c-.37.051-.777.076-1.22.076-1.113 0-2.005-.3-2.679-.901-.669-.601-1.003-1.502-1.003-2.704v-3.145h1.508v3.145c0 .503.096.916.288 1.24.192.324.452.565.78.722.328.158.696.237 1.106.237a7.98 7.98 0 0 0 1.732-.173 12.94 12.94 0 0 0 1.566-.466Zm7.472 5.344c-.946 0-1.762-.209-2.448-.627a4.207 4.207 0 0 1-1.579-1.764c-.366-.759-.55-1.641-.55-2.646 0-1.006.184-1.892.55-2.659.371-.772.887-1.373 1.547-1.803.665-.435 1.44-.652 2.327-.652.511 0 1.016.085 1.515.256.498.17.952.447 1.361.831.409.379.735.882.978 1.508.243.627.365 1.398.365 2.314v.639h-7.569v-1.304h6.034c0-.554-.11-1.048-.332-1.483a2.508 2.508 0 0 0-.933-1.029c-.401-.251-.874-.377-1.419-.377-.601 0-1.121.149-1.56.448a2.934 2.934 0 0 0-1.003 1.15c-.235.473-.352.98-.352 1.521v.87c0 .741.128 1.37.384 1.885.259.512.62.902 1.08 1.17.46.264.995.396 1.604.396.396 0 .754-.055 1.074-.166a2.29 2.29 0 0 0 .837-.511c.235-.23.416-.516.544-.857l1.457.409a3.224 3.224 0 0 1-.773 1.304c-.363.371-.81.661-1.343.87-.532.204-1.131.307-1.796.307Zm12.931-5.804v1.406h-5.42v-1.406h5.42Zm-5.062-4.219V153h-1.509v-9.818h1.509Zm6.213 0V153h-1.509v-9.818h1.509Zm6.743 10.023c-.886 0-1.664-.211-2.333-.633-.664-.422-1.184-1.012-1.559-1.771-.371-.758-.556-1.645-.556-2.659 0-1.023.185-1.915.556-2.678.375-.763.895-1.355 1.559-1.777.669-.422 1.447-.633 2.333-.633.887 0 1.662.211 2.327.633.669.422 1.189 1.014 1.56 1.777.375.763.562 1.655.562 2.678 0 1.014-.187 1.901-.562 2.659-.371.759-.891 1.349-1.56 1.771-.665.422-1.44.633-2.327.633Zm0-1.356c.674 0 1.228-.172 1.662-.517a3.05 3.05 0 0 0 .966-1.362 5.23 5.23 0 0 0 .313-1.828 5.28 5.28 0 0 0-.313-1.834 3.096 3.096 0 0 0-.966-1.375c-.434-.349-.988-.524-1.662-.524-.673 0-1.227.175-1.661.524-.435.35-.757.808-.966 1.375a5.28 5.28 0 0 0-.313 1.834c0 .656.105 1.266.313 1.828a3.05 3.05 0 0 0 .966 1.362c.434.345.988.517 1.661.517Z" fill="#fff"/><path d="M440 83H2.5v117.5" stroke="#fff" stroke-width="5"/><path d="M202.268 199.232a2.501 2.501 0 0 1 0 3.536l-15.91 15.91a2.501 2.501 0 0 1-3.536-3.536L196.964 201l-14.142-14.142a2.501 2.501 0 0 1 3.536-3.536l15.91 15.91ZM0 198.5h200.5v5H0v-5Z" fill="#fff"/></svg>