<svg width="44" height="44" viewBox="0 0 44 44" fill="none" xmlns="http://www.w3.org/2000/svg">
<path d="M31 10.75C31 9.50734 32.0073 8.49998 33.25 8.49998C34.4926 8.49998 35.5 9.50734 35.5 10.75C35.5 11.9926 34.4926 13 33.25 13C32.0073 13 31 11.9926 31 10.75Z" fill="white"></path>
<path fill-rule="evenodd" clip-rule="evenodd" d="M22 11.3125C16.0974 11.3125 11.3125 16.0974 11.3125 22C11.3125 27.9025 16.0974 32.6875 22 32.6875C27.9025 32.6875 32.6875 27.9025 32.6875 22C32.6875 16.0974 27.9025 11.3125 22 11.3125ZM14.6875 22C14.6875 17.9614 17.9614 14.6875 22 14.6875C26.0386 14.6875 29.3125 17.9614 29.3125 22C29.3125 26.0386 26.0386 29.3125 22 29.3125C17.9614 29.3125 14.6875 26.0386 14.6875 22Z" fill="white"></path>
<path fill-rule="evenodd" clip-rule="evenodd" d="M33.8311 1.37427C26.0313 0.502524 17.9688 0.502524 10.169 1.37427C5.64184 1.88024 1.98709 5.44651 1.45484 9.9972C0.522132 17.9719 0.522132 26.0281 1.45484 34.0028C1.98709 38.5534 5.64184 42.1197 10.169 42.6257C17.9688 43.4974 26.0313 43.4974 33.8311 42.6257C38.3582 42.1197 42.0129 38.5534 42.5452 34.0028C43.4779 26.0281 43.4779 17.9719 42.5452 9.9972C42.0129 5.44651 38.3582 1.88024 33.8311 1.37427ZM10.5438 4.72838C18.0945 3.88448 25.9055 3.88448 33.4562 4.72838C36.4489 5.06286 38.8463 7.4245 39.193 10.3893C40.0953 18.1035 40.0953 25.8965 39.193 33.6107C38.8463 36.5755 36.4489 38.9371 33.4562 39.2716C25.9055 40.1155 18.0945 40.1155 10.5438 39.2716C7.5511 38.9371 5.15375 36.5755 4.80699 33.6107C3.90475 25.8965 3.90475 18.1035 4.80699 10.3893C5.15375 7.4245 7.5511 5.06286 10.5438 4.72838Z" fill="white"></path>
</svg>
