<svg width="46" height="41" viewBox="0 0 46 41" fill="none" xmlns="http://www.w3.org/2000/svg">
<path fill-rule="evenodd" clip-rule="evenodd" d="M10.0221 24.5441C10.1206 24.5773 10.22 24.6008 10.3193 24.6153C10.4276 24.8698 10.5676 25.1991 10.7308 25.5841C11.1292 26.5238 11.6661 27.7946 12.2202 29.1204C13.3502 31.8243 14.4901 34.6114 14.7419 35.4091C15.0535 36.3954 15.3829 37.0659 15.7426 37.5236C15.9285 37.7603 16.1436 37.967 16.3952 38.1235C16.5219 38.2023 16.6557 38.2669 16.7954 38.3151C16.8015 38.3172 16.8077 38.3193 16.8138 38.3213C17.5339 38.5932 18.1903 38.4799 18.6013 38.3415C18.8212 38.2674 18.9992 38.1779 19.1253 38.1054C19.1896 38.0685 19.2439 38.0339 19.2872 38.0048L19.2975 37.9979L25.6565 34.0323L33.0016 39.6636C33.11 39.7468 33.2282 39.8164 33.3534 39.8711C34.2358 40.2561 35.0903 40.3905 35.8942 40.2807C36.6966 40.171 37.3337 39.8339 37.808 39.4545C38.2724 39.0829 38.5873 38.6668 38.7833 38.3575C38.8834 38.1996 38.9586 38.0599 39.0116 37.953C39.0383 37.8992 39.0597 37.8529 39.0762 37.8157L39.0975 37.7666L39.1054 37.7474L39.1088 37.7391L39.1103 37.7354L39.1117 37.7318C39.1503 37.6353 39.1799 37.5355 39.2001 37.4335L45.9057 3.62616C45.9271 3.51804 45.9379 3.40808 45.9379 3.29785C45.9379 2.30782 45.5649 1.36642 44.6877 0.795159C43.9381 0.306915 43.1029 0.285899 42.5751 0.32596C42.0058 0.369175 41.4799 0.509727 41.1271 0.622038C40.9435 0.680487 40.7895 0.736881 40.6785 0.779903C40.6227 0.801526 40.577 0.820077 40.5429 0.834225L40.5173 0.844995L2.91146 15.5972L2.90659 15.599C2.88262 15.6077 2.85185 15.6192 2.81529 15.6334C2.74247 15.6618 2.6449 15.7017 2.53093 15.7534C2.30867 15.8541 1.99686 16.0115 1.6769 16.2306C1.16572 16.5807 -0.00988117 17.5394 0.188076 19.1218C0.346001 20.3843 1.21086 21.1596 1.73778 21.5324C2.02712 21.7371 2.30199 21.8835 2.50217 21.9788C2.59504 22.0231 2.78786 22.1014 2.87152 22.1354L2.89263 22.144L10.0221 24.5441ZM41.8334 3.95269L41.8282 3.95497C41.8094 3.96312 41.7906 3.97092 41.7716 3.97837L4.12004 18.7485C4.10038 18.7562 4.08058 18.7636 4.06064 18.7705L4.03968 18.7785C4.0156 18.7879 3.97504 18.8043 3.92414 18.8274C3.89528 18.8405 3.86516 18.8547 3.83445 18.8701C3.87664 18.8938 3.91702 18.9145 3.9529 18.9315C3.98735 18.9479 4.01363 18.9592 4.02801 18.9651L11.0989 21.3455C11.2283 21.3891 11.349 21.4468 11.4597 21.5164L34.8075 7.84882L34.8293 7.8359C34.8464 7.82586 34.8687 7.81294 34.8954 7.79781C34.9486 7.76777 35.0216 7.72777 35.1084 7.68358C35.2705 7.60111 35.5297 7.47868 35.8218 7.38842C36.0251 7.32557 36.6247 7.14852 37.2729 7.35643C37.673 7.48475 38.0872 7.76062 38.3566 8.22796C38.4905 8.46014 38.5618 8.69337 38.5963 8.90687C38.6881 9.24321 38.6735 9.57531 38.6017 9.86204C38.447 10.4797 38.0131 10.9615 37.6182 11.33C37.28 11.6459 32.9028 15.8666 28.5847 20.033C26.4314 22.1108 24.3 24.168 22.7069 25.7059L21.6605 26.716L34.8723 36.8451C35.1754 36.9536 35.3545 36.948 35.4374 36.9367C35.5361 36.9232 35.6169 36.8852 35.6995 36.8192C35.7918 36.7453 35.8725 36.6456 35.9329 36.5504L35.9353 36.5465L42.4389 3.75729C42.3424 3.78049 42.2448 3.80811 42.1507 3.83805C42.0442 3.87196 41.9564 3.90426 41.8981 3.92684C41.8693 3.93801 41.8485 3.94649 41.8372 3.95117L41.8334 3.95269ZM22.7956 31.839L20.1597 29.8181L19.521 33.881L22.7956 31.839ZM17.7417 25.8082L20.3629 23.2777C21.9561 21.7397 24.0877 19.6823 26.2413 17.6043L28.4294 15.4933L13.7593 24.081L13.838 24.2666C14.2379 25.2096 14.7771 26.4861 15.3341 27.819C15.7507 28.8156 16.1863 29.865 16.583 30.8366L17.2198 26.7856C17.2812 26.3951 17.472 26.057 17.7417 25.8082Z" fill="white"></path>
</svg>
