<svg width="46" height="46" viewBox="0 0 46 46" fill="none" xmlns="http://www.w3.org/2000/svg">
<path d="M15.9934 12.1322C16.405 12.1432 16.8614 12.1655 17.2957 13.1293C17.5836 13.771 18.0687 14.9522 18.4638 15.9145C18.7712 16.6632 19.0243 17.2794 19.0876 17.4055C19.2322 17.6935 19.3213 18.0258 19.1321 18.4135C19.1098 18.4592 19.0887 18.503 19.0684 18.5451C18.9166 18.8601 18.8086 19.0842 18.5534 19.3774C18.4484 19.4978 18.3391 19.6299 18.2302 19.7616C18.0386 19.993 17.8483 20.223 17.6852 20.3855C17.3958 20.6733 17.0952 20.9838 17.4291 21.5598C17.7631 22.1358 18.9318 24.0302 20.657 25.559C22.5118 27.2103 24.1246 27.9061 24.9399 28.2579C25.0981 28.3262 25.2264 28.3815 25.3205 28.4283C25.8994 28.7163 26.2443 28.672 26.5782 28.2843C26.9123 27.8965 28.0252 26.6003 28.4148 26.0243C28.7932 25.4483 29.1827 25.537 29.7171 25.7363C30.2513 25.9357 33.1006 27.3315 33.6793 27.6195C33.7937 27.6765 33.9007 27.7278 33.9999 27.7753C34.4026 27.9685 34.6763 28.0997 34.7924 28.2954C34.9371 28.5391 34.9371 29.6912 34.4585 31.0428C33.9689 32.3943 31.6092 33.6905 30.5406 33.7901C30.4395 33.7997 30.3388 33.8119 30.2352 33.8244C29.256 33.9429 28.0129 34.0932 23.5842 32.35C18.1271 30.204 14.5248 24.8797 13.7964 23.8032C13.739 23.7182 13.6994 23.6597 13.6782 23.6313L13.6659 23.6148C13.3345 23.1714 11.3074 20.459 11.3074 17.6604C11.3074 14.9829 12.6264 13.5888 13.228 12.953C13.2661 12.9127 13.3014 12.8755 13.3332 12.8411C13.8674 12.2651 14.4908 12.1211 14.8803 12.1211C15.27 12.1211 15.6595 12.1211 15.9934 12.1322Z" fill="white"></path>
<path fill-rule="evenodd" clip-rule="evenodd" d="M0.914406 43.9957C0.730318 44.6639 1.33892 45.2807 2.00953 45.1055L12.376 42.3978C15.6483 44.1703 19.3325 45.1119 23.0836 45.1119H23.0946C35.4381 45.1119 45.5 35.1083 45.5 22.8116C45.5 16.8515 43.1736 11.2459 38.9441 7.03605C34.7147 2.82642 29.0938 0.5 23.0944 0.5C10.7512 0.5 0.689241 10.5036 0.689241 22.8006C0.687838 26.7125 1.7204 30.556 3.68328 33.9451L0.914406 43.9957ZM6.93706 34.8415C7.17741 33.9691 7.05734 33.0367 6.60382 32.2537C4.93848 29.3782 4.06305 26.1174 4.06424 22.8006C4.06424 12.3836 12.5991 3.875 23.0944 3.875C28.2017 3.875 32.9665 5.84822 36.5633 9.42812C40.1559 13.0041 42.125 17.7487 42.125 22.8116C42.125 33.2283 33.5902 41.7369 23.0946 41.7369H23.0836C19.8964 41.7369 16.7644 40.9366 13.9835 39.4302C13.2308 39.0225 12.3513 38.9161 11.5231 39.1324L5.3077 40.7558L6.93706 34.8415Z" fill="white"></path>
</svg>
